<svg width="35" height="30" viewBox="0 0 35 30" fill="none" xmlns="http://www.w3.org/2000/svg">
<path d="M8.43321 9.22953C8.26302 8.5939 8.89442 8.03838 9.50321 8.28814L13.1896 10.1956C13.5204 10.3313 13.901 10.2316 14.12 9.94905L17.6765 4.96288C17.9949 4.55209 18.6153 4.55209 18.9337 4.96288L22.4902 9.94905C22.7092 10.2316 23.0898 10.3313 23.4206 10.1956L27.107 8.28814C27.7158 8.03838 28.3472 8.59389 28.177 9.22953L26.0183 19.2103C25.9251 19.558 25.6101 19.7998 25.2501 19.7998H11.3601C11.0001 19.7998 10.685 19.558 10.5919 19.2103L8.43321 9.22953Z" fill="#FFCD00"/>
<path d="M26.0184 19.2106C25.9252 19.5581 25.6101 19.7999 25.2504 19.8001H11.3602C11.0004 19.8001 10.6854 19.5582 10.5922 19.2106L10.2947 17.812H26.3182L26.0184 19.2106Z" fill="#FF8700"/>
<path d="M18.0251 9.33068C18.1825 9.10722 18.5294 9.10722 18.6868 9.33068L20.5946 12.0395C20.6837 12.1659 20.6837 12.3306 20.5946 12.457L18.6868 15.1658C18.5294 15.3892 18.1825 15.3892 18.0251 15.1658L16.1173 12.457C16.0283 12.3306 16.0283 12.1659 16.1173 12.0395L18.0251 9.33068Z" fill="#FFE889"/>
<path d="M10.1715 8.23066C10.1715 9.16571 9.41352 9.92372 8.47847 9.92372C7.54341 9.92372 6.7854 9.16571 6.7854 8.23066C6.7854 7.29561 7.54341 6.5376 8.47847 6.5376C9.41352 6.5376 10.1715 7.29561 10.1715 8.23066Z" fill="#FF8700"/>
<path d="M29.924 8.23066C29.924 9.16571 29.166 9.92372 28.2309 9.92372C27.2959 9.92372 26.5378 9.16571 26.5378 8.23066C26.5378 7.29561 27.2959 6.5376 28.2309 6.5376C29.166 6.5376 29.924 7.29561 29.924 8.23066Z" fill="#FF8700"/>
<path d="M20.0478 4.49311C20.0478 5.42816 19.2897 6.18617 18.3547 6.18617C17.4196 6.18617 16.6616 5.42816 16.6616 4.49311C16.6616 3.55806 17.4196 2.80005 18.3547 2.80005C19.2897 2.80005 20.0478 3.55806 20.0478 4.49311Z" fill="#FF8700"/>
<path d="M0 27.6875V22.0312H2.01562C3.33203 22.0312 3.97656 22.8203 3.97656 23.8672C3.97656 24.9102 3.32812 25.7031 2.01562 25.7031H0.859375V27.6875H0ZM0.859375 24.9688H1.92969C2.76172 24.9727 3.10938 24.5039 3.10938 23.8672C3.10938 23.2266 2.76172 22.7695 1.92969 22.7656H0.859375V24.9688ZM4.88281 27.6875V22.0312H6.89844C8.21484 22.0312 8.85938 22.7617 8.85938 23.8047C8.85938 24.5664 8.51562 25.1406 7.82812 25.4023L9.07812 27.6875H8.10156L6.95312 25.5547H6.89844H5.74219V27.6875H4.88281ZM5.74219 24.8125H6.8125C7.64453 24.8086 7.99219 24.4414 7.99219 23.8047C7.99219 23.168 7.64453 22.7695 6.8125 22.7656H5.74219V24.8125ZM9.8125 27.6875V22.0312H13.3594V22.7734H10.6719V24.4844H13.1719V25.2188H10.6719V26.9453H13.3906V27.6875H9.8125ZM14.4141 22.0312H15.4609L17.25 26.4141H17.3203L19.1094 22.0312H20.1562V27.6875H19.3359V23.6016H19.2812L17.625 27.6797H16.9453L15.2812 23.5938H15.2344V27.6875H14.4141V22.0312ZM22.1719 22.0312V27.6875H21.3125V22.0312H22.1719ZM26.9531 22.0312H27.8125V25.75C27.8164 26.9375 26.9219 27.7812 25.5703 27.7812C24.207 27.7812 23.3164 26.9375 23.3203 25.75V22.0312H24.1797V25.6797C24.1758 26.4453 24.7109 26.9961 25.5703 27C26.4258 26.9961 26.9531 26.4453 26.9531 25.6797V22.0312ZM28.9688 22.0312H30.0156L31.8047 26.4141H31.875L33.6641 22.0312H34.7109V27.6875H33.8906V23.6016H33.8359L32.1797 27.6797H31.5L29.8359 23.5938H29.7891V27.6875H28.9688V22.0312Z" fill="#FF8700"/>
</svg>
