<svg width="18" height="18" viewBox="0 0 18 18" fill="none" xmlns="http://www.w3.org/2000/svg">
<g clip-path="url(#clip0_4902_6479)">
<path d="M6.52495 15.9547L1.90525 14.6299C1.7104 14.5741 1.57495 14.3846 1.57495 14.1682V3.98241C1.57495 3.66831 1.85215 3.43971 2.13475 3.52071L6.52495 4.77981V15.9547Z" fill="#D0D5DC"/>
<path d="M6.5249 15.9547L11.4749 14.5354V3.36011L6.5249 4.77986V15.9547Z" fill="#E1E4E7"/>
<path d="M15.8651 15.7941L11.4749 14.535V3.36011L16.0946 4.68491C16.2894 4.74071 16.4249 4.93016 16.4249 5.14661V15.3324C16.4249 15.6465 16.1477 15.8751 15.8651 15.7941Z" fill="#D0D5DC"/>
<path d="M11.799 8.76241C12.2197 8.31781 12.9811 7.51861 13.6561 6.84046C14.9422 5.54761 15.03 3.34126 13.7281 2.06461C13.1026 1.45126 12.289 1.14481 11.475 1.14526C10.6614 1.14526 9.84779 1.45126 9.22229 2.06461C7.91954 3.34171 8.00774 5.54806 9.29429 6.84091C9.96929 7.51906 10.732 8.31826 11.1528 8.76286C11.3283 8.94826 11.623 8.94781 11.7985 8.76286L11.799 8.76241Z" fill="#5288FF"/>
<path d="M11.4754 5.31817C12.003 5.31817 12.4307 4.89045 12.4307 4.36282C12.4307 3.8352 12.003 3.40747 11.4754 3.40747C10.9477 3.40747 10.52 3.8352 10.52 4.36282C10.52 4.89045 10.9477 5.31817 11.4754 5.31817Z" fill="#FBFBFB"/>
</g>
<defs>
<clipPath id="clip0_4902_6479">
<rect width="18" height="18" fill="white"/>
</clipPath>
</defs>
</svg>
