<svg width="18" height="18" viewBox="0 0 18 18" fill="none" xmlns="http://www.w3.org/2000/svg">
<g clip-path="url(#clip0_4902_1084)">
<path d="M1.9764 2.94519H16.0236C16.4939 2.94519 16.875 3.32634 16.875 3.79659V14.2028C16.875 14.6731 16.4939 15.0542 16.0236 15.0542H1.9764C1.50615 15.0542 1.125 14.6731 1.125 14.2028V3.79659C1.125 3.32634 1.50615 2.94519 1.9764 2.94519Z" fill="#CCDCFF"/>
<path d="M6.02001 8.77671C6.77454 8.77671 7.38621 8.16504 7.38621 7.41051C7.38621 6.65598 6.77454 6.04431 6.02001 6.04431C5.26548 6.04431 4.65381 6.65598 4.65381 7.41051C4.65381 8.16504 5.26548 8.77671 6.02001 8.77671Z" fill="#5288FF"/>
<path d="M6.02004 9.37073C7.88934 9.37073 8.60844 10.6649 8.60844 11.24C8.60844 11.8151 7.09869 11.9591 6.02004 11.9591C4.94139 11.9591 3.43164 11.8151 3.43164 11.24C3.43164 10.5929 4.15074 9.37073 6.02004 9.37073Z" fill="#5288FF"/>
<path d="M14.251 7.46098H10.1344C9.89322 7.46098 9.69702 7.26523 9.69702 7.02358C9.69702 6.78193 9.89322 6.58618 10.1344 6.58618H14.251C14.4922 6.58618 14.6884 6.78193 14.6884 7.02358C14.6884 7.26523 14.4922 7.46098 14.251 7.46098Z" fill="#5288FF"/>
<path d="M14.251 9.4373H11.4596C11.2184 9.4373 11.0222 9.24155 11.0222 8.9999C11.0222 8.75825 11.2184 8.5625 11.4596 8.5625H14.251C14.4922 8.5625 14.6884 8.75825 14.6884 8.9999C14.6884 9.24155 14.4922 9.4373 14.251 9.4373Z" fill="#5288FF"/>
<path d="M14.251 11.4137H11.4596C11.2184 11.4137 11.0222 11.218 11.0222 10.9763C11.0222 10.7347 11.2184 10.5389 11.4596 10.5389H14.251C14.4922 10.5389 14.6884 10.7347 14.6884 10.9763C14.6884 11.218 14.4922 11.4137 14.251 11.4137Z" fill="#5288FF"/>
</g>
<defs>
<clipPath id="clip0_4902_1084">
<rect width="18" height="18" fill="white"/>
</clipPath>
</defs>
</svg>
