<svg width="100" height="105" viewBox="0 0 100 105" fill="none" xmlns="http://www.w3.org/2000/svg">
<g clip-path="url(#clip0_712_8810)">
<path d="M33.4128 92.0399L32.2379 97.0099C31.7182 99.2085 33.0781 101.412 35.2753 101.931C37.4725 102.451 39.675 101.089 40.1947 98.8908L41.3696 93.9208C41.8893 91.7223 40.5294 89.519 38.3322 88.9996C36.135 88.4802 33.9325 89.8414 33.4128 92.0399Z" fill="#FABC29"/>
<path d="M36.2114 103.153C35.8147 103.153 35.4131 103.108 35.0164 103.014C33.6678 102.697 32.5225 101.869 31.7886 100.684C31.0548 99.4986 30.8267 98.1004 31.149 96.7517L32.3241 91.7786C32.6415 90.43 33.4695 89.2847 34.6545 88.5509C35.8395 87.817 37.2328 87.589 38.5814 87.9112C39.93 88.2286 41.0754 89.0566 41.8092 90.2416C42.543 91.4266 42.7711 92.8248 42.4488 94.1735L41.2737 99.1465C40.7085 101.536 38.5665 103.153 36.2114 103.153ZM37.3914 89.9986C36.846 89.9986 36.3056 90.1523 35.8296 90.4449C35.1503 90.8663 34.6793 91.5159 34.4958 92.2844L33.3207 97.2575C33.1373 98.026 33.2711 98.8243 33.6876 99.4986C34.1091 100.178 34.7636 100.649 35.5271 100.832C37.1187 101.209 38.7252 100.218 39.102 98.621L40.2771 93.6479C40.4606 92.8794 40.3267 92.0811 39.9102 91.4068C39.4937 90.7275 38.8392 90.2565 38.0707 90.073C37.8426 90.0185 37.6145 89.9937 37.3914 89.9937V89.9986Z" fill="black"/>
<path d="M61.2707 93.1322L60.0958 98.1022C59.5761 100.301 60.936 102.504 63.1332 103.023C65.3304 103.543 67.5329 102.182 68.0526 99.9831L69.2275 95.0131C69.7472 92.8146 68.3873 90.6113 66.1901 90.0919C63.9929 89.5725 61.7904 90.9337 61.2707 93.1322Z" fill="#FABC29"/>
<path d="M64.0713 104.244C63.6697 104.244 63.2681 104.199 62.8714 104.105C61.5228 103.787 60.3774 102.959 59.6436 101.774C58.9098 100.589 58.6817 99.1912 59.004 97.8425L60.1791 92.8695C60.4964 91.5208 61.3245 90.3755 62.5095 89.6417C63.6945 88.9079 65.0927 88.6798 66.4364 89.0021C67.785 89.3194 68.9303 90.1474 69.6642 91.3324C70.398 92.5174 70.6261 93.9156 70.3038 95.2643L69.1287 100.237C68.8114 101.586 67.9833 102.731 66.7983 103.465C65.9604 103.981 65.0233 104.249 64.0663 104.249L64.0713 104.244ZM65.2464 91.0895C64.701 91.0895 64.1606 91.2432 63.6846 91.5357C63.0053 91.9572 62.5343 92.6067 62.3508 93.3752L61.1757 98.3483C60.9923 99.1168 61.1261 99.9151 61.5426 100.589C61.9591 101.269 62.6136 101.74 63.3821 101.923C64.1506 102.107 64.9489 101.973 65.6282 101.556C66.3075 101.14 66.7785 100.485 66.9619 99.7167L68.137 94.7437C68.3205 93.9751 68.1866 93.1769 67.7701 92.5026C67.3536 91.8233 66.6992 91.3523 65.9306 91.1688C65.7025 91.1143 65.4745 91.0895 65.2514 91.0895H65.2464Z" fill="black"/>
<path d="M44.1843 39.9507C48.3293 40.9522 77.4192 48.3697 83.6169 69.3925C84.4053 72.065 85.7539 77.4843 83.5475 82.9433C79.1496 93.8266 61.4388 94.8678 55.2956 95.2248C53.7883 95.3141 35.1108 96.2065 27.1925 86.7314C26.6173 86.0422 25.2935 84.4308 24.4109 81.9467C22.2194 75.7688 24.7729 69.928 25.7199 68.0042" fill="white"/>
<path d="M52.7569 96.4096C46.8417 96.4096 33.0579 95.4973 26.3395 87.4501C25.7892 86.7907 24.3315 85.0454 23.3646 82.3233C21.2028 76.2396 23.2902 70.4335 24.7232 67.5131C24.9959 66.9578 25.6603 66.7297 26.2156 67.0024C26.7659 67.2751 26.994 67.9445 26.7263 68.4949C25.4471 71.0979 23.5828 76.2594 25.4669 81.5746C26.2999 83.9248 27.5741 85.447 28.0501 86.0172C35.6758 95.1502 54.4377 94.1586 55.231 94.1139C58.3448 93.9305 64.136 93.5933 69.7635 91.9621C76.4769 90.0135 80.7708 86.8402 82.5111 82.5266C84.7175 77.0676 83.0813 71.5293 82.5458 69.7096C76.6951 49.8768 49.3456 42.3453 43.9213 41.0363C43.3214 40.8925 42.9545 40.2876 43.0983 39.6926C43.2421 39.0927 43.847 38.7258 44.442 38.8696C50.0745 40.2281 78.49 48.072 84.6877 69.0799C85.2778 71.0831 87.0776 77.1866 84.5836 83.3645C79.9179 94.9023 61.4387 95.9881 55.3649 96.3451C54.9831 96.365 54.0609 96.4096 52.7569 96.4096Z" fill="black"/>
<path d="M59.1577 69.7741C57.9528 69.1493 55.7762 68.2618 53.0293 68.4106C52.0426 68.4651 47.7389 68.7031 45.3044 72.1144C44.9425 72.6251 43.5443 74.5835 43.8467 77.1222C44.1739 79.8591 46.2812 81.5548 47.1092 82.2241C52.35 86.4436 62.7772 86.1659 69.3369 80.4987C72.3762 77.8708 73.9282 74.6579 74.7413 72.2433" fill="white"/>
<path d="M56.4159 86.2205C52.6378 86.2205 49.0332 85.1942 46.4152 83.087C45.5178 82.3631 43.1279 80.4393 42.7412 77.2511C42.5776 75.8976 42.7362 73.7953 44.3972 71.4649C45.6467 69.7097 48.1506 67.5578 52.965 67.2951C55.2309 67.1711 57.5514 67.6818 59.6685 68.7776C60.2139 69.0602 60.4271 69.7345 60.1445 70.2799C59.8619 70.8253 59.1876 71.0385 58.6422 70.7559C57.4125 70.1212 55.4441 69.3874 53.089 69.5163C49.9802 69.6849 47.6002 70.8055 46.2119 72.7541C45.2104 74.1572 44.7889 75.5802 44.9525 76.9784C45.2253 79.2642 47.035 80.7219 47.8085 81.3417C53.3865 85.8338 63.3921 84.148 68.6082 79.641C70.9088 77.6528 72.6194 75.0398 73.6854 71.8764C73.8837 71.2914 74.5134 70.979 75.0985 71.1773C75.6835 71.3757 75.9959 72.0054 75.8025 72.5904C74.6076 76.1356 72.6789 79.0807 70.0708 81.3318C66.3522 84.5447 61.2403 86.2156 56.4159 86.2156V86.2205Z" fill="black"/>
<path d="M31.4766 68.9614C38.0859 68.9763 42.5533 73.0816 42.5533 76.7408C42.5533 80.3206 38.2644 83.1666 34.7738 83.8112C28.8537 84.902 21.7437 80.2116 21.104 73.6766C20.5041 67.5334 25.973 63.3636 26.3052 63.1206" fill="white"/>
<path d="M33.0284 85.0803C30.2915 85.0803 27.4058 84.0936 25.011 82.2888C22.1402 80.1271 20.3106 77.0232 19.9933 73.7806C19.3289 66.9581 25.3829 62.4114 25.6407 62.218C26.1365 61.8511 26.8356 61.9602 27.2025 62.456C27.5694 62.9518 27.4604 63.6509 26.9645 64.0178C26.7464 64.1765 21.6692 67.9943 22.2096 73.5674C22.4674 76.1903 23.9747 78.7189 26.3497 80.5089C28.8338 82.3781 31.9029 83.2012 34.5655 82.7153C37.8131 82.1153 41.4276 79.5172 41.4276 76.7406C41.4276 73.6021 37.3371 70.0917 31.4616 70.0768C30.8468 70.0768 30.346 69.576 30.351 68.9562C30.351 68.3414 30.8518 67.8456 31.4666 67.8456C38.7601 67.8654 43.6588 72.4567 43.6588 76.7406C43.6588 80.7964 39.1469 84.1383 34.9671 84.9068C34.3324 85.0258 33.6829 85.0803 33.0235 85.0803H33.0284Z" fill="black"/>
<path d="M93.4439 35.3097C97.1031 65.3962 72.8822 69.2784 47.516 69.2784C22.1498 69.2784 -1.23803 64.3401 1.59311 35.3097C5.68859 -9.34886 88.9568 -9.30424 93.4439 35.3097Z" fill="#40A1FF"/>
<path d="M47.5162 70.3592C33.3902 70.3592 15.9968 69.0552 6.76464 58.881C1.64281 53.2286 -0.459466 45.2607 0.517301 35.2055C1.49407 24.5354 6.96297 15.6007 16.329 9.37323C24.6092 3.86961 35.5272 0.805441 47.065 0.755859C47.1641 0.755859 47.2583 0.755859 47.3575 0.755859C58.8953 0.755859 69.8529 3.76053 78.2472 9.22944C87.8066 15.457 93.4292 24.4363 94.515 35.1906C95.7546 45.4145 93.8556 53.4567 88.8627 59.0942C80.0718 69.0205 63.0304 70.3592 47.5162 70.3592ZM47.3575 2.91268C47.2633 2.91268 47.1691 2.91268 47.0749 2.91268C35.9536 2.96226 25.4571 5.89256 17.524 11.1731C8.72314 17.0237 3.58643 25.4081 2.66916 35.4137C1.73702 44.9781 3.60131 52.1774 8.3711 57.4332C15.1291 64.8804 27.2073 68.2024 47.5211 68.2024C62.5544 68.2024 79.0256 66.9529 87.2513 57.6662C91.8822 52.4353 93.5581 45.1665 92.3781 35.4435C92.3781 35.4336 92.3781 35.4286 92.3781 35.4237C91.3616 25.3337 86.0712 16.9047 77.077 11.0392C69.0298 5.7934 58.4887 2.91268 47.3674 2.91268H47.3575Z" fill="black"/>
<mask id="mask0_712_8810" style="mask-type:luminance" maskUnits="userSpaceOnUse" x="1" y="1" width="93" height="69">
<path d="M93.4439 35.3097C97.1031 65.3962 72.8822 69.2784 47.516 69.2784C22.1498 69.2784 -1.23803 64.3401 1.59311 35.3097C5.68859 -9.34886 88.9568 -9.30424 93.4439 35.3097Z" fill="white"/>
</mask>
<g mask="url(#mask0_712_8810)">
<path d="M33.7221 44.9684H27.3756C26.5575 44.9684 25.8931 44.304 25.8931 43.4859C25.8931 42.6678 26.5575 42.0034 27.3756 42.0034H33.7221C34.5402 42.0034 35.2046 42.6678 35.2046 43.4859C35.2046 44.304 34.5402 44.9684 33.7221 44.9684Z" fill="black"/>
<path d="M60.3378 45.1418H53.9913C53.1732 45.1418 52.5088 44.4774 52.5088 43.6593C52.5088 42.8412 53.1732 42.1768 53.9913 42.1768H60.3378C61.1559 42.1768 61.8203 42.8412 61.8203 43.6593C61.8203 44.4774 61.1559 45.1418 60.3378 45.1418Z" fill="black"/>
<path d="M60.0008 62.4909C59.8322 71.0339 53.9865 71.7528 45.0518 71.7132C38.6508 71.4355 33.0926 72.6403 29.2996 67.4689C24.738 58.4946 31.4118 52.7381 40.3613 52.9414C41.1795 52.9612 42.0025 52.9215 42.8206 52.8918C50.5406 52.5745 60.4173 53.1744 60.0008 62.4909Z" fill="#FABC29"/>
<path d="M51.6113 64.3251C48.1703 64.3251 45.2648 62.9269 43.9459 62.1683C36.7813 66.3084 31.7636 63.1748 31.5454 63.031C30.9256 62.6294 30.7471 61.8064 31.1488 61.1866C31.5454 60.5718 32.3685 60.3883 32.9883 60.785C33.1717 60.899 37.2127 63.2988 43.2418 59.476C43.698 59.1884 44.2781 59.1983 44.7194 59.5107C44.769 59.5454 49.9652 63.0707 55.0721 60.9982C55.7564 60.7205 56.5348 61.0478 56.8125 61.732C57.0901 62.4162 56.7629 63.1947 56.0786 63.4723C54.5515 64.0921 53.0393 64.3301 51.6212 64.3301L51.6113 64.3251Z" fill="black"/>
<path d="M35.9532 24.2034C35.5169 23.6283 35.026 22.7705 34.5996 21.7441C33.127 18.2089 32.3684 12.7103 36.806 10.2808C41.7593 7.56862 44.4962 12.2541 45.1457 13.573C46.4845 12.9681 51.5716 11.079 53.6788 16.3199C55.672 21.2731 51.0262 25.1951 47.5653 26.861C46.7919 27.2329 46.0779 27.4907 45.5077 27.6246" fill="#40A1FF"/>
<path d="M45.5075 28.7005C45.0167 28.7005 44.5754 28.3683 44.4564 27.8675C44.3176 27.2874 44.6795 26.7073 45.2596 26.5685C45.7703 26.4495 46.4248 26.2015 47.0942 25.8793C47.8875 25.4975 54.7992 21.9871 52.6771 16.7115C52.1367 15.3679 51.3731 14.515 50.3368 14.0986C48.4825 13.3548 46.2314 14.2523 45.5869 14.5448C45.0563 14.7828 44.4316 14.5597 44.1738 14.0391C43.8614 13.4044 42.6863 11.2823 40.7873 10.6823C39.7263 10.3452 38.5908 10.5237 37.3215 11.2178C32.7253 13.7366 35.0755 20.0782 35.5911 21.3227C35.958 22.2052 36.3993 23.0134 36.8059 23.5439C37.1678 24.015 37.0786 24.6942 36.6026 25.0562C36.1266 25.4181 35.4523 25.3289 35.0903 24.8529C34.5697 24.1736 34.0392 23.2117 33.5979 22.1507C30.7618 15.3331 33.1269 11.0592 36.2803 9.32875C38.0653 8.34703 39.8006 8.11399 41.4319 8.62965C43.4995 9.27917 44.8729 10.9947 45.6216 12.2144C46.9801 11.7434 49.1221 11.2922 51.1351 12.1004C52.7217 12.735 53.9117 14.0192 54.6703 15.9083C56.6982 20.9508 52.7911 25.5272 48.0213 27.8229C47.2032 28.2146 46.4149 28.5071 45.7455 28.6658C45.6612 28.6856 45.5769 28.6955 45.4976 28.6955L45.5075 28.7005Z" fill="black"/>
<path d="M45.1361 13.603L42.5826 15.3136C41.0307 16.3548 41.3232 18.7199 43.0834 19.3496C44.8436 19.9793 46.569 18.3381 46.0286 16.5482L45.1361 13.603Z" fill="#40A1FF"/>
<path d="M43.8517 20.5643C43.4699 20.5643 43.0882 20.4998 42.7163 20.366C41.5164 19.9346 40.6735 18.8834 40.5148 17.6191C40.3562 16.3548 40.9165 15.1301 41.9775 14.4211L44.531 12.7105C44.8136 12.5221 45.1706 12.4774 45.4929 12.5915C45.8152 12.7055 46.0631 12.9683 46.1622 13.2955L47.0498 16.2407C47.4167 17.4604 47.0746 18.7645 46.1523 19.6421C45.5177 20.247 44.6897 20.5692 43.8468 20.5692L43.8517 20.5643ZM44.526 15.3086L43.1824 16.211C42.8006 16.4688 42.6023 16.8952 42.6617 17.3514C42.7212 17.8075 43.0138 18.1744 43.4451 18.3331C43.8815 18.4868 44.3376 18.3926 44.6748 18.0753C45.0119 17.7579 45.1309 17.3018 44.9971 16.8605L44.531 15.3135L44.526 15.3086Z" fill="black"/>
<path d="M30.9255 55.0584C28.9223 55.0584 27.296 53.4321 27.2861 51.434V51.1067C27.2861 50.4721 27.7968 49.9564 28.4315 49.9515C29.0463 49.9465 29.5818 50.4622 29.5867 51.0968V51.4241C29.5867 52.1628 30.1916 52.7578 30.9255 52.7578C31.6642 52.7578 32.2642 52.1529 32.2592 51.4141V51.0869C32.2592 50.4523 32.765 49.9366 33.4046 49.9316C34.0392 49.9316 34.5499 50.4423 34.5549 51.077V51.4042C34.5648 53.4123 32.9335 55.0485 30.9304 55.0584H30.9205H30.9255Z" fill="black"/>
<path d="M56.7829 55.0136C55.8259 55.0136 54.9236 54.6517 54.2344 53.9922C53.5353 53.3179 53.1485 52.4254 53.1436 51.4685V51.1512C53.1436 50.5165 53.6542 50.0009 54.2889 49.9959C54.9236 49.9959 55.4342 50.5066 55.4392 51.1413V51.4586C55.4392 51.7858 55.578 52.0932 55.8259 52.3312C56.0788 52.5791 56.4209 52.713 56.7779 52.713C57.5167 52.713 58.1166 52.1428 58.1117 51.4487V51.1313C58.1117 50.4967 58.6224 49.981 59.257 49.9761C59.8917 49.9761 60.4024 50.4868 60.4073 51.1214V51.4387C60.4123 53.4022 58.786 55.0037 56.7829 55.0087H56.768L56.7829 55.0136Z" fill="black"/>
</g>
<path d="M47.5162 70.3592C33.3902 70.3592 15.9968 69.0552 6.76464 58.881C1.64281 53.2286 -0.459466 45.2607 0.517301 35.2055C1.49407 24.5354 6.96297 15.6007 16.329 9.37323C24.6092 3.86961 35.5272 0.805441 47.065 0.755859C47.1641 0.755859 47.2583 0.755859 47.3575 0.755859C58.8953 0.755859 69.8529 3.76053 78.2472 9.22944C87.8066 15.457 93.4292 24.4363 94.515 35.1906C95.7546 45.4145 93.8556 53.4567 88.8627 59.0942C80.0718 69.0205 63.0304 70.3592 47.5162 70.3592ZM47.3575 2.91268C47.2633 2.91268 47.1691 2.91268 47.0749 2.91268C35.9536 2.96226 25.4571 5.89256 17.524 11.1731C8.72314 17.0237 3.58643 25.4081 2.66916 35.4137C1.73702 44.9781 3.60131 52.1774 8.3711 57.4332C15.1291 64.8804 27.2073 68.2024 47.5211 68.2024C62.5544 68.2024 79.0256 66.9529 87.2513 57.6662C91.8822 52.4353 93.5581 45.1665 92.3781 35.4435C92.3781 35.4336 92.3781 35.4286 92.3781 35.4237C91.3616 25.3337 86.0712 16.9047 77.077 11.0392C69.0298 5.7934 58.4887 2.91268 47.3674 2.91268H47.3575Z" fill="black"/>
<path d="M92.8392 80.132C92.745 80.132 92.6508 80.1221 92.5566 80.0973C91.9666 79.9436 91.6145 79.3387 91.7682 78.7486C92.1252 77.3901 92.4128 75.263 91.7682 72.8484C91.3716 71.3559 90.6774 69.9726 89.7155 68.743C89.3387 68.262 89.423 67.5679 89.9039 67.196C90.3849 66.8192 91.079 66.9035 91.4509 67.3844C92.5963 68.852 93.4193 70.4982 93.8953 72.2782C94.6638 75.1638 94.3217 77.6925 93.8953 79.3089C93.7664 79.8047 93.3202 80.132 92.8293 80.132H92.8392Z" fill="black"/>
<path d="M97.4403 83.0074C97.3114 83.0074 97.1775 82.9826 97.0486 82.933C96.4784 82.7149 96.1908 82.0802 96.409 81.51C97.1527 79.5515 97.9064 76.4378 97.2668 72.7439C96.4387 67.9592 93.7167 64.8058 92.1648 63.3531C91.7185 62.9366 91.6987 62.2375 92.1152 61.7912C92.5317 61.345 93.2308 61.3251 93.6721 61.7416C95.4273 63.3828 98.5063 66.9428 99.4384 72.3671C100.162 76.5468 99.3095 80.0721 98.4666 82.2885C98.2981 82.7297 97.8816 83.0024 97.4353 83.0024L97.4403 83.0074Z" fill="black"/>
</g>
<defs>
<clipPath id="clip0_712_8810">
<rect width="99.4319" height="103.488" fill="white" transform="translate(0.28418 0.755859)"/>
</clipPath>
</defs>
</svg>
