<svg width="136" height="23" viewBox="0 0 136 23" fill="none" xmlns="http://www.w3.org/2000/svg">
<path d="M27.8122 0H24.8916C21.4746 0 18.7036 2.79898 18.7036 6.2505V16.4127C18.7036 19.8642 21.4746 22.6632 24.8916 22.6632H27.8122C31.2292 22.6632 34.0002 19.8642 34.0002 16.4127V6.2505C34.0002 2.79898 31.2292 0 27.8122 0ZM29.2402 16.4127C29.2402 17.783 28.142 18.8923 26.7854 18.8923H25.9116C24.5584 18.8923 23.4568 17.783 23.4568 16.4127V6.25737C23.4568 4.88707 24.555 3.77778 25.9116 3.77778H26.7854C28.1386 3.77778 29.2402 4.88707 29.2402 6.25737V16.4127Z" fill="black" fill-opacity="0.08"/>
<path d="M78.472 0H75.208C71.791 0 69.02 2.79898 69.02 6.2505V16.4162C69.02 19.8677 71.791 22.6667 75.208 22.6667H78.472C81.889 22.6667 84.66 19.8677 84.66 16.4162V6.2505C84.66 2.79898 81.889 0 78.472 0ZM79.9 16.4162C79.9 17.783 78.8052 18.8889 77.452 18.8889H76.2314C74.8782 18.8889 73.7834 17.783 73.7834 16.4162V6.25394C73.7834 4.88707 74.8782 3.7812 76.2314 3.7812H77.452C78.8052 3.7812 79.9 4.88707 79.9 6.25394V16.4162Z" fill="black" fill-opacity="0.08"/>
<path d="M117.3 4.8081V0.68689H108.46H103.7V4.8081V8.92931V13.0505V17.8586V21.9798H108.46H117.3V17.8586H108.46V13.0505H116.583V8.92931H108.46V4.8081H117.3Z" fill="black" fill-opacity="0.08"/>
<path d="M48.0012 10.7976C49.3816 10.042 50.32 8.56527 50.32 6.86871V5.49497C50.32 2.84022 48.1882 0.68689 45.56 0.68689H36.04V21.9798H45.9C48.7152 21.9798 51 19.6719 51 16.8283V14.7677C51 12.8685 49.7284 11.275 48.0012 10.7976ZM40.8 4.12123H43.86C44.7984 4.12123 45.56 4.89053 45.56 5.8384V6.89274C45.56 7.60021 45.1316 8.23557 44.4788 8.49315L40.8 9.94244V4.12123ZM46.24 16.8283C46.24 17.7762 45.4784 18.5455 44.54 18.5455H40.8V13.7752L43.9314 12.5628C45.0432 12.1336 46.24 12.9612 46.24 14.1667V16.8283Z" fill="black" fill-opacity="0.08"/>
<path d="M69.02 0.68689H64.26L57.8 9.88062V0.68689H53.04V21.9798H57.8V12.7861L64.26 21.9798H69.02L61.88 11.3334L69.02 0.68689Z" fill="black" fill-opacity="0.08"/>
<path d="M17.68 0.68689H6.12V4.81153H10.2V18.5386H4.76V13.813H0V16.4746C0 19.8917 2.7404 22.6632 6.12 22.6632H8.84C12.2196 22.6632 14.96 19.8917 14.96 16.4746V4.81153H17.68V0.68689Z" fill="black" fill-opacity="0.08"/>
<path d="M131.58 21.9798H136L133.902 12.5903L131.24 0.68689H123.42L118.66 21.9798H123.08L124.308 16.4849H130.349L131.577 21.9798H131.58ZM125.229 12.3637L126.919 4.8081H127.742L129.431 12.3637H125.232H125.229Z" fill="black" fill-opacity="0.08"/>
<path d="M99.0762 13.7408C98.8484 13.1707 98.471 12.6934 98.0052 12.3396C99.8004 11.6047 100.98 9.84285 100.98 7.88527V5.49497C100.98 2.84022 98.8484 0.68689 96.2202 0.68689H86.7002V21.9798H91.4602V14.9703L94.3468 13.8095L97.5802 21.9764H102.34L99.0762 13.7374V13.7408ZM96.5602 7.95052C96.5602 8.66487 96.1216 9.30709 95.4586 9.55779L91.4602 11.0792V4.12123H94.8602C95.7986 4.12123 96.5602 4.89053 96.5602 5.8384V7.95052Z" fill="black" fill-opacity="0.08"/>
</svg>
