<svg width="80" height="80" viewBox="0 0 80 80" fill="none" xmlns="http://www.w3.org/2000/svg">
<path d="M6.66699 45H73.3337V65C73.3337 68.6819 70.3489 71.6667 66.667 71.6667H13.3337C9.65176 71.6667 6.66699 68.6819 6.66699 65V45Z" fill="#CFDBE9"/>
<path d="M16.6589 19.2546C17.6542 16.6899 20.1228 15 22.8739 15H57.1275C59.8787 15 62.3473 16.69 63.3426 19.2548L73.3337 45H6.66699L16.6589 19.2546Z" fill="#A7B6C8"/>
<path d="M26.667 45H53.3337L49.769 53.0205C49.234 54.2242 48.0403 55 46.723 55H33.2777C31.9604 55 30.7666 54.2242 30.2316 53.0205L26.667 45Z" fill="#A7B6C8"/>
<path d="M58.9664 3.33337C49.1911 3.33337 41.2666 10.4275 41.2666 19.1783C41.2846 22.5919 42.4929 25.8923 44.6832 28.5106C45.077 28.977 45.3629 29.5247 45.5203 30.1145C45.6776 30.7043 45.7026 31.3215 45.5935 31.9221L44.6275 36.8781C44.5912 37.0648 44.6084 37.258 44.6769 37.4355C44.7454 37.6129 44.8627 37.7675 45.0151 37.8813C45.1675 37.9952 45.3489 38.0638 45.5385 38.0792C45.7281 38.0946 45.9182 38.0562 46.087 37.9684L51.9664 34.9078C52.7947 34.4706 53.7512 34.3412 54.6659 34.5427C56.077 34.8625 57.5195 35.0237 58.9664 35.0231C68.7418 35.0231 76.6663 27.9291 76.6663 19.1783C76.6663 10.4275 68.7418 3.33337 58.9664 3.33337Z" fill="#EEF0F4"/>
<path d="M51.6384 17.7035C52.0303 17.7027 52.4135 17.8182 52.7397 18.0353C53.0659 18.2524 53.3204 18.5614 53.4709 18.9232C53.6214 19.285 53.6612 19.6833 53.5853 20.0677C53.5093 20.4521 53.321 20.8054 53.0442 21.0827C52.7674 21.3601 52.4146 21.5491 52.0303 21.6259C51.646 21.7026 51.2477 21.6636 50.8856 21.5138C50.5235 21.3641 50.2139 21.1103 49.9961 20.7845C49.7784 20.4587 49.6621 20.0757 49.6621 19.6839C49.6624 19.1594 49.8706 18.6565 50.241 18.2853C50.6115 17.914 51.114 17.7048 51.6384 17.7035Z" fill="#3E4857"/>
<path d="M66.2958 21.6642C67.3895 21.6642 68.2761 20.7776 68.2761 19.6838C68.2761 18.5901 67.3895 17.7035 66.2958 17.7035C65.2021 17.7035 64.3154 18.5901 64.3154 19.6838C64.3154 20.7776 65.2021 21.6642 66.2958 21.6642Z" fill="#3E4857"/>
<path d="M58.9667 21.6642C60.0604 21.6642 60.947 20.7776 60.947 19.6838C60.947 18.5901 60.0604 17.7035 58.9667 17.7035C57.873 17.7035 56.9863 18.5901 56.9863 19.6838C56.9863 20.7776 57.873 21.6642 58.9667 21.6642Z" fill="#3E4857"/>
</svg>
