<svg width="67" height="77" viewBox="0 0 67 77" fill="none" xmlns="http://www.w3.org/2000/svg">
<path d="M62.1067 22.1658V2.15709C62.1067 0.378534 60.0708 -0.633019 58.6656 0.44523L47.6561 8.89336C43.5732 6.99253 39.0366 5.9254 34.2566 5.9254H32.1101C27.3411 5.9254 22.8046 6.99253 18.7216 8.89336L7.72323 0.44523C6.318 -0.633019 4.28208 0.367418 4.28208 2.15709V22.1658C1.56014 26.9012 0 32.3703 0 38.1951V46.7988C0 63.3616 13.488 76.9231 29.9856 76.9231H36.4143C52.9008 76.9231 66.3999 63.3727 66.3999 46.7988V38.1951C66.3999 32.3703 64.8397 26.8901 62.1178 22.1658H62.1067ZM49.2605 45.7317C49.2605 54.6022 42.0352 61.8721 33.1944 61.8721C24.3647 61.8721 17.1283 54.6133 17.1283 45.7317V37.1279C17.1283 28.2574 24.3536 20.9875 33.1944 20.9875C42.0241 20.9875 49.2605 28.2463 49.2605 37.1279V45.7317Z" fill="white"/>
</svg>
