<svg width="114" height="160" viewBox="0 0 114 160" fill="none" xmlns="http://www.w3.org/2000/svg">
<path d="M109.669 99.3343L77.4488 86.4416L75.5242 80.4783C75.2992 79.7825 74.8524 79.1804 74.2527 78.765C73.653 78.3495 72.9337 78.1438 72.2059 78.1796H70.7791L69.2858 70.1841C73.5791 64.9082 76.7321 58.7931 78.5439 52.2276C79.082 52.2646 79.6153 52.1068 80.0475 51.7829C80.4797 51.459 80.7821 50.9904 80.8998 50.4619C80.7007 51.4947 81.6963 49.8289 82.4595 45.7979C82.7812 44.0564 83.0137 42.2996 83.1562 40.5342C83.2297 40.243 83.244 39.9399 83.1981 39.6431C83.1522 39.3463 83.0471 39.0618 82.8891 38.8068C82.731 38.5517 82.5235 38.3312 82.2786 38.1587C82.0337 37.9861 81.7567 37.8649 81.464 37.8024C81.464 37.8024 81.464 37.5692 81.464 37.4693L81.8622 37.7691C92.0162 12.9498 77.6812 8.91876 77.6812 8.91876C76.387 -0.909021 57.1742 0.0237409 57.1742 0.0237409C48.7126 0.0237409 41.711 2.18922 37.2645 8.38571C34.3112 9.88487 29.5993 11.8837 29.2011 9.31852C29.2011 9.31852 26.0819 27.0085 32.5194 35.5704L32.8511 35.1706C32.8511 36.0367 32.8512 36.9029 33.1498 37.7691H32.9838C32.3957 37.9043 31.8847 38.2672 31.5616 38.7787C31.2385 39.2902 31.1295 39.9092 31.2584 40.5009C31.2584 40.5009 31.4574 42.8995 31.9883 45.7646C32.7515 49.7956 33.7471 51.4614 33.5148 50.4286C33.6497 51.012 34.006 51.5195 34.508 51.843C35.01 52.1666 35.6181 52.2807 36.2026 52.161C38.0557 58.6869 41.1799 64.7789 45.3943 70.0842L43.6023 78.1463H41.4123C40.6846 78.1105 39.9653 78.3162 39.3655 78.7317C38.7658 79.1471 38.319 79.7492 38.094 80.445L36.1694 86.4083H36.634L4.97743 99.301C3.50937 99.8972 2.25187 100.919 1.36527 102.237C0.478664 103.554 0.00320786 105.107 0 106.697V160H114.282V106.863C114.331 105.293 113.92 103.743 113.101 102.404C112.281 101.066 111.088 99.9985 109.669 99.3343Z" fill="#BFBFBF"/>
</svg>
