<svg width="24" height="24" viewBox="0 0 24 24" fill="none" xmlns="http://www.w3.org/2000/svg">
<rect x="4" y="2" width="16" height="20" rx="1" fill="#EEF0F4"/>
<path d="M20.0822 16.4947C19.8062 16.4947 19.5822 16.2707 19.5822 15.9947C19.5822 15.1177 18.8692 14.4047 17.9922 14.4047C17.5682 14.4047 17.1682 14.5697 16.8682 14.8707C16.5682 15.1717 16.4022 15.5697 16.4022 15.9947H15.4022C15.4022 15.3027 15.6722 14.6527 16.1612 14.1627C16.6502 13.6737 17.3012 13.4047 17.9922 13.4047C19.4202 13.4047 20.5822 14.5667 20.5822 15.9947C20.5822 16.2707 20.3582 16.4947 20.0822 16.4947Z" fill="#4E5968"/>
<rect x="14" y="16" width="8" height="7" rx="1" fill="#5288FF"/>
<path d="M18.0215 17.8978C18.5013 17.9091 18.8884 18.2959 18.9004 18.7767L18.8965 18.8676C18.8733 19.1699 18.6996 19.4307 18.4492 19.5756V20.6517C18.4492 20.9007 18.247 21.1019 17.999 21.1019C17.75 21.1019 17.5488 20.8997 17.5488 20.6517V19.5746C17.2873 19.4226 17.1075 19.1435 17.0996 18.8187V18.7767C17.1116 18.2797 17.5245 17.8868 18.0215 17.8978Z" fill="white"/>
<path d="M9.48955 6.32563C9.41102 6.18931 9.23684 6.14188 9.09933 6.2212L8.61743 6.49941V5.94298C8.61743 5.78514 8.48949 5.65759 8.33204 5.65759C8.1746 5.65759 8.04665 5.78554 8.04665 5.94298V6.46274L7.62853 6.2216C7.49182 6.14228 7.31683 6.18971 7.23831 6.32603C7.15939 6.46274 7.20643 6.63733 7.34274 6.71625L7.79275 6.97613L7.34274 7.23601C7.20643 7.31493 7.15939 7.48951 7.23831 7.62623C7.29133 7.7175 7.38699 7.76892 7.48584 7.76892C7.53407 7.76892 7.58309 7.75657 7.62813 7.73066L8.04625 7.48951V7.9722C8.04625 8.13004 8.1742 8.25759 8.33164 8.25759C8.48909 8.25759 8.61703 8.12965 8.61703 7.9722V7.45284L9.09893 7.73106C9.14397 7.75696 9.193 7.76932 9.24123 7.76932C9.34008 7.76932 9.43614 7.7179 9.48875 7.62663C9.56767 7.49031 9.52064 7.31533 9.38432 7.23641L8.93431 6.97653L9.38432 6.71665C9.52064 6.63772 9.56767 6.46314 9.48875 6.32643L9.48955 6.32563Z" fill="#424F57"/>
<path d="M13.1349 6.32539C13.056 6.18907 12.8822 6.14164 12.7447 6.22095L12.2628 6.49917V5.94274C12.2628 5.7849 12.1349 5.65735 11.9774 5.65735C11.82 5.65735 11.692 5.7853 11.692 5.94274V6.4625L11.2739 6.22135C11.1368 6.14203 10.9626 6.18947 10.8837 6.32578C10.8048 6.4625 10.8518 6.63708 10.9881 6.716L11.4381 6.97588L10.9881 7.23576C10.8518 7.31468 10.8048 7.48927 10.8837 7.62598C10.9367 7.71726 11.0324 7.76868 11.1312 7.76868C11.1794 7.76868 11.2285 7.75632 11.2735 7.73041L11.6916 7.48927V7.97196C11.6916 8.1298 11.8196 8.25735 11.977 8.25735C12.1345 8.25735 12.2624 8.1294 12.2624 7.97196V7.4526L12.7443 7.73081C12.7893 7.75672 12.8384 7.76908 12.8866 7.76908C12.9854 7.76908 13.0815 7.71766 13.1341 7.62638C13.213 7.49006 13.166 7.31508 13.0297 7.23616L12.5797 6.97628L13.0297 6.7164C13.166 6.63748 13.213 6.4629 13.1341 6.32618L13.1349 6.32539Z" fill="#424F57"/>
<path d="M16.6573 7.235L16.2073 6.97512L16.6573 6.71524C16.7936 6.63632 16.8406 6.46173 16.7617 6.32502C16.6832 6.1887 16.5086 6.14127 16.3715 6.22059L15.8896 6.4988V5.94237C15.8896 5.78453 15.7616 5.65698 15.6042 5.65698C15.4468 5.65698 15.3188 5.78493 15.3188 5.94237V6.46213L14.9007 6.22099C14.764 6.14167 14.5894 6.1891 14.5105 6.32542C14.4316 6.46213 14.4786 6.63672 14.6149 6.71564L15.0649 6.97552L14.6149 7.2354C14.4786 7.31432 14.4316 7.4889 14.5105 7.62562C14.5631 7.71689 14.6592 7.76831 14.758 7.76831C14.8062 7.76831 14.8553 7.75595 14.9003 7.73005L15.3184 7.4889V7.97159C15.3184 8.12943 15.4464 8.25698 15.6038 8.25698C15.7613 8.25698 15.8892 8.12903 15.8892 7.97159V7.45223L16.3711 7.73045C16.4161 7.75635 16.4652 7.76871 16.5134 7.76871C16.6122 7.76871 16.7083 7.71729 16.7609 7.62601C16.8398 7.4897 16.7928 7.31472 16.6565 7.2358L16.6573 7.235Z" fill="#424F57"/>
<path d="M7.20001 11.4187H16.8" stroke="#BFC5CE" stroke-linecap="round"/>
<path d="M7.20001 13.981H11.2" stroke="#BFC5CE" stroke-linecap="round"/>
</svg>
