<svg width="24" height="24" viewBox="0 0 24 24" fill="none" xmlns="http://www.w3.org/2000/svg">
<g clip-path="url(#clip0_9189_268)">
<path d="M8.7001 21.2729L2.5405 19.5065C2.2807 19.4321 2.1001 19.1795 2.1001 18.8909V5.30994C2.1001 4.89114 2.4697 4.58634 2.8465 4.69434L8.7001 6.37314V21.2729Z" fill="#D0D5DC"/>
<path d="M8.7002 21.273L15.3002 19.3806V4.48016L8.7002 6.37316V21.273Z" fill="#E1E4E7"/>
<path d="M21.1536 21.0588L15.3 19.38V4.48016L21.4596 6.24656C21.7194 6.32096 21.9 6.57356 21.9 6.86216V20.4432C21.9 20.862 21.5304 21.1668 21.1536 21.0588Z" fill="#D0D5DC"/>
<path d="M15.7321 11.6832C16.2931 11.0904 17.3083 10.0248 18.2083 9.12058C19.9231 7.39678 20.0401 4.45498 18.3043 2.75278C17.4703 1.93498 16.3855 1.52638 15.3001 1.52698C14.2153 1.52698 13.1305 1.93498 12.2965 2.75278C10.5595 4.45558 10.6771 7.39738 12.3925 9.12118C13.2925 10.0254 14.3095 11.091 14.8705 11.6838C15.1045 11.931 15.4975 11.9304 15.7315 11.6838L15.7321 11.6832Z" fill="#4582ED"/>
<path d="M15.3007 7.09075C16.0042 7.09075 16.5745 6.52045 16.5745 5.81695C16.5745 5.11345 16.0042 4.54315 15.3007 4.54315C14.5972 4.54315 14.0269 5.11345 14.0269 5.81695C14.0269 6.52045 14.5972 7.09075 15.3007 7.09075Z" fill="#FBFBFB"/>
</g>
<defs>
<clipPath id="clip0_9189_268">
<rect width="24" height="24" fill="white"/>
</clipPath>
</defs>
</svg>
