<svg width="24" height="24" viewBox="0 0 24 24" fill="none" xmlns="http://www.w3.org/2000/svg">
<path d="M20.652 7.23607V20.1301C20.652 21.0841 19.878 21.8521 18.93 21.8521H6.60603C5.65203 21.8521 4.88403 21.0781 4.88403 20.1301V3.87007C4.88403 2.91607 5.65803 2.14807 6.60603 2.14807H15.558L20.646 7.23607H20.652Z" fill="#EAEBED"/>
<path d="M20.652 7.23607H16.794C16.116 7.23607 15.564 6.68407 15.564 6.00607V2.14807L20.652 7.23607Z" fill="#CAD0D7"/>
<rect x="3" y="12" width="12.3277" height="5.91697" rx="1" fill="#39B178"/>
<path d="M12.6509 14.2356C12.623 13.9678 12.4111 13.8118 12.0688 13.8118C11.7148 13.8118 11.5169 13.9748 11.5146 14.1983C11.5122 14.4428 11.7637 14.5523 12.0548 14.6175L12.3575 14.692C12.935 14.8247 13.3658 15.1181 13.3681 15.6793C13.3658 16.2964 12.8861 16.6923 12.0641 16.69C11.2491 16.6923 10.7298 16.3151 10.7089 15.5909H11.3888C11.4121 15.9308 11.6822 16.1032 12.0548 16.1032C12.4227 16.1032 12.6602 15.9308 12.6602 15.6793C12.6602 15.4488 12.4507 15.3417 12.0827 15.2509L11.7148 15.1624C11.1466 15.0227 10.7973 14.7386 10.7973 14.2449C10.795 13.6325 11.3353 13.225 12.0734 13.225C12.8209 13.225 13.3123 13.6395 13.3216 14.2356H12.6509Z" fill="white"/>
<path d="M8.21704 16.6435V13.2716H8.91563V16.066H10.3687V16.6435H8.21704Z" fill="white"/>
<path d="M5.59505 13.2716L6.28432 14.4313H6.30761L7.00153 13.2716H7.79327L6.76402 14.9575L7.81655 16.6435H7.00619L6.30761 15.4838H6.28432L5.58573 16.6435H4.78003L5.83722 14.9575L4.79866 13.2716H5.59505Z" fill="white"/>
</svg>
