<svg width="24" height="24" viewBox="0 0 24 24" fill="none" xmlns="http://www.w3.org/2000/svg">
<path d="M11.0646 17.7924C8.4234 17.7924 6.2826 15.6516 6.2826 13.0104C6.2826 10.3692 8.4234 8.2284 11.0646 8.2284C11.7588 8.2284 12.417 8.3796 13.0122 8.646C13.5534 8.1966 14.2728 7.6266 15.0318 7.0362C13.8954 6.2802 12.5322 5.8374 11.0646 5.8374C7.1028 5.8374 3.8916 9.0492 3.8916 13.0104C3.8916 16.9716 7.1034 20.1834 11.0646 20.1834C15.0258 20.1834 18.2382 16.9716 18.2382 13.0104C18.2382 11.4876 17.7606 10.0782 16.9512 8.9172C16.3746 9.6786 15.8166 10.401 15.3744 10.9476C15.6744 11.5728 15.8472 12.2706 15.8472 13.0104C15.8472 15.6516 13.7058 17.7924 11.0646 17.7924Z" fill="#F8F8F8"/>
<path d="M11.064 13.4148C10.95 13.4148 10.8354 13.3716 10.7478 13.2852C10.5714 13.1106 10.5696 12.8256 10.7442 12.6486L12.0978 11.2782C12.0234 11.1372 11.9496 10.9656 11.8974 10.7766C11.637 10.6794 11.358 10.6188 11.064 10.6188C9.7434 10.6188 8.673 11.6892 8.673 13.0098C8.673 14.3304 9.7434 15.4008 11.064 15.4008C12.3846 15.4008 13.455 14.3304 13.455 13.0098C13.455 12.6924 13.3902 12.3906 13.278 12.114C13.074 12.0642 12.8892 11.9874 12.738 11.9106L11.3844 13.281C11.2968 13.3704 11.1798 13.4148 11.064 13.4148Z" fill="#F8F8F8"/>
<path d="M21.7314 2.80555L22.5546 1.97215C22.7292 1.79575 22.7274 1.51015 22.551 1.33555C22.3734 1.16095 22.0884 1.16215 21.9144 1.33975L21.0912 2.17315C21.1842 2.46655 21.228 2.67475 21.228 2.67475C21.228 2.67475 21.4362 2.71615 21.7308 2.80555H21.7314Z" fill="#858585"/>
<path d="M10.7442 12.6491C10.5696 12.8255 10.5714 13.1111 10.7478 13.2857C10.8354 13.3721 10.95 13.4153 11.064 13.4153C11.1798 13.4153 11.2962 13.3709 11.3838 13.2815L12.7374 11.9111C12.498 11.7893 12.3438 11.6699 12.3438 11.6699C12.3438 11.6699 12.2226 11.5169 12.0978 11.2793L10.7442 12.6491Z" fill="#858585"/>
<path d="M18.498 6.84598C18.48 6.86998 18.462 6.89998 18.444 6.92398C17.982 7.54198 17.466 8.23798 16.95 8.91598C16.374 9.67798 15.816 10.398 15.372 10.95C15.084 11.304 14.844 11.592 14.688 11.748C14.244 12.198 13.716 12.222 13.278 12.114C13.074 12.066 12.888 11.988 12.738 11.91C12.498 11.79 12.342 11.67 12.342 11.67C12.342 11.67 12.222 11.514 12.096 11.28C12.024 11.136 11.952 10.968 11.898 10.776C11.772 10.332 11.778 9.79198 12.234 9.32998C12.39 9.17398 12.666 8.93398 13.014 8.64598C13.554 8.19598 14.274 7.62598 15.03 7.03798C15.702 6.51598 16.392 5.98798 17.004 5.51998C17.034 5.49598 17.064 5.47798 17.094 5.45398C17.256 6.07798 17.46 6.49198 17.46 6.49198C17.46 6.49198 17.874 6.68998 18.498 6.84598Z" fill="#9E9E9E"/>
<path d="M17.4588 6.49136L21.2292 2.67416C21.2292 2.67416 21.1854 2.46656 21.0924 2.17256C20.7732 1.16816 19.869 -0.849636 18.1038 0.937164C16.6296 2.42936 16.7928 4.30856 17.0916 5.45396C17.2554 6.08036 17.4588 6.49136 17.4588 6.49136Z" fill="#2DA973"/>
<path d="M18.2376 13.0098C18.2376 16.9716 15.0258 20.1828 11.064 20.1828C7.10219 20.1828 3.89099 16.971 3.89099 13.0098C3.89099 9.0486 7.10279 5.8368 11.064 5.8368C12.5316 5.8368 13.8948 6.2796 15.0312 7.0356C15.7002 6.516 16.3908 5.9868 17.0028 5.5212C15.3708 4.2252 13.3098 3.4458 11.064 3.4458C5.78159 3.4458 1.49939 7.728 1.49939 13.0104C1.49939 18.2928 5.78159 22.575 11.064 22.575C16.3464 22.575 20.6286 18.2928 20.6286 13.0104C20.6286 10.698 19.8078 8.5776 18.4422 6.924C17.9844 7.542 17.463 8.2398 16.95 8.9166C17.7594 10.0782 18.2376 11.487 18.2376 13.0098Z" fill="#4FBF8F"/>
<path d="M11.0646 15.4014C9.74399 15.4014 8.67359 14.331 8.67359 13.0104C8.67359 11.6898 9.74399 10.6194 11.0646 10.6194C11.3592 10.6194 11.6376 10.68 11.898 10.7772C11.775 10.3314 11.7792 9.79139 12.2364 9.32879C12.3894 9.17339 12.6678 8.93219 13.0122 8.64599C12.417 8.37959 11.7588 8.22839 11.0646 8.22839C8.42339 8.22839 6.28259 10.3692 6.28259 13.0104C6.28259 15.6516 8.42339 17.7924 11.0646 17.7924C13.7058 17.7924 15.8466 15.6516 15.8466 13.0104C15.8466 12.2706 15.6738 11.5728 15.3738 10.9476C15.0852 11.304 14.8422 11.5914 14.6868 11.7486C14.2422 12.1986 13.7184 12.2214 13.2786 12.114C13.3908 12.3912 13.4556 12.6924 13.4556 13.0098C13.4556 14.3304 12.3852 15.4008 11.0646 15.4008V15.4014Z" fill="#4FBF8F"/>
<path d="M17.4588 6.49139C17.4588 6.49139 17.8716 6.68999 18.5004 6.84599C19.6494 7.13099 21.5298 7.27079 23.004 5.77799C24.7692 3.99119 22.74 3.11159 21.7314 2.80499C21.4368 2.71559 21.2286 2.67419 21.2286 2.67419L17.4588 6.49139Z" fill="#4FBF8F"/>
</svg>
