<svg width="24" height="24" viewBox="0 0 24 24" fill="none" xmlns="http://www.w3.org/2000/svg">
<rect x="2" y="4.14282" width="20" height="15.7143" rx="1.42857" fill="#CFDBE9"/>
<path d="M12 11.2856L2 16.9999V18.8571C2 19.4093 2.44772 19.8571 3 19.8571H21C21.5523 19.8571 22 19.4093 22 18.8571V16.9999L12 11.2856Z" fill="#EEF0F4"/>
<path d="M11.6137 15.3231L2 9.14284V5.57141H22V9.14284L12.3863 15.3231C12.151 15.4744 11.849 15.4744 11.6137 15.3231Z" fill="#A7B6C8"/>
<path d="M11.2912 13.7378L2 8.42854V5.14282C2 4.59054 2.44772 4.14282 3 4.14282H21C21.5523 4.14282 22 4.59054 22 5.14282V8.42854L12.7088 13.7378C12.2696 13.9888 11.7304 13.9888 11.2912 13.7378Z" fill="#EEF0F4"/>
<path d="M15.1936 14.8341H16.3462C15.7102 15.9741 14.0176 16.9701 12.073 16.9701C8.96435 16.9701 7.04375 15.1581 7.04375 12.2301C7.02492 11.5393 7.1477 10.8521 7.40453 10.2106C7.66137 9.56907 8.04681 8.98695 8.53714 8.50005C9.02746 8.01316 9.61227 7.63181 10.2555 7.37948C10.8988 7.12716 11.587 7.0092 12.2776 7.03288C15.1216 7.03288 16.9576 8.83288 16.9576 11.2821C16.9742 12.1303 16.6626 12.9522 16.0877 13.5762C15.5128 14.2001 14.7191 14.5779 13.8724 14.6307C13.6311 14.6574 13.3884 14.5953 13.1897 14.456C12.9909 14.3168 12.8497 14.1099 12.7924 13.8741C12.6479 14.1271 12.438 14.3365 12.1845 14.4802C11.9311 14.6239 11.6436 14.6966 11.3524 14.6907C10.2244 14.6907 9.41975 13.8507 9.41975 12.4947C9.41975 10.5975 10.4644 9.31468 11.953 9.31468C12.2567 9.30792 12.5547 9.39873 12.8031 9.57378C13.0515 9.74883 13.2372 9.9989 13.333 10.2873L13.513 9.44728L14.8096 9.42328L14.017 13.1925C13.957 13.5039 14.065 13.6845 14.269 13.6845C14.8816 13.6845 15.937 12.9165 15.937 11.2845C15.937 9.37588 14.6536 7.94728 12.277 7.94728C9.66035 7.94728 8.06375 9.80728 8.06375 12.2325C8.06375 14.5611 9.48035 16.0617 12.0724 16.0617C12.6507 16.0972 13.2297 16.0057 13.7689 15.7936C14.3081 15.5815 14.7944 15.254 15.1936 14.8341ZM12.7456 12.0855C12.889 11.1489 12.6016 10.5255 12.0256 10.5255C11.4016 10.5255 10.9456 11.3181 10.9456 12.4455C10.9456 13.1421 11.2456 13.4775 11.7016 13.4775C12.217 13.4775 12.6004 12.9735 12.7456 12.0855Z" fill="#1E6EF4"/>
<circle cx="18.5" cy="18.5" r="4.5" fill="#444444"/>
<path d="M18.5029 19.7764C18.5839 19.7764 18.6594 19.7965 18.7294 19.8369C18.7995 19.8775 18.856 19.9339 18.8984 20.0059C18.9408 20.0759 18.9619 20.1524 18.9619 20.2354C18.9618 20.3202 18.9408 20.3988 18.8984 20.4707C18.856 20.5407 18.7994 20.5973 18.7294 20.6396C18.6595 20.68 18.5838 20.7002 18.5029 20.7002C18.4181 20.7002 18.3394 20.6802 18.2675 20.6396C18.1957 20.5973 18.139 20.5406 18.0966 20.4707C18.0561 20.3988 18.0362 20.3202 18.038 20.2354C18.0362 20.1524 18.056 20.0759 18.0966 20.0059C18.139 19.934 18.1957 19.8775 18.2675 19.8369C18.3394 19.7964 18.4181 19.7764 18.5029 19.7764ZM18.8515 19.1045H18.1435L18.0712 16.2998H18.9238L18.8515 19.1045Z" fill="white"/>
</svg>
