<svg width="24" height="24" viewBox="0 0 24 24" fill="none" xmlns="http://www.w3.org/2000/svg">
<path d="M22 12C22 17.5228 17.5228 22 12 22C6.47715 22 2 17.5228 2 12C2 6.47715 6.47715 2 12 2C17.5228 2 22 6.47715 22 12Z" fill="#EF8132"/>
<path d="M11.366 13.1459H12.7072L12.8434 7.83333H11.2298L11.366 13.1459Z" fill="white"/>
<path d="M11.1669 15.2865C11.1634 15.1293 11.2001 14.9844 11.2769 14.8516C11.3573 14.7154 11.4655 14.6089 11.6017 14.5321C11.738 14.4552 11.8864 14.4168 12.0471 14.4168C12.2008 14.4168 12.344 14.4552 12.4767 14.5321C12.6094 14.6089 12.716 14.7154 12.7963 14.8516C12.8766 14.9844 12.9168 15.1293 12.9168 15.2865C12.9168 15.4472 12.8766 15.5956 12.7963 15.7318C12.716 15.8646 12.6094 15.9711 12.4767 16.0514C12.344 16.1283 12.2008 16.1667 12.0471 16.1667C11.8864 16.1667 11.738 16.1283 11.6017 16.0514C11.4655 15.9711 11.3573 15.8646 11.2769 15.7318C11.2001 15.5956 11.1634 15.4472 11.1669 15.2865Z" fill="white"/>
</svg>
