<svg width="24" height="24" viewBox="0 0 24 24" fill="none" xmlns="http://www.w3.org/2000/svg">
<rect x="3" y="10.3276" width="18" height="4" rx="0.5" fill="#424F57"/>
<rect x="4" y="12" width="16" height="10" rx="1" fill="#424F57"/>
<rect x="5" y="2" width="14" height="9.4" rx="1" fill="#EEF0F4"/>
<path d="M16.7997 5.15308H13.1925" stroke="#BFC5CE" stroke-width="0.6" stroke-linecap="round" stroke-linejoin="round"/>
<path d="M15.6379 6.69995H13.1923" stroke="#BFC5CE" stroke-width="0.6" stroke-linecap="round" stroke-linejoin="round"/>
<path d="M15.6379 8.25H13.1923" stroke="#BFC5CE" stroke-width="0.6" stroke-linecap="round" stroke-linejoin="round"/>
<path d="M9.21277 6.94263C10.7531 6.94263 11.3524 7.9932 11.3524 8.48169C11.3519 8.96991 10.0766 9.09985 9.21277 9.09985C8.34892 9.09981 7.07465 8.96983 7.0741 8.48169C7.0741 7.99325 7.67296 6.94282 9.21277 6.94263ZM9.21375 4.30005C9.8463 4.3003 10.359 4.81299 10.3593 5.44556C10.3593 6.07831 9.84644 6.59179 9.21375 6.59204C8.58083 6.59204 8.06726 6.07847 8.06726 5.44556C8.06749 4.81284 8.58097 4.30005 9.21375 4.30005Z" fill="#1E6EF4"/>
<rect x="5" y="15" width="14" height="6" rx="1" fill="#AFB7C0"/>
<rect x="5" y="12" width="14" height="8" rx="1" fill="#EEF0F4"/>
<path d="M8.36572 10.9128V12.4458" stroke="#8595AA" stroke-miterlimit="10" stroke-linecap="round"/>
<path d="M15.6343 10.9128V12.4458" stroke="#8595AA" stroke-miterlimit="10" stroke-linecap="round"/>
<path d="M8.03632 15.3158H15.9637" stroke="#BFC5CE" stroke-width="0.7" stroke-linecap="round"/>
<path d="M8.03632 17H12.0363" stroke="#BFC5CE" stroke-width="0.7" stroke-linecap="round"/>
</svg>
