<svg width="24" height="24" viewBox="0 0 24 24" fill="none" xmlns="http://www.w3.org/2000/svg">
<rect width="24" height="24" fill="white"/>
<path d="M10.9335 3.79215C11.4075 2.97114 12.5925 2.97114 13.0665 3.79215L21.8332 18.9764C22.3072 19.7974 21.7147 20.8237 20.7666 20.8237H3.23336C2.28533 20.8237 1.69282 19.7974 2.16683 18.9764L10.9335 3.79215Z" fill="#F7D649"/>
<path d="M12.0062 16.2915C12.1763 16.2915 12.3348 16.3344 12.4818 16.4194C12.6288 16.5046 12.7473 16.623 12.8362 16.7739C12.9251 16.9209 12.9691 17.0814 12.9691 17.2554C12.969 17.4333 12.9252 17.5977 12.8362 17.7485C12.7473 17.8956 12.6288 18.014 12.4818 18.103C12.3349 18.188 12.1762 18.23 12.0062 18.23C11.8283 18.23 11.6638 18.188 11.513 18.103C11.3621 18.014 11.2416 17.8956 11.1526 17.7485C11.0676 17.5977 11.0277 17.4332 11.0316 17.2554C11.0277 17.0814 11.0677 16.9208 11.1526 16.7739C11.2416 16.623 11.3621 16.5046 11.513 16.4194C11.6638 16.3344 11.8283 16.2915 12.0062 16.2915ZM12.7376 14.8843H11.2513L11.1009 8.99951H12.888L12.7376 14.8843Z" fill="#222222"/>
</svg>
