<svg width="24" height="24" viewBox="0 0 24 24" fill="none" xmlns="http://www.w3.org/2000/svg">
<rect x="2" y="4.30005" width="20" height="15.4" rx="1" fill="#E4E7EA"/>
<path d="M8.22728 12.1107C10.1526 12.1107 10.901 13.4239 10.9011 14.0345C10.9011 14.6452 9.30734 14.808 8.22728 14.808C7.14723 14.808 5.55346 14.6451 5.55346 14.0345C5.55354 13.4239 6.30225 12.1107 8.22728 12.1107ZM8.22728 8.80798C9.01842 8.80798 9.6599 9.44946 9.6599 10.2406C9.65979 11.0316 9.01836 11.6732 8.22728 11.6732C7.43628 11.6731 6.79478 11.0316 6.79467 10.2406C6.79467 9.44951 7.43622 8.80807 8.22728 8.80798Z" fill="#4C586A"/>
<path d="M13 10.6793H17.6942" stroke="#AFB7C0" stroke-width="1.2" stroke-linecap="round"/>
<path d="M13 13.3208H15.6942" stroke="#AFB7C0" stroke-width="1.2" stroke-linecap="round"/>
<rect x="14" y="14" width="9" height="9" rx="4.5" fill="#5288FF"/>
<path fill-rule="evenodd" clip-rule="evenodd" d="M18.5 19.835C18.209 19.835 17.9732 20.0707 17.9732 20.3617C17.9732 20.6528 18.209 20.8885 18.5 20.8885C18.791 20.8885 19.0268 20.6528 19.0268 20.3617C19.0268 20.0707 18.791 19.835 18.5 19.835Z" fill="white"/>
<path fill-rule="evenodd" clip-rule="evenodd" d="M18.5 19.0964C18.2818 19.0964 18.1049 18.9195 18.1049 18.7013V16.5065C18.1049 16.2884 18.2818 16.1115 18.5 16.1115C18.7181 16.1115 18.895 16.2884 18.895 16.5065V18.7013C18.895 18.9195 18.7181 19.0964 18.5 19.0964Z" fill="white"/>
</svg>
