<svg width="24" height="24" viewBox="0 0 24 24" fill="none" xmlns="http://www.w3.org/2000/svg">
<g clip-path="url(#clip0_948_74569)">
<path d="M10.6729 19.8948H13.8757L13.8689 21.5755C13.8689 21.6319 13.8578 21.6877 13.8362 21.7399C13.8146 21.792 13.783 21.8393 13.7431 21.8792C13.7032 21.9191 13.6558 21.9508 13.6037 21.9724C13.5516 21.994 13.4957 22.0051 13.4393 22.0051H11.0957C10.9818 22.0051 10.8725 21.9598 10.7919 21.8792C10.7114 21.7987 10.6661 21.6894 10.6661 21.5755L10.6729 19.8948Z" fill="#424F57"/>
<path d="M17.0761 5.495H6.92407C5.57778 5.495 4.28662 6.02977 3.33459 6.98168C2.38256 7.9336 1.84763 9.2247 1.84747 10.571V18.6044C1.84763 18.9497 1.98486 19.2807 2.229 19.5249C2.47313 19.769 2.80421 19.9062 3.14947 19.9064H20.8495C21.1947 19.9062 21.5257 19.769 21.7697 19.5248C22.0138 19.2807 22.1509 18.9496 22.1509 18.6044V10.571C22.1509 9.22496 21.6162 7.93405 20.6646 6.98215C19.7129 6.03024 18.4221 5.49531 17.0761 5.495Z" fill="#5288FF"/>
<path d="M7.22055 6.68586C8.36573 6.78697 9.43046 7.3169 10.2016 8.16957C10.9727 9.02224 11.3933 10.1347 11.3791 11.2843V19.3243H3.31695C3.20559 19.3243 3.09531 19.3025 2.99241 19.2599C2.88952 19.2173 2.79603 19.1549 2.71729 19.0761C2.63854 18.9974 2.5761 18.9039 2.53352 18.801C2.49094 18.6981 2.46907 18.5878 2.46915 18.4765V11.1319C2.46912 10.5218 2.59436 9.91824 2.83713 9.35857C3.07989 8.7989 3.435 8.29504 3.88046 7.87822C4.32591 7.4614 4.85221 7.14049 5.42675 6.93539C6.0013 6.73029 6.61184 6.64535 7.22055 6.68586Z" fill="#082B9C"/>
<path d="M19.3531 2.76711C19.4236 2.71312 19.4755 2.6384 19.5014 2.55343C19.5273 2.46847 19.526 2.37753 19.4976 2.29336C19.4692 2.20919 19.4152 2.13601 19.3431 2.0841C19.271 2.03219 19.1845 2.00415 19.0957 2.00391H16.1221C16.0161 2.00391 15.9145 2.04601 15.8395 2.12095C15.7646 2.19589 15.7225 2.29753 15.7225 2.40351V11.0381C15.7225 11.1307 15.7407 11.2224 15.7761 11.3079C15.8116 11.3934 15.8635 11.4712 15.929 11.5366C15.9944 11.6021 16.0721 11.654 16.1577 11.6894C16.2432 11.7249 16.3349 11.7431 16.4275 11.7431C16.6145 11.7431 16.7939 11.6688 16.9262 11.5367C17.0585 11.4045 17.1329 11.2251 17.1331 11.0381V4.45731L19.3531 2.76711Z" fill="#0029AD"/>
<mask id="mask0_948_74569" style="mask-type:luminance" maskUnits="userSpaceOnUse" x="2" y="6" width="10" height="14">
<path d="M7.22055 6.68586C8.36573 6.78697 9.43046 7.3169 10.2016 8.16957C10.9727 9.02224 11.3933 10.1347 11.3791 11.2843V19.3243H3.31695C3.20559 19.3243 3.09531 19.3025 2.99241 19.2599C2.88952 19.2173 2.79603 19.1549 2.71729 19.0761C2.63854 18.9974 2.5761 18.9039 2.53352 18.801C2.49094 18.6981 2.46907 18.5878 2.46915 18.4765V11.1319C2.46912 10.5218 2.59436 9.91824 2.83713 9.35857C3.07989 8.7989 3.435 8.29504 3.88046 7.87822C4.32591 7.4614 4.85221 7.14049 5.42675 6.93539C6.0013 6.73029 6.61184 6.64535 7.22055 6.68586Z" fill="white"/>
</mask>
<g mask="url(#mask0_948_74569)">
<path d="M5.77206 12.66V17.8122C5.77338 18.1559 5.89262 18.4886 6.10986 18.7548L10.0549 15.6108L5.77206 12.66Z" fill="#CFDBE9"/>
<path d="M12.4105 15.8095C12.107 16.0185 11.7472 16.1303 11.3788 16.1303C11.0103 16.1303 10.6505 16.0185 10.3471 15.8095L10.0549 15.6079L6.10986 18.7519C6.25049 18.9298 6.42943 19.0736 6.63335 19.1727C6.83728 19.2718 7.06093 19.3236 7.28766 19.3243H15.4705C15.6971 19.3236 15.9207 19.2718 16.1245 19.1727C16.3283 19.0736 16.5072 18.9298 16.6477 18.7519L12.7033 15.6079L12.4105 15.8095Z" fill="#EEF0F4"/>
<path d="M16.9855 12.66L12.4105 16.4724C12.1175 16.7063 11.7537 16.8338 11.3788 16.8338C11.0038 16.8338 10.6401 16.7063 10.3471 16.4724L5.77206 12.66H16.9855Z" fill="#A7B6C8"/>
<path d="M15.4704 10.5354H7.28757C6.88561 10.5354 6.50011 10.6951 6.21588 10.9793C5.93165 11.2635 5.77197 11.649 5.77197 12.051V12.66L10.347 15.8124C10.6504 16.0214 11.0102 16.1332 11.3787 16.1332C11.7471 16.1332 12.1069 16.0214 12.4104 15.8124L16.9854 12.66V12.054C16.9858 11.8548 16.9469 11.6574 16.8709 11.4732C16.795 11.289 16.6834 11.1216 16.5427 10.9806C16.402 10.8395 16.2349 10.7276 16.0509 10.6512C15.8669 10.5748 15.6696 10.5355 15.4704 10.5354Z" fill="#EEF0F4"/>
</g>
</g>
<defs>
<clipPath id="clip0_948_74569">
<rect width="24" height="24" fill="white"/>
</clipPath>
</defs>
</svg>
