<svg width="24" height="24" viewBox="0 0 24 24" fill="none" xmlns="http://www.w3.org/2000/svg">
<path d="M18.7628 2H5.23719C4.55407 2 4 2.53602 4 3.19689V20.7087C4 21.4217 4.59773 22 5.33478 22H18.6652C19.4023 22 20 21.4217 20 20.7087V3.19752C20 2.53602 19.4459 2 18.7628 2Z" fill="#E4E7EA"/>
<path d="M10.5664 10.5224C10.5664 10.6875 10.4323 10.8216 10.2672 10.8216H9.07097C8.90585 10.8216 8.77177 10.6875 8.77177 10.5224V9.32618C8.77177 9.16106 8.90585 9.02698 9.07097 9.02698H10.2672C10.4323 9.02698 10.5664 9.16106 10.5664 9.32618V10.5224Z" fill="#4C586A"/>
<path d="M10.5664 14.7093C10.5664 14.8744 10.4323 15.0085 10.2672 15.0085H9.07097C8.90585 15.0085 8.77177 14.8744 8.77177 14.7093V13.5131C8.77177 13.3479 8.90585 13.2139 9.07097 13.2139H10.2672C10.4323 13.2139 10.5664 13.3479 10.5664 13.5131V14.7093Z" fill="#4C586A"/>
<path d="M10.5664 6.33475C10.5664 6.49987 10.4323 6.63395 10.2672 6.63395H9.07098C8.90586 6.63395 8.77177 6.49987 8.77177 6.33475V5.13856C8.77177 4.97344 8.90586 4.83936 9.07098 4.83936H10.2672C10.4323 4.83936 10.5664 4.97344 10.5664 5.13856V6.33475Z" fill="#4C586A"/>
<path d="M15.2282 14.7093C15.2282 14.8744 15.0942 15.0085 14.929 15.0085H13.7329C13.5677 15.0085 13.4337 14.8744 13.4337 14.7093V13.5131C13.4337 13.3479 13.5677 13.2139 13.7329 13.2139H14.929C15.0942 13.2139 15.2282 13.3479 15.2282 13.5131V14.7093Z" fill="#4C586A"/>
<path d="M15.2282 10.5224C15.2282 10.6875 15.0942 10.8216 14.929 10.8216H13.7329C13.5677 10.8216 13.4337 10.6875 13.4337 10.5224V9.32618C13.4337 9.16106 13.5677 9.02698 13.7329 9.02698H14.929C15.0942 9.02698 15.2282 9.16106 15.2282 9.32618V10.5224Z" fill="#4C586A"/>
<path d="M15.2282 6.33475C15.2282 6.49987 15.0942 6.63395 14.929 6.63395H13.7329C13.5677 6.63395 13.4337 6.49987 13.4337 6.33475V5.13856C13.4337 4.97344 13.5677 4.83936 13.7329 4.83936H14.929C15.0942 4.83936 15.2282 4.97344 15.2282 5.13856V6.33475Z" fill="#4C586A"/>
<rect x="14" y="14" width="9" height="9" rx="4.5" fill="#5288FF"/>
<path d="M16.7081 17.2726L17.6007 19.7274L18.4933 17.2726L19.3859 19.7274L20.2785 17.2726" stroke="white" stroke-width="0.714254" stroke-linecap="round" stroke-linejoin="round"/>
<path d="M16.2471 18.5011H17.0654" stroke="white" stroke-width="0.714254" stroke-linecap="round" stroke-linejoin="round"/>
<path d="M19.9346 18.5011H20.7529" stroke="white" stroke-width="0.714254" stroke-linecap="round" stroke-linejoin="round"/>
</svg>
