<svg width="24" height="24" viewBox="0 0 24 24" fill="none" xmlns="http://www.w3.org/2000/svg">
<path d="M8.23926 12.707C12.731 12.707 14.4783 15.7705 14.4785 17.1953C14.4785 18.6201 10.7594 19 8.23926 19C5.71913 19 2 18.62 2 17.1953C2.00021 15.7705 3.74707 12.7071 8.23926 12.707ZM8.23926 5C10.0853 5 11.582 6.49678 11.582 8.34277C11.5818 10.1886 10.0851 11.6846 8.23926 11.6846C6.39357 11.6844 4.89772 10.1884 4.89746 8.34277C4.89746 6.49688 6.39341 5.00018 8.23926 5Z" fill="#5288FF"/>
<path d="M15.7593 12.707C20.2514 12.7072 21.9983 15.7705 21.9985 17.1953C21.9985 18.62 18.2794 19 15.7593 19C13.2391 19 9.52002 18.6201 9.52002 17.1953C9.52023 15.7705 11.2675 12.707 15.7593 12.707ZM15.7583 5C17.6043 5 19.1011 6.49678 19.1011 8.34277C19.1008 10.1886 17.6041 11.6846 15.7583 11.6846C13.9126 11.6844 12.4168 10.1884 12.4165 8.34277C12.4165 6.4969 13.9125 5.00019 15.7583 5Z" fill="#A3C0FF"/>
</svg>
