<svg width="24" height="24" viewBox="0 0 24 24" fill="none" xmlns="http://www.w3.org/2000/svg">
<g clip-path="url(#clip0_8192_467)">
<path fill-rule="evenodd" clip-rule="evenodd" d="M19.3127 12.5717C19.6862 11.4541 19.7822 10.267 19.5932 9.1069C19.4043 7.9468 18.9354 6.84548 18.2238 5.89319C17.5121 4.9408 16.5776 4.16427 15.4957 3.6283C14.4137 3.0923 13.2158 2.8125 12 2.8125C10.7842 2.8125 9.58622 3.09231 8.50427 3.62831C7.42237 4.16428 6.48787 4.94082 5.7762 5.89321C5.06458 6.84551 4.59573 7.94683 4.40675 9.10692C4.21778 10.267 4.3138 11.4541 4.68728 12.5717L3.62028 12.9283C3.18912 11.6381 3.07803 10.2665 3.29639 8.92604C3.51474 7.58563 4.05611 6.31566 4.87501 5.21979C5.69385 4.124 6.7667 3.23362 8.00487 2.62023C9.24298 2.00687 10.6119 1.6875 12 1.6875C13.388 1.6875 14.757 2.00686 15.9951 2.62022C17.2333 3.23361 18.3061 4.12398 19.125 5.21976C19.9439 6.31564 20.4852 7.5856 20.7036 8.92601C20.922 10.2665 20.8109 11.6381 20.3797 12.9283L19.3127 12.5717Z" fill="#A7B6C8"/>
<path fill-rule="evenodd" clip-rule="evenodd" d="M18.7955 5.2955C18.3562 5.73484 17.6438 5.73484 17.2045 5.29549C16.9163 5.00726 16.3646 4.53067 15.3309 4.07126C14.3053 3.61544 13.1634 3.375 12 3.375C10.8366 3.375 9.69465 3.61545 8.66905 4.07127C7.98231 4.37649 7.40706 4.68393 6.79549 5.29549C6.35615 5.73484 5.64384 5.73484 5.20451 5.29549C4.76517 4.85616 4.76517 4.14384 5.20451 3.7045C6.09294 2.81607 6.94902 2.37351 7.75524 2.01519C9.07599 1.42819 10.53 1.125 12 1.125C13.4699 1.125 14.924 1.42818 16.2447 2.01518C17.5574 2.59859 18.3337 3.24274 18.7955 3.7045C19.2348 4.14384 19.2348 4.85616 18.7955 5.2955Z" fill="#424F57"/>
<path d="M1.5 12C1.5 11.1716 2.17157 10.5 3 10.5H5.25V19.5H3C2.17157 19.5 1.5 18.8284 1.5 18V12Z" fill="#5288FF"/>
<path d="M5.25 10.5H6.75C7.16421 10.5 7.5 10.8358 7.5 11.25V18.75C7.5 19.1642 7.16421 19.5 6.75 19.5H5.25V10.5Z" fill="#A3C0FF"/>
<path fill-rule="evenodd" clip-rule="evenodd" d="M19.3125 20.625C19.3125 21.7641 18.3891 22.6875 17.25 22.6875H12.75C12.4393 22.6875 12.1875 22.4357 12.1875 22.125C12.1875 21.8143 12.4393 21.5625 12.75 21.5625H17.25C17.7678 21.5625 18.1875 21.1428 18.1875 20.625V15.75C18.1875 15.4393 18.4393 15.1875 18.75 15.1875C19.0607 15.1875 19.3125 15.4393 19.3125 15.75V20.625Z" fill="#A7B6C8"/>
<path d="M9.75 21.75C9.75 21.3358 10.0858 21 10.5 21H13.5C13.9142 21 14.25 21.3358 14.25 21.75V22.5C14.25 22.9142 13.9142 23.25 13.5 23.25H10.5C10.0858 23.25 9.75 22.9142 9.75 22.5V21.75Z" fill="#424F57"/>
<path d="M22.5 12C22.5 11.1716 21.8284 10.5 21 10.5H18.75V19.5H21C21.8284 19.5 22.5 18.8284 22.5 18V12Z" fill="#5288FF"/>
<path d="M18.75 10.5H17.25C16.8358 10.5 16.5 10.8358 16.5 11.25V18.75C16.5 19.1642 16.8358 19.5 17.25 19.5H18.75V10.5Z" fill="#A3C0FF"/>
</g>
<defs>
<clipPath id="clip0_8192_467">
<rect width="21" height="22.125" fill="white" transform="translate(1.5 1.125)"/>
</clipPath>
</defs>
</svg>
