<svg width="24" height="24" viewBox="0 0 24 24" fill="none" xmlns="http://www.w3.org/2000/svg">
<g clip-path="url(#clip0_4183_74576)">
<path d="M14.7695 6.41699C15.2479 6.41699 15.6445 6.81366 15.6445 7.29199C15.6446 12.0517 17.5 13.9062 22.2598 13.9062C22.738 13.9062 23.1345 14.3031 23.1348 14.7812C23.1348 15.2596 22.7381 15.6562 22.2598 15.6562C17.5 15.6563 15.6446 17.5117 15.6445 22.2715C15.6445 22.7498 15.2479 23.1465 14.7695 23.1465C14.2914 23.1462 13.8945 22.7497 13.8945 22.2715C13.8945 17.5117 12.04 15.6563 7.28027 15.6562C6.80194 15.6562 6.40527 15.2596 6.40527 14.7812C6.4055 14.3031 6.80208 13.9062 7.28027 13.9062C12.04 13.9062 13.8944 12.0517 13.8945 7.29199C13.8945 6.81381 14.2914 6.41724 14.7695 6.41699ZM5.68164 -0.0117188C6.15987 -0.0117188 6.55646 0.385093 6.55664 0.863281C6.55664 3.77995 7.595 4.80664 10.5 4.80664C10.9782 4.80665 11.3748 5.20345 11.375 5.68164C11.375 6.15997 10.9783 6.55663 10.5 6.55664C7.61843 6.55664 6.55671 7.63021 6.55664 10.5C6.55664 10.9783 6.15997 11.375 5.68164 11.375C5.20331 11.375 4.80664 10.9783 4.80664 10.5C4.80657 7.61854 3.73319 6.55664 0.863281 6.55664C0.384966 6.55662 -0.0117188 6.15996 -0.0117188 5.68164C-0.011553 5.20345 0.385066 4.80666 0.863281 4.80664C3.77995 4.80664 4.80664 3.76828 4.80664 0.863281C4.80682 0.385098 5.20342 -0.0117107 5.68164 -0.0117188Z" fill="url(#paint0_linear_4183_74576)"/>
</g>
<defs>
<linearGradient id="paint0_linear_4183_74576" x1="-0.901968" y1="-0.0117204" x2="28.8376" y2="5.39274" gradientUnits="userSpaceOnUse">
<stop stop-color="#435EFF"/>
<stop offset="1" stop-color="#9438EF"/>
</linearGradient>
<clipPath id="clip0_4183_74576">
<rect width="23.135" height="23.135" fill="white"/>
</clipPath>
</defs>
</svg>
