<svg width="24" height="24" viewBox="0 0 24 24" fill="none" xmlns="http://www.w3.org/2000/svg">
<g clip-path="url(#clip0_5734_7946)">
<path d="M5.23681 12.087H18.7632C19.2162 12.087 19.5828 12.4542 19.5828 12.9066V20.7804C19.5828 21.2334 19.2156 21.6 18.7632 21.6H5.23681C4.78381 21.6 4.41721 21.2328 4.41721 20.7804V12.9066C4.41721 12.4536 4.78441 12.087 5.23681 12.087Z" fill="#424F57"/>
<path d="M19.707 10.146H4.293C3.94373 10.146 3.6606 10.4291 3.6606 10.7784V13.4544C3.6606 13.8037 3.94373 14.0868 4.293 14.0868H19.707C20.0563 14.0868 20.3394 13.8037 20.3394 13.4544V10.7784C20.3394 10.4291 20.0563 10.146 19.707 10.146Z" fill="#424F57"/>
<path d="M6.47819 2.40002H17.5218C17.934 2.40002 18.2676 2.73422 18.2676 3.14582V10.9992C18.2676 11.4114 17.9334 11.745 17.5218 11.745H6.47819C6.06599 11.745 5.73239 11.4108 5.73239 10.9992V3.14582C5.73239 2.73362 6.06659 2.40002 6.47819 2.40002Z" fill="#E5E9EE"/>
<path d="M9.3894 6.87728C10.0505 6.87728 10.5864 6.34136 10.5864 5.68028C10.5864 5.01919 10.0505 4.48328 9.3894 4.48328C8.72831 4.48328 8.1924 5.01919 8.1924 5.68028C8.1924 6.34136 8.72831 6.87728 9.3894 6.87728Z" fill="#64A7FF"/>
<path d="M9.3894 7.39746C11.0274 7.39746 11.6574 8.53146 11.6574 9.03546C11.6574 9.53946 10.3344 9.66546 9.3894 9.66546C8.4444 9.66546 7.1214 9.53946 7.1214 9.03546C7.1214 8.46846 7.7514 7.39746 9.3894 7.39746Z" fill="#64A7FF"/>
<path d="M16.6008 5.72408H12.9936C12.7818 5.72408 12.6102 5.55248 12.6102 5.34068C12.6102 5.12888 12.7818 4.95728 12.9936 4.95728H16.6008C16.8126 4.95728 16.9842 5.12888 16.9842 5.34068C16.9842 5.55248 16.8126 5.72408 16.6008 5.72408Z" fill="#D0D5DA"/>
<path d="M16.6008 7.45625H14.1552C13.9434 7.45625 13.7718 7.28465 13.7718 7.07285C13.7718 6.86105 13.9434 6.68945 14.1552 6.68945H16.6008C16.8126 6.68945 16.9842 6.86105 16.9842 7.07285C16.9842 7.28465 16.8126 7.45625 16.6008 7.45625Z" fill="#D0D5DA"/>
<path d="M16.6008 9.18721H14.1552C13.9434 9.18721 13.7718 9.01561 13.7718 8.80381C13.7718 8.59201 13.9434 8.42041 14.1552 8.42041H16.6008C16.8126 8.42041 16.9842 8.59201 16.9842 8.80381C16.9842 9.01561 16.8126 9.18721 16.6008 9.18721Z" fill="#D0D5DA"/>
<path d="M6.47819 12.4872H17.5218C17.934 12.4872 18.2676 12.8214 18.2676 13.233V19.1898C18.2676 19.602 17.9334 19.9356 17.5218 19.9356H6.47819C6.06599 19.9356 5.73239 19.6014 5.73239 19.1898V13.233C5.73239 12.8208 6.06659 12.4872 6.47819 12.4872Z" fill="#AFB7C0"/>
<path d="M6.47819 12.4872H17.5218C17.934 12.4872 18.2676 12.8214 18.2676 13.233V17.925C18.2676 18.3372 17.9334 18.6708 17.5218 18.6708H6.47819C6.06599 18.6708 5.73239 18.3366 5.73239 17.925V13.233C5.73239 12.8208 6.06659 12.4872 6.47819 12.4872Z" fill="#E5E9EE"/>
<path d="M8.3658 13.3566C8.1036 13.3566 7.8918 13.1442 7.8918 12.8826V11.3496C7.8918 11.0874 8.1042 10.8756 8.3658 10.8756C8.6274 10.8756 8.8398 11.088 8.8398 11.3496V12.8826C8.8398 13.1448 8.6274 13.3566 8.3658 13.3566Z" fill="#8595AA"/>
<path d="M15.6342 13.3566C15.372 13.3566 15.1602 13.1442 15.1602 12.8826V11.3496C15.1602 11.0874 15.3726 10.8756 15.6342 10.8756C15.8958 10.8756 16.1082 11.088 16.1082 11.3496V12.8826C16.1082 13.1448 15.8958 13.3566 15.6342 13.3566Z" fill="#8595AA"/>
</g>
<defs>
<clipPath id="clip0_5734_7946">
<rect width="24" height="24" fill="white"/>
</clipPath>
</defs>
</svg>
