<svg width="24" height="24" viewBox="0 0 24 24" fill="none" xmlns="http://www.w3.org/2000/svg">
<path d="M18.0387 3.00791L22.7163 10.9833C23.0829 11.6085 23.0949 12.383 22.7482 13.0191L22.1034 14.2023C21.8913 14.5923 21.5367 14.8846 21.1149 15.0149C18.2166 15.9082 16.1019 14.2175 14.5245 11.6389L14.4806 11.5672C14.3642 11.3773 14.4253 11.129 14.6165 11.0147L16.2877 10.0166C16.5788 9.8427 16.5351 9.40817 16.2152 9.29578L9.59197 6.9691C9.24058 6.84566 8.8628 7.06884 8.80133 7.43617L7.63332 14.4164C7.57706 14.7526 7.94021 15.0006 8.23289 14.8259L9.71646 13.9401C9.88484 13.8395 10.1007 13.8766 10.2319 14.0224C12.8406 16.9212 16.9462 18.1599 20.3721 16.5396C20.5561 16.4526 20.765 16.6588 20.6676 16.8376L18.4395 20.929C18.082 21.5852 17.3987 21.9933 16.6572 21.9939L7.71419 22C6.99488 22.0006 6.32785 21.6173 5.96128 20.9921L1.28367 13.0161C0.9171 12.3909 0.905081 11.6164 1.25182 10.9803L5.55926 3.07099C5.91681 2.41481 6.60007 2.00728 7.34221 2.00607L16.2858 2C17.0051 1.99939 17.6722 2.38267 18.0387 3.00791Z" fill="#4C7AFB"/>
</svg>
