<svg width="24" height="24" viewBox="0 0 24 24" fill="none" xmlns="http://www.w3.org/2000/svg">
<g clip-path="url(#clip0_5734_7993)">
<path d="M8.70001 21.273L2.54041 19.5066C2.28061 19.4322 2.10001 19.1796 2.10001 18.891V5.31C2.10001 4.8912 2.46961 4.5864 2.84641 4.6944L8.70001 6.3732V21.273Z" fill="#D0D5DC"/>
<path d="M8.70001 21.273L15.3 19.3806V4.48022L8.70001 6.37322V21.273Z" fill="#E1E4E7"/>
<path d="M21.1536 21.0588L15.3 19.38V4.48022L21.4596 6.24662C21.7194 6.32102 21.9 6.57362 21.9 6.86222V20.4432C21.9 20.862 21.5304 21.1668 21.1536 21.0588Z" fill="#D0D5DC"/>
<path d="M15.732 11.6832C16.293 11.0904 17.3082 10.0248 18.2082 9.12058C19.923 7.39678 20.04 4.45498 18.3042 2.75278C17.4702 1.93498 16.3854 1.52638 15.3 1.52698C14.2152 1.52698 13.1304 1.93498 12.2964 2.75278C10.5594 4.45558 10.677 7.39738 12.3924 9.12118C13.2924 10.0254 14.3094 11.091 14.8704 11.6838C15.1044 11.931 15.4974 11.9304 15.7314 11.6838L15.732 11.6832Z" fill="#2DA973"/>
<path d="M15.3006 7.09081C16.0041 7.09081 16.5744 6.52051 16.5744 5.81701C16.5744 5.11351 16.0041 4.54321 15.3006 4.54321C14.5971 4.54321 14.0268 5.11351 14.0268 5.81701C14.0268 6.52051 14.5971 7.09081 15.3006 7.09081Z" fill="#FBFBFB"/>
</g>
<defs>
<clipPath id="clip0_5734_7993">
<rect width="24" height="24" fill="white"/>
</clipPath>
</defs>
</svg>
