<svg width="24" height="24" viewBox="0 0 24 24" fill="none" xmlns="http://www.w3.org/2000/svg">
<path d="M17.2382 1.5H2.2618C1.84107 1.5 1.5 1.86588 1.5 2.31722V21.6828C1.5 22.1341 1.84107 22.5 2.2618 22.5H17.2382C17.6589 22.5 18 22.1341 18 21.6828V2.31722C18 1.86588 17.6589 1.5 17.2382 1.5Z" fill="#EEF0F4"/>
<path d="M12.537 20.37L9.93298 17.802C9.66898 17.538 9.66298 17.112 9.92698 16.848L19.605 7.13401C19.869 6.87001 20.295 6.86401 20.559 7.12801L23.163 9.69601C23.427 9.96001 23.433 10.386 23.169 10.65L13.497 20.364C13.233 20.628 12.807 20.634 12.543 20.37H12.537Z" fill="#FFC300"/>
<path d="M8.31298 21.9061L9.81898 16.9561L13.389 20.4661L8.45098 22.0801L8.31298 21.9061Z" fill="#FFE5CF"/>
<path d="M18.111 8.64603L19.605 7.12803C19.869 6.86403 20.295 6.85803 20.559 7.12203L23.163 9.69003C23.427 9.95403 23.433 10.38 23.169 10.644L21.675 12.162L18.105 8.64603H18.111Z" fill="#FF8700"/>
<path fill-rule="evenodd" clip-rule="evenodd" d="M3.75 5.64001C3.75 5.32935 4.00471 5.07751 4.3189 5.07751H15.1811C15.4953 5.07751 15.75 5.32935 15.75 5.64001C15.75 5.95067 15.4953 6.20251 15.1811 6.20251H4.3189C4.00471 6.20251 3.75 5.95067 3.75 5.64001Z" fill="#A7B6C8"/>
<path fill-rule="evenodd" clip-rule="evenodd" d="M3.75 8.74194C3.75 8.43128 4.00471 8.17944 4.3189 8.17944H15.1811C15.4953 8.17944 15.75 8.43128 15.75 8.74194C15.75 9.0526 15.4953 9.30444 15.1811 9.30444H4.3189C4.00471 9.30444 3.75 9.0526 3.75 8.74194Z" fill="#A7B6C8"/>
<path fill-rule="evenodd" clip-rule="evenodd" d="M3.75 11.844C3.75 11.5333 4.00772 11.2815 4.32562 11.2815H10.6744C10.9923 11.2815 11.25 11.5333 11.25 11.844C11.25 12.1547 10.9923 12.4065 10.6744 12.4065H4.32562C4.00772 12.4065 3.75 12.1547 3.75 11.844Z" fill="#A7B6C8"/>
<path d="M8.33698 22.1341L9.63898 21.6961L8.65498 20.7841L8.25898 22.0441C8.25898 22.0441 8.21098 22.1701 8.33698 22.1341Z" fill="#222222"/>
</svg>
