<svg width="24" height="24" viewBox="0 0 24 24" fill="none" xmlns="http://www.w3.org/2000/svg">
<path fill-rule="evenodd" clip-rule="evenodd" d="M20.0264 3.66711H3.97314C3.47069 3.66711 3.06339 4.07442 3.06339 4.57686V16.8787H20.9361V4.57686C20.9361 4.07442 20.5288 3.66711 20.0264 3.66711Z" fill="#3E4857"/>
<path d="M20.9364 16.8787H3.06369L1.14846 19.2517C0.798235 19.6858 1.10684 20.3327 1.66517 20.3327H22.3349C22.8927 20.3327 23.2019 19.6864 22.8516 19.2517L20.9364 16.8787Z" fill="#A7B6C8"/>
<path d="M14.842 17.6553H9.157C8.98992 17.6553 8.83175 17.7308 8.72651 17.861L8.04865 18.7012C7.92914 18.8492 8.03438 19.0698 8.22525 19.0698H15.775C15.9653 19.0698 16.0711 18.8492 15.9516 18.7012L15.2737 17.861C15.1685 17.7308 15.0103 17.6553 14.8432 17.6553H14.842Z" fill="#EEF0F4"/>
<path d="M16.1655 7.87097C17.2568 7.87097 17.848 8.42936 18.0756 8.9032C18.1808 9.12222 17.9904 9.32501 17.7475 9.32507H14.5844C14.3414 9.32507 14.1502 9.12228 14.2553 8.9032C14.4828 8.42922 15.074 7.87106 16.1655 7.87097ZM16.1655 5.37292C16.7637 5.37292 17.2492 5.85778 17.2495 6.45593C17.2495 7.05426 16.7638 7.53992 16.1655 7.53992C15.5673 7.53973 15.0825 7.05415 15.0825 6.45593C15.0827 5.85789 15.5674 5.37312 16.1655 5.37292Z" fill="#A3C0FF"/>
<path d="M16.1655 13.5547C17.2568 13.5547 17.848 14.1131 18.0756 14.5869C18.1808 14.8059 17.9904 15.0087 17.7475 15.0088H14.5844C14.3414 15.0088 14.1502 14.806 14.2553 14.5869C14.4828 14.113 15.074 13.5548 16.1655 13.5547ZM16.1655 11.0566C16.7638 11.0566 17.2495 11.5423 17.2495 12.1406C17.2492 12.7388 16.7637 13.2236 16.1655 13.2236C15.5674 13.2234 15.0827 12.7387 15.0825 12.1406C15.0825 11.5424 15.5673 11.0568 16.1655 11.0566Z" fill="#CCDCFF"/>
<path d="M8.73218 11.0602C10.5403 11.0602 11.4387 12.0757 11.699 12.8229C11.7788 13.0522 11.5843 13.2523 11.3416 13.2526H6.12378C5.88087 13.2524 5.68645 13.0523 5.76636 12.8229C6.02659 12.0757 6.92428 11.0603 8.73218 11.0602ZM8.73315 7.29358C9.63503 7.29381 10.3659 8.02545 10.366 8.92737C10.366 9.82932 9.63505 10.5609 8.73315 10.5612C7.83106 10.5612 7.09937 9.82946 7.09937 8.92737C7.0994 8.02531 7.83108 7.29358 8.73315 7.29358Z" fill="#5288FF"/>
</svg>
