<svg width="24" height="24" viewBox="0 0 24 24" fill="none" xmlns="http://www.w3.org/2000/svg">
<path d="M20.3589 7.23572V20.1304C20.3589 21.0844 19.5849 21.8525 18.6368 21.8525H6.31218C5.35813 21.8525 4.59009 21.0784 4.59009 20.1304V3.86955C4.59009 2.9155 5.36413 2.14746 6.31218 2.14746H15.2646L20.3529 7.23572H20.3589Z" fill="#EAEBED"/>
<path d="M20.3589 7.23572H16.5007C15.8227 7.23572 15.2706 6.68369 15.2706 6.00566V2.14746L20.3589 7.23572Z" fill="#CAD0D7"/>
<path d="M10.4326 2.33278C10.4326 2.23906 10.5086 2.16309 10.6023 2.16309H12.1368C12.2305 2.16309 12.3065 2.23906 12.3065 2.33278V3.18586C12.3065 3.27957 12.2306 3.35555 12.1368 3.35555H10.6023C10.5086 3.35555 10.4326 3.27957 10.4326 3.18586V2.33278Z" fill="#D0D3D8"/>
<path d="M12.3065 3.52528C12.3065 3.43156 12.3825 3.35559 12.4762 3.35559H14.0107C14.1045 3.35559 14.1804 3.43156 14.1804 3.52528V4.37836C14.1804 4.47208 14.1045 4.54805 14.0107 4.54805H12.4762C12.3825 4.54805 12.3065 4.47208 12.3065 4.37836V3.52528Z" fill="#B8BDC2"/>
<path d="M12.3065 5.91005C12.3065 5.81633 12.3825 5.74036 12.4762 5.74036H14.0107C14.1045 5.74036 14.1804 5.81633 14.1804 5.91005V6.76313C14.1804 6.85685 14.1045 6.93282 14.0107 6.93282H12.4762C12.3825 6.93282 12.3065 6.85685 12.3065 6.76313V5.91005Z" fill="#B8BDC2"/>
<path d="M12.3065 8.29493C12.3065 8.20122 12.3825 8.12524 12.4762 8.12524H14.0107C14.1045 8.12524 14.1804 8.20122 14.1804 8.29493V9.14802C14.1804 9.24173 14.1045 9.31771 14.0107 9.31771H12.4762C12.3825 9.31771 12.3065 9.24173 12.3065 9.14802V8.29493Z" fill="#B8BDC2"/>
<path d="M12.3065 10.6799C12.3065 10.5862 12.3825 10.5103 12.4762 10.5103H14.0107C14.1045 10.5103 14.1804 10.5862 14.1804 10.6799V11.533C14.1804 11.6267 14.1045 11.7027 14.0107 11.7027H12.4762C12.3825 11.7027 12.3065 11.6267 12.3065 11.533V10.6799Z" fill="#B8BDC2"/>
<path d="M10.4326 4.71766C10.4326 4.62395 10.5086 4.54797 10.6023 4.54797H12.1368C12.2305 4.54797 12.3065 4.62395 12.3065 4.71766V5.57075C12.3065 5.66446 12.2306 5.74044 12.1368 5.74044H10.6023C10.5086 5.74044 10.4326 5.66446 10.4326 5.57075V4.71766Z" fill="#D0D3D8"/>
<path d="M10.4326 7.10255C10.4326 7.00883 10.5086 6.93286 10.6023 6.93286H12.1368C12.2305 6.93286 12.3065 7.00883 12.3065 7.10255V7.95563C12.3065 8.04935 12.2306 8.12532 12.1368 8.12532H10.6023C10.5086 8.12532 10.4326 8.04935 10.4326 7.95563V7.10255Z" fill="#D0D3D8"/>
<path d="M10.4326 9.48756C10.4326 9.39384 10.5086 9.31787 10.6023 9.31787H12.1368C12.2305 9.31787 12.3065 9.39384 12.3065 9.48756V10.3406C12.3065 10.4344 12.2306 10.5103 12.1368 10.5103H10.6023C10.5086 10.5103 10.4326 10.4344 10.4326 10.3406V9.48756Z" fill="#D0D3D8"/>
<rect x="2.99994" y="12" width="12.3283" height="5.91727" rx="1.20006" fill="#343B46"/>
<path d="M5.46712 16.6873V16.2534L7.19246 13.8325H5.46375V13.2299H8.11084V13.6637L6.38381 16.0846H8.11422V16.6873H5.46712Z" fill="white"/>
<path d="M9.553 13.2299V16.6873H8.82201V13.2299H9.553Z" fill="white"/>
<path fill-rule="evenodd" clip-rule="evenodd" d="M10.2608 13.2299V16.6873H10.9918V15.5663H11.6063C11.8719 15.5663 12.0982 15.5174 12.285 15.4195C12.4729 15.3215 12.6164 15.1848 12.7155 15.0092C12.8145 14.8336 12.864 14.6311 12.864 14.4015C12.864 14.1719 12.8151 13.9693 12.7172 13.7937C12.6204 13.617 12.4797 13.4791 12.2951 13.3801C12.1105 13.2799 11.8871 13.2299 11.6249 13.2299H10.2608ZM10.9918 14.9805H11.4882C11.6288 14.9805 11.7448 14.9563 11.8359 14.9079C11.9282 14.8584 11.9969 14.7903 12.0419 14.7037C12.088 14.6159 12.1111 14.5151 12.1111 14.4015C12.1111 14.2867 12.088 14.1865 12.0419 14.101C11.9969 14.0143 11.9282 13.9473 11.8359 13.9001C11.7436 13.8517 11.6266 13.8275 11.4848 13.8275H10.9918V14.9805Z" fill="white"/>
</svg>
