<svg width="24" height="24" viewBox="0 0 24 24" fill="none" xmlns="http://www.w3.org/2000/svg">
<rect width="24" height="24" fill="white"/>
<circle cx="12" cy="12" r="10" fill="#D0D5DC"/>
<path d="M12.0396 9.37549C11.8727 9.37549 11.717 9.33393 11.5728 9.25049C11.4287 9.16705 11.3134 9.05072 11.2261 8.90283C11.139 8.7588 11.0953 8.60169 11.0953 8.43115C11.0953 8.25675 11.139 8.09563 11.2261 7.94775C11.3134 7.80365 11.4287 7.68733 11.5728 7.6001C11.717 7.51665 11.8727 7.4751 12.0396 7.4751C12.214 7.4751 12.3752 7.51675 12.523 7.6001C12.6709 7.68734 12.7883 7.80362 12.8756 7.94775C12.959 8.09566 12.9995 8.2567 12.9957 8.43115C12.9994 8.60174 12.9589 8.75877 12.8755 8.90283C12.7883 9.05076 12.6709 9.16704 12.523 9.25049C12.3751 9.33384 12.214 9.37549 12.0396 9.37549ZM11.3228 10.7554L12.7798 10.7554L12.9273 16.5249L11.1754 16.5249L11.3228 10.7554Z" fill="white"/>
</svg>
