<svg width="24" height="24" viewBox="0 0 24 24" fill="none" xmlns="http://www.w3.org/2000/svg">
<path d="M12.0001 2.17456C6.47206 2.17456 1.99072 6.18631 1.99072 11.1349C2.00091 13.0654 2.6842 14.9318 3.92281 16.4124C4.14555 16.6762 4.3072 16.9859 4.3962 17.3194C4.48519 17.653 4.49932 18.002 4.43758 18.3417L3.89136 21.1443C3.87083 21.2499 3.88051 21.3592 3.91927 21.4595C3.95803 21.5599 4.02431 21.6473 4.1105 21.7116C4.19669 21.776 4.29929 21.8148 4.40651 21.8235C4.51374 21.8322 4.62125 21.8105 4.7167 21.7609L8.04152 20.0301C8.50993 19.7829 9.05083 19.7097 9.56809 19.8236C10.3661 20.0045 11.1818 20.0956 12.0001 20.0953C17.5281 20.0953 22.0094 16.0836 22.0094 11.1349C22.0094 6.18631 17.5281 2.17456 12.0001 2.17456Z" fill="#D9E2ED"/>
<path d="M7.85541 10.3011C8.077 10.3006 8.29375 10.3659 8.47822 10.4887C8.66269 10.6115 8.80658 10.7862 8.8917 10.9908C8.97681 11.1954 8.99931 11.4207 8.95636 11.6381C8.91341 11.8555 8.80693 12.0552 8.6504 12.2121C8.49387 12.3689 8.29432 12.4758 8.07702 12.5192C7.85972 12.5626 7.63443 12.5406 7.42966 12.4559C7.22489 12.3712 7.04985 12.2276 6.92669 12.0434C6.80353 11.8592 6.73779 11.6426 6.73779 11.421C6.73794 11.1244 6.85567 10.84 7.06516 10.6301C7.27466 10.4202 7.55884 10.3018 7.85541 10.3011Z" fill="#3E4857"/>
<path d="M16.1443 12.5409C16.7628 12.5409 17.2642 12.0395 17.2642 11.421C17.2642 10.8025 16.7628 10.3011 16.1443 10.3011C15.5258 10.3011 15.0244 10.8025 15.0244 11.421C15.0244 12.0395 15.5258 12.5409 16.1443 12.5409Z" fill="#3E4857"/>
<path d="M12 12.5409C12.6185 12.5409 13.1199 12.0395 13.1199 11.421C13.1199 10.8025 12.6185 10.3011 12 10.3011C11.3815 10.3011 10.8801 10.8025 10.8801 11.421C10.8801 12.0395 11.3815 12.5409 12 12.5409Z" fill="#3E4857"/>
</svg>
