<svg width="24" height="24" viewBox="0 0 24 24" fill="none" xmlns="http://www.w3.org/2000/svg">
<g clip-path="url(#clip0_9189_267)">
<path d="M2.6352 3.927H21.3648C21.9918 3.927 22.5 4.4352 22.5 5.0622V18.9372C22.5 19.5642 21.9918 20.0724 21.3648 20.0724H2.6352C2.0082 20.0724 1.5 19.5642 1.5 18.9372V5.0622C1.5 4.4352 2.0082 3.927 2.6352 3.927Z" fill="#CBE0FB"/>
<path d="M8.02692 11.7024C9.03296 11.7024 9.84852 10.8868 9.84852 9.8808C9.84852 8.87476 9.03296 8.0592 8.02692 8.0592C7.02088 8.0592 6.20532 8.87476 6.20532 9.8808C6.20532 10.8868 7.02088 11.7024 8.02692 11.7024Z" fill="#5792F2"/>
<path d="M8.02688 12.4944C10.5193 12.4944 11.4781 14.22 11.4781 14.9868C11.4781 15.7536 9.46508 15.9456 8.02688 15.9456C6.58868 15.9456 4.57568 15.7536 4.57568 14.9868C4.57568 14.124 5.53448 12.4944 8.02688 12.4944Z" fill="#5792F2"/>
<path d="M19.0014 9.94802H13.5126C13.191 9.94802 12.9294 9.68702 12.9294 9.36482C12.9294 9.04262 13.191 8.78162 13.5126 8.78162H19.0014C19.323 8.78162 19.5846 9.04262 19.5846 9.36482C19.5846 9.68702 19.323 9.94802 19.0014 9.94802Z" fill="#93C3F9"/>
<path d="M19.0013 12.5832H15.2795C14.9579 12.5832 14.6963 12.3222 14.6963 12C14.6963 11.6778 14.9579 11.4168 15.2795 11.4168H19.0013C19.3229 11.4168 19.5845 11.6778 19.5845 12C19.5845 12.3222 19.3229 12.5832 19.0013 12.5832Z" fill="#93C3F9"/>
<path d="M19.0013 15.2184H15.2795C14.9579 15.2184 14.6963 14.9574 14.6963 14.6352C14.6963 14.313 14.9579 14.052 15.2795 14.052H19.0013C19.3229 14.052 19.5845 14.313 19.5845 14.6352C19.5845 14.9574 19.3229 15.2184 19.0013 15.2184Z" fill="#93C3F9"/>
</g>
<defs>
<clipPath id="clip0_9189_267">
<rect width="24" height="24" fill="white"/>
</clipPath>
</defs>
</svg>
