<svg width="24" height="24" viewBox="0 0 24 24" fill="none" xmlns="http://www.w3.org/2000/svg">
<rect x="2" y="4.14282" width="20" height="15.7143" rx="1.42857" fill="#CFDBE9"/>
<path d="M12 11.2856L2 16.9999V18.8571C2 19.4093 2.44772 19.8571 3 19.8571H21C21.5523 19.8571 22 19.4093 22 18.8571V16.9999L12 11.2856Z" fill="#EEF0F4"/>
<path d="M11.6137 15.3231L2 9.14284V5.57141H22V9.14284L12.3863 15.3231C12.151 15.4744 11.849 15.4744 11.6137 15.3231Z" fill="#A7B6C8"/>
<path d="M11.2912 13.7378L2 8.42854V5.14282C2 4.59054 2.44772 4.14282 3 4.14282H21C21.5523 4.14282 22 4.59054 22 5.14282V8.42854L12.7088 13.7378C12.2696 13.9888 11.7304 13.9888 11.2912 13.7378Z" fill="#EEF0F4"/>
<path d="M15.1935 14.8341H16.3461C15.7101 15.9741 14.0175 16.9701 12.0729 16.9701C8.96432 16.9701 7.04372 15.1581 7.04372 12.2301C7.02489 11.5393 7.14767 10.8521 7.40451 10.2106C7.66134 9.56907 8.04679 8.98695 8.53711 8.50005C9.02743 8.01316 9.61224 7.63181 10.2555 7.37948C10.8988 7.12716 11.5869 7.0092 12.2775 7.03288C15.1215 7.03288 16.9575 8.83288 16.9575 11.2821C16.9742 12.1303 16.6625 12.9522 16.0876 13.5762C15.5128 14.2001 14.7191 14.5779 13.8723 14.6307C13.6311 14.6574 13.3884 14.5953 13.1896 14.456C12.9909 14.3168 12.8496 14.1099 12.7923 13.8741C12.6479 14.1271 12.4379 14.3365 12.1845 14.4802C11.9311 14.6239 11.6436 14.6966 11.3523 14.6907C10.2243 14.6907 9.41972 13.8507 9.41972 12.4947C9.41972 10.5975 10.4643 9.31468 11.9529 9.31468C12.2567 9.30792 12.5547 9.39873 12.8031 9.57378C13.0514 9.74883 13.2371 9.9989 13.3329 10.2873L13.5129 9.44728L14.8095 9.42328L14.0169 13.1925C13.9569 13.5039 14.0649 13.6845 14.2689 13.6845C14.8815 13.6845 15.9369 12.9165 15.9369 11.2845C15.9369 9.37588 14.6535 7.94728 12.2769 7.94728C9.66032 7.94728 8.06372 9.80728 8.06372 12.2325C8.06372 14.5611 9.48032 16.0617 12.0723 16.0617C12.6506 16.0972 13.2297 16.0057 13.7689 15.7936C14.3081 15.5815 14.7943 15.254 15.1935 14.8341ZM12.7455 12.0855C12.8889 11.1489 12.6015 10.5255 12.0255 10.5255C11.4015 10.5255 10.9455 11.3181 10.9455 12.4455C10.9455 13.1421 11.2455 13.4775 11.7015 13.4775C12.2169 13.4775 12.6003 12.9735 12.7455 12.0855Z" fill="#1E6EF4"/>
</svg>
