<svg width="24" height="24" viewBox="0 0 24 24" fill="none" xmlns="http://www.w3.org/2000/svg">
<path d="M19.7151 3.23438H4.28489C3.85141 3.23438 3.5 3.56759 3.5 3.97863V21.6151C3.5 22.0262 3.85141 22.3594 4.28489 22.3594H19.7151C20.1486 22.3594 20.5 22.0262 20.5 21.6151V3.97863C20.5 3.56759 20.1486 3.23438 19.7151 3.23438Z" fill="#E5E9EE"/>
<path d="M16.4045 11.7344C16.4045 14.0816 14.4672 15.9844 12.0773 15.9844C9.68739 15.9844 7.75 14.0816 7.75 11.7344C7.75 9.38717 9.68739 7.48438 12.0773 7.48438C14.4672 7.48438 16.4045 9.38717 16.4045 11.7344Z" fill="white"/>
<path d="M13.623 10.8234C13.623 11.6617 12.9311 12.3413 12.0776 12.3413C11.224 12.3413 10.5321 11.6617 10.5321 10.8234C10.5321 9.98511 11.224 9.30554 12.0776 9.30554C12.9311 9.30554 13.623 9.98511 13.623 10.8234Z" fill="#AFB7C0"/>
<path d="M9.93783 13.1011L9.60496 13.86L9.29587 14.7707L11.4595 15.6814L14.2413 15.1502L14.9071 14.3913L14.2413 13.2529L11.935 12.3422L10.9364 12.7216L9.93783 13.1011Z" fill="#AFB7C0"/>
<path fill-rule="evenodd" clip-rule="evenodd" d="M8.9874 14.7102C9.02013 13.3969 10.1143 12.3422 11.4594 12.3422H12.6969C14.0415 12.3422 15.1355 13.3963 15.1688 14.709C14.536 15.3434 13.7024 15.7839 12.7689 15.9311C12.5147 15.9643 12.2684 15.9814 12.0311 15.9848C10.8391 15.9725 9.7627 15.4868 8.9874 14.7102ZM11.4594 12.9493H12.6969C13.7211 12.9493 14.5514 13.7648 14.5514 14.7707V14.7812C12.3097 15.8114 10.4441 15.2919 9.60482 14.8265V14.7707C9.60482 13.7648 10.4351 12.9493 11.4594 12.9493Z" fill="#AFB7C0"/>
<path d="M7.75 18.0032C7.75 17.7098 8.02294 17.4719 8.35963 17.4719H15.6404C15.9771 17.4719 16.25 17.7098 16.25 18.0032C16.25 18.2966 15.9771 18.5344 15.6404 18.5344H8.35963C8.02294 18.5344 7.75 18.2966 7.75 18.0032Z" fill="#AFB7C0"/>
<path d="M8.8125 3.16193C8.8125 2.32174 9.5974 1.64062 10.5656 1.64062H12.9031C13.8713 1.64062 14.6562 2.32174 14.6562 3.16193V4.82812H8.8125V3.16193Z" fill="#FACC15"/>
</svg>
