<svg width="24" height="24" viewBox="0 0 24 24" fill="none" xmlns="http://www.w3.org/2000/svg">
<path d="M12 1C18.0751 1 23 5.92487 23 12C23 18.0751 18.0751 23 12 23C5.92487 23 1 18.0751 1 12C1 5.92487 5.92487 1 12 1ZM16.6465 9.60938C16.3608 9.30966 15.8858 9.2984 15.5859 9.58398L11.1787 13.7803L8.41406 11.1475C8.11416 10.8618 7.63919 10.873 7.35352 11.1729C7.06789 11.4728 7.07908 11.9477 7.37891 12.2334L10.6621 15.3594C10.9518 15.6352 11.4066 15.6352 11.6963 15.3594L16.6211 10.6699C16.9208 10.3842 16.9321 9.90924 16.6465 9.60938Z" fill="#4FBF8F"/>
</svg>
