<svg width="24" height="24" viewBox="0 0 24 24" fill="none" xmlns="http://www.w3.org/2000/svg">
<rect x="2" y="2" width="20" height="20" rx="3" fill="url(#paint0_linear_948_71101)"/>
<path d="M10.594 7.50098C11.1559 7.50109 11.6658 7.86312 11.8655 8.41016L14.3948 15.2354C14.624 15.8417 14.1874 16.5 13.5589 16.5C13.1744 16.4999 12.834 16.2482 12.7083 15.8711L12.2649 14.5332H8.92213L8.47878 15.8711C8.35307 16.2482 8.01271 16.5 7.62819 16.5C6.9998 16.4998 6.56403 15.8416 6.79323 15.2354L9.32155 8.41016C9.52121 7.86296 10.032 7.50098 10.594 7.50098ZM16.2327 10.3369C16.7231 10.3369 17.1204 10.7342 17.1204 11.2246V15.5986C17.1202 16.089 16.7231 16.4873 16.2327 16.4873C15.7423 16.4873 15.3451 16.089 15.345 15.5986V11.2246C15.345 10.7342 15.7423 10.337 16.2327 10.3369ZM9.49147 12.8027H11.6956L10.6233 9.54199H10.5637L9.49147 12.8027ZM16.2327 7.5C16.8049 7.50003 17.2688 7.96393 17.2688 8.53613C17.2688 9.10832 16.8049 9.57223 16.2327 9.57227C15.6605 9.57227 15.1966 9.10834 15.1965 8.53613C15.1965 7.96391 15.6605 7.5 16.2327 7.5Z" fill="white"/>
<defs>
<linearGradient id="paint0_linear_948_71101" x1="1.52625" y1="1.12561" x2="22" y2="24.754" gradientUnits="userSpaceOnUse">
<stop stop-color="#96ADFF"/>
<stop offset="0.487636" stop-color="#895AFF"/>
<stop offset="1" stop-color="#CD8DFF"/>
</linearGradient>
</defs>
</svg>
