<svg width="24" height="24" viewBox="0 0 24 24" fill="none" xmlns="http://www.w3.org/2000/svg">
<path d="M20.652 7.23607V20.1301C20.652 21.0841 19.878 21.8521 18.93 21.8521H6.60603C5.65203 21.8521 4.88403 21.0781 4.88403 20.1301V3.87007C4.88403 2.91607 5.65803 2.14807 6.60603 2.14807H15.558L20.646 7.23607H20.652Z" fill="#EAEBED"/>
<path d="M20.652 7.23607H16.794C16.116 7.23607 15.564 6.68407 15.564 6.00607V2.14807L20.652 7.23607Z" fill="#CAD0D7"/>
<rect x="3" y="12" width="12.3277" height="5.91697" rx="1" fill="#F26B4E"/>
<path d="M11.2658 16.6897V13.2272H13.5471V13.8202H11.9832V14.6619H13.3988V15.255H11.9832V16.6897H11.2658Z" fill="white"/>
<path d="M9.05146 16.6897H7.83191V13.2272H9.0658C10.1084 13.2272 10.7469 13.8752 10.7445 14.9537C10.7469 16.0369 10.1084 16.6897 9.05146 16.6897ZM8.54929 16.0728H9.02276C9.68275 16.0728 10.0271 15.7308 10.0271 14.9537C10.0271 14.1837 9.68275 13.8441 9.02754 13.8441H8.54929V16.0728Z" fill="white"/>
<path d="M4.78069 16.6897V13.2272H6.13893C6.92565 13.2272 7.3776 13.7126 7.3776 14.3941C7.3776 15.0852 6.91848 15.5611 6.1198 15.5611H5.49807V16.6897H4.78069ZM5.49807 14.9824H6.00501C6.43066 14.9824 6.6387 14.7432 6.63631 14.3941C6.6387 14.0498 6.43066 13.8178 6.00501 13.8154H5.49807V14.9824Z" fill="white"/>
</svg>
