<svg width="24" height="24" viewBox="0 0 24 24" fill="none" xmlns="http://www.w3.org/2000/svg">
<g clip-path="url(#clip0_5734_7992)">
<path d="M2.6352 3.927H21.3648C21.9918 3.927 22.5 4.4352 22.5 5.0622V18.9372C22.5 19.5642 21.9918 20.0724 21.3648 20.0724H2.6352C2.0082 20.0724 1.5 19.5642 1.5 18.9372V5.0622C1.5 4.4352 2.0082 3.927 2.6352 3.927Z" fill="#DEF2E7"/>
<path d="M8.0268 11.7024C9.03284 11.7024 9.8484 10.8868 9.8484 9.8808C9.8484 8.87476 9.03284 8.0592 8.0268 8.0592C7.02076 8.0592 6.2052 8.87476 6.2052 9.8808C6.2052 10.8868 7.02076 11.7024 8.0268 11.7024Z" fill="#2DA973"/>
<path d="M8.02679 12.4944C10.5192 12.4944 11.478 14.22 11.478 14.9868C11.478 15.7536 9.46499 15.9456 8.02679 15.9456C6.58859 15.9456 4.57559 15.7536 4.57559 14.9868C4.57559 14.124 5.53439 12.4944 8.02679 12.4944Z" fill="#2DA973"/>
<path d="M19.0014 9.94802H13.5126C13.191 9.94802 12.9294 9.68702 12.9294 9.36482C12.9294 9.04262 13.191 8.78162 13.5126 8.78162H19.0014C19.323 8.78162 19.5846 9.04262 19.5846 9.36482C19.5846 9.68702 19.323 9.94802 19.0014 9.94802Z" fill="#A3DEC5"/>
<path d="M19.0014 12.5831H15.2796C14.958 12.5831 14.6964 12.3221 14.6964 11.9999C14.6964 11.6777 14.958 11.4167 15.2796 11.4167H19.0014C19.323 11.4167 19.5846 11.6777 19.5846 11.9999C19.5846 12.3221 19.323 12.5831 19.0014 12.5831Z" fill="#A3DEC5"/>
<path d="M19.0014 15.2184H15.2796C14.958 15.2184 14.6964 14.9574 14.6964 14.6352C14.6964 14.313 14.958 14.052 15.2796 14.052H19.0014C19.323 14.052 19.5846 14.313 19.5846 14.6352C19.5846 14.9574 19.323 15.2184 19.0014 15.2184Z" fill="#A3DEC5"/>
</g>
<defs>
<clipPath id="clip0_5734_7992">
<rect width="24" height="24" fill="white"/>
</clipPath>
</defs>
</svg>
