<svg width="64" height="64" viewBox="0 0 64 64" fill="none" xmlns="http://www.w3.org/2000/svg">
<rect x="10.667" y="5.33301" width="42.6667" height="53.3333" rx="2.66667" fill="#EEF0F4"/>
<g clip-path="url(#clip0_11993_26449)">
<rect x="22.667" y="12" width="18.6667" height="18.6667" rx="9.33333" fill="white"/>
<path fill-rule="evenodd" clip-rule="evenodd" d="M32 24.8076C37.1343 24.8076 39.1309 28.3092 39.1309 29.9375C39.1308 31.5658 34.8801 31.999 32 31.999C29.1199 31.999 24.8692 31.5658 24.8691 29.9375C24.8691 28.3092 26.8662 24.8076 32 24.8076ZM32 15.999C34.1096 15.9992 35.8193 17.7098 35.8193 19.8193C35.8193 21.929 34.1096 23.6395 32 23.6396C29.8903 23.6396 28.1797 21.929 28.1797 19.8193C28.1798 17.7097 29.8903 15.999 32 15.999Z" fill="#4C586A"/>
</g>
<path d="M21.4307 37.9297H42.5703" stroke="#BFC5CE" stroke-width="2.66667" stroke-linecap="round"/>
<path d="M21.4307 44.7031H32.0973" stroke="#BFC5CE" stroke-width="2.66667" stroke-linecap="round"/>
<path d="M50.6204 53.2865L56 58.666M46.2222 55.1105C42.7911 55.1105 40 52.3193 40 48.8882C40 45.4571 42.7911 42.666 46.2222 42.666C49.6533 42.666 52.4444 45.4571 52.4444 48.8882C52.4444 52.3193 49.6533 55.1105 46.2222 55.1105Z" stroke="#1E6EF4" stroke-width="3.2" stroke-linecap="round"/>
<defs>
<clipPath id="clip0_11993_26449">
<rect x="22.667" y="12" width="18.6667" height="18.6667" rx="9.33333" fill="white"/>
</clipPath>
</defs>
</svg>
