<svg width="24" height="24" viewBox="0 0 24 24" fill="none" xmlns="http://www.w3.org/2000/svg">
<g clip-path="url(#clip0_8192_526)">
<path d="M14.57 18.0969C14.57 18.0969 14.5302 19.216 15.3556 20.0336C15.6516 20.3119 15.885 20.5149 16.1014 20.654H7.49414V20.6366C7.71046 20.4975 7.96663 20.3177 8.27972 20.0394C9.10515 19.303 9.0653 18.1027 9.0653 18.1027V18.0042H14.57V18.1027V18.0969Z" fill="#8795A2"/>
<path d="M7.51721 20.6482H16.096C16.8018 21.1469 17.0979 21.1063 17.0979 21.7441H6.53809C6.53809 21.1063 6.79425 21.1063 7.50014 20.6482H7.51721Z" fill="#A7B6C8"/>
<path d="M1.5 15.0239H19.9383L21.3102 17.9985H2.47913C1.94972 17.9985 1.5 17.5404 1.5 17.0012V15.0239Z" fill="#A7B6C8"/>
<path d="M21.5205 2.25C22.0498 2.25 22.4999 2.70793 22.5 3.24707V15.0234H19.9326L19.9297 15.0176H1.5V3.24707C1.50014 2.70793 1.95016 2.25 2.47949 2.25H21.5205Z" fill="#424F57"/>
<path d="M22.5 16.9956C22.4998 17.5347 22.0498 17.9927 21.5205 17.9927H21.3076L21.3105 17.9985H2.47949C1.95023 17.9985 1.50026 17.5405 1.5 17.0015V15.0239H19.9355L19.9326 15.0181H22.5V16.9956Z" fill="#A7B6C8"/>
</g>
<defs>
<clipPath id="clip0_8192_526">
<rect width="21" height="19.5" fill="white" transform="translate(1.5 2.25)"/>
</clipPath>
</defs>
</svg>
