<svg width="24" height="24" viewBox="0 0 24 24" fill="none" xmlns="http://www.w3.org/2000/svg">
<g clip-path="url(#clip0_8887_24130)">
<path d="M10.6314 21H13.368C13.9204 21 14.3682 20.5522 14.3682 19.9998L14.3682 13.4736C14.3682 12.9212 13.9204 12.4734 13.368 12.4734H10.6314C10.079 12.4734 9.63116 12.9212 9.63116 13.4736V19.9998C9.63116 20.5522 10.079 21 10.6314 21Z" fill="#D9E2ED"/>
<path d="M4.00026 21H6.73686C7.28926 21 7.73706 20.5522 7.73706 19.9998L7.73706 8.7372C7.73706 8.18481 7.28926 7.737 6.73686 7.737H4.00026C3.44787 7.737 3.00006 8.18481 3.00006 8.7372L3.00006 19.9998C3.00006 20.5522 3.44787 21 4.00026 21Z" fill="#D9E2ED"/>
<path d="M17.2632 21H19.9998C20.5522 21 21 20.5522 21 19.9998L21 4.0002C21 3.4478 20.5522 3 19.9998 3H17.2632C16.7108 3 16.263 3.4478 16.263 4.0002V19.9998C16.263 20.5522 16.7108 21 17.2632 21Z" fill="#D9E2ED"/>
</g>
<defs>
<clipPath id="clip0_8887_24130">
<rect width="24" height="24" fill="white"/>
</clipPath>
</defs>
</svg>
