<svg width="24" height="24" viewBox="0 0 24 24" fill="none" xmlns="http://www.w3.org/2000/svg">
<g clip-path="url(#clip0_6787_1227)">
<path d="M21.0001 22.1999C20.6929 22.1999 20.3863 22.083 20.1517 21.8484L14.7631 16.4597C14.2945 15.9911 14.2945 15.2315 14.7631 14.7629C15.2317 14.2943 15.9913 14.2943 16.4599 14.7629L21.8485 20.1515C22.3171 20.6201 22.3171 21.3798 21.8485 21.8484C21.6139 22.083 21.3073 22.1999 21.0001 22.1999Z" fill="#697896"/>
<path d="M17.7779 10.389C17.7779 6.315 14.4635 3 10.3889 3C8.3519 3 6.5045 3.8286 5.1665 5.1666L15.6107 15.6114C16.9487 14.2734 17.7779 12.426 17.7779 10.389Z" fill="#E4E7EC"/>
<path d="M15.6114 15.6114L5.1666 5.16663C3.8286 6.50463 3 8.35203 3 10.389C3 14.463 6.315 17.778 10.389 17.778C12.426 17.778 14.2734 16.9494 15.6114 15.6114Z" fill="#F3F4F6"/>
<path d="M10.3885 18.6774C5.8183 18.6774 2.1001 14.9592 2.1001 10.389C2.1001 5.81878 5.8183 2.09998 10.3885 2.09998C14.9587 2.09998 18.6775 5.81818 18.6775 10.389C18.6775 14.9598 14.9593 18.6774 10.3885 18.6774ZM10.3885 3.89998C6.8107 3.89998 3.9001 6.81118 3.9001 10.389C3.9001 13.9668 6.8113 16.8774 10.3885 16.8774C13.9657 16.8774 16.8775 13.9662 16.8775 10.389C16.8775 6.81178 13.9663 3.89998 10.3885 3.89998Z" fill="#ACB4C5"/>
</g>
<defs>
<clipPath id="clip0_6787_1227">
<rect width="24" height="24" fill="white"/>
</clipPath>
</defs>
</svg>
