<svg width="24" height="24" viewBox="0 0 24 24" fill="none" xmlns="http://www.w3.org/2000/svg">
<path d="M2 13.5H22V19.5C22 20.6046 21.1046 21.5 20 21.5H4C2.89543 21.5 2 20.6046 2 19.5V13.5Z" fill="#CFDBE9"/>
<path d="M4.99756 5.77638C5.29618 5.00697 6.03674 4.5 6.86207 4.5H17.1382C17.9635 4.5 18.7041 5.00699 19.0027 5.77643L22 13.5H2L4.99756 5.77638Z" fill="#A7B6C8"/>
<path d="M8 13.5H16L14.9306 15.9061C14.7701 16.2673 14.412 16.5 14.0168 16.5H9.98321C9.58802 16.5 9.2299 16.2673 9.06939 15.9061L8 13.5Z" fill="#A7B6C8"/>
<path d="M17.6901 1C14.7575 1 12.3801 3.12823 12.3801 5.75347C12.3855 6.77755 12.748 7.76767 13.4051 8.55317C13.5233 8.69308 13.609 8.85739 13.6562 9.03433C13.7034 9.21126 13.7109 9.39645 13.6782 9.57663L13.3884 11.0634C13.3775 11.1194 13.3827 11.1774 13.4032 11.2306C13.4238 11.2839 13.4589 11.3302 13.5047 11.3644C13.5504 11.3985 13.6048 11.4191 13.6617 11.4237C13.7186 11.4284 13.7756 11.4168 13.8263 11.3905L15.5901 10.4723C15.8386 10.3412 16.1255 10.3024 16.3999 10.3628C16.8233 10.4587 17.256 10.5071 17.6901 10.5069C20.6227 10.5069 23 8.3787 23 5.75347C23 3.12823 20.6227 1 17.6901 1Z" fill="#EEF0F4"/>
<path d="M15.4915 5.31104C15.609 5.3108 15.724 5.34544 15.8219 5.41057C15.9197 5.47571 15.996 5.56841 16.0412 5.67695C16.0864 5.78548 16.0983 5.90498 16.0755 6.0203C16.0527 6.13563 15.9962 6.2416 15.9132 6.32481C15.8302 6.40802 15.7243 6.46472 15.609 6.48774C15.4937 6.51077 15.3742 6.49907 15.2656 6.45414C15.157 6.40921 15.0641 6.33306 14.9988 6.23534C14.9334 6.13761 14.8986 6.0227 14.8986 5.90514C14.8986 5.74781 14.9611 5.59693 15.0722 5.48556C15.1834 5.3742 15.3341 5.31144 15.4915 5.31104Z" fill="#3E4857"/>
<path d="M19.8887 6.49925C20.2168 6.49925 20.4828 6.23326 20.4828 5.90514C20.4828 5.57703 20.2168 5.31104 19.8887 5.31104C19.5606 5.31104 19.2946 5.57703 19.2946 5.90514C19.2946 6.23326 19.5606 6.49925 19.8887 6.49925Z" fill="#3E4857"/>
<path d="M17.6901 6.49925C18.0182 6.49925 18.2842 6.23326 18.2842 5.90514C18.2842 5.57703 18.0182 5.31104 17.6901 5.31104C17.362 5.31104 17.096 5.57703 17.096 5.90514C17.096 6.23326 17.362 6.49925 17.6901 6.49925Z" fill="#3E4857"/>
</svg>
