<svg width="24" height="24" viewBox="0 0 24 24" fill="none" xmlns="http://www.w3.org/2000/svg">
<g clip-path="url(#clip0_8192_506)">
<rect x="1.5" y="3.75" width="21" height="16.5" rx="1.5" fill="#ADBBCC"/>
<path d="M12 11.25L1.5 17.25V18.75C1.5 19.5784 2.17157 20.25 3 20.25H21C21.8284 20.25 22.5 19.5784 22.5 18.75V17.25L12 11.25Z" fill="#D9E2ED"/>
<path d="M11.5944 15.4893L1.5 9V5.25H22.5V9L12.4056 15.4893C12.1585 15.6481 11.8415 15.6481 11.5944 15.4893Z" fill="#8C99A6"/>
<path d="M11.2558 13.8247L1.5 8.25V5.25C1.5 4.42157 2.17157 3.75 3 3.75H21C21.8284 3.75 22.5 4.42157 22.5 5.25V8.25L12.7442 13.8247C12.2831 14.0883 11.7169 14.0883 11.2558 13.8247Z" fill="#D9E2ED"/>
</g>
<defs>
<clipPath id="clip0_8192_506">
<rect width="21" height="16.5" fill="white" transform="translate(1.5 3.75)"/>
</clipPath>
</defs>
</svg>
