<svg width="24" height="24" viewBox="0 0 24 24" fill="none" xmlns="http://www.w3.org/2000/svg">
<rect x="4" y="2" width="16" height="20" rx="1" fill="#CFDBE9"/>
<path d="M10.5663 10.5224C10.5663 10.6875 10.4322 10.8216 10.2671 10.8216H9.07093C8.90581 10.8216 8.77173 10.6875 8.77173 10.5224V9.32618C8.77173 9.16106 8.90581 9.02698 9.07093 9.02698H10.2671C10.4322 9.02698 10.5663 9.16106 10.5663 9.32618V10.5224Z" fill="#8F9BAB"/>
<path d="M10.5663 14.7093C10.5663 14.8744 10.4322 15.0085 10.2671 15.0085H9.07093C8.90581 15.0085 8.77173 14.8744 8.77173 14.7093V13.5131C8.77173 13.3479 8.90581 13.2139 9.07093 13.2139H10.2671C10.4322 13.2139 10.5663 13.3479 10.5663 13.5131V14.7093Z" fill="#8F9BAB"/>
<path d="M10.5663 6.33475C10.5663 6.49987 10.4322 6.63395 10.2671 6.63395H9.07093C8.90581 6.63395 8.77173 6.49987 8.77173 6.33475V5.13856C8.77173 4.97344 8.90581 4.83936 9.07093 4.83936H10.2671C10.4322 4.83936 10.5663 4.97344 10.5663 5.13856V6.33475Z" fill="#8F9BAB"/>
<path d="M15.2282 14.7093C15.2282 14.8744 15.0941 15.0085 14.929 15.0085H13.7328C13.5677 15.0085 13.4336 14.8744 13.4336 14.7093V13.5131C13.4336 13.3479 13.5677 13.2139 13.7328 13.2139H14.929C15.0941 13.2139 15.2282 13.3479 15.2282 13.5131V14.7093Z" fill="#8F9BAB"/>
<path d="M15.2282 10.5224C15.2282 10.6875 15.0941 10.8216 14.929 10.8216H13.7328C13.5677 10.8216 13.4336 10.6875 13.4336 10.5224V9.32618C13.4336 9.16106 13.5677 9.02698 13.7328 9.02698H14.929C15.0941 9.02698 15.2282 9.16106 15.2282 9.32618V10.5224Z" fill="#8F9BAB"/>
<path d="M15.2282 6.33475C15.2282 6.49987 15.0941 6.63395 14.929 6.63395H13.7328C13.5677 6.63395 13.4336 6.49987 13.4336 6.33475V5.13856C13.4336 4.97344 13.5677 4.83936 13.7328 4.83936H14.929C15.0941 4.83936 15.2282 4.97344 15.2282 5.13856V6.33475Z" fill="#8F9BAB"/>
<path fill-rule="evenodd" clip-rule="evenodd" d="M12.7483 19.2314H11.251C10.8997 19.2314 10.6154 19.5164 10.6154 19.8671V22H13.3845V19.8671C13.3839 19.5157 13.099 19.2314 12.7483 19.2314Z" fill="#708694"/>
</svg>
