<svg width="24" height="24" viewBox="0 0 24 24" fill="none" xmlns="http://www.w3.org/2000/svg">
<path fill-rule="evenodd" clip-rule="evenodd" d="M12 4.66663C12.4591 4.66663 12.8667 4.96042 13.0119 5.39598L14.5766 10.09L19.2706 11.6547C19.7062 11.7999 20 12.2075 20 12.6666C20 13.1258 19.7062 13.5334 19.2706 13.6786L14.5766 15.2432L13.0119 19.9373C12.8667 20.3728 12.4591 20.6666 12 20.6666C11.5409 20.6666 11.1332 20.3728 10.9881 19.9373L9.42338 15.2432L4.72934 13.6786C4.29378 13.5334 3.99999 13.1258 3.99999 12.6666C3.99999 12.2075 4.29378 11.7999 4.72934 11.6547L9.42338 10.09L10.9881 5.39598C11.1332 4.96042 11.5409 4.66663 12 4.66663Z" fill="url(#paint0_linear_4647_47)"/>
<defs>
<linearGradient id="paint0_linear_4647_47" x1="3.3846" y1="4.66662" x2="23.9414" y2="8.40422" gradientUnits="userSpaceOnUse">
<stop stop-color="#435EFF"/>
<stop offset="1" stop-color="#9438EF"/>
</linearGradient>
</defs>
</svg>
