<svg width="24" height="24" viewBox="0 0 24 24" fill="none" xmlns="http://www.w3.org/2000/svg">
<path d="M4 3C4 2.44772 4.44772 2 5 2H19C19.5523 2 20 2.44772 20 3V21C20 21.5523 19.5523 22 19 22H5C4.44772 22 4 21.5523 4 21V3Z" fill="#EEF0F4"/>
<path d="M16.7996 5C17.0758 5 17.2996 5.22386 17.2996 5.5C17.2996 5.77614 17.0758 6 16.7996 6H7.2C6.92386 6 6.7 5.77614 6.7 5.5C6.7 5.22386 6.92386 5 7.2 5H16.7996Z" fill="#BFC5CE"/>
<path d="M16.7996 8C17.0758 8 17.2996 8.22386 17.2996 8.5C17.2996 8.77614 17.0758 9 16.7996 9H7.2C6.92386 9 6.7 8.77614 6.7 8.5C6.7 8.22386 6.92386 8 7.2 8H16.7996Z" fill="#BFC5CE"/>
<path d="M16.7996 11C17.0758 11 17.2996 11.2239 17.2996 11.5C17.2996 11.7761 17.0758 12 16.7996 12H7.2C6.92386 12 6.7 11.7761 6.7 11.5C6.7 11.2239 6.92386 11 7.2 11H16.7996Z" fill="#BFC5CE"/>
<path d="M11.2 14C11.4761 14 11.7 14.2239 11.7 14.5C11.7 14.7761 11.4761 15 11.2 15H7.2C6.92386 15 6.7 14.7761 6.7 14.5C6.7 14.2239 6.92386 14 7.2 14H11.2Z" fill="#BFC5CE"/>
<path d="M19.0664 18.333C19.0662 17.3779 18.2882 16.5996 17.333 16.5996C16.378 16.5998 15.5998 17.378 15.5996 18.333C15.5996 19.2882 16.3779 20.0662 17.333 20.0664C18.2883 20.0664 19.0664 19.2883 19.0664 18.333ZM20.2666 18.333C20.2666 18.9252 20.0889 19.4761 19.7861 19.9375L21.4238 21.5762C21.6581 21.8105 21.6581 22.1895 21.4238 22.4238C21.1895 22.6581 20.8105 22.6581 20.5762 22.4238L18.9375 20.7861C18.4761 21.0889 17.9252 21.2666 17.333 21.2666C15.7151 21.2664 14.4004 19.9509 14.4004 18.333C14.4006 16.7152 15.7152 15.4006 17.333 15.4004C18.9509 15.4004 20.2664 16.7151 20.2666 18.333Z" fill="#1E6EF4"/>
</svg>
