<svg width="24" height="24" viewBox="0 0 24 24" fill="none" xmlns="http://www.w3.org/2000/svg">
<rect width="24" height="24" fill="white"/>
<circle cx="12" cy="12" r="10" fill="#979CA7"/>
<path d="M12.0474 14.4165C12.2009 14.4166 12.3444 14.455 12.4771 14.5317C12.6097 14.6086 12.7161 14.7159 12.7964 14.8521C12.8766 14.9847 12.9165 15.1296 12.9165 15.2866C12.9165 15.4472 12.8767 15.5958 12.7964 15.7319C12.7161 15.8645 12.6096 15.971 12.4771 16.0513C12.3444 16.1281 12.2009 16.1665 12.0474 16.1665C11.8868 16.1665 11.7382 16.128 11.6021 16.0513C11.4659 15.971 11.3572 15.8646 11.2769 15.7319C11.2 15.5958 11.163 15.4472 11.1665 15.2866C11.163 15.1296 11.2002 14.9847 11.2769 14.8521C11.3572 14.7158 11.4658 14.6086 11.6021 14.5317C11.7382 14.455 11.8868 14.4165 12.0474 14.4165ZM12.7075 13.146H11.3657L11.23 7.8335H12.8433L12.7075 13.146Z" fill="white"/>
</svg>
