<svg width="24" height="24" viewBox="0 0 24 24" fill="none" xmlns="http://www.w3.org/2000/svg">
<g clip-path="url(#clip0_5327_1836)">
<path d="M1.68746 11.9616L2.41599 9.96003C2.49763 9.73571 2.65682 9.548 2.86479 9.43082L6.15795 7.57532C6.41228 7.43202 6.71653 7.40701 6.99085 7.50685L18.3854 11.6541C18.6346 11.7448 18.8376 11.9308 18.9497 12.1712L20.6915 15.9064C20.8035 16.1468 20.8156 16.4218 20.7248 16.671L20.0115 18.631C19.8226 19.15 19.2487 19.4176 18.7298 19.2287L2.28513 13.2434C1.76615 13.0545 1.49856 12.4806 1.68746 11.9616Z" fill="#435EFF"/>
<path d="M4.50648 12.9877L6.86978 6.49462C6.8903 6.43824 6.9147 6.38526 6.94589 6.33401C7.93962 4.70086 11.0899 1.54958 15.5306 3.16587C20.0411 4.80757 20.1139 9.09077 19.5865 11.0272L17.1923 17.605C17.0034 18.124 16.4296 18.3916 15.9106 18.2027L5.10415 14.2694C4.58518 14.0806 4.31759 13.5067 4.50648 12.9877Z" fill="#FF501B"/>
<path d="M15.4224 10.0437C14.9498 11.341 13.5149 12.0098 12.2174 11.5376C10.92 11.0654 10.2513 9.6309 10.7239 8.33359C11.1966 7.03629 12.6315 6.36744 13.9289 6.83967C15.2264 7.3119 15.895 8.74639 15.4224 10.0437Z" fill="white"/>
<path d="M9.02619 17.7503C9.2018 17.2678 9.71229 17.0107 10.1664 17.176C10.6205 17.3413 10.8463 17.8664 10.6707 18.3489L9.85301 20.5953C9.6774 21.0778 9.16691 21.335 8.71281 21.1697C8.2587 21.0044 8.03294 20.4793 8.20855 19.9968L9.02619 17.7503Z" fill="#435EFF"/>
<path d="M12.5471 19.7719C12.7124 19.3178 13.2145 19.0837 13.6686 19.249C14.1227 19.4143 14.3569 19.9164 14.1916 20.3705L13.8496 21.3102C13.6843 21.7643 13.1822 21.9984 12.7281 21.8331C12.274 21.6678 12.0398 21.1657 12.2051 20.7116L12.5471 19.7719Z" fill="#435EFF"/>
<path d="M5.02961 17.0357C5.19489 16.5816 5.697 16.3475 6.1511 16.5128C6.60521 16.678 6.83935 17.1802 6.67407 17.6343L6.33205 18.574C6.16677 19.0281 5.66465 19.2622 5.21055 19.0969C4.75644 18.9316 4.5223 18.4295 4.68758 17.9754L5.02961 17.0357Z" fill="#435EFF"/>
<path d="M9.47494 1.07936L11.4293 3.84806L6.69842 6.97013L8.81333 1.1603C8.86024 1.03152 8.98805 0.888002 9.16182 0.875231C9.27588 0.866362 9.40788 0.927666 9.47494 1.07936Z" fill="#FF501B"/>
<path d="M9.48124 1.06212L11.5455 3.52908L7.07347 5.94069L8.83681 1.09587C8.87593 0.98849 8.99359 0.87284 9.1633 0.871219C9.27467 0.86974 9.40738 0.929099 9.48124 1.06212Z" fill="#FF501B"/>
<path d="M21.0518 5.27341L17.8848 5.83633L19.5894 11.0281L21.5238 5.7135C21.5628 5.60609 21.5471 5.44187 21.4181 5.33154C21.3337 5.25882 21.1939 5.21899 21.0518 5.27341Z" fill="#FF501B"/>
</g>
<defs>
<clipPath id="clip0_5327_1836">
<rect width="24" height="24" fill="white"/>
</clipPath>
</defs>
</svg>
