<svg width="24" height="24" viewBox="0 0 24 24" fill="none" xmlns="http://www.w3.org/2000/svg">
<g clip-path="url(#clip0_5734_7991)">
<path fill-rule="evenodd" clip-rule="evenodd" d="M4.43881 22.5522C3.36781 22.5522 2.50021 21.684 2.50021 20.6136V15.0582L4.53361 10.2942C4.89241 9.45422 5.71741 8.90942 6.63061 8.90942H17.37C18.2832 8.90942 19.1082 9.45422 19.467 10.2942L21.5004 15.0582V20.6136C21.5004 21.6846 20.6322 22.5522 19.5618 22.5522H4.43881Z" fill="#FFE89C"/>
<path d="M16.8618 10.5264H7.13822C6.67231 10.5264 6.29462 10.9041 6.29462 11.37V19.1256C6.29462 19.5915 6.67231 19.9692 7.13822 19.9692H16.8618C17.3277 19.9692 17.7054 19.5915 17.7054 19.1256V11.37C17.7054 10.9041 17.3277 10.5264 16.8618 10.5264Z" fill="#D9DDE0"/>
<path d="M18.2622 12.5868H5.73781C5.24506 12.5868 4.84561 12.9862 4.84561 13.479V18.8364C4.84561 19.3291 5.24506 19.7286 5.73781 19.7286H18.2622C18.755 19.7286 19.1544 19.3291 19.1544 18.8364V13.479C19.1544 12.9862 18.755 12.5868 18.2622 12.5868Z" fill="white"/>
<path fill-rule="evenodd" clip-rule="evenodd" d="M21.4998 15.0582H2.50021V20.6136C2.50021 21.6846 3.36841 22.5522 4.43881 22.5522H19.5612C20.6322 22.5522 21.4998 21.684 21.4998 20.6136V15.0582Z" fill="#FACC15"/>
<path d="M16.0782 5.29319L12.3984 1.61339C12.1782 1.39319 11.8218 1.39319 11.6022 1.61339L7.92241 5.29319C7.73941 5.47619 7.869 5.78939 8.1276 5.78939H9.92701C10.1058 5.78939 10.2504 5.93399 10.2504 6.11279V8.01359C10.2504 8.16539 10.3734 8.28839 10.5252 8.28839H13.4754C13.6272 8.28839 13.7502 8.16539 13.7502 8.01359V6.11279C13.7502 5.93399 13.8948 5.78939 14.0736 5.78939H15.873C16.1316 5.78939 16.2612 5.47619 16.0782 5.29319Z" fill="#FACC15"/>
</g>
<defs>
<clipPath id="clip0_5734_7991">
<rect width="24" height="24" fill="white"/>
</clipPath>
</defs>
</svg>
