<svg width="24" height="24" viewBox="0 0 24 24" fill="none" xmlns="http://www.w3.org/2000/svg">
<g clip-path="url(#clip0_5734_7915)">
<path d="M12 0.844849C13.4154 0.844849 13.3884 1.36325 14.3418 1.41365C15.2952 1.46465 15.7938 1.16465 16.4376 1.25945C16.8852 1.32545 17.2218 1.52525 17.4546 1.72145C17.709 1.93625 17.751 2.31005 17.5482 2.57405L15.3306 5.45525C15.1332 5.68985 15.1572 6.03725 15.3888 6.23765C18.84 9.22745 23.1 12.8232 23.1 16.0519C23.1 21.4771 18.6468 23.1558 12 23.1558C5.35319 23.1558 0.899994 21.4771 0.899994 16.0519C0.899994 12.8238 5.15999 9.22745 8.61119 6.23765C8.84279 6.03725 8.86679 5.68925 8.66939 5.45525L6.45179 2.57405C6.24899 2.31005 6.29099 1.93625 6.54539 1.72145C6.77819 1.52525 7.11479 1.32545 7.56239 1.25945C8.20619 1.16465 8.70539 1.46465 9.65819 1.41365C10.6116 1.36265 10.5846 0.844849 12 0.844849Z" fill="#96B1FD"/>
<path d="M12.0498 6.8311C10.8852 6.8311 9.71819 6.7219 8.57939 6.5047C8.21639 6.4351 7.97879 6.0847 8.04779 5.7217C8.11739 5.3587 8.46839 5.1193 8.83079 5.1895C10.9422 5.5921 13.1616 5.5939 15.249 5.1895C15.6114 5.1169 15.963 5.3563 16.0332 5.7193C16.1034 6.0823 15.8658 6.4333 15.5028 6.5035C14.3766 6.7213 13.215 6.8305 12.0498 6.8305V6.8311Z" fill="#0057FF"/>
<path d="M12.144 19.155C10.6032 19.155 9.4302 18.243 8.9394 17.6172C8.6532 17.2518 8.7174 16.7238 9.0828 16.4376C9.4464 16.1532 9.9708 16.215 10.2582 16.5762C10.3746 16.7196 11.4282 17.9448 13.08 17.2848C13.4814 17.1246 13.6644 16.8342 13.6374 16.6296C13.5966 16.317 13.0758 15.9432 12.0054 15.8148C9.3654 15.498 8.9676 14.0016 8.9082 13.5498C8.775 12.5298 9.4182 11.5518 10.509 11.1162C12.7158 10.2366 14.3262 11.4186 14.916 11.9676C15.2556 12.2832 15.2742 12.8154 14.958 13.155C14.6412 13.494 14.1108 13.5132 13.7706 13.197C13.2312 12.6942 12.3348 12.1968 11.1312 12.6774C10.7298 12.8376 10.5468 13.128 10.5738 13.3326C10.6146 13.6452 11.1348 14.019 12.2052 14.1474C14.8452 14.4642 15.243 15.9606 15.3024 16.4118C15.4362 17.4318 14.7924 18.4098 13.7022 18.8454C13.1526 19.0644 12.6294 19.1556 12.1434 19.1556L12.144 19.155Z" fill="#FFFAF1"/>
<path d="M12.1062 12.4824C11.6424 12.4824 11.2662 12.1068 11.2662 11.643V10.4454C11.2662 9.98156 11.6424 9.60596 12.1062 9.60596C12.57 9.60596 12.9462 9.98156 12.9462 10.4454V11.643C12.9462 12.1068 12.57 12.4824 12.1062 12.4824Z" fill="#FFFAF1"/>
<path d="M12.1062 20.3561C11.6424 20.3561 11.2662 19.9805 11.2662 19.5167V18.3191C11.2662 17.8553 11.6424 17.4797 12.1062 17.4797C12.57 17.4797 12.9462 17.8553 12.9462 18.3191V19.5167C12.9462 19.9805 12.57 20.3561 12.1062 20.3561Z" fill="#FFFAF1"/>
</g>
<defs>
<clipPath id="clip0_5734_7915">
<rect width="24" height="24" fill="white"/>
</clipPath>
</defs>
</svg>
