<svg width="24" height="24" viewBox="0 0 24 24" fill="none" xmlns="http://www.w3.org/2000/svg">
<path d="M20.652 7.23607V20.1301C20.652 21.0841 19.878 21.8521 18.93 21.8521H6.60603C5.65203 21.8521 4.88403 21.0781 4.88403 20.1301V3.87007C4.88403 2.91607 5.65803 2.14807 6.60603 2.14807H15.558L20.646 7.23607H20.652Z" fill="#EAEBED"/>
<path d="M20.652 7.23607H16.794C16.116 7.23607 15.564 6.68407 15.564 6.00607V2.14807L20.652 7.23607Z" fill="#CAD0D7"/>
<rect x="3" y="12" width="12.3277" height="5.91697" rx="1" fill="#1976D2"/>
<path d="M13.5592 14.4452C13.5034 14.0726 13.2169 13.8467 12.8234 13.8444C12.2995 13.8467 11.9525 14.2472 11.9525 14.9575C11.9525 15.684 12.3041 16.0682 12.8187 16.0706C13.203 16.0682 13.4917 15.8587 13.5592 15.4931L14.2671 15.4977C14.1903 16.1218 13.6664 16.69 12.8094 16.69C11.9082 16.69 11.2399 16.0543 11.2399 14.9575C11.2399 13.856 11.9199 13.225 12.8094 13.225C13.5872 13.225 14.174 13.6697 14.2671 14.4452H13.5592Z" fill="white"/>
<path d="M11.0068 14.9575C11.0068 16.0589 10.3246 16.69 9.43269 16.69C8.53384 16.69 7.85388 16.0543 7.85388 14.9575C7.85388 13.856 8.53384 13.225 9.43269 13.225C10.3246 13.225 11.0068 13.856 11.0068 14.9575ZM8.56644 14.9575C8.56644 15.677 8.90875 16.0682 9.43269 16.0706C9.95198 16.0682 10.2966 15.677 10.2943 14.9575C10.2966 14.2356 9.95198 13.8467 9.43269 13.8444C8.90875 13.8467 8.56644 14.2356 8.56644 14.9575Z" fill="white"/>
<path d="M5.96763 16.6435H4.78003V13.2716H5.9816C6.99688 13.2716 7.61863 13.9027 7.6163 14.9529C7.61863 16.0077 6.99688 16.6435 5.96763 16.6435ZM5.47862 16.0427H5.93969C6.58239 16.0427 6.91771 15.7097 6.91771 14.9529C6.91771 14.2031 6.58239 13.8724 5.94434 13.8724H5.47862V16.0427Z" fill="white"/>
</svg>
