<svg width="24" height="24" viewBox="0 0 24 24" fill="none" xmlns="http://www.w3.org/2000/svg">
<path d="M8.23926 12.707C12.731 12.707 14.4783 15.7705 14.4785 17.1953C14.4785 18.6201 10.7594 19 8.23926 19C5.71913 19 2 18.62 2 17.1953C2.00021 15.7705 3.74707 12.7071 8.23926 12.707ZM8.23926 5C10.0853 5 11.582 6.49678 11.582 8.34277C11.5818 10.1886 10.0851 11.6846 8.23926 11.6846C6.39357 11.6844 4.89772 10.1884 4.89746 8.34277C4.89746 6.49688 6.39341 5.00018 8.23926 5Z" fill="#617087"/>
<path d="M15.7593 12.707C20.2514 12.7072 21.9983 15.7705 21.9985 17.1953C21.9985 18.62 18.2794 19 15.7593 19C13.2391 19 9.52 18.6201 9.52 17.1953C9.52021 15.7705 11.2675 12.707 15.7593 12.707ZM15.7583 5C17.6043 5 19.1011 6.49678 19.1011 8.34277C19.1008 10.1886 17.6041 11.6846 15.7583 11.6846C13.9126 11.6844 12.4167 10.1884 12.4165 8.34277C12.4165 6.4969 13.9125 5.00019 15.7583 5Z" fill="#AFB7C0"/>
<path d="M19.01 14.0297L15.5635 15.4448C15.4155 15.5057 15.3182 15.6497 15.3182 15.8095V19.0994C15.3182 20.5976 17.2143 22.0555 18.9823 22.9573C19.0938 23.0142 19.2244 23.0142 19.3359 22.9573C21.1047 22.0563 23 20.5984 23 19.0994V15.8095C23 15.6497 22.9035 15.5049 22.7548 15.4448L19.3082 14.0297C19.2141 13.9901 19.1057 13.9901 19.01 14.0297Z" fill="#5288FF"/>
<path d="M17.4091 18.1667L18.8091 19.5L20.9091 17.5" stroke="white" stroke-width="0.777778" stroke-linecap="round" stroke-linejoin="round"/>
</svg>
