<svg width="14" height="14" viewBox="0 0 14 14" fill="none" xmlns="http://www.w3.org/2000/svg">
<path d="M10.6024 1.68907L13.3929 6.39967C13.6116 6.76897 13.6188 7.22638 13.4119 7.60212L13.0273 8.30096C12.9007 8.53128 12.6892 8.70393 12.4375 8.78094C10.7085 9.30856 9.44695 8.30991 8.50589 6.78688C8.42225 6.65179 8.4659 6.47435 8.60266 6.39348L9.25292 6.00896C9.54602 5.83565 9.50233 5.39871 9.18072 5.28685L5.83223 4.12226C5.48155 4.0003 5.1054 4.22288 5.04352 4.58897L4.45321 8.08169C4.39649 8.4173 4.75817 8.66589 5.05117 8.49269L5.52169 8.21454C5.68931 8.11546 5.90298 8.15258 6.03711 8.29372C7.52674 9.86114 9.77746 10.5564 11.7226 9.79797C11.9122 9.72403 12.1251 9.94041 12.027 10.1187L10.8415 12.274C10.6282 12.6616 10.2206 12.9027 9.7782 12.903L4.44302 12.9066C4.0139 12.907 3.61597 12.6806 3.39728 12.3113L0.606728 7.60033C0.388044 7.23104 0.380874 6.77362 0.587727 6.39788L3.15745 1.72632C3.37075 1.33875 3.77837 1.09805 4.22111 1.09733L9.55665 1.09375C9.98577 1.09339 10.3837 1.31977 10.6024 1.68907Z" fill="#ACB4C5"/>
</svg>
