<svg width="24" height="24" viewBox="0 0 24 24" fill="none" xmlns="http://www.w3.org/2000/svg">
<g clip-path="url(#clip0_948_74559)">
<path d="M17.9961 3C17.9961 2.44772 17.5484 2 16.9961 2L6.99623 2L1.99609 6.9941V21C1.99609 21.5523 2.44381 22 2.99609 22H16.9961C17.5484 22 17.9961 21.5523 17.9961 21V3Z" fill="#EEF0F4"/>
<path d="M6.99609 2V6C6.99609 6.55228 6.54838 7 5.99609 7H1.99609L6.99609 2Z" fill="#A7B6C8"/>
<path d="M5.19611 10.2495H14.7961" stroke="#BFC5CE" stroke-linecap="round"/>
<path d="M5.19611 12.9189H9.19611" stroke="#BFC5CE" stroke-linecap="round"/>
<path d="M13.0714 19.59L16.4148 21.8611L13.229 22.9544L13.0714 19.59Z" fill="#FFDDD2"/>
<path d="M13.1652 21.792L14.3283 22.5821L13.2253 22.9526L13.1652 21.792Z" fill="#444444"/>
<rect x="18.6368" y="11.3986" width="4.0418" height="9.90186" transform="rotate(34.1887 18.6368 11.3986)" fill="#5288FF"/>
<path d="M19.5044 10.1204C19.7375 9.77731 20.2046 9.6881 20.5478 9.9212L22.6485 11.3483C22.9916 11.5814 23.0809 12.0485 22.8478 12.3916L21.9797 13.6694L18.6364 11.3983L19.5044 10.1204Z" fill="#003ECB"/>
</g>
<defs>
<clipPath id="clip0_948_74559">
<rect width="24" height="24" fill="white"/>
</clipPath>
</defs>
</svg>
