<svg width="24" height="24" viewBox="0 0 24 24" fill="none" xmlns="http://www.w3.org/2000/svg">
<path d="M11.4739 2.34959C11.7342 1.74512 12.5912 1.74512 12.8515 2.3496L15.2311 7.87524C15.3397 8.12738 15.5774 8.30004 15.8507 8.32539L21.8412 8.881C22.4966 8.94178 22.7614 9.75689 22.267 10.1913L17.7471 14.1619C17.5409 14.3431 17.4501 14.6225 17.5104 14.8903L18.8332 20.7593C18.9779 21.4013 18.2845 21.9051 17.7186 21.5691L12.5456 18.4974C12.3096 18.3573 12.0158 18.3573 11.7798 18.4974L6.60675 21.5691C6.04085 21.9051 5.34748 21.4013 5.49218 20.7593L6.81495 14.8902C6.8753 14.6224 6.78453 14.3431 6.57829 14.1619L2.05842 10.1912C1.56397 9.75689 1.82882 8.94178 2.48415 8.881L8.47468 8.32539C8.74803 8.30004 8.98568 8.12738 9.09426 7.87524L11.4739 2.34959Z" fill="#FACC15"/>
</svg>
