<svg width="24" height="24" viewBox="0 0 24 24" fill="none" xmlns="http://www.w3.org/2000/svg">
<path d="M20.6538 7.23828V20.1329C20.6538 21.087 19.8798 21.855 18.9317 21.855H6.6071C5.65305 21.855 4.88501 21.081 4.88501 20.1329V3.87211C4.88501 2.91806 5.65905 2.15002 6.6071 2.15002H15.5596L20.6478 7.23828H20.6538Z" fill="#64AD7F"/>
<path d="M20.6538 7.23828H16.7956C16.1176 7.23828 15.5655 6.68626 15.5655 6.00822V2.15002L20.6538 7.23828Z" fill="#47805D"/>
<path d="M8.65545 13.9308L10.5402 13.9308L10.5402 11.5746L9.12584 11.5746C8.86584 11.5748 8.65559 11.786 8.65545 12.046L8.65545 13.9308ZM17.1374 12.046C17.1373 11.7859 16.9261 11.5746 16.6659 11.5746L11.4821 11.5746L11.4821 13.9308L17.1374 13.9308L17.1374 12.046ZM8.65545 16.7585C8.65545 17.0186 8.86575 17.2297 9.12584 17.2299L10.5402 17.2299L10.5402 14.8737L8.65545 14.8737L8.65545 16.7585ZM17.1374 14.8737L11.4821 14.8737L11.4821 17.2299L16.6659 17.2299C16.9262 17.2299 17.1374 17.0187 17.1374 16.7585L17.1374 14.8737ZM7.71253 12.046C7.71268 11.2655 8.3453 10.633 9.12584 10.6327L16.6659 10.6327C17.4467 10.6327 18.0802 11.2654 18.0803 12.046L18.0803 16.7585C18.0803 17.5393 17.4468 18.1729 16.6659 18.1729L9.12584 18.1729C8.34521 18.1726 7.71253 17.5392 7.71253 16.7585L7.71253 12.046Z" fill="white"/>
</svg>
