<svg width="24" height="24" viewBox="0 0 24 24" fill="none" xmlns="http://www.w3.org/2000/svg">
<path d="M6.53378 1.02832C7.14918 1.02832 7.64807 1.5272 7.64807 2.14261V3.78229H16.5213V2.14261C16.5213 1.5272 17.0202 1.02832 17.6356 1.02832C18.251 1.02832 18.7499 1.5272 18.7499 2.14261V3.78229H19.7726C21.1041 3.78229 22.1835 4.86171 22.1835 6.19323V6.65111C22.1835 7.26651 21.6846 7.76539 21.0692 7.76539C20.4538 7.76539 19.9549 7.26651 19.9549 6.65111V6.19323C19.9549 6.09251 19.8733 6.01086 19.7726 6.01086H4.22735C4.12663 6.01086 4.04498 6.09251 4.04498 6.19323V19.723C4.04498 19.8218 4.12642 19.9054 4.22909 19.9054H7.3712C7.9866 19.9054 8.48548 20.4043 8.48548 21.0197C8.48548 21.6351 7.9866 22.134 7.37119 22.134H4.22909C2.89951 22.134 1.81641 21.0565 1.81641 19.723V6.19323C1.81641 4.8617 2.89583 3.78229 4.22735 3.78229H5.41949V2.14261C5.41949 1.5272 5.91838 1.02832 6.53378 1.02832Z" fill="#222222"/>
<path d="M17.7586 13.9957C17.7586 13.3803 17.2597 12.8814 16.6443 12.8814C16.0289 12.8814 15.53 13.3803 15.53 13.9957V16.301C15.53 16.9164 16.0289 17.4152 16.6443 17.4152H18.8078C19.4232 17.4152 19.9221 16.9164 19.9221 16.301C19.9221 15.6856 19.4232 15.1867 18.8078 15.1867H17.7586V13.9957Z" fill="#222222"/>
<path fill-rule="evenodd" clip-rule="evenodd" d="M16.6443 8.7832C14.7184 8.7832 12.8714 9.54826 11.5095 10.9101C10.1477 12.2719 9.38266 14.1189 9.38266 16.0448C9.38266 17.9707 10.1477 19.8177 11.5095 21.1796C12.8714 22.5414 14.7184 23.3064 16.6443 23.3064C18.5702 23.3064 20.4172 22.5414 21.779 21.1796C23.1408 19.8177 23.9059 17.9707 23.9059 16.0448C23.9059 14.1189 23.1408 12.2719 21.779 10.9101C20.4172 9.54826 18.5702 8.7832 16.6443 8.7832ZM13.0854 12.4859C14.0293 11.542 15.3094 11.0118 16.6443 11.0118C17.9791 11.0118 19.2593 11.542 20.2032 12.4859C21.147 13.4298 21.6773 14.71 21.6773 16.0448C21.6773 17.3797 21.147 18.6598 20.2032 19.6037C19.2593 20.5476 17.9791 21.0779 16.6443 21.0779C15.3094 21.0779 14.0293 20.5476 13.0854 19.6037C12.1415 18.6598 11.6112 17.3797 11.6112 16.0448C11.6112 14.71 12.1415 13.4298 13.0854 12.4859Z" fill="#222222"/>
</svg>
