<svg width="24" height="24" viewBox="0 0 24 24" fill="none" xmlns="http://www.w3.org/2000/svg">
<mask id="mask0_2703_92068" style="mask-type:alpha" maskUnits="userSpaceOnUse" x="0" y="0" width="24" height="24">
<rect width="24" height="24" fill="#D9D9D9"/>
</mask>
<g mask="url(#mask0_2703_92068)">
<path d="M11 11.85L9.125 13.725C8.925 13.925 8.6875 14.0208 8.4125 14.0125C8.1375 14.0042 7.9 13.9 7.7 13.7C7.51667 13.5 7.42083 13.2667 7.4125 13C7.40417 12.7333 7.5 12.5 7.7 12.3L11.3 8.7C11.4 8.6 11.5083 8.52917 11.625 8.4875C11.7417 8.44583 11.8667 8.425 12 8.425C12.1333 8.425 12.2583 8.44583 12.375 8.4875C12.4917 8.52917 12.6 8.6 12.7 8.7L16.3 12.3C16.5 12.5 16.5958 12.7333 16.5875 13C16.5792 13.2667 16.4833 13.5 16.3 13.7C16.1 13.9 15.8625 14.0042 15.5875 14.0125C15.3125 14.0208 15.075 13.925 14.875 13.725L13 11.85V19C13 19.2833 12.9042 19.5208 12.7125 19.7125C12.5208 19.9042 12.2833 20 12 20C11.7167 20 11.4792 19.9042 11.2875 19.7125C11.0958 19.5208 11 19.2833 11 19V11.85ZM4 8V6C4 5.45 4.19583 4.97917 4.5875 4.5875C4.97917 4.19583 5.45 4 6 4H18C18.55 4 19.0208 4.19583 19.4125 4.5875C19.8042 4.97917 20 5.45 20 6V8C20 8.28333 19.9042 8.52083 19.7125 8.7125C19.5208 8.90417 19.2833 9 19 9C18.7167 9 18.4792 8.90417 18.2875 8.7125C18.0958 8.52083 18 8.28333 18 8V6H6V8C6 8.28333 5.90417 8.52083 5.7125 8.7125C5.52083 8.90417 5.28333 9 5 9C4.71667 9 4.47917 8.90417 4.2875 8.7125C4.09583 8.52083 4 8.28333 4 8Z" fill="#222222"/>
</g>
</svg>
