<svg width="24" height="24" viewBox="0 0 24 24" fill="none" xmlns="http://www.w3.org/2000/svg">
<path d="M16.0342 1.62793C16.9269 1.62793 17.6415 2.34262 17.6416 3.23535V3.64746H17.7061C19.513 3.64746 21.1406 5.03543 21.1406 6.88867V19.1318C21.1405 21.0012 19.5093 22.3721 17.7061 22.3721H6.82617C5.00679 22.372 3.39269 20.998 3.39258 19.1318V6.88867C3.39258 5.03862 5.00306 3.64756 6.82617 3.64746H6.90332V3.23535C6.9034 2.34267 7.61806 1.62801 8.51074 1.62793H16.0342ZM6.82617 5.57617C5.92302 5.57627 5.32129 6.24388 5.32129 6.88867V19.1318C5.32141 19.786 5.91944 20.4433 6.82617 20.4434H17.7061C18.6034 20.4434 19.2108 19.783 19.2109 19.1318V6.88867C19.2109 6.24695 18.5998 5.57617 17.7061 5.57617H17.6416V6.0752C17.6106 6.90739 16.933 7.64648 16.0215 7.64648H8.51074C7.61801 7.6464 6.90332 6.93181 6.90332 6.03906V5.57617H6.82617ZM16.1113 14.9775C16.644 14.9775 17.0762 15.4097 17.0762 15.9424C17.076 16.4749 16.6439 16.9062 16.1113 16.9062H8.4209C7.88838 16.9061 7.45622 16.4749 7.45605 15.9424C7.45605 15.4097 7.88828 14.9776 8.4209 14.9775H16.1113ZM16.1113 10.8232C16.644 10.8232 17.0762 11.2554 17.0762 11.7881C17.076 12.3207 16.6439 12.752 16.1113 12.752H8.4209C7.88838 12.7519 7.45622 12.3206 7.45605 11.7881C7.45605 11.2554 7.88828 10.8233 8.4209 10.8232H16.1113ZM8.83203 5.71777H15.7129V4.76172C15.7053 4.71297 15.7002 4.66318 15.7002 4.6123C15.7002 4.56119 15.7052 4.51088 15.7129 4.46191V3.55664H8.83203V5.71777Z" fill="#222222"/>
</svg>
