<svg width="24" height="24" viewBox="0 0 24 24" fill="none" xmlns="http://www.w3.org/2000/svg">
<path fill-rule="evenodd" clip-rule="evenodd" d="M15.7597 2.2318C16.184 1.87824 16.8146 1.93556 17.1681 2.35984L22.1681 8.35984C22.4165 8.65792 22.4701 9.0728 22.3055 9.42418C22.1409 9.77557 21.7879 10 21.3999 10H2.39991C1.84763 10 1.39991 9.55231 1.39991 9.00003C1.39991 8.44774 1.84763 8.00003 2.39991 8.00003H19.2649L15.6317 3.64021C15.2781 3.21593 15.3355 2.58537 15.7597 2.2318ZM1.49433 14.5759C1.6589 14.2245 2.0119 14 2.39991 14H21.3999C21.9522 14 22.3999 14.4477 22.3999 15C22.3999 15.5523 21.9522 16 21.3999 16H4.53496L8.16814 20.3598C8.5217 20.7841 8.46438 21.4147 8.0401 21.7682C7.61582 22.1218 6.98526 22.0645 6.63169 21.6402L1.63169 15.6402C1.38329 15.3421 1.32975 14.9273 1.49433 14.5759Z" fill="#222222"/>
</svg>
