<svg width="24" height="24" viewBox="0 0 24 24" fill="none" xmlns="http://www.w3.org/2000/svg">
<path d="M19.0783 3.09463C19.586 2.58695 20.4091 2.58695 20.9168 3.09463C21.4244 3.60231 21.4244 4.42542 20.9168 4.93311L13.8373 12.0125L20.9168 19.0919C21.4244 19.5996 21.4244 20.4227 20.9168 20.9304C20.4091 21.4381 19.586 21.4381 19.0783 20.9304L11.9989 13.851L4.91943 20.9304C4.41175 21.4381 3.58864 21.4381 3.08096 20.9304C2.57328 20.4227 2.57328 19.5996 3.08096 19.0919L10.1604 12.0125L3.08096 4.93311C2.57328 4.42542 2.57328 3.60231 3.08096 3.09463C3.58864 2.58695 4.41176 2.58695 4.91944 3.09463L11.9989 10.174L19.0783 3.09463Z" fill="#222222"/>
</svg>
