<svg width="24" height="24" viewBox="0 0 24 24" fill="none" xmlns="http://www.w3.org/2000/svg">
<path d="M5.2002 0.400391C6.96751 0.400391 8.40039 1.83327 8.40039 3.60059C8.40039 4.94402 7.5719 6.09293 6.39844 6.56738C6.39874 6.57843 6.40039 6.58947 6.40039 6.60059V10.4004H15.2002C15.211 10.4004 15.2217 10.4011 15.2324 10.4014C15.707 9.22817 16.857 8.40039 18.2002 8.40039C19.9675 8.40039 21.4004 9.83327 21.4004 11.6006C21.4004 13.3679 19.9675 14.8008 18.2002 14.8008C16.8566 14.8008 15.7068 13.9725 15.2324 12.7988C15.2217 12.7991 15.211 12.8008 15.2002 12.8008H6.40039V16.6006C6.40039 18.147 7.6538 19.4004 9.2002 19.4004H15.2002C15.211 19.4004 15.2217 19.4011 15.2324 19.4014C15.707 18.2282 16.857 17.4004 18.2002 17.4004C19.9675 17.4004 21.4004 18.8333 21.4004 20.6006C21.4004 22.3679 19.9675 23.8008 18.2002 23.8008C16.8566 23.8008 15.7068 22.9725 15.2324 21.7988C15.2217 21.7991 15.211 21.8008 15.2002 21.8008H9.2002C6.32831 21.8008 4 19.4725 4 16.6006V6.60059C4 6.58948 4.00068 6.57842 4.00098 6.56738C2.82796 6.09273 2 4.9437 2 3.60059C2 1.83327 3.43288 0.400391 5.2002 0.400391ZM18.2002 19.8008C17.7584 19.8008 17.4004 20.1588 17.4004 20.6006C17.4004 21.0424 17.7584 21.4004 18.2002 21.4004C18.642 21.4004 19 21.0424 19 20.6006C19 20.1588 18.642 19.8008 18.2002 19.8008ZM18.2002 10.8008C17.7584 10.8008 17.4004 11.1588 17.4004 11.6006C17.4004 12.0424 17.7584 12.4004 18.2002 12.4004C18.642 12.4004 19 12.0424 19 11.6006C19 11.1588 18.642 10.8008 18.2002 10.8008ZM5.2002 2.80078C4.75837 2.80078 4.40039 3.15876 4.40039 3.60059C4.40039 4.04241 4.75837 4.40039 5.2002 4.40039C5.64202 4.40039 6 4.04241 6 3.60059C6 3.15876 5.64202 2.80078 5.2002 2.80078Z" fill="#222222"/>
</svg>
