<svg width="24" height="24" viewBox="0 0 24 24" fill="none" xmlns="http://www.w3.org/2000/svg">
<path d="M20.3686 9.64469C21.0267 9.08533 21.1912 8.14208 20.7634 7.39625L20.1712 6.36526C19.7434 5.61944 18.8331 5.2904 18.0214 5.58653C16.4091 6.16784 14.6543 5.15878 14.3472 3.46971C14.1936 2.61421 13.4587 2 12.5923 2H11.4077C10.5413 2 9.8064 2.61421 9.65285 3.46971C9.35671 5.15878 7.60183 6.17881 5.97857 5.58653C5.16694 5.2904 4.25659 5.61944 3.82884 6.36526L3.23657 7.39625C2.80882 8.14208 2.97334 9.09629 3.63142 9.64469C4.94758 10.7525 4.94758 12.7706 3.63142 13.8783C2.97334 14.4377 2.80882 15.381 3.23657 16.1268L3.82884 17.1578C4.25659 17.9036 5.16694 18.2326 5.97857 17.9365C7.59087 17.3552 9.34574 18.3642 9.65285 20.0533C9.8064 20.9088 10.5413 21.523 11.4077 21.523H12.5923C13.4587 21.523 14.1936 20.9088 14.3472 20.0533C14.6433 18.3642 16.3982 17.3442 18.0214 17.9365C18.8331 18.2326 19.7434 17.9036 20.1712 17.1578L20.7634 16.1268C21.1912 15.381 21.0267 14.4267 20.3686 13.8783C19.0524 12.7706 19.0524 10.7525 20.3686 9.64469Z" stroke="#222222" stroke-width="2"/>
<path d="M12.0513 9.20801C13.5048 9.20801 14.683 10.3863 14.6831 11.8398C14.6831 13.2935 13.5049 14.4717 12.0513 14.4717C10.5977 14.4716 9.41943 13.2934 9.41943 11.8398C9.41954 10.3864 10.5978 9.20811 12.0513 9.20801Z" stroke="#222222" stroke-width="2"/>
</svg>
