<svg width="24" height="24" viewBox="0 0 24 24" fill="none" xmlns="http://www.w3.org/2000/svg">
<path d="M12 1C17.0351 1 21.2801 4.38299 22.5859 9H20.4883C19.2528 5.50442 15.9187 3 12 3C7.02944 3 3 7.02944 3 12C3 16.9706 7.02944 21 12 21C13.8501 21 15.5699 20.4417 17 19.4844V21.8008C15.4999 22.5676 13.8004 23 12 23C5.92487 23 1 18.0751 1 12C1 5.92487 5.92487 1 12 1ZM21.2979 19.6631C21.5468 19.6631 21.7791 19.7253 21.9941 19.8496C22.2093 19.9742 22.3825 20.1474 22.5127 20.3682C22.6428 20.5833 22.708 20.8185 22.708 21.0732C22.708 21.3336 22.6429 21.5742 22.5127 21.7949C22.3825 22.01 22.2093 22.1823 21.9941 22.3125C21.7791 22.437 21.5469 22.5 21.2979 22.5C21.0376 22.4999 20.7969 22.437 20.5762 22.3125C20.3556 22.1823 20.18 22.0099 20.0498 21.7949C19.9253 21.5742 19.8655 21.3335 19.8711 21.0732C19.8654 20.8185 19.9253 20.5833 20.0498 20.3682C20.18 20.1474 20.3554 19.9742 20.5762 19.8496C20.7968 19.7252 21.0376 19.6632 21.2979 19.6631ZM22.3682 18.1816H20.1943L19.9736 11.5H22.5889L22.3682 18.1816ZM11.6006 6C12.1526 6.00026 12.6006 6.44788 12.6006 7V12H16C16.5523 12 17 12.4477 17 13C17 13.5523 16.5523 14 16 14H11.6006C11.0483 14 10.6006 13.5523 10.6006 13V7C10.6006 6.44772 11.0483 6 11.6006 6Z" fill="#222222"/>
</svg>
