<svg width="24" height="24" viewBox="0 0 24 24" fill="none" xmlns="http://www.w3.org/2000/svg">
<path d="M17.3521 2.01172C17.8364 1.52734 18.6218 1.52734 19.1061 2.01172L22.019 4.9246C22.5034 5.40897 22.5034 6.1943 22.019 6.67867L21.7171 6.98058C21.2327 7.46495 20.4474 7.46495 19.963 6.98058L17.0502 4.0677C16.5658 3.58332 16.5658 2.798 17.0502 2.31362L17.3521 2.01172Z" fill="#222222"/>
<path d="M14.3103 5.05423C14.7947 4.56986 15.58 4.56986 16.0644 5.05423L18.9773 7.96711C19.4617 8.45149 19.4617 9.23681 18.9773 9.72118L9.37003 19.3284C8.88566 19.8128 8.10033 19.8128 7.61596 19.3284L4.70308 16.4156C4.2187 15.9312 4.2187 15.1459 4.70308 14.6615L14.3103 5.05423Z" fill="#222222"/>
<path d="M6.08597 19.8648L3.95442 17.7333C3.25496 17.0338 2.0583 17.3944 1.86179 18.3639L1.31987 21.0374C1.14349 21.9075 1.91173 22.6758 2.78187 22.4994L5.45533 21.9575C6.42479 21.7609 6.78542 20.5643 6.08597 19.8648Z" fill="#222222"/>
</svg>
