<svg width="24" height="24" viewBox="0 0 24 24" fill="none" xmlns="http://www.w3.org/2000/svg">
<path d="M21.4738 16.0581C21.7484 15.4033 21.4402 14.6498 20.7854 14.3752C20.1305 14.1006 19.3771 14.4088 19.1025 15.0637C17.903 17.9239 15.0773 19.9291 11.7864 19.9291C7.40715 19.9291 3.85707 16.379 3.85707 11.9998C3.85707 7.62053 7.40715 4.07045 11.7864 4.07045C13.7354 4.07045 15.5211 4.77347 16.9027 5.9414L14.2845 8.43558L21.9145 9.60576L21.1155 1.92803L18.7724 4.16018C16.9171 2.5057 14.4697 1.49902 11.7864 1.49902C5.98699 1.49902 1.28564 6.20037 1.28564 11.9998C1.28564 17.7992 5.98699 22.5005 11.7864 22.5005C16.1493 22.5005 19.8878 19.8401 21.4738 16.0581Z" fill="#222222"/>
</svg>
