<svg width="24" height="24" viewBox="0 0 24 24" fill="none" xmlns="http://www.w3.org/2000/svg">
<path d="M7.81925 19.6624C12.9059 21.3033 18.8145 19.7894 22.3846 15.1208L23.1988 14.056C23.9979 13.0111 23.9979 11.5604 23.1988 10.5155L22.3846 9.4507C21.7416 8.60985 21.0227 7.87134 20.2465 7.23516L18.5383 8.94335C19.2465 9.49725 19.8998 10.1523 20.4781 10.9086L21.2924 11.9734C21.4334 12.1578 21.4334 12.4138 21.2924 12.5982L20.4781 13.6629C17.8398 17.1131 13.6405 18.4575 9.78565 17.696L7.81925 19.6624Z" fill="#222222"/>
<path d="M9.34869 15.7086L9.34607 15.7056L7.90737 17.1443L7.91135 17.1459L6.09128 18.966L6.08755 18.9642L3.73753 21.3142C3.29973 21.6843 2.6438 21.6631 2.23108 21.2503C1.79593 20.8152 1.79593 20.1097 2.23108 19.6745L19.643 2.26257C20.0808 1.89237 20.7368 1.91363 21.1495 2.32637C21.5847 2.76152 21.5847 3.46705 21.1495 3.9022L18.8283 6.22338L18.8318 6.22549L17.0754 7.98183L17.0718 7.97987L15.1426 9.90906L15.1445 9.9128L13.2383 11.819L13.2376 11.8141L11.0497 14.002L11.0521 14.0051L9.34869 15.7086Z" fill="#222222"/>
<path d="M10.7733 16.7083C11.1214 16.8399 11.4983 16.9142 11.8989 16.9142C13.0714 16.9142 14.0414 16.2778 14.6772 15.43C15.3127 14.5826 15.6704 13.467 15.6704 12.2856C15.6704 12.1322 15.6643 11.9799 15.6524 11.8292L10.7733 16.7083Z" fill="#222222"/>
<path d="M14.8758 4.60544C10.0588 3.501 4.72825 5.11609 1.41354 9.4507L0.5993 10.5155C-0.199766 11.5604 -0.199768 13.0111 0.5993 14.056L1.41354 15.1208C1.84518 15.6853 2.31099 16.2036 2.8054 16.6758L4.50353 14.9777C4.08235 14.58 3.68615 14.1418 3.32 13.6629L2.50576 12.5982C2.36475 12.4138 2.36475 12.1578 2.50576 11.9734L3.32 10.9086C5.6786 7.82427 9.28465 6.42286 12.7769 6.70436L14.8758 4.60544Z" fill="#222222"/>
<path d="M11.8233 7.65796C10.6847 7.68466 9.74274 8.31183 9.12065 9.14128C8.67262 9.73865 8.36271 10.4693 8.21884 11.2624L11.8233 7.65796Z" fill="#222222"/>
</svg>
