<svg width="24" height="24" viewBox="0 0 24 24" fill="none" xmlns="http://www.w3.org/2000/svg">
<mask id="mask0_8383_15407" style="mask-type:alpha" maskUnits="userSpaceOnUse" x="0" y="0" width="24" height="24">
<rect width="24" height="24" fill="#D9D9D9"/>
</mask>
<g mask="url(#mask0_8383_15407)">
<path d="M12 13.9L13.5 15.05C13.6834 15.2 13.8834 15.2042 14.1 15.0625C14.3167 14.9208 14.3834 14.7333 14.3 14.5L13.7 12.6L15.375 11.3C15.5584 11.15 15.6084 10.9625 15.525 10.7375C15.4417 10.5125 15.2834 10.4 15.05 10.4H13.1L12.475 8.475C12.3917 8.24167 12.2334 8.125 12 8.125C11.7667 8.125 11.6084 8.24167 11.525 8.475L10.9 10.4H8.92503C8.6917 10.4 8.53753 10.5125 8.46253 10.7375C8.38753 10.9625 8.4417 11.15 8.62503 11.3L10.25 12.6L9.65003 14.525C9.5667 14.7583 9.62503 14.9458 9.82503 15.0875C10.025 15.2292 10.225 15.225 10.425 15.075L12 13.9ZM4.00003 20C3.45003 20 2.9792 19.8042 2.58753 19.4125C2.19586 19.0208 2.00003 18.55 2.00003 18V14.625C2.00003 14.4417 2.05836 14.2833 2.17503 14.15C2.2917 14.0167 2.4417 13.9333 2.62503 13.9C3.02503 13.7667 3.3542 13.525 3.61253 13.175C3.87086 12.825 4.00003 12.4333 4.00003 12C4.00003 11.5667 3.87086 11.175 3.61253 10.825C3.3542 10.475 3.02503 10.2333 2.62503 10.1C2.4417 10.0667 2.2917 9.98333 2.17503 9.85C2.05836 9.71667 2.00003 9.55833 2.00003 9.375V6C2.00003 5.45 2.19586 4.97917 2.58753 4.5875C2.9792 4.19583 3.45003 4 4.00003 4H20C20.55 4 21.0209 4.19583 21.4125 4.5875C21.8042 4.97917 22 5.45 22 6V9.375C22 9.55833 21.9417 9.71667 21.825 9.85C21.7084 9.98333 21.5584 10.0667 21.375 10.1C20.975 10.2333 20.6459 10.475 20.3875 10.825C20.1292 11.175 20 11.5667 20 12C20 12.4333 20.1292 12.825 20.3875 13.175C20.6459 13.525 20.975 13.7667 21.375 13.9C21.5584 13.9333 21.7084 14.0167 21.825 14.15C21.9417 14.2833 22 14.4417 22 14.625V18C22 18.55 21.8042 19.0208 21.4125 19.4125C21.0209 19.8042 20.55 20 20 20H4.00003ZM4.00003 18H20V15.45C19.3834 15.0833 18.8959 14.5958 18.5375 13.9875C18.1792 13.3792 18 12.7167 18 12C18 11.2833 18.1792 10.6208 18.5375 10.0125C18.8959 9.40417 19.3834 8.91667 20 8.55V6H4.00003V8.55C4.6167 8.91667 5.1042 9.40417 5.46253 10.0125C5.82086 10.6208 6.00003 11.2833 6.00003 12C6.00003 12.7167 5.82086 13.3792 5.46253 13.9875C5.1042 14.5958 4.6167 15.0833 4.00003 15.45V18Z" fill="#222222"/>
</g>
</svg>
