<svg width="24" height="24" viewBox="0 0 24 24" fill="none" xmlns="http://www.w3.org/2000/svg">
<path d="M13 10C13 9.44771 12.5523 9 12 9C11.4477 9 11 9.44771 11 10V12H9C8.44771 12 8 12.4477 8 13C8 13.5523 8.44771 14 9 14H11V16C11 16.5523 11.4477 17 12 17C12.5523 17 13 16.5523 13 16V14H15C15.5523 14 16 13.5523 16 13C16 12.4477 15.5523 12 15 12H13V10Z" fill="#222222"/>
<path fill-rule="evenodd" clip-rule="evenodd" d="M4 3C2.89543 3 2 3.89543 2 5V6C2 6 2 6 2 6L2 19C2 20.1046 2.89543 21 4 21L20 21C21.1046 21 22 20.1046 22 19L22 7.00001C22 5.89544 21.1046 5.00001 20 5.00001L12.4142 5.00001L11 3.58579C10.6249 3.21071 10.1162 3 9.58579 3H4ZM4 19L4 7.00001L20 7.00001L20 19L4 19Z" fill="#222222"/>
</svg>
