<svg width="24" height="24" viewBox="0 0 24 24" fill="none" xmlns="http://www.w3.org/2000/svg">
<path d="M2.96029 3.50409C3.33256 3.13191 3.93571 3.13185 4.30794 3.50409L20.6497 19.8449C21.0219 20.2172 21.0219 20.8213 20.6497 21.1935C20.2775 21.5658 19.6734 21.5657 19.3011 21.1935L16.6536 18.5461C16.4297 19.3627 16.0873 20.1524 15.6244 20.8889C15.239 21.4963 14.5867 21.8966 13.8607 21.9855C13.8163 21.9855 13.7681 21.9887 13.7201 21.9924C13.672 21.9961 13.6238 22.0002 13.5794 22.0002C12.9127 22.0002 12.2753 21.733 11.8011 21.259L7.99935 17.4572L3.76693 21.6887C3.56141 21.8941 3.29773 21.9983 3.03353 22.0002C2.76943 21.9982 2.50559 21.894 2.30013 21.6887C1.90031 21.2885 1.90019 20.6219 2.30013 20.2219L6.53158 15.9904L3.13119 12.5891C2.58299 12.0408 2.31587 11.2851 2.40462 10.5295C2.47872 9.78857 2.89381 9.15115 3.5013 8.76581C4.23488 8.30139 5.02322 7.95682 5.84115 7.7326L2.96029 4.85175C2.58802 4.47948 2.58802 3.87635 2.96029 3.50409ZM11.638 2.91132C12.8384 1.69662 14.957 1.69668 16.1722 2.91132L21.4779 8.21698C22.0853 8.8245 22.427 9.62522 22.4271 10.4846C22.427 11.344 22.0854 12.1446 21.4779 12.7521C20.4375 13.7923 18.7174 13.9617 17.5042 13.2062L11.181 6.883C10.8588 6.37498 10.6889 5.79805 10.6888 5.17889C10.6889 4.31952 11.0306 3.51884 11.638 2.91132Z" fill="#222222"/>
</svg>
