<svg width="24" height="24" viewBox="0 0 24 24" fill="none" xmlns="http://www.w3.org/2000/svg">
<g clip-path="url(#clip0_818_51194)">
<path fill-rule="evenodd" clip-rule="evenodd" d="M24 12C24 18.6274 18.6274 24 12 24C5.37258 24 0 18.6274 0 12C0 5.37258 5.37258 0 12 0C18.6274 0 24 5.37258 24 12ZM10.2452 14.295C10.2452 13.74 10.3202 13.275 10.4402 12.945C10.5602 12.6 10.7552 12.27 11.0102 11.985C11.2802 11.67 11.9252 11.1 12.9152 10.275C13.5752 9.735 13.8902 9.225 13.8902 8.715C13.8902 8.22 13.7402 7.83 13.4252 7.53C13.1252 7.245 12.6902 7.095 12.1352 7.095C11.5352 7.095 11.0402 7.29 10.6352 7.695C10.4702 7.86 10.3352 8.055 10.2302 8.295C9.9902 8.82 9.4052 9.09 8.8352 9.015L8.5952 8.985C7.6652 8.865 7.0952 7.845 7.5452 7.035C7.7552 6.675 8.0102 6.345 8.3252 6.045C9.1502 5.265 10.4402 4.875 12.1802 4.875C13.5302 4.875 14.6402 5.16 15.4502 5.715C16.5452 6.45 17.0702 7.41 17.0702 8.625C17.0702 9.105 16.9352 9.585 16.6652 10.035C16.3802 10.515 15.7652 11.115 14.8502 11.85C14.1152 12.435 13.6652 12.9 13.4552 13.275C13.3052 13.56 13.2002 13.905 13.1552 14.31H10.2452V14.295ZM13.3714 17.5671C13.3714 18.4192 12.6807 19.11 11.8286 19.11C10.9765 19.11 10.2857 18.4192 10.2857 17.5671C10.2857 16.715 10.9765 16.0243 11.8286 16.0243C12.6807 16.0243 13.3714 16.715 13.3714 17.5671Z" fill="#222222"/>
</g>
<defs>
<clipPath id="clip0_818_51194">
<rect width="24" height="24" fill="white"/>
</clipPath>
</defs>
</svg>
