<svg width="24" height="24" viewBox="0 0 24 24" fill="none" xmlns="http://www.w3.org/2000/svg">
<path fill-rule="evenodd" clip-rule="evenodd" d="M18.1003 0.671875C15.5836 0.671875 13.5435 2.71204 13.5435 5.22871C13.5435 5.54459 13.5757 5.85315 13.6369 6.15121L7.9721 8.98364C7.13743 8.03944 5.91664 7.44362 4.55683 7.44362C2.04016 7.44362 0 9.48378 0 12.0004C0 14.5171 2.04016 16.5573 4.55683 16.5573C5.91664 16.5573 7.13743 15.9615 7.9721 15.0173L13.6369 17.8497C13.5757 18.1477 13.5435 18.4563 13.5435 18.7722C13.5435 21.2889 15.5836 23.329 18.1003 23.329C20.617 23.329 22.6571 21.2889 22.6571 18.7722C22.6571 16.2555 20.617 14.2154 18.1003 14.2154C16.7405 14.2154 15.5197 14.8112 14.685 15.7554L9.0202 12.923C9.08149 12.6249 9.11366 12.3163 9.11366 12.0004C9.11366 11.6846 9.08149 11.376 9.0202 11.0779L14.685 8.24551C15.5197 9.18972 16.7405 9.78554 18.1003 9.78554C20.617 9.78554 22.6571 7.74538 22.6571 5.22871C22.6571 2.71204 20.617 0.671875 18.1003 0.671875ZM15.8854 5.22871C15.8854 4.00545 16.8771 3.0138 18.1003 3.0138C19.3236 3.0138 20.3152 4.00545 20.3152 5.22871C20.3152 6.45197 19.3236 7.44362 18.1003 7.44362C16.8771 7.44362 15.8854 6.45197 15.8854 5.22871ZM7.92536 9.21464C7.92536 9.21464 7.92536 9.21465 7.92536 9.21464V9.21464ZM2.34192 12.0004C2.34192 10.7772 3.33357 9.78554 4.55683 9.78554C5.78009 9.78554 6.77174 10.7772 6.77174 12.0004C6.77174 13.2237 5.78009 14.2154 4.55683 14.2154C3.33357 14.2154 2.34192 13.2237 2.34192 12.0004ZM15.8854 18.7722C15.8854 17.5489 16.8771 16.5573 18.1003 16.5573C19.3236 16.5573 20.3152 17.5489 20.3152 18.7722C20.3152 19.9954 19.3236 20.9871 18.1003 20.9871C16.8771 20.9871 15.8854 19.9954 15.8854 18.7722Z" fill="#222222"/>
</svg>
