<svg width="24" height="24" viewBox="0 0 24 24" fill="none" xmlns="http://www.w3.org/2000/svg">
<path fill-rule="evenodd" clip-rule="evenodd" d="M4.38095 5.80952C4.38095 3.70558 6.08653 2 8.19048 2H15.8095C17.9135 2 19.619 3.70558 19.619 5.80952V18.1905C19.619 20.2944 17.9135 22 15.8095 22H8.19048C6.08653 22 4.38095 20.2944 4.38095 18.1905V5.80952ZM6.28571 15.7147V18.1905C6.28571 19.2424 7.1385 20.0952 8.19048 20.0952H15.8095C16.8615 20.0952 17.7143 19.2424 17.7143 18.1905V15.7147H6.28571ZM17.7143 13.8099H6.28571V5.80952C6.28571 4.75755 7.1385 3.90476 8.19048 3.90476H15.8095C16.8615 3.90476 17.7143 4.75755 17.7143 5.80952V13.8099ZM10.0952 18.0003C10.0952 17.4743 10.5216 17.0479 11.0476 17.0479H12.9524C13.4784 17.0479 13.9048 17.4743 13.9048 18.0003C13.9048 18.5263 13.4784 18.9527 12.9524 18.9527H11.0476C10.5216 18.9527 10.0952 18.5263 10.0952 18.0003Z" fill="#222222"/>
</svg>
