<svg width="24" height="24" viewBox="0 0 24 24" fill="none" xmlns="http://www.w3.org/2000/svg">
<path d="M12.1499 1.95166C17.6986 1.95189 22.1972 6.45086 22.1978 11.9995C22.1978 17.5486 17.6989 22.0471 12.1499 22.0474C11.6531 22.0472 11.2507 21.6447 11.2505 21.1479C11.2508 20.6513 11.6532 20.2477 12.1499 20.2476C16.7048 20.2473 20.3979 16.5545 20.3979 11.9995C20.3974 7.44497 16.7045 3.75268 12.1499 3.75244C7.64027 3.75262 3.97826 7.37235 3.90576 11.8647L5.10205 11.9126C5.34133 11.9224 5.46653 12.2186 5.31494 12.4165L3.04834 15.3696C2.92559 15.5296 2.69337 15.5211 2.5835 15.3521L0.557129 12.229C0.4215 12.0197 0.569529 11.7343 0.809082 11.7437L2.10693 11.7944C2.21669 6.34044 6.66968 1.95184 12.1499 1.95166ZM12.0093 6.89307C12.5062 6.89322 12.9097 7.29649 12.9097 7.79346V11.8638L15.4917 14.436C15.8436 14.7868 15.8452 15.3574 15.4946 15.7095C15.1439 16.0615 14.5733 16.062 14.2212 15.7114L11.4038 12.9048C11.3153 12.8165 11.2497 12.714 11.2056 12.605C11.1447 12.4837 11.1089 12.3475 11.1089 12.2026V7.79346C11.1089 7.29641 11.5122 6.89307 12.0093 6.89307Z" fill="#222222"/>
</svg>
