<svg width="24" height="24" viewBox="0 0 24 24" fill="none" xmlns="http://www.w3.org/2000/svg">
<mask id="mask0_2713_92075" style="mask-type:alpha" maskUnits="userSpaceOnUse" x="0" y="0" width="24" height="24">
<rect width="24" height="24" fill="#D9D9D9"/>
</mask>
<g mask="url(#mask0_2713_92075)">
<path d="M10.85 13.75L9.425 12.325C9.225 12.125 8.99167 12.025 8.725 12.025C8.45833 12.025 8.225 12.125 8.025 12.325C7.825 12.525 7.725 12.7625 7.725 13.0375C7.725 13.3125 7.825 13.55 8.025 13.75L10.125 15.875C10.325 16.075 10.5625 16.175 10.8375 16.175C11.1125 16.175 11.35 16.075 11.55 15.875L15.8 11.625C16 11.425 16.1 11.1875 16.1 10.9125C16.1 10.6375 16 10.4 15.8 10.2C15.6 10 15.3625 9.9 15.0875 9.9C14.8125 9.9 14.575 10 14.375 10.2L10.85 13.75ZM4 20C3.45 20 2.97917 19.8042 2.5875 19.4125C2.19583 19.0208 2 18.55 2 18V6C2 5.45 2.19583 4.97917 2.5875 4.5875C2.97917 4.19583 3.45 4 4 4H9.175C9.44167 4 9.69583 4.05 9.9375 4.15C10.1792 4.25 10.3917 4.39167 10.575 4.575L12 6H20C20.55 6 21.0208 6.19583 21.4125 6.5875C21.8042 6.97917 22 7.45 22 8V18C22 18.55 21.8042 19.0208 21.4125 19.4125C21.0208 19.8042 20.55 20 20 20H4ZM4 18H20V8H11.175L9.175 6H4V18Z" fill="#222222"/>
</g>
</svg>
