<svg width="24" height="24" viewBox="0 0 24 24" fill="none" xmlns="http://www.w3.org/2000/svg">
<g clip-path="url(#clip0_818_51200)">
<path fill-rule="evenodd" clip-rule="evenodd" d="M23.9999 12C23.9999 18.6274 18.6273 24 11.9999 24C5.37249 24 -9.15527e-05 18.6274 -9.15527e-05 12C-9.15527e-05 5.37258 5.37249 0 11.9999 0C18.6273 0 23.9999 5.37258 23.9999 12ZM13.0356 13.7858H10.9401L10.7272 5.4857H13.2484L13.0356 13.7858ZM10.8009 16.4508C10.6809 16.6582 10.6236 16.8847 10.629 17.1302C10.6236 17.3812 10.6809 17.6132 10.8009 17.826C10.9264 18.0334 11.0956 18.1998 11.3084 18.3253C11.5212 18.4454 11.7532 18.5054 12.0042 18.5054C12.2443 18.5054 12.468 18.4454 12.6754 18.3253C12.8828 18.1998 13.0492 18.0334 13.1747 17.826C13.3002 17.6132 13.363 17.3812 13.363 17.1302C13.363 16.8847 13.3002 16.6582 13.1747 16.4508C13.0492 16.238 12.8828 16.0716 12.6754 15.9515C12.468 15.8314 12.2443 15.7714 12.0042 15.7714C11.7532 15.7714 11.5212 15.8314 11.3084 15.9515C11.0956 16.0716 10.9264 16.238 10.8009 16.4508Z" fill="#222222"/>
</g>
<defs>
<clipPath id="clip0_818_51200">
<rect width="24" height="24" fill="white"/>
</clipPath>
</defs>
</svg>
