<svg width="24" height="24" viewBox="0 0 24 24" fill="none" xmlns="http://www.w3.org/2000/svg">
<path d="M10.7417 1.91406H13.2573L13.311 1.91797C13.3638 1.92659 13.4144 1.94791 13.4575 1.98047C13.5148 2.0238 13.5559 2.08518 13.5756 2.1543L13.5766 2.15625L13.9516 3.46289V3.46387C14.2129 4.37977 14.8196 5.15912 15.643 5.6377L15.6499 5.6416L15.6577 5.64648L15.6762 5.65625C16.5072 6.13572 17.4921 6.27306 18.4233 6.04004L19.7377 5.71289H19.7387C19.8083 5.69547 19.8817 5.70145 19.9477 5.72949C20.0138 5.75754 20.0691 5.80597 20.1049 5.86816L20.1059 5.86914L21.3627 8.04492V8.0459C21.4368 8.17441 21.4168 8.33708 21.3149 8.44336L20.3764 9.41309L20.3754 9.41406C19.7493 10.0624 19.3828 10.9153 19.3403 11.8115L19.3364 11.9902V12.0098C19.3354 12.9711 19.7077 13.8954 20.3754 14.5869L20.3764 14.5879L21.3139 15.5557V15.5566C21.364 15.6085 21.3959 15.6755 21.4047 15.7471C21.4136 15.8188 21.3988 15.8915 21.3627 15.9541L20.1049 18.1328C20.069 18.1949 20.0138 18.2435 19.9477 18.2715C19.8816 18.2995 19.8084 18.3055 19.7387 18.2881L18.3139 17.9326C17.4361 17.7125 16.5065 17.8485 15.729 18.3115L15.7182 18.3184C15.672 18.3467 15.6247 18.3745 15.5766 18.4014L15.5727 18.4033C14.8381 18.819 14.2958 19.4919 14.0297 20.2783L13.9799 20.4365L13.5766 21.8447L13.5756 21.8477C13.5357 21.9874 13.4064 22.0858 13.2583 22.0859H10.7417C10.5935 22.0858 10.4642 21.9874 10.4243 21.8477L10.4233 21.8447L10.02 20.4365C9.77584 19.5824 9.21065 18.8467 8.4272 18.4033L8.42329 18.4014L8.28169 18.3184L8.27095 18.3115L8.12349 18.2285C7.42712 17.8591 6.62419 17.7418 5.85103 17.8955L5.68599 17.9326L4.26118 18.2881C4.1179 18.3239 3.96944 18.2614 3.89497 18.1328L3.894 18.1318L2.94966 16.4971C2.82342 16.2783 2.77227 16.0241 2.80318 15.7734C2.83412 15.5229 2.9451 15.2889 3.12056 15.1074L3.62349 14.5879L3.62447 14.5869C4.29205 13.8954 4.66451 12.9715 4.66451 12.0107V11.9893C4.66451 11.0293 4.29193 10.1054 3.62447 9.41406L3.62349 9.41309L2.68501 8.44336C2.63533 8.39156 2.604 8.32515 2.59517 8.25391C2.58635 8.18219 2.60106 8.10947 2.63716 8.04688L3.89302 5.86719C3.92899 5.80525 3.98526 5.75745 4.05122 5.72949C4.11735 5.70152 4.19055 5.69547 4.26021 5.71289L5.68501 6.06836C6.56285 6.28846 7.49239 6.15251 8.26997 5.68945L8.27974 5.68262C8.32647 5.65393 8.37445 5.62637 8.42232 5.59961L8.42915 5.5957C9.2054 5.15228 9.77605 4.42088 10.019 3.56055L10.4233 2.15625L10.4243 2.15332C10.4645 2.01253 10.5947 1.91419 10.7417 1.91406ZM11.9995 7.41992C11.3983 7.41999 10.803 7.53854 10.2475 7.76855C9.69178 7.99875 9.18653 8.33638 8.76118 8.76172C8.33584 9.18706 7.99821 9.69231 7.76802 10.248C7.53794 10.8037 7.41939 11.3996 7.41939 12.001C7.41945 12.6022 7.538 13.1975 7.76802 13.7529C7.99821 14.3087 8.33584 14.8139 8.76118 15.2393C9.18653 15.6646 9.69178 16.0022 10.2475 16.2324C10.803 16.4624 11.3983 16.581 11.9995 16.5811C13.2143 16.5811 14.3797 16.0983 15.2387 15.2393C16.0976 14.3804 16.5804 13.2156 16.5805 12.001C16.5805 10.7861 16.0977 9.62074 15.2387 8.76172C14.3797 7.9027 13.2143 7.41992 11.9995 7.41992Z" fill="#222222" stroke="#222222" stroke-width="1.82809"/>
</svg>
