<svg width="24" height="24" viewBox="0 0 24 24" fill="none" xmlns="http://www.w3.org/2000/svg">
<g clip-path="url(#clip0_818_51330)">
<path fill-rule="evenodd" clip-rule="evenodd" d="M10.665 1.088C11.0815 0.898085 11.534 0.799805 11.9918 0.799805C12.4495 0.799805 12.9018 0.898028 13.3183 1.08783M13.3183 1.08783L21.896 4.99226C22.2829 5.16463 22.6118 5.44508 22.8432 5.79997C23.0761 6.15724 23.2001 6.57454 23.2001 7.00103C23.2001 7.42753 23.0761 7.84482 22.8432 8.2021C22.6117 8.55711 22.2826 8.83764 21.8956 9.01L13.3291 12.9038C12.9124 13.0939 12.4598 13.1923 12.0018 13.1923C11.5438 13.1923 11.0912 13.0939 10.6745 12.9038L2.10736 8.99971C1.72061 8.82732 1.39178 8.54692 1.16046 8.19211C0.92753 7.83484 0.803514 7.41754 0.803514 6.99104C0.803514 6.56454 0.927531 6.14725 1.16046 5.78998C1.39185 5.43506 1.7208 5.15459 2.1077 4.98222L10.665 1.088C10.6648 1.08808 10.6652 1.08793 10.665 1.088M11.9918 3.1998C11.8775 3.1998 11.7645 3.22436 11.6605 3.2718L3.48743 6.99117L11.6701 10.7201C11.7741 10.7675 11.8875 10.7923 12.0018 10.7923C12.1161 10.7923 12.2291 10.7677 12.3331 10.7203L20.5157 7.00091L12.324 3.27219C12.22 3.22475 12.1061 3.1998 11.9918 3.1998ZM0.907292 12.1454C1.18109 11.5419 1.89231 11.2746 2.49585 11.5484L11.6605 15.7059C11.7645 15.7534 11.8775 15.7779 11.9919 15.7779C12.1062 15.7779 12.2192 15.7534 12.3232 15.706L12.3254 15.7049L21.4878 11.5484C22.0914 11.2746 22.8026 11.5419 23.0764 12.1454C23.3502 12.749 23.0829 13.4602 22.4794 13.734L13.3192 17.8895C13.3186 17.8898 13.3197 17.8893 13.3192 17.8895C12.9029 18.0791 12.4493 18.1779 11.9919 18.1779C11.5344 18.1779 11.0822 18.0798 10.6659 17.8901C10.6654 17.8899 10.6663 17.8903 10.6659 17.8901L1.50434 13.734C0.900803 13.4602 0.633494 12.749 0.907292 12.1454ZM0.907292 17.1413C1.18109 16.5377 1.89231 16.2704 2.49585 16.5442L11.6605 20.7018C11.7645 20.7493 11.8775 20.7738 11.9919 20.7738C12.1062 20.7738 12.2192 20.7493 12.3232 20.7018L12.3254 20.7008L21.4878 16.5442C22.0914 16.2704 22.8026 16.5377 23.0764 17.1413C23.3502 17.7448 23.0829 18.4561 22.4794 18.7299L13.3192 22.8854C13.3188 22.8856 13.3195 22.8852 13.3192 22.8854C12.9028 23.0751 12.4494 23.1738 11.9919 23.1738C11.5342 23.1738 11.0819 23.0756 10.6654 22.8858C10.6651 22.8857 10.6657 22.8859 10.6654 22.8858L1.50434 18.7299C0.900803 18.4561 0.633494 17.7448 0.907292 17.1413Z" fill="#222222"/>
</g>
<defs>
<clipPath id="clip0_818_51330">
<rect width="24" height="24" fill="white"/>
</clipPath>
</defs>
</svg>
