<svg width="24" height="24" viewBox="0 0 24 24" fill="none" xmlns="http://www.w3.org/2000/svg">
<path d="M5.35862 1.00586C3.74911 1.00586 2.44434 2.31063 2.44434 3.92014V15.0603C2.44434 16.6698 3.7491 17.9746 5.35862 17.9746H6.00732C6.67006 17.9746 7.20732 17.4373 7.20732 16.7746C7.20732 16.1118 6.67006 15.5746 6.00732 15.5746H5.35862C5.07459 15.5746 4.84434 15.3443 4.84434 15.0603V3.92014C4.84434 3.63611 5.07459 3.40586 5.35862 3.40586H13.0706C13.3546 3.40586 13.5849 3.63612 13.5849 3.92015V4.25683C13.5849 4.91958 14.1221 5.45683 14.7849 5.45683C15.4476 5.45683 15.9849 4.91958 15.9849 4.25683V3.92015C15.9849 2.31063 14.6801 1.00586 13.0706 1.00586H5.35862Z" fill="#222222"/>
<path fill-rule="evenodd" clip-rule="evenodd" d="M11.3628 6.18869C9.75329 6.18869 8.44852 7.49345 8.44852 9.10297V20.2431C8.44852 21.8526 9.7533 23.1574 11.3628 23.1574H19.0748C20.6843 23.1574 21.9891 21.8526 21.9891 20.2431V9.10297C21.9891 7.49345 20.6843 6.18869 19.0748 6.18869H11.3628ZM10.8485 9.10297C10.8485 8.81894 11.0788 8.58869 11.3628 8.58869H19.0748C19.3588 8.58869 19.5891 8.81894 19.5891 9.10297V20.2431C19.5891 20.5271 19.3588 20.7574 19.0748 20.7574H11.3628C11.0788 20.7574 10.8485 20.5271 10.8485 20.2431V9.10297Z" fill="#222222"/>
</svg>
