<svg width="24" height="24" viewBox="0 0 24 24" fill="none" xmlns="http://www.w3.org/2000/svg">
<path d="M18.9658 17.918C19.6232 17.918 20.1562 18.451 20.1562 19.1084C20.1562 19.7657 19.6232 20.2988 18.9658 20.2988H5.03516C4.37781 20.2988 3.84473 19.7657 3.84473 19.1084C3.84473 18.451 4.37781 17.918 5.03516 17.918H18.9658Z" fill="#222222"/>
<path d="M3.91308 4.49511C4.13227 3.87553 4.81204 3.55058 5.43164 3.76952L18.8896 8.53026C19.365 8.69844 19.6835 9.1481 19.6836 9.65233C19.6836 10.1567 19.3651 10.6062 18.8896 10.7744L5.43164 15.5351C4.81203 15.7542 4.13232 15.4301 3.91308 14.8105C3.69385 14.1908 4.01896 13.5102 4.63867 13.291L14.9238 9.65233L4.63867 6.01366C4.0191 5.79447 3.69414 5.11471 3.91308 4.49511Z" fill="#222222"/>
</svg>
