<svg width="24" height="24" viewBox="0 0 24 24" fill="none" xmlns="http://www.w3.org/2000/svg">
<path d="M15.9985 21.112C16.4238 21.1991 16.7433 21.5764 16.7433 22.0274C16.7429 22.478 16.4235 22.8545 15.9985 22.9414L15.811 22.9597H8.18994C7.6748 22.9597 7.25688 22.5424 7.25635 22.0274C7.25635 21.5119 7.67448 21.0938 8.18994 21.0938H15.811L15.9985 21.112Z" fill="#222222"/>
<path d="M6.37484 5.83728C7.26244 5.83728 7.98291 6.55776 7.98291 7.44535C7.98265 8.33273 7.26227 9.05212 6.37484 9.05212C5.48755 9.05195 4.76833 8.33262 4.76807 7.44535C4.76807 6.55787 5.48739 5.83746 6.37484 5.83728Z" fill="#222222"/>
<path fill-rule="evenodd" clip-rule="evenodd" d="M18.0975 2.04041C18.7932 2.04041 19.3709 2.03974 19.841 2.07817C20.3222 2.11751 20.7727 2.20271 21.1978 2.41931C21.8501 2.75185 22.3825 3.28311 22.716 3.93754C22.9323 4.36235 23.0179 4.81242 23.0571 5.29301C23.0955 5.76285 23.0949 6.34088 23.0949 7.0352V14.155C23.0949 14.8494 23.0955 15.4275 23.0571 15.8972C23.0178 16.3776 22.9324 16.828 22.716 17.2526C22.383 17.9057 21.8508 18.438 21.1978 18.7709C20.773 18.9873 20.3228 19.0727 19.8423 19.112C19.3726 19.1504 18.7947 19.1498 18.1001 19.1498H5.89958C5.20511 19.1498 4.62729 19.1504 4.15739 19.112C3.67675 19.0727 3.22677 18.9873 2.80192 18.7709C2.14753 18.4374 1.61623 17.9049 1.28369 17.2526C1.06714 16.8276 0.981899 16.377 0.942546 15.8959C0.904126 15.4259 0.904785 14.8479 0.904786 14.1524V7.0391C0.904786 6.34341 0.90416 5.76476 0.942546 5.29431C0.981846 4.81316 1.06725 4.36262 1.28369 3.93754C1.6167 3.28397 2.14836 2.75235 2.80192 2.41931C3.22707 2.20277 3.67746 2.11747 4.15869 2.07817C4.6292 2.03975 5.20763 2.04041 5.90348 2.04041H18.0975ZM5.90348 3.90759C5.17712 3.90759 4.68789 3.90811 4.31104 3.93884C3.94495 3.96875 3.76642 4.02187 3.64828 4.08207C3.3462 4.2361 3.10046 4.48181 2.94645 4.7839C2.88631 4.90205 2.8331 5.08082 2.80322 5.44666C2.77251 5.82347 2.77197 6.31294 2.77197 7.0391V14.1524C2.77197 14.8785 2.77248 15.3672 2.80322 15.7435C2.83311 16.1088 2.88619 16.2867 2.94645 16.405C3.10098 16.7081 3.34721 16.9546 3.64828 17.1081C3.7662 17.1682 3.94443 17.2215 4.30973 17.2513C4.68595 17.282 5.17455 17.2826 5.89958 17.2826H18.1001C18.8255 17.2826 19.3139 17.2821 19.6899 17.2513C20.0548 17.2215 20.2321 17.1682 20.3501 17.1081C20.6522 16.9541 20.8992 16.7071 21.0532 16.405C21.1133 16.287 21.1666 16.1096 21.1965 15.7448C21.2272 15.3689 21.2277 14.8802 21.2277 14.155V7.0352C21.2277 6.31036 21.2271 5.82153 21.1965 5.44535C21.1666 5.08018 21.1133 4.90182 21.0532 4.7839C20.8997 4.48279 20.6532 4.23659 20.3501 4.08207C20.2318 4.02179 20.0541 3.96872 19.6886 3.93884C19.3123 3.90809 18.8238 3.90759 18.0975 3.90759H5.90348Z" fill="#222222"/>
</svg>
