<svg width="24" height="24" viewBox="0 0 24 24" fill="none" xmlns="http://www.w3.org/2000/svg">
<path d="M16.626 0C17.6589 0 18.4863 0.827428 18.4863 1.86035V2.33594H18.5605C20.651 2.33602 22.5332 3.94189 22.5332 6.08594V20.25C22.5332 22.4128 20.6468 23.9999 18.5605 24H5.97266C3.86759 24 2 22.4093 2 20.25V6.08594C2 3.94546 3.86334 2.33596 5.97266 2.33594H6.06152V1.86035C6.06152 0.827434 6.88896 9.03481e-06 7.92188 0H16.626ZM5.97266 4.56738C4.92766 4.56741 4.23145 5.3399 4.23145 6.08594V20.25C4.23145 21.007 4.92341 21.7676 5.97266 21.7676H18.5605C19.5988 21.7675 20.3008 21.0034 20.3008 20.25V6.08594C20.3008 5.34355 19.5945 4.56747 18.5605 4.56738H18.4863V5.12402L18.4854 5.14453C18.4497 6.10748 17.666 6.96383 16.6113 6.96387H7.92188C6.88896 6.96386 6.06153 6.13643 6.06152 5.10352V4.56738H5.97266ZM16.7148 15.4443C17.3312 15.4443 17.8311 15.9442 17.8311 16.5605C17.8309 17.1767 17.3311 17.6758 16.7148 17.6758H7.81738C7.20126 17.6757 6.70132 17.1767 6.70117 16.5605C6.70117 15.9443 7.20117 15.4444 7.81738 15.4443H16.7148ZM16.7148 10.6387C17.3312 10.6387 17.8311 11.1386 17.8311 11.7549C17.8309 12.3711 17.3311 12.8701 16.7148 12.8701H7.81738C7.20126 12.87 6.70132 12.371 6.70117 11.7549C6.70117 11.1386 7.20117 10.6388 7.81738 10.6387H16.7148ZM8.29395 4.73145H16.2539V3.62402C16.2452 3.56793 16.2393 3.51068 16.2393 3.45215C16.2393 3.39305 16.2451 3.33493 16.2539 3.27832V2.23145H8.29395V4.73145Z" fill="#222222"/>
</svg>
