<svg width="24" height="24" viewBox="0 0 24 24" fill="none" xmlns="http://www.w3.org/2000/svg">
<path d="M2.92118 7.53711H6.03518V16.4631H2.92118C2.35118 16.4631 1.88818 16.0001 1.88818 15.4301V8.57011C1.88818 8.00011 2.35118 7.53711 2.92118 7.53711Z" fill="#222222"/>
<path d="M17.9463 9.16699H19.9023C20.6263 9.16699 21.2113 9.75399 21.2113 10.479V13.522C21.2113 14.246 20.6253 14.833 19.9013 14.833H17.9463V9.16699Z" fill="#222222"/>
<path d="M6.03516 7.5366L16.5172 2.1496C16.6696 2.07125 16.8397 2.03342 17.011 2.03974C17.1823 2.04606 17.3491 2.09632 17.4954 2.18568C17.6417 2.27504 17.7626 2.40052 17.8464 2.55005C17.9303 2.69959 17.9742 2.86816 17.9742 3.0396V20.9596C17.9742 21.131 17.9303 21.2996 17.8464 21.4491C17.7626 21.5987 17.6417 21.7241 17.4954 21.8135C17.3491 21.9029 17.1823 21.9531 17.011 21.9595C16.8397 21.9658 16.6696 21.9279 16.5172 21.8496L6.03516 16.4626V7.5366Z" fill="#222222"/>
</svg>
