<svg width="24" height="24" viewBox="0 0 24 24" fill="none" xmlns="http://www.w3.org/2000/svg">
<path d="M7.10868 6.38055C7.10868 5.82827 7.5564 5.38055 8.10868 5.38055H15.8427C16.395 5.38055 16.8427 5.82827 16.8427 6.38055C16.8427 6.93284 16.395 7.38055 15.8427 7.38055H8.10868C7.5564 7.38055 7.10868 6.93284 7.10868 6.38055Z" fill="#222222"/>
<path d="M8.10868 9.19789C7.5564 9.19789 7.10868 9.64561 7.10868 10.1979C7.10868 10.7502 7.5564 11.1979 8.10868 11.1979H15.8427C16.395 11.1979 16.8427 10.7502 16.8427 10.1979C16.8427 9.64561 16.395 9.19789 15.8427 9.19789H8.10868Z" fill="#222222"/>
<path fill-rule="evenodd" clip-rule="evenodd" d="M6.33072 1C4.66415 1 3.31312 2.35103 3.31312 4.0176V10.2632C2.19705 9.96204 1 10.7899 1 12.0448V20.4903C1 21.2847 1.31556 22.0465 1.87726 22.6082C2.43896 23.1699 3.20078 23.4855 3.99514 23.4855H19.9563C20.7507 23.4855 21.5125 23.1699 22.0742 22.6082C22.6359 22.0465 22.9514 21.2847 22.9514 20.4903V12.0448C22.9514 10.7904 21.7553 9.96267 20.6396 10.2629V4.0176C20.6396 2.35103 19.2886 1 17.622 1H6.33072ZM18.6396 11.4343V4.0176C18.6396 3.45559 18.184 3 17.622 3H6.33072C5.76872 3 5.31312 3.4556 5.31312 4.0176V11.4351L11.4813 15.3547C11.6297 15.4471 11.8009 15.4961 11.9757 15.4961C12.1505 15.4961 12.3218 15.4471 12.4701 15.3547L12.4723 15.3533L18.6396 11.4343ZM3 20.4903V12.3349L10.4119 17.0448L10.4173 17.0482C10.8844 17.3408 11.4245 17.4961 11.9757 17.4961C12.5269 17.4961 13.067 17.3408 13.5342 17.0482L13.5396 17.0448L20.9514 12.3349V20.4903C20.9514 20.7543 20.8466 21.0074 20.66 21.194C20.4734 21.3806 20.2202 21.4855 19.9563 21.4855H3.99514C3.73122 21.4855 3.4781 21.3806 3.29147 21.194C3.10485 21.0074 3 20.7543 3 20.4903Z" fill="#222222"/>
</svg>
