<svg width="24" height="24" viewBox="0 0 24 24" fill="none" xmlns="http://www.w3.org/2000/svg">
<path fill-rule="evenodd" clip-rule="evenodd" d="M14.2332 2.1498C14.2332 1.54229 14.7257 1.0498 15.3332 1.0498H21.1666C22.2343 1.0498 23.0999 1.91539 23.0999 2.98314V8.81647C23.0999 9.42398 22.6074 9.91647 21.9999 9.91647C21.3924 9.91647 20.8999 9.42398 20.8999 8.81647V4.80544L11.9444 13.761C11.5148 14.1905 10.8183 14.1905 10.3888 13.761C9.95918 13.3314 9.95918 12.6349 10.3888 12.2053L19.3443 3.2498H15.3332C14.7257 3.2498 14.2332 2.75732 14.2332 2.1498ZM4.4999 4.41647C3.7267 4.41647 3.0999 5.04327 3.0999 5.81647V19.1498C3.0999 19.923 3.7267 20.5498 4.4999 20.5498H17.8332C18.6064 20.5498 19.2332 19.923 19.2332 19.1498V14.0109C19.2332 13.4034 19.7257 12.9109 20.3332 12.9109C20.9407 12.9109 21.4332 13.4034 21.4332 14.0109V19.1498C21.4332 21.138 19.8215 22.7498 17.8332 22.7498H4.4999C2.51168 22.7498 0.899902 21.138 0.899902 19.1498V5.81647C0.899902 3.82825 2.51168 2.21647 4.4999 2.21647H11.1666C11.7741 2.21647 12.2666 2.70896 12.2666 3.31647C12.2666 3.92399 11.7741 4.41647 11.1666 4.41647H4.4999Z" fill="#222222"/>
</svg>
