<svg width="20" height="20" viewBox="0 0 20 20" fill="none" xmlns="http://www.w3.org/2000/svg">
<mask id="mask0_64_77" style="mask-type:alpha" maskUnits="userSpaceOnUse" x="0" y="0" width="20" height="20">
<rect width="20" height="20" fill="#D9D9D9"/>
</mask>
<g mask="url(#mask0_64_77)">
<path d="M8.83333 11.0416L7.04167 9.24992C6.88889 9.09714 6.69444 9.02075 6.45833 9.02075C6.22222 9.02075 6.02778 9.09714 5.875 9.24992C5.72222 9.4027 5.64583 9.59714 5.64583 9.83325C5.64583 10.0694 5.72222 10.2638 5.875 10.4166L8.25 12.7916C8.41667 12.9583 8.61111 13.0416 8.83333 13.0416C9.05556 13.0416 9.25 12.9583 9.41667 12.7916L14.125 8.08325C14.2778 7.93047 14.3542 7.73603 14.3542 7.49992C14.3542 7.26381 14.2778 7.06936 14.125 6.91659C13.9722 6.76381 13.7778 6.68742 13.5417 6.68742C13.3056 6.68742 13.1111 6.76381 12.9583 6.91659L8.83333 11.0416ZM4.16667 17.4999C3.70833 17.4999 3.31597 17.3367 2.98958 17.0103C2.66319 16.6839 2.5 16.2916 2.5 15.8333V4.16659C2.5 3.70825 2.66319 3.31589 2.98958 2.9895C3.31597 2.66311 3.70833 2.49992 4.16667 2.49992H7.66667C7.84722 1.99992 8.14931 1.59714 8.57292 1.29159C8.99653 0.98603 9.47222 0.833252 10 0.833252C10.5278 0.833252 11.0035 0.98603 11.4271 1.29159C11.8507 1.59714 12.1528 1.99992 12.3333 2.49992H15.8333C16.2917 2.49992 16.684 2.66311 17.0104 2.9895C17.3368 3.31589 17.5 3.70825 17.5 4.16659V15.8333C17.5 16.2916 17.3368 16.6839 17.0104 17.0103C16.684 17.3367 16.2917 17.4999 15.8333 17.4999H4.16667ZM4.16667 15.8333H15.8333V4.16659H4.16667V15.8333ZM10 3.54159C10.1806 3.54159 10.3299 3.48256 10.4479 3.3645C10.566 3.24645 10.625 3.09714 10.625 2.91659C10.625 2.73603 10.566 2.58672 10.4479 2.46867C10.3299 2.35061 10.1806 2.29159 10 2.29159C9.81944 2.29159 9.67014 2.35061 9.55208 2.46867C9.43403 2.58672 9.375 2.73603 9.375 2.91659C9.375 3.09714 9.43403 3.24645 9.55208 3.3645C9.67014 3.48256 9.81944 3.54159 10 3.54159Z" fill="#697896"/>
</g>
</svg>
