<svg width="24" height="24" viewBox="0 0 24 24" fill="none" xmlns="http://www.w3.org/2000/svg">
<g clip-path="url(#clip0_818_51416)">
<path d="M19.7383 2.22852V14.5566H16.7617V9.58789H13.3867V7.15039H16.7617V2.22852H19.7383ZM1.64453 12.2363C5.10156 11.123 6.69531 8.4043 6.77734 5.7207H2.48828V3.30664H14.0664V5.7207H9.82422C9.85938 8.1582 11.3945 10.7246 14.7227 11.8379L13.2461 14.2051C10.8789 13.4316 9.25 11.873 8.32422 9.95117C7.38672 12.084 5.67578 13.7832 3.16797 14.5801L1.64453 12.2363ZM5.39453 23.3223V15.4473H19.7383V23.3223H5.39453ZM8.39453 20.9316H16.8086V17.791H8.39453V20.9316Z" fill="#222222"/>
</g>
<defs>
<clipPath id="clip0_818_51416">
<rect width="24" height="24" fill="white"/>
</clipPath>
</defs>
</svg>
