<svg width="24" height="24" viewBox="0 0 24 24" fill="none" xmlns="http://www.w3.org/2000/svg">
<path fill-rule="evenodd" clip-rule="evenodd" d="M12.0381 12.343C13.9323 12.343 15.468 10.8074 15.468 8.91309C15.468 7.01882 13.9323 5.48321 12.0381 5.48321C10.1438 5.48321 8.6082 7.01882 8.6082 8.91309C8.6082 10.8074 10.1438 12.343 12.0381 12.343ZM12.0381 10.6356C12.9894 10.6356 13.7606 9.86443 13.7606 8.91309C13.7606 7.96174 12.9894 7.19053 12.0381 7.19053C11.0867 7.19053 10.3155 7.96174 10.3155 8.91309C10.3155 9.86443 11.0867 10.6356 12.0381 10.6356Z" fill="#444444"/>
<path fill-rule="evenodd" clip-rule="evenodd" d="M11.7043 2.05284C11.8952 1.98239 12.1049 1.98239 12.2957 2.05284L19.9177 4.8671C20.253 4.99091 20.4756 5.31049 20.4756 5.66792V12.7036C20.4756 12.7419 20.4731 12.7801 20.4679 12.8181C20.1761 14.9728 18.1153 19.5602 12.324 21.9361C12.1164 22.0213 11.8836 22.0213 11.676 21.9361C5.88474 19.5602 3.82391 14.9728 3.53214 12.8181C3.52699 12.7801 3.52441 12.7419 3.52441 12.7036V5.66792C3.52441 5.31049 3.74709 4.99091 4.08239 4.8671L11.7043 2.05284ZM5.23173 6.26271V12.6429C5.32849 13.2835 5.6518 14.285 6.31859 15.3925C7.39775 14.5064 8.84583 13.6953 10.5433 13.3893C12.7033 12.9999 15.1705 13.4468 17.6679 15.4151C18.3439 14.2985 18.6709 13.2879 18.7683 12.6429V6.26271L12 3.76365L5.23173 6.26271ZM16.6702 16.8025C14.5037 15.0702 12.498 14.7718 10.8461 15.0695C9.43392 15.3241 8.21081 16.0278 7.31463 16.7844C8.36477 18.0356 9.8766 19.2894 12 20.2192C14.1132 19.2939 15.6207 18.0477 16.6702 16.8025Z" fill="#444444"/>
</svg>
