<svg width="24" height="24" viewBox="0 0 24 24" fill="none" xmlns="http://www.w3.org/2000/svg">
<path d="M11.75 2C11.34 2 11 2.34 11 2.75V5.75C11 6.16 11.34 6.5 11.75 6.5C12.16 6.5 12.5 6.16 12.5 5.75V2.75C12.5 2.34 12.16 2 11.75 2Z" fill="#292C32"/>
<path d="M11.75 17C11.34 17 11 17.34 11 17.75V20.75C11 21.16 11.34 21.5 11.75 21.5C12.16 21.5 12.5 21.16 12.5 20.75V17.75C12.5 17.34 12.16 17 11.75 17Z" fill="#292C32"/>
<path d="M6.5 11.75C6.5 11.34 6.16 11 5.75 11H2.75C2.34 11 2 11.34 2 11.75C2 12.16 2.34 12.5 2.75 12.5H5.75C6.16 12.5 6.5 12.16 6.5 11.75Z" fill="#292C32"/>
<path d="M20.75 11H17.75C17.34 11 17 11.34 17 11.75C17 12.16 17.34 12.5 17.75 12.5H20.75C21.16 12.5 21.5 12.16 21.5 11.75C21.5 11.34 21.16 11 20.75 11Z" fill="#292C32"/>
<path d="M5.92 4.86C5.63 4.57 5.15 4.57 4.86 4.86C4.57 5.15 4.57 5.63 4.86 5.92L6.98 8.04C7.13 8.19 7.32 8.26 7.51 8.26C7.7 8.26 7.89 8.19 8.04 8.04C8.33 7.75 8.33 7.27 8.04 6.98L5.92 4.86Z" fill="#292C32"/>
<path d="M16.5392 15.48C16.2492 15.19 15.7692 15.19 15.4792 15.48C15.1892 15.77 15.1892 16.25 15.4792 16.54L17.5992 18.66C17.7492 18.81 17.9392 18.88 18.1292 18.88C18.3192 18.88 18.5092 18.81 18.6592 18.66C18.9492 18.37 18.9492 17.89 18.6592 17.6L16.5392 15.48Z" fill="#292C32"/>
<path d="M6.98 15.46L4.86 17.58C4.57 17.87 4.57 18.35 4.86 18.64C5.01 18.79 5.2 18.86 5.39 18.86C5.58 18.86 5.77 18.79 5.92 18.64L8.04 16.52C8.33 16.23 8.33 15.75 8.04 15.46C7.75 15.17 7.27 15.17 6.98 15.46Z" fill="#292C32"/>
<path d="M16.0092 8.24C16.1992 8.24 16.3892 8.17 16.5392 8.02L18.6592 5.9C18.9492 5.61 18.9492 5.13 18.6592 4.84C18.3692 4.55 17.8892 4.55 17.5992 4.84L15.4792 6.96C15.1892 7.25 15.1892 7.73 15.4792 8.02C15.6292 8.17 15.8192 8.24 16.0092 8.24Z" fill="#292C32"/>
</svg>
