<svg width="24" height="24" viewBox="0 0 24 24" fill="none" xmlns="http://www.w3.org/2000/svg">
<path d="M7.29908 20.2125C6.96861 20.2125 6.69159 20.1007 6.46804 19.8772C6.24448 19.6536 6.1327 19.3766 6.1327 19.0461C6.1327 18.7157 6.24448 18.4387 6.46804 18.2151C6.69159 17.9915 6.96861 17.8798 7.29908 17.8798H14.414C15.6387 17.8798 16.703 17.491 17.607 16.7134C18.5109 15.9358 18.9629 14.9638 18.9629 13.7974C18.9629 12.631 18.5109 11.6591 17.607 10.8815C16.703 10.1039 15.6387 9.7151 14.414 9.7151H7.06581L9.28193 11.9312C9.49577 12.1451 9.60269 12.4172 9.60269 12.7477C9.60269 13.0782 9.49577 13.3503 9.28193 13.5642C9.0681 13.778 8.79594 13.8849 8.46547 13.8849C8.13499 13.8849 7.86283 13.778 7.649 13.5642L3.45003 9.36518C3.33339 9.24855 3.25077 9.12219 3.20217 8.98611C3.15357 8.85003 3.12927 8.70423 3.12927 8.54872C3.12927 8.3932 3.15357 8.2474 3.20217 8.11132C3.25077 7.97525 3.33339 7.84889 3.45003 7.73225L7.649 3.53328C7.86283 3.31944 8.13499 3.21252 8.46547 3.21252C8.79594 3.21252 9.0681 3.31944 9.28193 3.53328C9.49577 3.74712 9.60269 4.01927 9.60269 4.34975C9.60269 4.68022 9.49577 4.95238 9.28193 5.16621L7.06581 7.38234H14.414C16.2997 7.38234 17.918 7.99469 19.2691 9.21939C20.6201 10.4441 21.2957 11.9701 21.2957 13.7974C21.2957 15.6248 20.6201 17.1508 19.2691 18.3755C17.918 19.6002 16.2997 20.2125 14.414 20.2125H7.29908Z" fill="#222222"/>
</svg>
