<svg width="24" height="24" viewBox="0 0 24 24" fill="none" xmlns="http://www.w3.org/2000/svg">
<path fill-rule="evenodd" clip-rule="evenodd" d="M12.9524 11.7724C12.9524 11.8038 12.9371 11.8314 12.9343 11.8619C12.9289 11.9264 12.9158 11.99 12.8952 12.0514C12.8608 12.1653 12.8045 12.2714 12.7295 12.3638C12.6876 12.4143 12.6438 12.459 12.5924 12.501C12.5686 12.52 12.5543 12.5476 12.5286 12.5648L8.02762 15.5648C7.81744 15.6996 7.56273 15.7465 7.31832 15.6953C7.07391 15.6442 6.85936 15.4991 6.72088 15.2913C6.5824 15.0835 6.53106 14.8297 6.57792 14.5844C6.62478 14.3391 6.7661 14.1221 6.97143 13.98L11.0476 11.2629V6.81524C11.0476 6.56265 11.148 6.32041 11.3266 6.1418C11.5052 5.9632 11.7474 5.86286 12 5.86286C12.2526 5.86286 12.4948 5.9632 12.6734 6.1418C12.852 6.32041 12.9524 6.56265 12.9524 6.81524V11.7724ZM12 2C6.47714 2 2 6.47714 2 12C2 17.5229 6.47714 22 12 22C17.5229 22 22 17.5229 22 12C22 6.47714 17.5229 2 12 2Z" fill="#222222"/>
</svg>
