<svg width="24" height="24" viewBox="0 0 24 24" fill="none" xmlns="http://www.w3.org/2000/svg">
<path d="M9.86184 2.05466C11.1448 1.10766 12.8535 1.10785 14.1366 2.05466L23.1397 8.70136C24.1327 9.43515 23.6398 11.0792 22.4267 11.0795H21.1514V18.8372C21.1514 20.9455 19.4417 22.6552 17.3334 22.6552H16.1093C14.9184 22.6272 13.9516 21.6596 13.9518 20.4573V18.09C13.9518 17.8456 13.7487 17.6302 13.478 17.6302H10.5764C10.3083 17.6333 10.1088 17.8475 10.1088 18.09V20.448C10.1088 20.5364 10.0968 20.6228 10.0746 20.7043C9.94677 21.8094 9.00087 22.655 7.87047 22.6552H6.66819C4.56013 22.6549 2.85166 20.9453 2.85166 18.8372V11.0795H1.57327C0.359766 11.0795 -0.13344 9.43504 0.860294 8.70136L9.86184 2.05466Z" fill="#222222"/>
</svg>
