<svg width="24" height="24" viewBox="0 0 24 24" fill="none" xmlns="http://www.w3.org/2000/svg">
<path d="M22.2857 3.73469C22.2857 3.32893 21.9567 3 21.551 3L7.92685 3C7.52109 3 7.19216 3.32893 7.19216 3.73469V5.93878C7.19216 6.34454 7.52109 6.67347 7.92685 6.67347L21.551 6.67347C21.9567 6.67347 22.2857 6.34454 22.2857 5.93878V3.73469Z" fill="#222222"/>
<path d="M22.2857 10.8951C22.2857 10.4893 21.9567 10.1604 21.551 10.1604L7.92685 10.1604C7.52109 10.1604 7.19216 10.4893 7.19216 10.8951V13.0992C7.19216 13.5049 7.52109 13.8339 7.92685 13.8339L21.551 13.8339C21.9567 13.8339 22.2857 13.5049 22.2857 13.0992V10.8951Z" fill="#222222"/>
<path d="M21.551 17.3208C21.9567 17.3208 22.2857 17.6497 22.2857 18.0555V20.2596C22.2857 20.6653 21.9567 20.9943 21.551 20.9943H7.92685C7.52109 20.9943 7.19216 20.6653 7.19216 20.2596V18.0555C7.19216 17.6497 7.52109 17.3208 7.92685 17.3208L21.551 17.3208Z" fill="#222222"/>
<path d="M5.3877 3.73469C5.3877 3.32893 5.05877 3 4.65301 3L2.44893 3C2.04317 3 1.71423 3.32893 1.71423 3.73469L1.71423 5.94461C1.71423 6.35037 2.04317 6.6793 2.44893 6.6793L4.65301 6.67931C5.05877 6.67931 5.3877 6.35037 5.3877 5.94461V3.73469Z" fill="#222222"/>
<path d="M4.65301 10.1604C5.05877 10.1604 5.3877 10.4893 5.3877 10.8951V13.105C5.3877 13.5108 5.05877 13.8397 4.65301 13.8397H2.44893C2.04317 13.8397 1.71423 13.5108 1.71423 13.105L1.71423 10.8951C1.71423 10.4893 2.04317 10.1604 2.44893 10.1604H4.65301Z" fill="#222222"/>
<path d="M5.3877 18.0555C5.3877 17.6497 5.05877 17.3208 4.65301 17.3208H2.44893C2.04317 17.3208 1.71423 17.6497 1.71423 18.0555L1.71423 20.2654C1.71423 20.6712 2.04317 21.0001 2.44893 21.0001H4.65301C5.05877 21.0001 5.3877 20.6712 5.3877 20.2654V18.0555Z" fill="#222222"/>
</svg>
