<svg width="24" height="24" viewBox="0 0 24 24" fill="none" xmlns="http://www.w3.org/2000/svg">
<path d="M13.4708 22.5402C12.7525 22.5402 12.0662 22.2529 11.5554 21.7421L7.46099 17.6477L2.90342 22.2053C2.68203 22.4267 2.39797 22.5384 2.11332 22.5404C1.82868 22.5384 1.54462 22.4267 1.32322 22.2053C0.892259 21.7743 0.892259 21.056 1.32322 20.6251L5.88079 16.0675L2.21784 12.4046C1.62726 11.814 1.33995 11 1.43572 10.1859C1.51553 9.38783 1.96245 8.70148 2.61688 8.28648C4.83554 6.88185 7.51709 6.48281 10.071 7.1532L10.9169 6.30724C10.5498 5.74858 10.3583 5.11012 10.3583 4.42377C10.3583 3.49799 10.7254 2.63607 11.3798 1.98164C12.6727 0.672787 14.9552 0.672787 16.2641 1.98164L21.9783 7.6959C22.6327 8.35032 22.9999 9.21225 22.9999 10.138C22.9999 11.0638 22.6327 11.9257 21.9783 12.5801C20.845 13.7134 18.9616 13.889 17.6527 13.043L16.8068 13.889C17.4771 16.4269 17.0781 19.1084 15.6735 21.3431C15.2585 21.9975 14.5562 22.4285 13.774 22.5242C13.7262 22.5242 13.6743 22.5282 13.6224 22.5322C13.5705 22.5362 13.5187 22.5402 13.4708 22.5402Z" fill="#222222"/>
<path d="M2.11332 22.5404L2.1213 22.5405H2.10534L2.11332 22.5404Z" fill="#222222"/>
</svg>
