<svg width="24" height="24" viewBox="0 0 24 24" fill="none" xmlns="http://www.w3.org/2000/svg">
<path d="M2.86938 14.0593L4.63715 12.2916L8.2434 12.928L10.789 10.3824L2.86938 6.98828L4.99071 4.86696L14.6074 6.56402L17.7186 3.45275C18.1075 3.06384 18.5789 2.86938 19.1328 2.86938C19.6867 2.86938 20.1581 3.06384 20.5471 3.45275C20.936 3.84166 21.1304 4.31306 21.1304 4.86696C21.1304 5.42086 20.936 5.89227 20.5471 6.28117L17.4358 9.39244L19.1328 19.0091L17.0115 21.1304L13.6174 13.2108L11.0718 15.7564L11.7082 19.3626L9.94045 21.1304L7.46558 16.5342L2.86938 14.0593Z" fill="#222222"/>
</svg>
