<svg width="20" height="20" viewBox="0 0 20 20" fill="none" xmlns="http://www.w3.org/2000/svg">
<mask id="mask0_64_161182" style="mask-type:alpha" maskUnits="userSpaceOnUse" x="0" y="0" width="20" height="20">
<rect width="20" height="20" fill="#D9D9D9"/>
</mask>
<g mask="url(#mask0_64_161182)">
<path d="M6.66667 10.2083H13.3333C13.5694 10.2083 13.7674 10.1285 13.9271 9.96875C14.0868 9.80903 14.1667 9.61111 14.1667 9.375C14.1667 9.13889 14.0868 8.94097 13.9271 8.78125C13.7674 8.62153 13.5694 8.54167 13.3333 8.54167H6.66667C6.43056 8.54167 6.23264 8.62153 6.07292 8.78125C5.91319 8.94097 5.83333 9.13889 5.83333 9.375C5.83333 9.61111 5.91319 9.80903 6.07292 9.96875C6.23264 10.1285 6.43056 10.2083 6.66667 10.2083ZM6.66667 7.29167H13.3333C13.5694 7.29167 13.7674 7.21181 13.9271 7.05208C14.0868 6.89236 14.1667 6.69444 14.1667 6.45833C14.1667 6.22222 14.0868 6.02431 13.9271 5.86458C13.7674 5.70486 13.5694 5.625 13.3333 5.625H6.66667C6.43056 5.625 6.23264 5.70486 6.07292 5.86458C5.91319 6.02431 5.83333 6.22222 5.83333 6.45833C5.83333 6.69444 5.91319 6.89236 6.07292 7.05208C6.23264 7.21181 6.43056 7.29167 6.66667 7.29167ZM4.16667 17.5C3.70833 17.5 3.31597 17.3368 2.98958 17.0104C2.66319 16.684 2.5 16.2917 2.5 15.8333V4.16667C2.5 3.70833 2.66319 3.31597 2.98958 2.98958C3.31597 2.66319 3.70833 2.5 4.16667 2.5H15.8333C16.2917 2.5 16.684 2.66319 17.0104 2.98958C17.3368 3.31597 17.5 3.70833 17.5 4.16667V15.8333C17.5 16.2917 17.3368 16.684 17.0104 17.0104C16.684 17.3368 16.2917 17.5 15.8333 17.5H4.16667ZM4.16667 15.8333H15.8333V13.3333H13.3333C12.9167 13.8611 12.4201 14.2708 11.8438 14.5625C11.2674 14.8542 10.6528 15 10 15C9.34722 15 8.73264 14.8542 8.15625 14.5625C7.57986 14.2708 7.08333 13.8611 6.66667 13.3333H4.16667V15.8333ZM10 13.3333C10.4444 13.3333 10.8542 13.2188 11.2292 12.9896C11.6042 12.7604 11.9097 12.4583 12.1458 12.0833C12.2292 11.9583 12.3333 11.8576 12.4583 11.7812C12.5833 11.7049 12.7222 11.6667 12.875 11.6667H15.8333V4.16667H4.16667V11.6667H7.125C7.27778 11.6667 7.41667 11.7049 7.54167 11.7812C7.66667 11.8576 7.77083 11.9583 7.85417 12.0833C8.09028 12.4583 8.39583 12.7604 8.77083 12.9896C9.14583 13.2188 9.55556 13.3333 10 13.3333Z" fill="#697896"/>
</g>
</svg>
