<svg width="24" height="24" viewBox="0 0 24 24" fill="none" xmlns="http://www.w3.org/2000/svg">
<path d="M17.1189 11.7152C17.5485 11.2856 17.5485 10.5891 17.1189 10.1595C16.6894 9.72997 15.9929 9.72997 15.5633 10.1595L11.1808 14.5421L9.0098 12.3711C8.58023 11.9416 7.88375 11.9416 7.45417 12.3711C7.02459 12.8007 7.02459 13.4972 7.45417 13.9268L10.4029 16.8755C10.6092 17.0818 10.889 17.1977 11.1808 17.1977C11.4725 17.1977 11.7523 17.0818 11.9586 16.8755L17.1189 11.7152Z" fill="#222222"/>
<path fill-rule="evenodd" clip-rule="evenodd" d="M8.2853 2.37773C8.2853 1.71499 7.74804 1.17773 7.0853 1.17773C6.42256 1.17773 5.8853 1.71499 5.8853 2.37773V4.83498H4.62798C2.81847 4.83498 1.35156 6.30189 1.35156 8.1114V19.5789C1.35156 21.3884 2.81846 22.8553 4.62798 22.8553H19.3719C21.1814 22.8553 22.6483 21.3884 22.6483 19.5789V8.1114C22.6483 6.30189 21.1814 4.83498 19.3719 4.83498H18.1146V2.37773C18.1146 1.71499 17.5773 1.17773 16.9146 1.17773C16.2518 1.17773 15.7146 1.71499 15.7146 2.37773V4.83498H8.2853V2.37773ZM19.3719 7.03498H4.62798C4.03349 7.03498 3.55156 7.51691 3.55156 8.1114V19.5789C3.55156 20.1734 4.03349 20.6553 4.62798 20.6553H19.3719C19.9664 20.6553 20.4483 20.1734 20.4483 19.5789V8.1114C20.4483 7.51691 19.9664 7.03498 19.3719 7.03498Z" fill="#222222"/>
</svg>
