<svg width="24" height="24" viewBox="0 0 24 24" fill="none" xmlns="http://www.w3.org/2000/svg">
<path fill-rule="evenodd" clip-rule="evenodd" d="M11.9997 3.65203C9.71175 3.65203 7.857 5.50678 7.857 7.79473C7.857 10.0827 9.71175 11.9374 11.9997 11.9374C14.2876 11.9374 16.1424 10.0827 16.1424 7.79473C16.1424 5.50678 14.2876 3.65203 11.9997 3.65203ZM5.62843 7.79473C5.62843 4.27597 8.48094 1.42346 11.9997 1.42346C15.5185 1.42346 18.371 4.27597 18.371 7.79473C18.371 11.3135 15.5185 14.166 11.9997 14.166C8.48094 14.166 5.62843 11.3135 5.62843 7.79473ZM5.46153 16.8007C7.18709 15.7222 9.50159 15.0916 11.9997 15.0916C14.4978 15.0916 16.8123 15.7222 18.5379 16.8007C20.2477 17.8694 21.5252 19.4884 21.5252 21.4629C21.5252 22.0783 21.0263 22.5772 20.4109 22.5772C19.7955 22.5772 19.2966 22.0783 19.2966 21.4629C19.2966 20.534 18.6911 19.5245 17.3567 18.6905C16.038 17.8664 14.1469 17.3202 11.9997 17.3202C9.85245 17.3202 7.96136 17.8664 6.64267 18.6905C5.30828 19.5245 4.70281 20.534 4.70281 21.4629C4.70281 22.0783 4.20393 22.5772 3.58853 22.5772C2.97313 22.5772 2.47424 22.0783 2.47424 21.4629C2.47424 19.4884 3.75168 17.8694 5.46153 16.8007Z" fill="#222222"/>
</svg>
