<svg width="24" height="24" viewBox="0 0 24 24" fill="none" xmlns="http://www.w3.org/2000/svg">
<path fill-rule="evenodd" clip-rule="evenodd" d="M13.0285 7.69986C14.5595 7.25491 15.6785 5.84168 15.6785 4.16711C15.6785 2.13555 14.0316 0.488647 12 0.488647C9.96847 0.488647 8.32157 2.13555 8.32157 4.16711C8.32157 5.84161 9.44044 7.25479 10.9714 7.69981V8.9232C8.58154 9.40087 6.78087 11.5106 6.78087 14.041C6.78087 14.6176 6.87439 15.1725 7.04711 15.6911L6.09681 16.2398C5.45023 15.6752 4.60429 15.3331 3.67846 15.3331C1.6469 15.3331 0 16.98 0 19.0116C0 21.0431 1.6469 22.6901 3.67846 22.6901C5.71002 22.6901 7.35693 21.0431 7.35693 19.0116C7.35693 18.6511 7.30506 18.3026 7.20837 17.9734L8.07033 17.4757C9.027 18.5693 10.4328 19.26 12 19.26C13.5358 19.26 14.9168 18.5966 15.8718 17.5407L16.7678 18.058C16.6864 18.3621 16.643 18.6818 16.643 19.0116C16.643 21.0431 18.2899 22.6901 20.3215 22.6901C22.3531 22.6901 24 21.0431 24 19.0116C24 16.98 22.3531 15.3331 20.3215 15.3331C19.3634 15.3331 18.4909 15.6994 17.8363 16.2995L16.9247 15.7732C17.1154 15.2312 17.219 14.6482 17.219 14.041C17.219 11.5106 15.4184 9.40084 13.0285 8.92319V7.69986ZM13.6214 4.16711C13.6214 5.06254 12.8955 5.78843 12 5.78843C11.1046 5.78843 10.3787 5.06254 10.3787 4.16711C10.3787 3.27168 11.1046 2.54579 12 2.54579C12.8955 2.54579 13.6214 3.27168 13.6214 4.16711ZM12 10.879C10.2537 10.879 8.83801 12.2947 8.83801 14.041C8.83801 15.7873 10.2537 17.2029 12 17.2029C13.7463 17.2029 15.1619 15.7873 15.1619 14.041C15.1619 12.2947 13.7463 10.879 12 10.879ZM20.3215 20.6329C21.2169 20.6329 21.9428 19.907 21.9428 19.0116C21.9428 18.1162 21.2169 17.3903 20.3215 17.3903C19.4261 17.3903 18.7002 18.1162 18.7002 19.0116C18.7002 19.907 19.4261 20.6329 20.3215 20.6329ZM5.29978 19.0116C5.29978 19.907 4.57389 20.6329 3.67846 20.6329C2.78303 20.6329 2.05714 19.907 2.05714 19.0116C2.05714 18.1162 2.78303 17.3903 3.67846 17.3903C4.57389 17.3903 5.29978 18.1162 5.29978 19.0116Z" fill="#222222"/>
</svg>
