<svg width="24" height="24" viewBox="0 0 24 24" fill="none" xmlns="http://www.w3.org/2000/svg">
<path fill-rule="evenodd" clip-rule="evenodd" d="M7.35186 14.2354H9.05899V12.5283H7.35186V14.2354ZM7.35186 10.6779H9.05899V8.97079H7.35186V10.6779ZM7.35186 7.1214H9.05899V5.41426H7.35186V7.1214ZM11.1464 14.2354H12.8536V12.5283H11.1464V14.2354ZM11.1464 10.6779H12.8536V8.97079H11.1464V10.6779ZM11.1464 7.1214H12.8536V5.41426H11.1464V7.1214ZM14.942 14.2354H16.6491V12.5283H14.942V14.2354ZM14.942 10.6779H16.6491V8.97079H14.942V10.6779ZM14.942 7.1214H16.6491V5.41426H14.942V7.1214ZM19.1159 2H4.88411C4.63257 2 4.39134 2.09992 4.21348 2.27778C4.03562 2.45564 3.9357 2.69687 3.9357 2.94841V20.8619C3.9357 21.1638 4.0556 21.4532 4.26904 21.6667C4.37472 21.7723 4.50018 21.8562 4.63826 21.9134C4.77634 21.9706 4.92433 22 5.07379 22H10.1032V18.4406C10.1032 18.1891 10.2031 17.9479 10.381 17.77C10.5588 17.5921 10.8001 17.4922 11.0516 17.4922H12.9484C13.1999 17.4922 13.4412 17.5921 13.619 17.77C13.7969 17.9479 13.8968 18.1891 13.8968 18.4406V22H18.9262C19.2281 22 19.5175 21.8801 19.731 21.6667C19.9444 21.4532 20.0643 21.1638 20.0643 20.8619V2.94841C20.0643 2.69687 19.9644 2.45564 19.7865 2.27778C19.6087 2.09992 19.3674 2 19.1159 2Z" fill="#222222"/>
</svg>
