<svg width="24" height="24" viewBox="0 0 24 24" fill="none" xmlns="http://www.w3.org/2000/svg">
<path fill-rule="evenodd" clip-rule="evenodd" d="M15.6933 5.56382C17.2079 5.56382 18.4358 6.79168 18.4358 8.30632C18.4358 9.82095 17.2079 11.0488 15.6933 11.0488C14.1786 11.0488 12.9508 9.82095 12.9508 8.30632C12.9508 6.79168 14.1786 5.56382 15.6933 5.56382ZM16.2518 8.30632C16.2518 7.99786 16.0017 7.74781 15.6933 7.74781C15.3848 7.74781 15.1348 7.99786 15.1348 8.30632C15.1348 8.61477 15.3848 8.86483 15.6933 8.86483C16.0017 8.86483 16.2518 8.61477 16.2518 8.30632Z" fill="#222222"/>
<path fill-rule="evenodd" clip-rule="evenodd" d="M12.9262 1.58287C13.2749 1.49915 13.633 1.49956 14.0152 1.5L18.4013 1.50007C18.8997 1.50004 19.3378 1.50003 19.7003 1.52964C20.0855 1.56111 20.4804 1.63138 20.8637 1.82669C21.4276 2.11399 21.886 2.57243 22.1733 3.13629C22.3686 3.5196 22.4389 3.91451 22.4704 4.29965C22.5 4.66217 22.5 5.1003 22.4999 5.5987L22.5 9.98477C22.5004 10.367 22.5009 10.7251 22.4171 11.0738C22.3437 11.3796 22.2226 11.6719 22.0583 11.94C21.871 12.2458 21.6174 12.4987 21.3469 12.7687L13.953 20.1624C13.4139 20.7016 12.9631 21.1524 12.5644 21.4908C12.1484 21.844 11.718 22.1384 11.2001 22.3067C10.4069 22.5644 9.55258 22.5644 8.75944 22.3067C8.24156 22.1384 7.81113 21.844 7.39508 21.4908C6.99645 21.1524 6.54558 20.7015 6.00645 20.1624L3.83759 17.9935C3.29847 17.4544 2.84757 17.0035 2.50917 16.6049C2.15597 16.1889 1.86161 15.7584 1.69334 15.2406C1.43563 14.4474 1.43563 13.5931 1.69334 12.7999C1.86161 12.282 2.15597 11.8516 2.50917 11.4356C2.84758 11.0369 3.29847 10.5861 3.83762 10.0469L11.2313 2.65313C11.5013 2.38256 11.7542 2.12904 12.06 1.94166C12.3281 1.77735 12.6204 1.65628 12.9262 1.58287ZM14.0991 3.68405C13.5813 3.68405 13.5003 3.69107 13.436 3.70651C13.3531 3.72642 13.2738 3.75925 13.2011 3.80381C13.1447 3.83837 13.0825 3.89064 12.7164 4.25681L5.41316 11.56C4.8347 12.1385 4.44789 12.5265 4.17411 12.849C3.90861 13.1617 3.81413 13.3403 3.77044 13.4748C3.65525 13.8293 3.65525 14.2112 3.77044 14.5657C3.81413 14.7001 3.90861 14.8787 4.17411 15.1915C4.44789 15.514 4.8347 15.902 5.41316 16.4805L7.51954 18.5868C8.098 19.1653 8.48601 19.5521 8.80851 19.8259C9.12126 20.0914 9.29986 20.1859 9.43433 20.2296C9.78883 20.3447 10.1707 20.3447 10.5252 20.2296C10.6597 20.1859 10.8383 20.0914 11.151 19.8259C11.4735 19.5521 11.8615 19.1653 12.44 18.5868L19.7432 11.2836C20.1094 10.9175 20.1616 10.8553 20.1962 10.7989C20.2407 10.7262 20.2736 10.6469 20.2935 10.564C20.3089 10.4997 20.3159 10.4187 20.3159 9.90087L20.3159 5.63958C20.3159 5.08819 20.3151 4.74033 20.2936 4.4775C20.2732 4.22742 20.2397 4.15192 20.2274 4.1278C20.1494 3.97488 20.0251 3.85055 19.8722 3.77263C19.8481 3.76034 19.7726 3.72681 19.5225 3.70638C19.2597 3.6849 18.9118 3.68405 18.3604 3.68405L14.0991 3.68405Z" fill="#222222"/>
</svg>
