<svg width="24" height="24" viewBox="0 0 24 24" fill="none" xmlns="http://www.w3.org/2000/svg">
<mask id="path-1-outside-1_818_51275" maskUnits="userSpaceOnUse" x="-0.399902" y="-0.400391" width="25" height="25" fill="black">
<rect fill="white" x="-0.399902" y="-0.400391" width="25" height="25"/>
<path fill-rule="evenodd" clip-rule="evenodd" d="M21.6511 2.54865C19.0523 -0.0500707 14.839 -0.0500703 12.2403 2.54865L9.99155 4.79736C9.55793 5.23098 9.55793 5.93402 9.99155 6.36764C10.4252 6.80126 11.1282 6.80126 11.5618 6.36764L13.8105 4.11893C15.542 2.38745 18.3493 2.38745 20.0808 4.11893C21.8123 5.85041 21.8123 8.65769 20.0808 10.3892L17.8321 12.6379C17.3984 13.0715 17.3984 13.7745 17.8321 14.2082C18.2657 14.6418 18.9687 14.6418 19.4023 14.2082L21.6511 11.9594C24.2498 9.36073 24.2498 5.14737 21.6511 2.54865ZM2.54914 21.6504C-0.0495829 19.0517 -0.0495818 14.8383 2.54914 12.2396L4.79785 9.99089C5.23147 9.55727 5.93451 9.55727 6.36813 9.99089C6.80175 10.4245 6.80175 11.1276 6.36813 11.5612L4.11942 13.8099C2.38794 15.5414 2.38794 18.3486 4.11942 20.0801C5.8509 21.8116 8.65818 21.8116 10.3897 20.0801L12.6384 17.8314C13.072 17.3978 13.775 17.3978 14.2086 17.8314C14.6423 18.265 14.6423 18.9681 14.2086 19.4017L11.9599 21.6504C9.36121 24.2491 5.14786 24.2491 2.54914 21.6504ZM6.42797 4.78884C5.95821 4.31908 5.19659 4.31908 4.72683 4.78884C4.25707 5.2586 4.25707 6.02022 4.72683 6.48998L17.681 19.4441C18.1508 19.9139 18.9124 19.9139 19.3821 19.4441C19.8519 18.9744 19.8519 18.2128 19.3821 17.743L6.42797 4.78884Z"/>
</mask>
<path fill-rule="evenodd" clip-rule="evenodd" d="M21.6511 2.54865C19.0523 -0.0500707 14.839 -0.0500703 12.2403 2.54865L9.99155 4.79736C9.55793 5.23098 9.55793 5.93402 9.99155 6.36764C10.4252 6.80126 11.1282 6.80126 11.5618 6.36764L13.8105 4.11893C15.542 2.38745 18.3493 2.38745 20.0808 4.11893C21.8123 5.85041 21.8123 8.65769 20.0808 10.3892L17.8321 12.6379C17.3984 13.0715 17.3984 13.7745 17.8321 14.2082C18.2657 14.6418 18.9687 14.6418 19.4023 14.2082L21.6511 11.9594C24.2498 9.36073 24.2498 5.14737 21.6511 2.54865ZM2.54914 21.6504C-0.0495829 19.0517 -0.0495818 14.8383 2.54914 12.2396L4.79785 9.99089C5.23147 9.55727 5.93451 9.55727 6.36813 9.99089C6.80175 10.4245 6.80175 11.1276 6.36813 11.5612L4.11942 13.8099C2.38794 15.5414 2.38794 18.3486 4.11942 20.0801C5.8509 21.8116 8.65818 21.8116 10.3897 20.0801L12.6384 17.8314C13.072 17.3978 13.775 17.3978 14.2086 17.8314C14.6423 18.265 14.6423 18.9681 14.2086 19.4017L11.9599 21.6504C9.36121 24.2491 5.14786 24.2491 2.54914 21.6504ZM6.42797 4.78884C5.95821 4.31908 5.19659 4.31908 4.72683 4.78884C4.25707 5.2586 4.25707 6.02022 4.72683 6.48998L17.681 19.4441C18.1508 19.9139 18.9124 19.9139 19.3821 19.4441C19.8519 18.9744 19.8519 18.2128 19.3821 17.743L6.42797 4.78884Z" fill="#222222"/>
<path d="M12.2403 2.54865L12.3817 2.69007L12.2403 2.54865ZM21.6511 2.54865L21.5096 2.69007L21.6511 2.54865ZM9.99155 4.79736L9.85013 4.65594L9.99155 4.79736ZM20.0808 4.11893L19.9394 4.26035L20.0808 4.11893ZM20.0808 10.3892L20.2222 10.5306L20.0808 10.3892ZM17.8321 12.6379L17.6906 12.4965L17.8321 12.6379ZM17.8321 14.2082L17.6906 14.3496H17.6906L17.8321 14.2082ZM19.4023 14.2082L19.2609 14.0667L19.4023 14.2082ZM21.6511 11.9594L21.7925 12.1009L21.6511 11.9594ZM2.54914 12.2396L2.69056 12.381L2.54914 12.2396ZM2.54914 21.6504L2.40772 21.7918L2.54914 21.6504ZM4.79785 9.99089L4.93927 10.1323L4.79785 9.99089ZM6.36813 9.99089L6.22671 10.1323L6.36813 9.99089ZM6.36813 11.5612L6.22671 11.4198L6.36813 11.5612ZM4.11942 13.8099L3.978 13.6685L4.11942 13.8099ZM4.11942 20.0801L3.978 20.2215V20.2215L4.11942 20.0801ZM10.3897 20.0801L10.5311 20.2215L10.3897 20.0801ZM12.6384 17.8314L12.7798 17.9728V17.9728L12.6384 17.8314ZM14.2086 17.8314L14.0672 17.9728V17.9728L14.2086 17.8314ZM14.2086 19.4017L14.3501 19.5431V19.5431L14.2086 19.4017ZM11.9599 21.6504L12.1014 21.7918L11.9599 21.6504ZM4.72683 4.78884L4.58541 4.64742L4.72683 4.78884ZM6.42797 4.78884L6.56939 4.64742L6.42797 4.78884ZM4.72683 6.48998L4.58541 6.6314L4.72683 6.48998ZM17.681 19.4441L17.8224 19.3027V19.3027L17.681 19.4441ZM19.3821 19.4441L19.2407 19.3027H19.2407L19.3821 19.4441ZM19.3821 17.743L19.5236 17.6016L19.3821 17.743ZM12.2403 2.54865L12.3817 2.69007C14.9023 0.169456 18.989 0.169456 21.5096 2.69007L21.6511 2.54865L21.7925 2.40723C19.1157 -0.269597 14.7757 -0.269596 12.0988 2.40723L12.2403 2.54865ZM9.99155 4.79736L10.133 4.93878L12.3817 2.69007L12.2403 2.54865L12.0988 2.40723L9.85013 4.65594L9.99155 4.79736ZM9.99155 6.36764L10.133 6.22622C9.77746 5.8707 9.77745 5.29429 10.133 4.93878L9.99155 4.79736L9.85013 4.65594C9.3384 5.16766 9.3384 5.99733 9.85013 6.50906L9.99155 6.36764ZM11.5618 6.36764L11.4204 6.22622C11.0649 6.58173 10.4885 6.58173 10.133 6.22622L9.99155 6.36764L9.85013 6.50906C10.3619 7.02079 11.1915 7.02079 11.7033 6.50906L11.5618 6.36764ZM13.8105 4.11893L13.6691 3.97751L11.4204 6.22622L11.5618 6.36764L11.7033 6.50906L13.952 4.26035L13.8105 4.11893ZM20.0808 4.11893L20.2222 3.97751C18.4126 2.16793 15.4787 2.16793 13.6691 3.97751L13.8105 4.11893L13.952 4.26035C15.6053 2.60698 18.286 2.60698 19.9394 4.26035L20.0808 4.11893ZM20.0808 10.3892L20.2222 10.5306C22.0318 8.721 22.0318 5.78709 20.2222 3.97751L20.0808 4.11893L19.9394 4.26035C21.5927 5.91372 21.5927 8.59437 19.9394 10.2477L20.0808 10.3892ZM17.8321 12.6379L17.9735 12.7793L20.2222 10.5306L20.0808 10.3892L19.9394 10.2477L17.6906 12.4965L17.8321 12.6379ZM17.8321 14.2082L17.9735 14.0667C17.618 13.7112 17.618 13.1348 17.9735 12.7793L17.8321 12.6379L17.6906 12.4965C17.1789 13.0082 17.1789 13.8379 17.6906 14.3496L17.8321 14.2082ZM19.4023 14.2082L19.2609 14.0667C18.9054 14.4223 18.329 14.4223 17.9735 14.0667L17.8321 14.2082L17.6906 14.3496C18.2024 14.8613 19.032 14.8613 19.5438 14.3496L19.4023 14.2082ZM21.6511 11.9594L21.5096 11.818L19.2609 14.0667L19.4023 14.2082L19.5438 14.3496L21.7925 12.1009L21.6511 11.9594ZM21.6511 2.54865L21.5096 2.69007C24.0303 5.21069 24.0303 9.29741 21.5096 11.818L21.6511 11.9594L21.7925 12.1009C24.4693 9.42404 24.4693 5.08405 21.7925 2.40723L21.6511 2.54865ZM2.54914 12.2396L2.40772 12.0982C-0.269108 14.775 -0.269109 19.115 2.40772 21.7918L2.54914 21.6504L2.69056 21.509C0.169943 18.9884 0.169944 14.9016 2.69056 12.381L2.54914 12.2396ZM4.79785 9.99089L4.65642 9.84947L2.40772 12.0982L2.54914 12.2396L2.69056 12.381L4.93927 10.1323L4.79785 9.99089ZM6.36813 9.99089L6.50955 9.84947C5.99782 9.33774 5.16815 9.33774 4.65642 9.84947L4.79785 9.99089L4.93927 10.1323C5.29478 9.7768 5.87119 9.7768 6.22671 10.1323L6.36813 9.99089ZM6.36813 11.5612L6.50955 11.7026C7.02128 11.1909 7.02128 10.3612 6.50955 9.84947L6.36813 9.99089L6.22671 10.1323C6.58222 10.4878 6.58222 11.0642 6.22671 11.4198L6.36813 11.5612ZM4.11942 13.8099L4.26084 13.9513L6.50955 11.7026L6.36813 11.5612L6.22671 11.4198L3.978 13.6685L4.11942 13.8099ZM4.11942 20.0801L4.26084 19.9387C2.60747 18.2853 2.60747 15.6047 4.26084 13.9513L4.11942 13.8099L3.978 13.6685C2.16842 15.478 2.16842 18.412 3.978 20.2215L4.11942 20.0801ZM10.3897 20.0801L10.2482 19.9387C8.59486 21.5921 5.91421 21.5921 4.26084 19.9387L4.11942 20.0801L3.978 20.2215C5.78758 22.0311 8.72149 22.0311 10.5311 20.2215L10.3897 20.0801ZM12.6384 17.8314L12.4969 17.69L10.2482 19.9387L10.3897 20.0801L10.5311 20.2215L12.7798 17.9728L12.6384 17.8314ZM14.2086 17.8314L14.3501 17.69C13.8383 17.1783 13.0087 17.1783 12.4969 17.69L12.6384 17.8314L12.7798 17.9728C13.1353 17.6173 13.7117 17.6173 14.0672 17.9728L14.2086 17.8314ZM14.2086 19.4017L14.3501 19.5431C14.8618 19.0314 14.8618 18.2017 14.3501 17.69L14.2086 17.8314L14.0672 17.9728C14.4227 18.3283 14.4227 18.9048 14.0672 19.2603L14.2086 19.4017ZM11.9599 21.6504L12.1014 21.7918L14.3501 19.5431L14.2086 19.4017L14.0672 19.2603L11.8185 21.509L11.9599 21.6504ZM2.54914 21.6504L2.40772 21.7918C5.08454 24.4686 9.42453 24.4686 12.1014 21.7918L11.9599 21.6504L11.8185 21.509C9.2979 24.0296 5.21117 24.0296 2.69056 21.509L2.54914 21.6504ZM4.72683 4.78884L4.86825 4.93026C5.2599 4.53861 5.8949 4.53861 6.28655 4.93026L6.42797 4.78884L6.56939 4.64742C6.02153 4.09956 5.13327 4.09956 4.58541 4.64742L4.72683 4.78884ZM4.72683 6.48998L4.86825 6.34856C4.4766 5.95691 4.4766 5.32191 4.86825 4.93026L4.72683 4.78884L4.58541 4.64742C4.03755 5.19528 4.03755 6.08354 4.58541 6.6314L4.72683 6.48998ZM17.681 19.4441L17.8224 19.3027L4.86825 6.34856L4.72683 6.48998L4.58541 6.6314L17.5396 19.5856L17.681 19.4441ZM19.3821 19.4441L19.2407 19.3027C18.8491 19.6944 18.2141 19.6944 17.8224 19.3027L17.681 19.4441L17.5396 19.5856C18.0874 20.1334 18.9757 20.1334 19.5236 19.5856L19.3821 19.4441ZM19.3821 17.743L19.2407 17.8844C19.6324 18.2761 19.6324 18.9111 19.2407 19.3027L19.3821 19.4441L19.5236 19.5856C20.0714 19.0377 20.0714 18.1495 19.5236 17.6016L19.3821 17.743ZM6.42797 4.78884L6.28655 4.93026L19.2407 17.8844L19.3821 17.743L19.5236 17.6016L6.56939 4.64742L6.42797 4.78884Z" fill="#222222" mask="url(#path-1-outside-1_818_51275)"/>
</svg>
