<svg width="24" height="24" viewBox="0 0 24 24" fill="none" xmlns="http://www.w3.org/2000/svg">
<path d="M17.6934 16.5333C18.0349 16.1918 18.5631 16.1487 18.9512 16.4044L19.1074 16.5333L22.707 20.1329C23.0972 20.5235 23.0974 21.1566 22.707 21.547C22.3166 21.9369 21.6834 21.937 21.293 21.547L18.4023 18.6544L15.5098 21.547L15.3535 21.674C14.9655 21.9306 14.4376 21.8884 14.0957 21.547C13.7543 21.2054 13.7108 20.6772 13.9668 20.2892L14.0957 20.1329L17.6934 16.5333ZM11.5898 19.674C12.0456 19.7671 12.3887 20.1711 12.3887 20.6544C12.3886 21.1377 12.0456 21.5417 11.5898 21.6349L11.3887 21.6544H2C1.44775 21.6544 1.00006 21.2066 1 20.6544C1 20.1021 1.44772 19.6544 2 19.6544H11.3887L11.5898 19.674ZM11.5898 13.9845C12.0456 14.0777 12.3887 14.4816 12.3887 14.965C12.3886 15.4482 12.0456 15.8523 11.5898 15.9454L11.3887 15.965L2 15.965C1.44775 15.965 1.00006 15.5172 1 14.965C1 14.4127 1.44772 13.965 2 13.965L11.3887 13.965L11.5898 13.9845ZM11.5898 8.29407C12.0456 8.38724 12.3887 8.79122 12.3887 9.27454C12.3886 9.75781 12.0456 10.1618 11.5898 10.255L11.3887 10.2745L2 10.2745C1.44775 10.2745 1.00006 9.82677 1 9.27454C1 8.72225 1.44772 8.27454 2 8.27454L11.3887 8.27454L11.5898 8.29407ZM14.0957 2.6925C14.4861 2.3025 15.1193 2.3025 15.5098 2.6925L18.4004 5.58508L21.293 2.6925L21.4492 2.56555C21.8372 2.3088 22.3651 2.35109 22.707 2.6925C23.0484 3.03414 23.0919 3.5623 22.8359 3.95032L22.707 4.10657L19.1094 7.70618C18.7679 8.04763 18.2396 8.09077 17.8516 7.83508L17.6953 7.70618L14.0957 4.10657C13.7056 3.71602 13.7053 3.0829 14.0957 2.6925ZM11.5898 2.60461C12.0456 2.69779 12.3887 3.10177 12.3887 3.58508C12.3886 4.06836 12.0456 4.4724 11.5898 4.56555L11.3887 4.58508L2 4.58508C1.44775 4.58508 1.00006 4.13731 1 3.58508C1 3.0328 1.44772 2.58508 2 2.58508L11.3887 2.58508L11.5898 2.60461Z" fill="#222222"/>
</svg>
