<svg width="24" height="24" viewBox="0 0 24 24" fill="none" xmlns="http://www.w3.org/2000/svg">
<path d="M4.69775 20.9194L12.6978 12.9194C13.2054 12.4118 13.2054 11.5886 12.6978 11.081L4.69776 3.08096C4.19007 2.57327 3.36696 2.57327 2.85928 3.08096C2.3516 3.58864 2.3516 4.41175 2.85928 4.91943L9.94004 12.0002L2.85928 19.081C2.3516 19.5886 2.3516 20.4118 2.85928 20.9194C3.36696 21.4271 4.19007 21.4271 4.69775 20.9194Z" fill="#222222"/>
<path d="M14.0493 20.9194L22.0493 12.9194C22.557 12.4118 22.557 11.5886 22.0493 11.081L14.0493 3.08096C13.5416 2.57327 12.7185 2.57327 12.2108 3.08096C11.7032 3.58864 11.7032 4.41175 12.2108 4.91943L19.2916 12.0002L12.2108 19.081C11.7032 19.5886 11.7032 20.4118 12.2108 20.9194C12.7185 21.4271 13.5416 21.4271 14.0493 20.9194Z" fill="#222222"/>
</svg>
