<svg width="24" height="24" viewBox="0 0 24 24" fill="none" xmlns="http://www.w3.org/2000/svg">
<path fill-rule="evenodd" clip-rule="evenodd" d="M7.95836 6.49793C8.54415 7.08372 8.54415 8.03347 7.95836 8.61925L4.12181 12.4558L7.95836 16.2924C8.54415 16.8781 8.54415 17.8279 7.95836 18.4137C7.37258 18.9995 6.42283 18.9995 5.83704 18.4137L0.939828 13.5165C0.658524 13.2352 0.500488 12.8536 0.500488 12.4558C0.500488 12.058 0.658523 11.6765 0.939828 11.3951L5.83704 6.49793C6.42283 5.91215 7.37258 5.91215 7.95836 6.49793Z" fill="#222222"/>
<path fill-rule="evenodd" clip-rule="evenodd" d="M16.0414 6.49793C16.6272 5.91215 17.5769 5.91215 18.1627 6.49793L23.0599 11.3951C23.3412 11.6765 23.4993 12.058 23.4993 12.4558C23.4993 12.8536 23.3412 13.2352 23.0599 13.5165L18.1627 18.4137C17.5769 18.9995 16.6272 18.9995 16.0414 18.4137C15.4556 17.8279 15.4556 16.8781 16.0414 16.2924L19.8779 12.4558L16.0414 8.61925C15.4556 8.03347 15.4556 7.08372 16.0414 6.49793Z" fill="#222222"/>
</svg>
