<svg width="24" height="24" viewBox="0 0 24 24" fill="none" xmlns="http://www.w3.org/2000/svg">
<g clip-path="url(#clip0_6370_4731)">
<path d="M20.6412 18.1473C21.1466 17.2869 21.394 16.2437 21.1574 15.1144C20.7917 13.3507 19.3076 11.9418 17.5223 11.716C14.6939 11.3503 12.3063 13.7271 12.6827 16.5556C12.9193 18.3408 14.3174 19.825 16.0812 20.1906C17.2104 20.4272 18.2536 20.1799 19.114 19.6744L21.1144 21.6748C21.5338 22.0942 22.2113 22.0942 22.6308 21.6748C23.0502 21.2553 23.0502 20.5778 22.6308 20.1584L20.6412 18.1473ZM16.9523 18.1257C15.7693 18.1257 14.8014 17.1578 14.8014 15.9748C14.8014 14.7918 15.7693 13.8239 16.9523 13.8239C18.1353 13.8239 19.1033 14.7918 19.1033 15.9748C19.1033 17.1578 18.1353 18.1257 16.9523 18.1257Z" fill="#292C32"/>
<path d="M10.5 11.9248C11.1073 11.9251 11.5996 12.4171 11.5996 13.0244C11.5996 13.6318 11.1073 14.1238 10.5 14.124H8.51855C6.13354 14.1244 4.19935 16.0583 4.19922 18.4434C4.19922 19.0509 3.70712 19.5439 3.09961 19.5439C2.49231 19.5437 2 19.0507 2 18.4434C2.00013 14.8433 4.91852 11.9251 8.51855 11.9248H10.5ZM10.6543 2.00586C12.8444 2.11694 14.5858 3.92787 14.5859 6.14551L14.5811 6.3584C14.4701 8.54849 12.659 10.2898 10.4414 10.29L10.2275 10.2852C8.10807 10.1776 6.40915 8.47791 6.30176 6.3584L6.2959 6.14551C6.29604 3.85629 8.15216 2 10.4414 2L10.6543 2.00586ZM10.4414 4.2002C9.36718 4.2002 8.49623 5.07132 8.49609 6.14551C8.49625 7.21968 9.3672 8.09082 10.4414 8.09082C11.5154 8.09053 12.3866 7.2195 12.3867 6.14551C12.3866 5.07149 11.5154 4.20048 10.4414 4.2002Z" fill="#292C32"/>
</g>
<defs>
<clipPath id="clip0_6370_4731">
<rect width="24" height="24" fill="white"/>
</clipPath>
</defs>
</svg>
