<svg width="24" height="24" viewBox="0 0 24 24" fill="none" xmlns="http://www.w3.org/2000/svg">
<path d="M3.75012 0.529297C1.7704 0.529297 0.165527 2.13417 0.165527 4.11389C0.165527 5.36359 0.754543 6.4382 1.72415 7.07976C2.65882 4.39715 4.7952 2.73417 6.5917 2.00586C5.94436 1.07409 4.97066 0.529297 3.75012 0.529297Z" fill="#222222"/>
<path d="M13.023 7.2506C13.023 6.69832 12.5753 6.2506 12.023 6.2506C11.4707 6.2506 11.023 6.69832 11.023 7.2506V12.1007C11.023 12.653 11.4707 13.1007 12.023 13.1007H16.8731C17.4254 13.1007 17.8731 12.653 17.8731 12.1007C17.8731 11.5484 17.4254 11.1007 16.8731 11.1007H13.023V7.2506Z" fill="#222222"/>
<path fill-rule="evenodd" clip-rule="evenodd" d="M12.1152 2.32309C6.76612 2.32309 2.42983 6.65939 2.42983 12.0085C2.42983 15.3842 4.15681 18.3565 6.77546 20.0902L5.81731 21.0483C5.42678 21.4389 5.42678 22.072 5.81731 22.4626C6.20783 22.8531 6.841 22.8531 7.23152 22.4626L8.64172 21.0524C9.71994 21.4667 10.8911 21.6938 12.1152 21.6938C13.4414 21.6938 14.7053 21.4273 15.8564 20.9449L17.3741 22.4626C17.7646 22.8531 18.3978 22.8531 18.7883 22.4626C19.1788 22.072 19.1788 21.4389 18.7883 21.0483L17.678 19.938C20.1712 18.1857 21.8006 15.2874 21.8006 12.0085C21.8006 6.65939 17.4643 2.32309 12.1152 2.32309ZM4.42983 12.0085C4.42983 7.76395 7.87069 4.32309 12.1152 4.32309C16.3597 4.32309 19.8006 7.76395 19.8006 12.0085C19.8006 16.253 16.3597 19.6938 12.1152 19.6938C7.87069 19.6938 4.42983 16.253 4.42983 12.0085Z" fill="#222222"/>
<path d="M23.8347 4.11392C23.8347 2.1342 22.2298 0.529323 20.2501 0.529323C19.0296 0.529323 18.0559 1.07411 17.4085 2.00589C19.205 2.7342 21.3414 4.39718 22.2761 7.07979C23.2457 6.43823 23.8347 5.36361 23.8347 4.11392Z" fill="#222222"/>
</svg>
