<svg width="24" height="24" viewBox="0 0 24 24" fill="none" xmlns="http://www.w3.org/2000/svg">
<path d="M12 1C5.92446 1 1 5.92446 1 12C1 18.0755 5.92446 23 12 23C18.0755 23 23 18.0755 23 12C23 5.92446 18.0755 1 12 1ZM13.3583 14.2481H11.0827V16.8616C11.0827 17.4794 10.5818 17.9822 9.96205 17.9822C9.34232 17.9822 8.84143 17.4813 8.84143 16.8616V7.69429C8.84143 7.07652 9.34232 6.57366 9.96205 6.57366H13.3573C15.4719 6.57366 17.1926 8.29536 17.1926 10.4109C17.1936 12.5274 15.4729 14.2481 13.3583 14.2481Z" fill="#222222"/>
<path d="M13.3829 8.758H11.0659V12.007H13.3829C14.2779 12.007 15.0069 11.278 15.0069 10.382C15.0069 9.487 14.2779 8.758 13.3829 8.758Z" fill="#222222"/>
</svg>
