<svg width="24" height="24" viewBox="0 0 24 24" fill="none" xmlns="http://www.w3.org/2000/svg">
<path d="M12.9147 10.3608C12.9147 9.85583 12.5054 9.44647 12.0004 9.44647C11.4954 9.44647 11.0861 9.85583 11.0861 10.3608V15.3502L9.33473 13.5989C8.97766 13.2418 8.39873 13.2418 8.04166 13.5989C7.68459 13.956 7.68459 14.5349 8.04166 14.892L11.3537 18.204C11.404 18.2543 11.4595 18.2981 11.5191 18.335C11.6397 18.4098 11.779 18.4573 11.9284 18.469C11.9522 18.4709 11.9762 18.4718 12.0002 18.4718C12.0166 18.4718 12.033 18.4714 12.0493 18.4705C12.2873 18.4579 12.5011 18.3544 12.6567 18.1941L15.9588 14.892C16.3159 14.5349 16.3159 13.956 15.9588 13.5989C15.6017 13.2418 15.0228 13.2418 14.6657 13.5989L12.9147 15.3499V10.3608Z" fill="#222222"/>
<path d="M8.38495 5.1914C7.87998 5.1914 7.47061 5.60077 7.47061 6.10574C7.47061 6.61072 7.87998 7.02008 8.38495 7.02008H10.7988C11.3038 7.02008 11.7131 6.61072 11.7131 6.10574C11.7131 5.60077 11.3038 5.1914 10.7988 5.1914H8.38495Z" fill="#222222"/>
<path fill-rule="evenodd" clip-rule="evenodd" d="M21.0427 7.77384V19.1742C21.0427 21.0133 19.4292 22.334 17.6359 22.334H6.36381C4.5846 22.334 2.95703 21.0158 2.95703 19.1742V4.8258C2.95703 2.98413 4.5846 1.66602 6.36381 1.66602H14.9526L14.9782 1.66637C15.0675 1.66882 15.1536 1.68408 15.2347 1.71037C15.3681 1.75346 15.4934 1.82794 15.5993 1.93382L20.7751 7.10956C20.9581 7.29261 21.0473 7.53396 21.0427 7.77384ZM6.36381 3.49469H13.94V8.46031C13.94 8.96529 14.3494 9.37465 14.8544 9.37465H19.214V19.1742C19.214 19.8275 18.6046 20.5053 17.6359 20.5053H6.36381C5.40357 20.5053 4.78571 19.8249 4.78571 19.1742V4.8258C4.78571 4.17502 5.40357 3.49469 6.36381 3.49469ZM15.7687 4.68934L18.6253 7.54597H15.7687V4.68934Z" fill="#222222"/>
</svg>
