<svg width="24" height="24" viewBox="0 0 24 24" fill="none" xmlns="http://www.w3.org/2000/svg">
<g clip-path="url(#clip0_818_51496)">
<path fill-rule="evenodd" clip-rule="evenodd" d="M7.84546 5.55376H16.1543C17.8063 5.55376 19.1455 6.89296 19.1455 8.54494C19.1455 10.1969 17.8063 11.5361 16.1543 11.5361H7.84545C6.19346 11.5361 4.85426 10.1969 4.85426 8.54494C4.85426 6.89296 6.19346 5.55376 7.84546 5.55376ZM16.1543 9.37582C16.6132 9.37582 16.9852 9.00383 16.9852 8.54494C16.9852 8.08606 16.6132 7.71406 16.1543 7.71406H7.84546C7.38657 7.71406 7.01457 8.08606 7.01457 8.54494C7.01457 9.00383 7.38657 9.37582 7.84545 9.37582H16.1543Z" fill="#222222"/>
<path fill-rule="evenodd" clip-rule="evenodd" d="M7.84546 12.6994H16.1543C17.8063 12.6994 19.1455 14.0386 19.1455 15.6905C19.1455 17.3425 17.8063 18.6817 16.1543 18.6817H7.84545C6.19346 18.6817 4.85426 17.3425 4.85426 15.6905C4.85426 14.0386 6.19346 12.6994 7.84546 12.6994ZM16.1543 16.5214C16.6132 16.5214 16.9852 16.1494 16.9852 15.6905C16.9852 15.2317 16.6132 14.8597 16.1543 14.8597H7.84546C7.38657 14.8597 7.01457 15.2317 7.01457 15.6905C7.01457 16.1494 7.38657 16.5214 7.84545 16.5214H16.1543Z" fill="#222222"/>
<path fill-rule="evenodd" clip-rule="evenodd" d="M19.4779 0.900818H4.52201C2.41114 0.900818 0.699951 2.61201 0.699951 4.72288V19.277C0.699951 21.3879 2.41114 23.0991 4.52201 23.0991H19.4779C21.5888 23.0991 23.3 21.3879 23.3 19.277V4.72288C23.3 2.61201 21.5888 0.900818 19.4779 0.900818ZM2.86025 4.72288C2.86025 3.80511 3.60424 3.06111 4.52201 3.06111H19.4779C20.3957 3.06111 21.1397 3.80511 21.1397 4.72288V19.277C21.1397 20.1948 20.3957 20.9388 19.4779 20.9388H4.52201C3.60424 20.9388 2.86025 20.1948 2.86025 19.277V4.72288Z" fill="#222222"/>
</g>
<defs>
<clipPath id="clip0_818_51496">
<rect width="24" height="24" fill="white"/>
</clipPath>
</defs>
</svg>
