<svg width="24" height="24" viewBox="0 0 24 24" fill="none" xmlns="http://www.w3.org/2000/svg">
<g clip-path="url(#clip0_818_51399)">
<path d="M1.42688 9.22461C6.75519 2.25723 17.2481 2.25707 22.5763 9.22461L23.3976 10.2988C24.2032 11.3526 24.2032 12.8154 23.3976 13.8691L22.5763 14.9434C17.2481 21.911 6.75519 21.9108 1.42688 14.9434L0.605591 13.8691C-0.200247 12.8153 -0.200269 11.3526 0.605591 10.2988L1.42688 9.22461ZM20.6534 10.6953C16.294 4.99445 7.70823 4.99445 3.34875 10.6953L2.52844 11.7686C2.38623 11.9545 2.38623 12.2134 2.52844 12.3994L3.34875 13.4727C7.70823 19.1735 16.294 19.1735 20.6534 13.4727L21.4747 12.3994C21.6169 12.2134 21.6169 11.9545 21.4747 11.7686L20.6534 10.6953ZM12.0011 7.41602C13.1835 7.41602 14.1616 8.05812 14.8029 8.91309C15.4438 9.76768 15.8048 10.8926 15.8048 12.084C15.8048 13.2753 15.4438 14.4003 14.8029 15.2549C14.1616 16.1099 13.1836 16.752 12.0011 16.752C10.8187 16.7519 9.84054 16.1098 9.19934 15.2549C8.55847 14.4003 8.19739 13.2753 8.19739 12.084C8.1974 10.8927 8.55845 9.76767 9.19934 8.91309C9.84054 8.05815 10.8187 7.41608 12.0011 7.41602ZM12.0011 9.83691C11.7513 9.83697 11.4332 9.96886 11.1359 10.3652C10.8382 10.7621 10.6183 11.3657 10.6183 12.084C10.6183 12.8023 10.8382 13.4059 11.1359 13.8027C11.4332 14.1991 11.7513 14.332 12.0011 14.332C12.2509 14.332 12.5699 14.1992 12.8673 13.8027C13.1648 13.4059 13.3839 12.8021 13.3839 12.084C13.3839 11.3659 13.1648 10.7621 12.8673 10.3652C12.5699 9.96875 12.2509 9.83691 12.0011 9.83691Z" fill="#222222"/>
</g>
<defs>
<clipPath id="clip0_818_51399">
<rect width="24" height="24" fill="white"/>
</clipPath>
</defs>
</svg>
