<svg width="24" height="24" viewBox="0 0 24 24" fill="none" xmlns="http://www.w3.org/2000/svg">
<g clip-path="url(#clip0_818_51334)">
<path d="M0 3.01594C0 1.35029 1.35028 0 3.01594 0H13.3802C15.0458 0 16.3961 1.35028 16.3961 3.01594V5.97805C16.3961 6.63422 15.8642 7.16615 15.208 7.16615C14.5519 7.16615 14.0199 6.63422 14.0199 5.97805V3.01594C14.0199 2.66262 13.7335 2.3762 13.3802 2.3762H3.01594C2.66262 2.3762 2.3762 2.66262 2.3762 3.01594V20.1739C2.3762 20.5272 2.66262 20.8137 3.01594 20.8137H13.3802C13.7335 20.8137 14.0199 20.5272 14.0199 20.1739V17.1957C14.0199 16.5395 14.5519 16.0076 15.208 16.0076C15.8642 16.0076 16.3961 16.5395 16.3961 17.1957V20.1739C16.3961 21.8396 15.0458 23.1899 13.3802 23.1899H3.01594C1.35028 23.1899 0 21.8396 0 20.1739V3.01594Z" fill="#222222"/>
<path d="M24 11.5948L18.579 15.8542V12.7701L9.21347 12.7701C8.5573 12.7701 8.02538 12.2382 8.02538 11.582C8.02538 10.9259 8.5573 10.3939 9.21347 10.3939L18.579 10.3939V7.33543L24 11.5948Z" fill="#222222"/>
</g>
<defs>
<clipPath id="clip0_818_51334">
<rect width="24" height="24" fill="white"/>
</clipPath>
</defs>
</svg>
