<svg width="24" height="24" viewBox="0 0 24 24" fill="none" xmlns="http://www.w3.org/2000/svg">
<rect width="24" height="24" fill="white"/>
<path fill-rule="evenodd" clip-rule="evenodd" d="M2 11.5364C2 9.17067 3.9178 7.25286 6.28354 7.25286L17.7165 7.25286C20.0822 7.25286 22 9.17067 22 11.5364L22 16.1096C22 17.8439 20.5941 19.2498 18.8598 19.2498H16.8781V17.5425L18.8598 17.5425C19.6511 17.5425 20.2927 16.901 20.2927 16.1096L20.2927 11.5364C20.2927 10.1136 19.1393 8.96018 17.7165 8.96018L6.28354 8.96018C4.86073 8.96018 3.70732 10.1136 3.70732 11.5364L3.70732 16.1096C3.70732 16.901 4.34886 17.5425 5.14024 17.5425H7.12195V19.2498H5.14024C3.40593 19.2498 2 17.8439 2 16.1096L2 11.5364Z" fill="#222222"/>
<path fill-rule="evenodd" clip-rule="evenodd" d="M9.14177 13.6324H14.8582C16.0579 13.6324 17.0305 14.605 17.0305 15.8047V19.2346C17.0305 20.4343 16.0579 21.4068 14.8582 21.4068L9.14177 21.4068C7.94206 21.4068 6.96951 20.4343 6.96951 19.2346L6.96951 15.8047C6.96951 14.605 7.94206 13.6324 9.14177 13.6324ZM9.14177 15.2331C8.82606 15.2331 8.57012 15.489 8.57012 15.8047L8.57012 19.2346C8.57012 19.5503 8.82606 19.8062 9.14177 19.8062L14.8582 19.8062C15.1739 19.8062 15.4299 19.5503 15.4299 19.2346V15.8047C15.4299 15.489 15.1739 15.2331 14.8582 15.2331H9.14177Z" fill="#222222"/>
<path fill-rule="evenodd" clip-rule="evenodd" d="M6.62652 4.94341C6.62652 3.87 7.4967 2.99982 8.57012 2.99982L15.4299 2.99982C16.5033 2.99982 17.3735 3.87 17.3735 4.94341V8.37329L15.7729 8.37329V4.94341C15.7729 4.75399 15.6193 4.60043 15.4299 4.60043L8.57012 4.60043C8.3807 4.60043 8.22713 4.75399 8.22713 4.94341V8.37329H6.62652L6.62652 4.94341Z" fill="#222222"/>
<path d="M18.8598 11.8032C18.8598 12.4346 18.3479 12.9465 17.7165 12.9465C17.085 12.9465 16.5732 12.4346 16.5732 11.8032C16.5732 11.1717 17.085 10.6599 17.7165 10.6599C18.3479 10.6599 18.8598 11.1717 18.8598 11.8032Z" fill="#222222"/>
<path fill-rule="evenodd" clip-rule="evenodd" d="M17.7165 12.9465C18.3479 12.9465 18.8598 12.4346 18.8598 11.8032C18.8598 11.1717 18.3479 10.6599 17.7165 10.6599C17.085 10.6599 16.5732 11.1717 16.5732 11.8032C16.5732 12.4346 17.085 12.9465 17.7165 12.9465Z" fill="#222222"/>
</svg>
