<svg width="24" height="24" viewBox="0 0 24 24" fill="none" xmlns="http://www.w3.org/2000/svg">
<g clip-path="url(#clip0_818_51462)">
<path d="M20.873 3.00098C22.6002 3.00098 24.001 4.4008 24.001 6.12793V17.958C24.001 19.6852 22.6002 21.0859 20.873 21.0859H3.12793C1.4008 21.0859 0.000976562 19.6851 0.000976562 17.958V6.12793C0.000996858 4.40081 1.40081 3.001 3.12793 3.00098H20.873ZM2.31152 17.958C2.31152 18.4087 2.67719 18.7744 3.12793 18.7744H20.873C21.3238 18.7744 21.6895 18.4088 21.6895 17.958V11.2266H2.31152V17.958ZM8.44141 14.4434C9.07955 14.4434 9.59668 14.9605 9.59668 15.5986C9.59668 16.2368 9.07955 16.7538 8.44141 16.7539H4.88574C4.24755 16.7539 3.73047 16.2368 3.73047 15.5986C3.73047 14.9604 4.24755 14.4434 4.88574 14.4434H8.44141ZM3.12793 5.31152C2.67721 5.31154 2.31154 5.67721 2.31152 6.12793V8.91602H21.6895V6.12793C21.6894 5.67719 21.3238 5.31152 20.873 5.31152H3.12793Z" fill="#222222"/>
</g>
<defs>
<clipPath id="clip0_818_51462">
<rect width="24" height="24" fill="white"/>
</clipPath>
</defs>
</svg>
