<svg width="20" height="20" viewBox="0 0 20 20" fill="none" xmlns="http://www.w3.org/2000/svg">
<mask id="mask0_64_161177" style="mask-type:alpha" maskUnits="userSpaceOnUse" x="0" y="0" width="20" height="20">
<rect width="20" height="20" fill="#D9D9D9"/>
</mask>
<g mask="url(#mask0_64_161177)">
<path d="M16.667 4.99992H3.33366V14.9999H10.0003C10.2364 14.9999 10.4344 15.0798 10.5941 15.2395C10.7538 15.3992 10.8337 15.5971 10.8337 15.8333C10.8337 16.0694 10.7538 16.2673 10.5941 16.427C10.4344 16.5867 10.2364 16.6666 10.0003 16.6666H3.33366C2.87533 16.6666 2.48296 16.5034 2.15658 16.177C1.83019 15.8506 1.66699 15.4583 1.66699 14.9999V4.99992C1.66699 4.54159 1.83019 4.14922 2.15658 3.82284C2.48296 3.49645 2.87533 3.33325 3.33366 3.33325H16.667C17.1253 3.33325 17.5177 3.49645 17.8441 3.82284C18.1705 4.14922 18.3337 4.54159 18.3337 4.99992V9.99992C18.3337 10.236 18.2538 10.4339 18.0941 10.5937C17.9344 10.7534 17.7364 10.8333 17.5003 10.8333C17.2642 10.8333 17.0663 10.7534 16.9066 10.5937C16.7469 10.4339 16.667 10.236 16.667 9.99992V4.99992ZM3.33366 4.99992V14.9999V10.8333V10.8958V4.99992ZM10.0003 9.16659L16.667 4.99992V6.66659L10.4378 10.5624C10.2989 10.6458 10.1531 10.6874 10.0003 10.6874C9.84755 10.6874 9.70172 10.6458 9.56283 10.5624L3.33366 6.66659V4.99992L10.0003 9.16659ZM15.9795 16.6666H13.3337C13.0975 16.6666 12.8996 16.5867 12.7399 16.427C12.5802 16.2673 12.5003 16.0694 12.5003 15.8333C12.5003 15.5971 12.5802 15.3992 12.7399 15.2395C12.8996 15.0798 13.0975 14.9999 13.3337 14.9999H15.9795L15.2295 14.2499C15.0628 14.0833 14.983 13.8888 14.9899 13.6666C14.9969 13.4444 15.0837 13.2499 15.2503 13.0833C15.417 12.9305 15.6114 12.8506 15.8337 12.8437C16.0559 12.8367 16.2503 12.9166 16.417 13.0833L18.5837 15.2499C18.667 15.3333 18.7295 15.4235 18.7712 15.5208C18.8128 15.618 18.8337 15.7221 18.8337 15.8333C18.8337 15.9444 18.8128 16.0485 18.7712 16.1458C18.7295 16.243 18.667 16.3333 18.5837 16.4166L16.417 18.5833C16.2642 18.736 16.0732 18.8159 15.8441 18.8228C15.6149 18.8298 15.417 18.7499 15.2503 18.5833C15.0975 18.4305 15.0212 18.236 15.0212 17.9999C15.0212 17.7638 15.0975 17.5694 15.2503 17.4166L15.9795 16.6666Z" fill="#697896"/>
</g>
</svg>
