<svg width="24" height="24" viewBox="0 0 24 24" fill="none" xmlns="http://www.w3.org/2000/svg">
<g clip-path="url(#clip0_818_51360)">
<path fill-rule="evenodd" clip-rule="evenodd" d="M11.9999 23.9999C18.6273 23.9999 23.9999 18.6273 23.9999 11.9999C23.9999 5.37256 18.6273 0 11.9999 0C5.37256 0 0 5.37256 0 11.9999C0 18.6273 5.37256 23.9999 11.9999 23.9999ZM17.7934 6.32022C18.262 6.78885 18.262 7.54865 17.7934 8.01728L13.7539 12.0568L17.7938 16.0967C18.2624 16.5653 18.2624 17.3251 17.7938 17.7938C17.3252 18.2624 16.5654 18.2624 16.0967 17.7938L12.0568 13.7539L8.0169 17.7938C7.54827 18.2624 6.78848 18.2624 6.31985 17.7938C5.85122 17.3251 5.85122 16.5653 6.31985 16.0967L10.3598 12.0568L6.32023 8.01728C5.8516 7.54865 5.8516 6.78885 6.32023 6.32022C6.78886 5.85159 7.54866 5.85159 8.01729 6.32022L12.0568 10.3597L16.0963 6.32022C16.565 5.85159 17.3248 5.85159 17.7934 6.32022Z" fill="#222222"/>
</g>
<defs>
<clipPath id="clip0_818_51360">
<rect width="24" height="24" fill="white"/>
</clipPath>
</defs>
</svg>
