<svg width="24" height="24" viewBox="0 0 24 24" fill="none" xmlns="http://www.w3.org/2000/svg">
<path d="M12.1741 9.15386C12.7264 9.15386 13.1741 9.60158 13.1741 10.1539V15.8432L15.1962 13.8211C15.5867 13.4306 16.2199 13.4306 16.6104 13.8211C17.0009 14.2116 17.0009 14.8448 16.6104 15.2353L12.8967 18.949C12.7187 19.1351 12.4695 19.2525 12.1928 19.2576L12.1738 19.2578C12.1549 19.2578 12.136 19.2572 12.1172 19.2562C11.9627 19.2475 11.8175 19.2037 11.6895 19.1327C11.6084 19.0878 11.5333 19.0315 11.4666 18.9649L7.73709 15.2353C7.34657 14.8448 7.34657 14.2116 7.73709 13.8211C8.12761 13.4306 8.76078 13.4306 9.1513 13.8211L11.1741 15.8439V10.1539C11.1741 9.60158 11.6218 9.15386 12.1741 9.15386Z" fill="#222222"/>
<path d="M8.10268 4.36241C7.55039 4.36241 7.10268 4.81012 7.10268 5.36241C7.10268 5.91469 7.55039 6.36241 8.10268 6.36241H10.8208C11.3731 6.36241 11.8208 5.91469 11.8208 5.36241C11.8208 4.81012 11.3731 4.36241 10.8208 4.36241H8.10268Z" fill="#222222"/>
<path fill-rule="evenodd" clip-rule="evenodd" d="M5.82716 0.392578C3.83692 0.392578 2.02051 1.86653 2.02051 3.92109V20.0783C2.02051 22.1329 3.83692 23.6068 5.82716 23.6068H18.5203C20.5262 23.6068 22.3269 22.1301 22.3269 20.0783V7.2208C22.3269 6.95559 22.2216 6.70123 22.034 6.51369L16.2058 0.685471C16.0183 0.497935 15.7639 0.392578 15.4987 0.392578H5.82716ZM4.02051 3.92109C4.02051 3.169 4.73261 2.39258 5.82716 2.39258H14.3871V7.54218C14.3871 8.09446 14.8349 8.54218 15.3871 8.54218H20.3269V20.0783C20.3269 20.8331 19.6244 21.6068 18.5203 21.6068H5.82716C4.73261 21.6068 4.02051 20.8304 4.02051 20.0783V3.92109ZM16.3871 6.54218V3.69521L19.2341 6.54218H16.3871Z" fill="#222222"/>
</svg>
