<svg width="24" height="24" viewBox="0 0 24 24" fill="none" xmlns="http://www.w3.org/2000/svg">
<path fill-rule="evenodd" clip-rule="evenodd" d="M12.3189 1.06656C12.0785 0.977814 11.8144 0.977814 11.574 1.06656L3.30336 4.12035C2.88104 4.27628 2.60059 4.6788 2.60059 5.12898V12.7634C2.60059 12.8117 2.60383 12.8599 2.61031 12.9077C2.9335 15.2943 5.20124 20.3197 11.5384 22.9195C11.7998 23.0268 12.0931 23.0268 12.3545 22.9195C18.6917 20.3197 20.9594 15.2943 21.2826 12.9077C21.2891 12.8599 21.2923 12.8117 21.2923 12.7634V5.12898C21.2923 4.6788 21.0119 4.27628 20.5895 4.12035L12.3189 1.06656ZM11.9545 9.73141C12.6262 9.73141 13.1053 9.207 13.1053 8.64012C13.1053 8.07323 12.6262 7.54882 11.9545 7.54882C11.2827 7.54882 10.8036 8.07323 10.8036 8.64012C10.8036 9.207 11.2827 9.73141 11.9545 9.73141ZM15.1053 8.64012C15.1053 10.0047 14.2042 11.1627 12.9538 11.5727V13.812H14.2049C14.7572 13.812 15.2049 14.2597 15.2049 14.812C15.2049 15.3643 14.7572 15.812 14.2049 15.812H12.9538V17.4724C12.9538 18.0247 12.5061 18.4724 11.9538 18.4724C11.4016 18.4724 10.9538 18.0247 10.9538 17.4724V11.5723C9.70418 11.162 8.80359 10.0042 8.80359 8.64012C8.80359 6.93284 10.2143 5.54882 11.9545 5.54882C13.6946 5.54882 15.1053 6.93284 15.1053 8.64012Z" fill="#222222"/>
</svg>
