<svg width="25" height="25" viewBox="0 0 25 25" fill="none" xmlns="http://www.w3.org/2000/svg">
<path d="M15.3801 13.8789C19.8053 13.879 23.3928 17.4664 23.3928 21.8916C23.3923 22.4987 22.9003 22.9911 22.2932 22.9912C21.6859 22.9912 21.194 22.4987 21.1935 21.8916C21.1935 18.6814 18.5902 16.0782 15.3801 16.0781H9.6203C6.41003 16.0781 3.80682 18.6813 3.80682 21.8916C3.80641 22.4987 3.31437 22.9911 2.70721 22.9912C2.09996 22.9912 1.60802 22.4988 1.6076 21.8916C1.6076 17.4663 5.19501 13.8789 9.6203 13.8789H15.3801ZM12.7844 1.16406C15.7065 1.31202 18.0305 3.72862 18.0305 6.6875L18.0226 6.97168C17.8745 9.89363 15.4589 12.2177 12.5002 12.2178L12.215 12.21C9.38757 12.0663 7.12004 9.79922 6.97675 6.97168L6.96991 6.6875C6.96991 3.63332 9.44602 1.1573 12.5002 1.15723L12.7844 1.16406ZM12.5002 3.35742C10.6611 3.3575 9.1701 4.84835 9.1701 6.6875C9.1703 8.52649 10.6612 10.0175 12.5002 10.0176C14.3392 10.0175 15.8301 8.5265 15.8303 6.6875C15.8303 4.84834 14.3393 3.35748 12.5002 3.35742Z" fill="#222222"/>
</svg>
