<svg width="24" height="24" viewBox="0 0 24 24" fill="none" xmlns="http://www.w3.org/2000/svg">
<path fill-rule="evenodd" clip-rule="evenodd" d="M20.9993 3.80035C20.9993 3.60415 20.8108 3.46299 20.6225 3.51823L7.21115 7.45289V12.1313L20.6225 16.066C20.8108 16.1212 20.9993 15.9801 20.9993 15.7838V3.80035ZM5.21115 11.8801V7.70412H3.29499C3.13261 7.70412 3.00098 7.83575 3.00098 7.99813V11.5861C3.00098 11.7484 3.13261 11.8801 3.29499 11.8801H5.21115ZM6.06749 5.70412L20.0595 1.59911C21.5284 1.16815 22.9993 2.26949 22.9993 3.80035V15.7838C22.9993 17.3147 21.5284 18.416 20.0595 17.9851L14.9306 16.4804C14.1214 18.291 12.2808 19.5414 10.1582 19.5414C7.30183 19.5414 4.94801 17.2712 4.94801 14.4241C4.94801 14.2463 4.9544 14.0643 4.96968 13.8801H3.29499C2.02804 13.8801 1.00098 12.853 1.00098 11.5861V7.99813C1.00098 6.73118 2.02804 5.70412 3.29499 5.70412H6.06749ZM6.95608 14.1408L12.9816 15.9085C12.4412 16.8747 11.3864 17.5414 10.1582 17.5414C8.36411 17.5414 6.94801 16.1248 6.94801 14.4241C6.94801 14.3262 6.95068 14.2318 6.95608 14.1408Z" fill="#222222"/>
</svg>
