<svg width="24" height="24" viewBox="0 0 24 24" fill="none" xmlns="http://www.w3.org/2000/svg">
<path d="M17.249 3.75C17.6352 3.75 18.0995 3.90915 18.4023 4.3418C18.6398 4.68094 18.75 5.1007 18.75 5.50391V18.5127C18.7449 18.7531 18.7005 18.9958 18.6152 19.2217C18.5302 19.4468 18.4014 19.6634 18.2236 19.8418C18.0447 20.0213 17.8131 20.1633 17.54 20.2217C17.2631 20.2808 16.9832 20.2449 16.7344 20.1289L16.6846 20.1055L16.6387 20.0752L15.9014 19.5898C15.4581 19.2982 14.8654 18.9089 14.2686 18.5176C13.6716 18.1262 13.0714 17.7331 12.6113 17.4346C12.381 17.2851 12.1867 17.1602 12.0469 17.0713C12.0236 17.0565 12.0022 17.0427 11.9824 17.0303L7.31543 20.1055L7.26562 20.1289C7.01683 20.2449 6.73689 20.2808 6.45996 20.2217C6.18706 20.1633 5.95548 20.0215 5.77637 19.8418C5.59839 19.6632 5.46968 19.4465 5.38477 19.2217C5.2995 18.9958 5.25515 18.7531 5.25 18.5127V5.53418C5.25006 5.1313 5.36027 4.71221 5.59766 4.37305C5.83695 4.03122 6.22988 3.75 6.72461 3.75H17.249ZM6.81543 5.25C6.78383 5.30427 6.75006 5.40374 6.75 5.53418V18.4873C6.75199 18.5526 6.76267 18.6128 6.77832 18.6631L11.3945 15.6211L11.458 15.5938C11.7914 15.4526 12.1588 15.4525 12.4922 15.5938C12.5453 15.6163 12.5935 15.6451 12.6025 15.6504L12.6035 15.6514C12.6241 15.6633 12.6475 15.6771 12.6709 15.6914C12.7183 15.7205 12.7802 15.7597 12.8525 15.8057C12.9981 15.8982 13.1964 16.0257 13.4277 16.1758C13.891 16.4763 14.4943 16.8709 15.0918 17.2627C15.6895 17.6546 16.282 18.045 16.7256 18.3369L17.2217 18.6631C17.2373 18.6128 17.248 18.5526 17.25 18.4873V5.50391C17.25 5.3952 17.2264 5.30754 17.2002 5.25H6.81543Z" fill="#292C32"/>
</svg>
