<svg width="24" height="24" viewBox="0 0 24 24" fill="none" xmlns="http://www.w3.org/2000/svg">
<path fill-rule="evenodd" clip-rule="evenodd" d="M8.07138 20.4859C6.27971 20.4859 4.76817 19.2865 4.29585 17.6469C4.24575 17.6538 4.19457 17.6575 4.14255 17.6575H2.1C1.49249 17.6575 1 17.165 1 16.5575C1 15.9499 1.49249 15.4575 2.1 15.4575H4.14255C4.19455 15.4575 4.24571 15.4611 4.29579 15.468C4.76803 13.8283 6.27962 12.6288 8.07138 12.6288C9.86308 12.6288 11.3746 13.8282 11.8469 15.4679C11.8969 15.461 11.9479 15.4574 11.9997 15.4574L21.9 15.4575C22.5075 15.4575 23 15.9499 23 16.5575C23 17.165 22.5075 17.6575 21.9 17.6575L11.9997 17.6574C11.9478 17.6574 11.8968 17.6538 11.8469 17.6468C11.3746 19.2865 9.86305 20.4859 8.07138 20.4859ZM9.79995 16.5573C9.79995 17.512 9.02604 18.2859 8.07138 18.2859C7.11671 18.2859 6.34281 17.512 6.34281 16.5573C6.34281 15.6027 7.11671 14.8288 8.07138 14.8288C9.02604 14.8288 9.79995 15.6027 9.79995 16.5573Z" fill="#222222"/>
<path fill-rule="evenodd" clip-rule="evenodd" d="M15.9285 11.0573C17.7202 11.0573 19.2317 9.85796 19.704 8.21829C19.754 8.22523 19.805 8.22882 19.8568 8.22882H21.9C22.5075 8.22882 23 7.73633 23 7.12882C23 6.52131 22.5075 6.02882 21.9 6.02882H19.8568C19.805 6.02882 19.754 6.03241 19.7041 6.03935C19.2318 4.39963 17.7202 3.2002 15.9285 3.2002C14.1368 3.2002 12.6252 4.39966 12.1529 6.03941C12.1029 6.03243 12.0517 6.02882 11.9997 6.02882H2.1C1.49249 6.02882 1 6.52131 1 7.12882C1 7.73633 1.49249 8.22882 2.1 8.22882H11.9997C12.0517 8.22882 12.1029 8.22521 12.153 8.21822C12.6253 9.85793 14.1368 11.0573 15.9285 11.0573ZM15.9285 8.85734C16.8832 8.85734 17.6571 8.08343 17.6571 7.12877C17.6571 6.1741 16.8832 5.4002 15.9285 5.4002C14.9738 5.4002 14.1999 6.1741 14.1999 7.12877C14.1999 8.08343 14.9738 8.85734 15.9285 8.85734Z" fill="#222222"/>
</svg>
