<svg width="24" height="24" viewBox="0 0 24 24" fill="none" xmlns="http://www.w3.org/2000/svg">
<rect width="24" height="24" fill="white"/>
<path d="M8.05574 10.7796C7.5637 10.7796 7.16482 11.1784 7.16482 11.6705C7.16482 12.1625 7.5637 12.5614 8.05574 12.5614H15.2825C15.7746 12.5614 16.1734 12.1625 16.1734 11.6705C16.1734 11.1784 15.7746 10.7796 15.2825 10.7796H8.05574Z" fill="#222222"/>
<path fill-rule="evenodd" clip-rule="evenodd" d="M11.6694 21.3829C14.0311 21.3829 16.1959 20.54 17.8794 19.1386L20.4371 21.6882C20.7856 22.0356 21.3497 22.0347 21.6971 21.6862C22.0445 21.3377 22.0436 20.7736 21.6951 20.4263L19.1391 17.8785C20.5396 16.1953 21.3819 14.0313 21.3819 11.6705C21.3819 6.30647 17.0335 1.95807 11.6694 1.95807C6.30542 1.95807 1.95702 6.30647 1.95702 11.6705C1.95702 17.0345 6.30542 21.3829 11.6694 21.3829ZM11.6694 3.73991C7.2895 3.73991 3.73886 7.29055 3.73886 11.6705C3.73886 16.0504 7.2895 19.6011 11.6694 19.6011C13.8521 19.6011 15.8288 18.7193 17.2628 17.2927L17.2759 17.2792L17.2915 17.264C18.7182 15.8299 19.6 13.8532 19.6 11.6705C19.6 7.29055 16.0494 3.73991 11.6694 3.73991Z" fill="#222222"/>
</svg>
