<svg width="24" height="24" viewBox="0 0 24 24" fill="none" xmlns="http://www.w3.org/2000/svg">
<path d="M6.53378 1.02832C7.14918 1.02832 7.64807 1.5272 7.64807 2.14261V3.78229H16.5213V2.14261C16.5213 1.5272 17.0202 1.02832 17.6356 1.02832C18.251 1.02832 18.7499 1.5272 18.7499 2.14261V3.78229H19.7726C21.1041 3.78229 22.1835 4.86171 22.1835 6.19324V6.64602C22.1835 7.26142 21.6846 7.76031 21.0692 7.76031C20.4538 7.76031 19.9549 7.26142 19.9549 6.64602V6.19324C19.9549 6.09251 19.8733 6.01086 19.7726 6.01086H4.22735C4.12663 6.01086 4.04498 6.09251 4.04498 6.19323V19.723C4.04498 19.8225 4.12649 19.9054 4.22853 19.9054L8.42617 19.9054C9.04157 19.9054 9.54046 20.4043 9.54046 21.0197C9.54046 21.6351 9.04157 22.134 8.42617 22.134L4.22853 22.134C2.89831 22.134 1.81641 21.0559 1.81641 19.723V6.19323C1.81641 4.8617 2.89583 3.78229 4.22735 3.78229H5.41949V2.14261C5.41949 1.5272 5.91838 1.02832 6.53378 1.02832Z" fill="#222222"/>
<path d="M18.0663 9.76297C18.0663 9.14756 17.5674 8.64868 16.952 8.64868C16.3366 8.64868 15.8377 9.14756 15.8377 9.76297V14.3023C15.8377 14.9177 16.3366 15.4166 16.952 15.4166C17.5674 15.4166 18.0663 14.9177 18.0663 14.3023V9.76297Z" fill="#222222"/>
<path d="M13.888 13.3236C14.3232 12.8884 14.3232 12.1829 13.888 11.7478C13.4529 11.3126 12.7474 11.3126 12.3122 11.7478C11.0817 12.9783 10.3904 14.6473 10.3904 16.3875C10.3904 18.1278 11.0817 19.7968 12.3122 21.0273C13.5427 22.2578 15.2117 22.9492 16.952 22.9492C18.6922 22.9492 20.3612 22.2578 21.5917 21.0273C22.8223 19.7968 23.5136 18.1278 23.5136 16.3875C23.5136 14.6473 22.8223 12.9783 21.5917 11.7478C21.1566 11.3126 20.4511 11.3126 20.0159 11.7478C19.5807 12.1829 19.5807 12.8884 20.0159 13.3236C20.8285 14.1362 21.285 15.2383 21.285 16.3875C21.285 17.5367 20.8285 18.6389 20.0159 19.4515C19.2033 20.2641 18.1012 20.7206 16.952 20.7206C15.8028 20.7206 14.7006 20.2641 13.888 19.4515C13.0754 18.6389 12.6189 17.5367 12.6189 16.3875C12.6189 15.2383 13.0754 14.1362 13.888 13.3236Z" fill="#222222"/>
</svg>
