<svg width="24" height="24" viewBox="0 0 24 24" fill="none" xmlns="http://www.w3.org/2000/svg">
<g clip-path="url(#clip0_818_51346)">
<path fill-rule="evenodd" clip-rule="evenodd" d="M23.1048 12.0002C23.1048 18.1331 18.1331 23.1048 12.0002 23.1048C5.86723 23.1048 0.895508 18.1331 0.895508 12.0002C0.895508 5.86723 5.86723 0.895508 12.0002 0.895508C18.1331 0.895508 23.1048 5.86723 23.1048 12.0002ZM17.2416 18.9429C15.784 20.0451 13.9684 20.6988 12.0002 20.6988C7.19603 20.6988 3.30152 16.8043 3.30152 12.0002C3.30152 10.0319 3.95523 8.21632 5.05739 6.7587L17.2416 18.9429ZM18.9429 17.2416L6.7587 5.05739C8.21632 3.95523 10.0319 3.30152 12.0002 3.30152C16.8043 3.30152 20.6988 7.19603 20.6988 12.0002C20.6988 13.9684 20.0451 15.784 18.9429 17.2416Z" fill="#222222"/>
</g>
<defs>
<clipPath id="clip0_818_51346">
<rect width="24" height="24" fill="white"/>
</clipPath>
</defs>
</svg>
