<svg width="24" height="24" viewBox="0 0 24 24" fill="none" xmlns="http://www.w3.org/2000/svg">
<g clip-path="url(#clip0_818_51166)">
<path fill-rule="evenodd" clip-rule="evenodd" d="M24 12C24 18.6274 18.6274 24 12 24C5.37258 24 0 18.6274 0 12C0 5.37258 5.37258 0 12 0C18.6274 0 24 5.37258 24 12ZM17.6641 19.5025C16.0889 20.6936 14.127 21.4 12 21.4C6.80852 21.4 2.6 17.1915 2.6 12C2.6 9.87304 3.30643 7.91107 4.49745 6.33593L17.6641 19.5025ZM19.5025 17.6641L6.33593 4.49745C7.91107 3.30643 9.87304 2.6 12 2.6C17.1915 2.6 21.4 6.80852 21.4 12C21.4 14.127 20.6936 16.0889 19.5025 17.6641Z" fill="#222222"/>
</g>
<defs>
<clipPath id="clip0_818_51166">
<rect width="24" height="24" fill="white"/>
</clipPath>
</defs>
</svg>
