<svg width="24" height="24" viewBox="0 0 24 24" fill="none" xmlns="http://www.w3.org/2000/svg">
<path d="M1.98232 11.081C1.47464 11.5886 1.47464 12.4118 1.98232 12.9194L9.98232 20.9194C10.49 21.4271 11.3131 21.4271 11.8208 20.9194C12.3285 20.4118 12.3285 19.5886 11.8208 19.081L4.74004 12.0002L11.8208 4.91943C12.3285 4.41175 12.3285 3.58864 11.8208 3.08096C11.3131 2.57327 10.49 2.57327 9.98232 3.08096L1.98232 11.081Z" fill="#222222"/>
<path d="M19.3339 3.08096L11.3339 11.081C10.8262 11.5886 10.8262 12.4118 11.3339 12.9194L19.3339 20.9194C19.8416 21.4271 20.6647 21.4271 21.1724 20.9194C21.68 20.4118 21.68 19.5886 21.1724 19.081L14.0916 12.0002L21.1724 4.91943C21.68 4.41175 21.68 3.58864 21.1724 3.08096C20.6647 2.57327 19.8416 2.57327 19.3339 3.08096Z" fill="#222222"/>
</svg>
