<svg width="24" height="24" viewBox="0 0 24 24" fill="none" xmlns="http://www.w3.org/2000/svg">
<path d="M6.16957 0.71582C3.93905 0.71582 2.13086 2.52402 2.13086 4.75453V14.4995C2.13086 16.5077 3.75882 18.1356 5.76701 18.1356V15.7356C5.0843 15.7356 4.53086 15.1822 4.53086 14.4995V4.75453C4.53086 3.8495 5.26454 3.11582 6.16957 3.11582H12.7019C13.2069 3.11582 13.6164 3.52525 13.6164 4.0303C13.6164 4.69304 14.1536 5.2303 14.8164 5.2303C15.4791 5.2303 16.0164 4.69304 16.0164 4.0303C16.0164 2.19976 14.5324 0.71582 12.7019 0.71582H6.16957Z" fill="#222222"/>
<path fill-rule="evenodd" clip-rule="evenodd" d="M12.3596 6.05907C10.1291 6.05907 8.3209 7.86726 8.3209 10.0978V19.4402C8.3209 21.6707 10.1291 23.4789 12.3596 23.4789H18.1677C20.3982 23.4789 22.2064 21.6707 22.2064 19.4402V10.0978C22.2064 7.86726 20.3982 6.05907 18.1677 6.05907H12.3596ZM10.7209 10.0978C10.7209 9.19275 11.4546 8.45907 12.3596 8.45907H18.1677C19.0727 8.45907 19.8064 9.19275 19.8064 10.0978V19.4402C19.8064 20.3452 19.0727 21.0789 18.1677 21.0789H12.3596C11.4546 21.0789 10.7209 20.3452 10.7209 19.4402V10.0978Z" fill="#222222"/>
</svg>
