<svg width="24" height="24" viewBox="0 0 24 24" fill="none" xmlns="http://www.w3.org/2000/svg">
<path d="M15.9987 21.1119C16.4239 21.199 16.7446 21.5751 16.7448 22.026C16.7448 22.477 16.4239 22.853 15.9987 22.9401L15.8112 22.9596H8.1901C7.67464 22.9596 7.25651 22.5415 7.25651 22.026C7.25669 21.5107 7.67475 21.0924 8.1901 21.0924H15.8112L15.9987 21.1119Z" fill="#222222"/>
<path fill-rule="evenodd" clip-rule="evenodd" d="M18.0977 2.44006C18.7999 2.44006 19.3586 2.43973 19.8086 2.47652C20.265 2.51384 20.6563 2.5929 21.0156 2.776C21.5933 3.0704 22.0657 3.53958 22.3607 4.11845C22.5435 4.4775 22.6216 4.86958 22.6589 5.32548C22.6956 5.77526 22.6953 6.33421 22.6953 7.03512V14.1549C22.6953 14.8559 22.6956 15.415 22.6589 15.8645C22.6216 16.32 22.5434 16.7114 22.3607 17.0703C22.066 17.6485 21.5939 18.1207 21.0156 18.4153C20.6567 18.5981 20.2655 18.6762 19.8099 18.7135C19.3603 18.7503 18.8014 18.75 18.1003 18.75H5.89974C5.19868 18.75 4.63994 18.7502 4.1901 18.7135C3.73415 18.6762 3.34216 18.5982 2.98307 18.4153C2.40424 18.1204 1.93503 17.6479 1.64063 17.0703C1.45756 16.711 1.37847 16.3195 1.34115 15.8632C1.30436 15.4133 1.30469 14.8544 1.30469 14.1523V7.03902C1.30469 6.33675 1.3044 5.77717 1.34115 5.32678C1.37844 4.87021 1.45757 4.47783 1.64063 4.11845C1.93525 3.54035 2.40499 3.07066 2.98307 2.776C3.34252 2.59285 3.73474 2.51382 4.19141 2.47652C4.64185 2.43975 5.20121 2.44006 5.90365 2.44006H18.0977ZM6.375 5.84111C5.48949 5.84128 4.77214 6.55972 4.77214 7.44527C4.7724 8.3306 5.48965 9.04796 6.375 9.04814C7.2605 9.04814 7.9789 8.33071 7.97917 7.44527C7.97917 6.55961 7.26066 5.84111 6.375 5.84111Z" fill="#222222"/>
</svg>
