<svg width="24" height="24" viewBox="0 0 24 24" fill="none" xmlns="http://www.w3.org/2000/svg">
<path d="M11.2005 2.6601C14.009 -0.148419 18.5626 -0.14842 21.3711 2.6601C24.1796 5.46863 24.1796 10.0221 21.3711 12.8307L18.9408 15.2609C18.4722 15.7295 17.7124 15.7295 17.2438 15.2609C16.7751 14.7923 16.7751 14.0325 17.2438 13.5639L19.674 11.1336C21.5453 9.26234 21.5453 6.22842 19.674 4.35716C17.8028 2.4859 14.7688 2.4859 12.8976 4.35716L10.4673 6.78741C9.99869 7.25604 9.23889 7.25604 8.77026 6.78741C8.30163 6.31878 8.30163 5.55899 8.77026 5.09036L11.2005 2.6601Z" fill="#222222"/>
<path d="M2.727 11.1334C-0.0815246 13.942 -0.0815258 18.4955 2.727 21.304C5.53552 24.1125 10.089 24.1125 12.8976 21.304L15.3278 18.8737C15.7964 18.4051 15.7964 17.6453 15.3278 17.1767C14.8592 16.7081 14.0994 16.7081 13.6308 17.1767L11.2005 19.6069C9.32924 21.4782 6.29532 21.4782 4.42405 19.6069C2.55279 17.7357 2.55279 14.7018 4.42405 12.8305L6.85431 10.4002C7.32294 9.93161 7.32294 9.17181 6.85431 8.70318C6.38568 8.23455 5.62588 8.23455 5.15725 8.70318L2.727 11.1334Z" fill="#222222"/>
<path d="M15.7687 9.95982C16.2374 9.49119 16.2374 8.7314 15.7687 8.26277C15.3001 7.79414 14.5403 7.79414 14.0717 8.26277L8.33043 14.004C7.8618 14.4726 7.8618 15.2324 8.33043 15.7011C8.79906 16.1697 9.55886 16.1697 10.0275 15.7011L15.7687 9.95982Z" fill="#222222"/>
</svg>
