<svg width="24" height="24" viewBox="0 0 24 24" fill="none" xmlns="http://www.w3.org/2000/svg">
<path d="M6.5335 1.03223C7.1489 1.03223 7.64778 1.53111 7.64778 2.14651V3.78632H16.5212V2.14651C16.5212 1.53111 17.02 1.03223 17.6354 1.03223C18.2508 1.03223 18.7497 1.53111 18.7497 2.14651V3.78632H19.7726C21.1041 3.78632 22.1835 4.86574 22.1835 6.19726V6.65103C22.1835 7.26644 21.6846 7.76532 21.0692 7.76532C20.4538 7.76532 19.9549 7.26644 19.9549 6.65103V6.19726C19.9549 6.09654 19.8733 6.01489 19.7726 6.01489H4.22735C4.12663 6.01489 4.04498 6.09654 4.04498 6.19726V19.7271C4.04498 19.8273 4.12658 19.9094 4.22781 19.9094H7.80188C8.41729 19.9094 8.91617 20.4083 8.91617 21.0237C8.91617 21.6391 8.41729 22.138 7.80188 22.138H4.22781C2.89679 22.138 1.81641 21.0591 1.81641 19.7271V6.19726C1.81641 4.86573 2.89583 3.78632 4.22735 3.78632H5.41921V2.14651C5.41921 1.53111 5.9181 1.03223 6.5335 1.03223Z" fill="#222222"/>
<path fill-rule="evenodd" clip-rule="evenodd" d="M12.6973 9.28302C12.0819 9.28302 11.583 9.7819 11.583 10.3973V12.7872C11.5833 13.5522 12.0277 14.1532 12.5588 14.5165L14.9098 16.125L12.5587 17.7335C12.0275 18.0968 11.5833 18.698 11.583 19.463V21.8526C11.583 22.468 12.0819 22.9669 12.6973 22.9669H21.069C21.6844 22.9669 22.1833 22.468 22.1833 21.8526L22.1833 19.4627C22.183 18.6977 21.7386 18.0967 21.2075 17.7334L18.8565 16.125L21.2076 14.5164C21.7388 14.1531 22.183 13.5519 22.1833 12.7869V10.3973C22.1833 9.7819 21.6844 9.28302 21.069 9.28302H12.6973ZM19.9492 12.6771L16.8832 14.7748L13.817 12.677L13.8116 12.6733V11.5116H19.9547V12.6733L19.9492 12.6771ZM13.8171 19.5728L16.8832 17.4751L19.9494 19.5729L19.9547 19.5766V20.7383H13.8116V19.5766L13.8171 19.5728Z" fill="#222222"/>
</svg>
