<svg width="24" height="24" viewBox="0 0 24 24" fill="none" xmlns="http://www.w3.org/2000/svg">
<path fill-rule="evenodd" clip-rule="evenodd" d="M17.2525 6.25199C17.2526 6.94177 17.1168 7.6248 16.8529 8.26209C16.589 8.89938 16.2022 9.47846 15.7145 9.96625C15.2268 10.454 14.6478 10.841 14.0106 11.105C13.3733 11.3691 12.6903 11.505 12.0005 11.5051C10.6075 11.5052 9.27142 10.9519 8.28628 9.96701C7.30114 8.98207 6.74761 7.64612 6.74747 6.25307C6.7474 5.56329 6.88319 4.88026 7.14709 4.24297C7.41099 3.60568 7.79783 3.0266 8.28552 2.53881C9.27046 1.55367 10.6064 1.00014 11.9995 1C13.3925 0.999858 14.7286 1.55311 15.7137 2.53805C16.6989 3.52299 17.2524 4.85894 17.2525 6.25199ZM12 13.1119C4.43614 13.1119 1.49387 17.9256 1.49387 20.165C1.49387 22.4034 7.7572 23 12 23C16.2428 23 22.5061 22.4034 22.5061 20.165C22.5061 17.9256 19.5639 13.1119 12 13.1119Z" fill="#222222"/>
</svg>
