<svg width="24" height="24" viewBox="0 0 24 24" fill="none" xmlns="http://www.w3.org/2000/svg">
<path fill-rule="evenodd" clip-rule="evenodd" d="M7.0853 1.17773C7.74804 1.17773 8.2853 1.71499 8.2853 2.37773V4.83498H15.7146V2.37773C15.7146 1.71499 16.2518 1.17773 16.9146 1.17773C17.5773 1.17773 18.1146 1.71499 18.1146 2.37773V4.83498H19.3719C21.1814 4.83498 22.6483 6.30189 22.6483 8.1114V19.5789C22.6483 21.3884 21.1814 22.8553 19.3719 22.8553H4.62798C2.81846 22.8553 1.35156 21.3884 1.35156 19.5789V8.1114C1.35156 6.30189 2.81847 4.83498 4.62798 4.83498H5.8853V2.37773C5.8853 1.71499 6.42256 1.17773 7.0853 1.17773ZM17.1189 10.1595C17.5485 10.5891 17.5485 11.2856 17.1189 11.7152L11.9586 16.8755C11.7523 17.0818 11.4725 17.1977 11.1808 17.1977C10.889 17.1977 10.6092 17.0818 10.4029 16.8755L7.45417 13.9267C7.02459 13.4972 7.02459 12.8007 7.45417 12.3711C7.88375 11.9415 8.58023 11.9415 9.00981 12.3711L11.1808 14.5421L15.5633 10.1595C15.9929 9.72995 16.6894 9.72995 17.1189 10.1595Z" fill="#222222"/>
</svg>
