<svg width="24" height="24" viewBox="0 0 24 24" fill="none" xmlns="http://www.w3.org/2000/svg">
<path fill-rule="evenodd" clip-rule="evenodd" d="M12 22C17.5228 22 22 17.5228 22 12C22 6.47715 17.5228 2 12 2C6.47715 2 2 6.47715 2 12C2 17.5228 6.47715 22 12 22ZM16.8942 7.10581C16.5351 6.74671 15.9529 6.74671 15.5938 7.10581L12 10.6996L8.40622 7.10581C8.04712 6.74671 7.46491 6.74671 7.10581 7.10581C6.74671 7.46491 6.74671 8.04712 7.10581 8.40622L10.6996 12L7.10581 15.5938C6.74671 15.9529 6.74671 16.5351 7.10581 16.8942C7.46491 17.2533 8.04712 17.2533 8.40622 16.8942L12 13.3004L15.5938 16.8942C15.9529 17.2533 16.5351 17.2533 16.8942 16.8942C17.2533 16.5351 17.2533 15.9529 16.8942 15.5938L13.3004 12L16.8942 8.40622C17.2533 8.04712 17.2533 7.46491 16.8942 7.10581Z" fill="#222222"/>
</svg>
