<svg width="24" height="24" viewBox="0 0 24 24" fill="none" xmlns="http://www.w3.org/2000/svg">
<path fill-rule="evenodd" clip-rule="evenodd" d="M12 4.19935L3.10347 19.6086H20.8965L12 4.19935ZM13.2707 2.73366C12.706 1.75545 11.294 1.75545 10.7293 2.73366L1.19877 19.241C0.634002 20.2192 1.33997 21.4419 2.46951 21.4419H21.5305C22.66 21.4419 23.366 20.2192 22.8012 19.241L13.2707 2.73366Z" fill="#222222"/>
<path fill-rule="evenodd" clip-rule="evenodd" d="M11.3307 14.6776H12.9955L13.1646 8.60001H11.1617L11.3307 14.6776ZM11.0836 17.1264C11.0793 16.9466 11.1248 16.7808 11.2202 16.6289C11.3199 16.4731 11.4543 16.3512 11.6234 16.2633C11.7924 16.1754 11.9767 16.1315 12.1761 16.1315C12.3669 16.1315 12.5446 16.1754 12.7094 16.2633C12.8741 16.3512 13.0063 16.4731 13.106 16.6289C13.2057 16.7808 13.2556 16.9466 13.2556 17.1264C13.2556 17.3102 13.2057 17.48 13.106 17.6359C13.0063 17.7877 12.8741 17.9096 12.7094 18.0015C12.5446 18.0894 12.3669 18.1333 12.1761 18.1333C11.9767 18.1333 11.7924 18.0894 11.6234 18.0015C11.4543 17.9096 11.3199 17.7877 11.2202 17.6359C11.1248 17.48 11.0793 17.3102 11.0836 17.1264Z" fill="#222222"/>
</svg>
