<svg width="24" height="24" viewBox="0 0 24 24" fill="none" xmlns="http://www.w3.org/2000/svg">
<path fill-rule="evenodd" clip-rule="evenodd" d="M9.54343 10.4574C12.3206 10.4574 14.5719 8.20607 14.5719 5.4289C14.5719 2.65173 12.3206 0.400391 9.54343 0.400391C6.76627 0.400391 4.51493 2.65173 4.51493 5.4289C4.51493 8.20607 6.76627 10.4574 9.54343 10.4574ZM9.54343 8.45741C11.216 8.45741 12.5719 7.1015 12.5719 5.4289C12.5719 3.7563 11.216 2.40039 9.54343 2.40039C7.87084 2.40039 6.51493 3.7563 6.51493 5.4289C6.51493 7.1015 7.87084 8.45741 9.54343 8.45741Z" fill="#222222"/>
<path d="M5.163 14.5787C4.09132 15.4696 3.34639 16.7386 2.97038 18.2427C2.83643 18.7785 2.2935 19.1043 1.7577 18.9703C1.22191 18.8364 0.896145 18.2934 1.03009 17.7576C1.49216 15.9094 2.43575 14.2451 3.88448 13.0408C5.34054 11.8303 7.24867 11.1336 9.543 11.1336C11.6901 11.1336 13.501 11.7437 14.9206 12.8179C15.361 13.1512 15.4479 13.7783 15.1146 14.2187C14.7814 14.6592 14.1542 14.746 13.7138 14.4128C12.6742 13.6261 11.2972 13.1336 9.543 13.1336C7.67157 13.1336 6.22736 13.6939 5.163 14.5787Z" fill="#222222"/>
<path d="M22.7407 12.0968L21.7232 11.0936C21.6589 11.0251 21.5812 10.9705 21.4949 10.9331C21.4087 10.8958 21.3157 10.8766 21.2217 10.8766C21.1277 10.8766 21.0346 10.8958 20.9484 10.9331C20.8621 10.9705 20.7844 11.0251 20.7201 11.0936L11.0271 20.7846C10.7405 21.0569 10.0669 22.7908 10.5542 23.278C11.0414 23.7652 12.7753 23.0774 13.0476 22.8051L22.7407 13.1142C22.8078 13.0476 22.8611 12.9684 22.8975 12.881C22.9338 12.7937 22.9526 12.7001 22.9526 12.6055C22.9526 12.5109 22.9338 12.4172 22.8975 12.3299C22.8611 12.2426 22.8078 12.1634 22.7407 12.0968Z" fill="#222222"/>
</svg>
