<svg width="24" height="24" viewBox="0 0 24 24" fill="none" xmlns="http://www.w3.org/2000/svg">
<g clip-path="url(#clip0_818_51300)">
<path fill-rule="evenodd" clip-rule="evenodd" d="M21.3157 2.68445C20.1725 1.54387 18.6236 0.90332 17.0087 0.90332C15.3939 0.90332 13.8449 1.54387 12.7017 2.68445L10.6487 4.73645C10.4547 4.94524 10.3493 5.22113 10.3545 5.50609C10.3597 5.79104 10.4753 6.06287 10.6768 6.2644C10.8783 6.46593 11.1501 6.58146 11.4351 6.58669C11.7201 6.59192 11.9959 6.48645 12.2047 6.29245L14.2577 4.24045C14.9879 3.51194 15.9773 3.10281 17.0087 3.10281C18.0402 3.10281 19.0295 3.51194 19.7597 4.24045C20.1222 4.60083 20.4096 5.02954 20.6053 5.50175C20.801 5.97397 20.9011 6.4803 20.8997 6.99145C20.9011 7.50261 20.8011 8.00896 20.6054 8.48118C20.4097 8.9534 20.1223 9.3821 19.7597 9.74245L16.1587 13.3435C14.6897 14.8135 12.1267 14.8135 10.6567 13.3435C10.4134 13.1009 10.2032 12.8272 10.0317 12.5295C9.88639 12.2764 9.6465 12.0915 9.36482 12.0154C9.08314 11.9392 8.78275 11.9781 8.52973 12.1235C8.27672 12.2688 8.0918 12.5087 8.01566 12.7904C7.93952 13.072 7.97839 13.3724 8.12373 13.6255C8.39073 14.0885 8.71873 14.5175 9.10073 14.8995C9.66512 15.4667 10.3364 15.9164 11.0756 16.2226C11.8149 16.5289 12.6076 16.6855 13.4077 16.6835C14.2079 16.6856 15.0006 16.529 15.7399 16.2228C16.4792 15.9166 17.1504 15.4668 17.7147 14.8995L21.3157 11.2995C21.8832 10.7348 22.3331 10.0633 22.6393 9.32363C22.9455 8.584 23.102 7.79097 23.0997 6.99045C23.1019 6.19025 22.9453 5.39757 22.6391 4.65828C22.3329 3.91899 21.8831 3.24777 21.3157 2.68345" fill="#222222"/>
<path fill-rule="evenodd" clip-rule="evenodd" d="M11.7949 17.7084L9.74192 19.7614C9.01147 20.4894 8.02222 20.8982 6.99092 20.8982C5.95962 20.8982 4.97037 20.4894 4.23992 19.7614C3.87765 19.4009 3.5904 18.9721 3.39473 18.5C3.19906 18.0278 3.09887 17.5215 3.09992 17.0104C3.09992 15.9714 3.50492 14.9944 4.23992 14.2604L7.84092 10.6584C8.26388 10.2363 8.77828 9.91724 9.34432 9.7258C9.91035 9.53437 10.5128 9.47573 11.1052 9.55442C11.6975 9.63311 12.2638 9.84703 12.7602 10.1796C13.2566 10.5122 13.6698 10.9545 13.9679 11.4724C14.0399 11.5977 14.1358 11.7076 14.2503 11.7958C14.3647 11.884 14.4954 11.9488 14.6348 11.9865C14.7743 12.0242 14.9198 12.0341 15.0631 12.0155C15.2064 11.997 15.3446 11.9504 15.4699 11.8784C15.5952 11.8065 15.7051 11.7105 15.7933 11.5961C15.8815 11.4817 15.9463 11.351 15.984 11.2115C16.0217 11.072 16.0316 10.9265 16.013 10.7832C15.9945 10.6399 15.9479 10.5017 15.8759 10.3764C15.409 9.56608 14.762 8.87397 13.9849 8.35359C13.2079 7.83322 12.3215 7.49852 11.3944 7.37537C10.4674 7.25223 9.52438 7.34393 8.6384 7.6434C7.75242 7.94286 6.94718 8.44207 6.28492 9.10242L2.68392 12.7034C2.11668 13.2678 1.66694 13.939 1.36073 14.6783C1.05451 15.4176 0.897892 16.2102 0.899922 17.0104C0.899922 18.6374 1.53392 20.1674 2.68392 21.3174C3.24895 21.8836 3.92037 22.3324 4.65955 22.6381C5.39872 22.9437 6.19105 23.1002 6.99092 23.0984C8.55092 23.0984 10.1099 22.5044 11.2979 21.3184L13.3509 19.2654C13.5449 19.0566 13.6504 18.7807 13.6452 18.4958C13.6399 18.2108 13.5244 17.939 13.3229 17.7375C13.1213 17.5359 12.8495 17.4204 12.5646 17.4152C12.2796 17.4099 12.0037 17.5154 11.7949 17.7094" fill="#222222"/>
</g>
<defs>
<clipPath id="clip0_818_51300">
<rect width="24" height="24" fill="white"/>
</clipPath>
</defs>
</svg>
