<svg width="24" height="24" viewBox="0 0 24 24" fill="none" xmlns="http://www.w3.org/2000/svg">
<path d="M4.18733 9.34553C3.89157 9.1388 3.49485 9.39851 3.56602 9.75227L5.52801 19.5046C5.63042 20.0137 6.09563 20.367 6.61352 20.3291L11.9403 19.9388C11.9904 19.9351 12.0407 19.9351 12.0909 19.9388L17.4176 20.3291C17.9355 20.367 18.4007 20.0137 18.5031 19.5046L20.4651 9.7522C20.5363 9.39845 20.1396 9.13874 19.8438 9.34545L15.8138 12.162C15.6136 12.302 15.3358 12.2313 15.2268 12.0127L12.3735 6.29186C12.2262 5.99657 11.8049 5.99656 11.6576 6.29183L8.8038 12.0127C8.69475 12.2313 8.41693 12.302 8.2167 12.162L4.18733 9.34553Z" fill="#222222"/>
<circle cx="12.0223" cy="3.61797" r="1.2" fill="#222222"/>
<circle cx="21.1224" cy="7.35723" r="1.2" fill="#222222"/>
<circle cx="2.87773" cy="7.35723" r="1.2" fill="#222222"/>
</svg>
