<svg width="24" height="24" viewBox="0 0 24 24" fill="none" xmlns="http://www.w3.org/2000/svg">
<path fill-rule="evenodd" clip-rule="evenodd" d="M15.371 17.9047C15.371 18.1739 15.2641 18.432 15.0738 18.6224C14.8834 18.8127 14.6253 18.9196 14.3561 18.9196C14.0869 18.9196 13.8288 18.8127 13.6384 18.6224C13.4481 18.432 13.3412 18.1739 13.3412 17.9047V12.2594C13.3412 11.9902 13.4481 11.732 13.6384 11.5417C13.8288 11.3514 14.0869 11.2444 14.3561 11.2444C14.6253 11.2444 14.8834 11.3514 15.0738 11.5417C15.2641 11.732 15.371 11.9902 15.371 12.2594V17.9047ZM10.7102 17.9047C10.7102 18.1739 10.6033 18.432 10.4129 18.6224C10.2226 18.8127 9.96444 18.9196 9.69526 18.9196C9.42608 18.9196 9.16793 18.8127 8.97759 18.6224C8.78725 18.432 8.68032 18.1739 8.68032 17.9047V12.2594C8.68032 11.9902 8.78725 11.732 8.97759 11.5417C9.16793 11.3514 9.42608 11.2444 9.69526 11.2444C9.96444 11.2444 10.2226 11.3514 10.4129 11.5417C10.6033 11.732 10.7102 11.9902 10.7102 12.2594V17.9047ZM8.56304 3.38314C8.56304 3.08405 8.68185 2.79721 8.89334 2.58573C9.10482 2.37424 9.39166 2.25543 9.69075 2.25543H14.364C14.9854 2.25543 15.4917 2.76064 15.4917 3.38314V4.44432H8.56304V3.38314ZM21.2724 4.44432H17.7471V3.38314C17.7471 1.5179 16.2304 0 14.364 0H9.69075C7.82551 0 6.30761 1.5179 6.30761 3.38314V4.44432H2.55345C2.19455 4.44432 1.85034 4.58689 1.59655 4.84068C1.34277 5.09446 1.2002 5.43867 1.2002 5.79757V6.4742C1.2002 6.83311 1.34277 7.17731 1.59655 7.4311C1.85034 7.68488 2.19455 7.82746 2.55345 7.82746H2.70118L3.23346 21.4006C3.26115 22.0995 3.55832 22.7605 4.06268 23.2451C4.56704 23.7297 5.23941 24.0003 5.93885 24H18.1136C18.8129 24.0002 19.485 23.7296 19.989 23.245C20.493 22.7603 20.7897 22.0993 20.8168 21.4006L21.3513 7.81167C21.6946 7.79408 22.0181 7.64565 22.2553 7.39689C22.4926 7.14813 22.6255 6.81794 22.6268 6.4742V5.79757C22.6268 5.05103 22.02 4.44432 21.2724 4.44432Z" fill="#222222"/>
</svg>
