<svg width="24" height="24" viewBox="0 0 24 24" fill="none" xmlns="http://www.w3.org/2000/svg">
<g clip-path="url(#clip0_818_51474)">
<path d="M14.7017 21.3328C14.2217 22.8794 12.7817 23.9998 11.0751 24C9.36823 24 7.92682 22.8796 7.44677 21.3328H14.7017Z" fill="#222222"/>
<path d="M17.4962 7.48765C18.0638 7.48799 18.5238 7.94808 18.5242 8.5157V9.37798H19.2693C19.8373 9.37813 20.2973 9.838 20.2973 10.406C20.2971 10.9739 19.8372 11.4339 19.2693 11.4341H17.4962C16.9283 11.4339 16.4667 10.9739 16.4664 10.406V8.5157C16.4668 7.94798 16.9284 7.48782 17.4962 7.48765Z" fill="#222222"/>
<path fill-rule="evenodd" clip-rule="evenodd" d="M11.0734 0C11.6413 0 12.1011 0.460215 12.1014 1.02805V2.76769C12.9587 2.90278 13.7724 3.20584 14.4907 3.67183L14.9076 3.96986L14.9093 3.97154C15.1107 4.12976 15.2988 4.29897 15.4786 4.47384C16.1208 4.24759 16.8024 4.12896 17.4962 4.12892C19.1051 4.12909 20.6481 4.76774 21.7858 5.9054C22.9237 7.04334 23.564 8.58747 23.564 10.1967C23.5637 11.8057 22.9235 13.3487 21.7858 14.4864C21.4811 14.7911 21.1459 15.0578 20.7896 15.2884C21.1595 15.6689 21.4221 16.1488 21.5062 16.6898H21.5096C21.5106 16.6958 21.5102 16.7023 21.5112 16.7082C21.5123 16.7155 21.5153 16.7227 21.5163 16.73H21.5129C21.6477 17.5587 21.3716 18.3749 20.7795 18.9669C20.2023 19.5439 19.4022 19.8543 18.5945 19.8543H4.60039V19.8727H3.57067C2.76305 19.8725 1.96278 19.5624 1.38566 18.9853C0.797015 18.3967 0.485627 17.5489 0.638904 16.6898C0.792821 15.828 1.40302 15.1059 2.16255 14.7007L2.17427 14.694C2.61133 14.4684 3.23931 14.0409 3.7582 13.2658C4.33008 12.3937 4.6566 11.2043 4.64058 9.69946V9.69611C4.62051 7.32025 5.48161 5.34642 7.23916 3.96986C8.0439 3.3313 9.01734 2.92559 10.0454 2.76434V1.02805C10.0457 0.460456 10.5058 0.000390292 11.0734 0ZM11.0734 4.74173C10.0922 4.74197 9.18651 5.05121 8.515 5.5856L8.50831 5.59062C7.31559 6.52485 6.68362 7.85782 6.69834 9.67601L6.68662 10.3441C6.6139 11.8782 6.22485 13.2599 5.4811 14.3943L5.47607 14.401C4.72043 15.5343 3.79334 16.1716 3.13032 16.5157C2.82373 16.6794 2.68703 16.9179 2.66318 17.0515C2.639 17.1879 2.68283 17.3725 2.84066 17.5303C2.97465 17.6643 3.17033 17.7621 3.39152 17.7982H18.5945C18.8887 17.7982 19.1568 17.6812 19.3262 17.5119C19.4709 17.367 19.5125 17.2045 19.4853 17.0515L19.4786 17.0113C19.4621 16.8921 19.3489 16.6772 19.0533 16.5341L19.0416 16.5291L19.0299 16.5224C18.8563 16.4328 18.6622 16.3213 18.4556 16.1859C18.1403 16.2364 17.8196 16.2645 17.4962 16.2645C15.887 16.2645 14.3427 15.6242 13.2048 14.4864C12.0673 13.3487 11.4286 11.8056 11.4284 10.1967C11.4284 8.58761 12.0671 7.04331 13.2048 5.9054C13.3279 5.78236 13.4562 5.66497 13.5883 5.55379L13.3706 5.39807C12.719 4.97556 11.9269 4.74173 11.0734 4.74173ZM17.4962 6.18501C16.4326 6.1851 15.4119 6.60837 14.6598 7.3604C13.908 8.11247 13.4844 9.13327 13.4844 10.1967C13.4847 11.2599 13.9081 12.2796 14.6598 13.0314C15.4119 13.7834 16.4327 14.2067 17.4962 14.2068C18.5594 14.2066 19.5789 13.7831 20.3308 13.0314C21.0827 12.2795 21.5059 11.26 21.5062 10.1967C21.5062 9.13313 21.0829 8.1125 20.3308 7.3604C19.5789 6.60858 18.5595 6.18518 17.4962 6.18501Z" fill="#222222"/>
</g>
<defs>
<clipPath id="clip0_818_51474">
<rect width="24" height="24" fill="white"/>
</clipPath>
</defs>
</svg>
