<svg width="24" height="24" viewBox="0 0 24 24" fill="none" xmlns="http://www.w3.org/2000/svg">
<path fill-rule="evenodd" clip-rule="evenodd" d="M15.9164 5.2168C12.9612 2.26163 8.17155 2.26163 5.21638 5.2168C2.26121 8.17197 2.26121 12.9617 5.21638 15.9168C7.90735 18.6078 12.1195 18.8484 15.0825 16.6386L19.1211 20.6772C19.551 21.1071 20.2478 21.1071 20.6776 20.6772C21.1075 20.2474 21.1075 19.5506 20.6776 19.1207L16.6386 15.0817C18.0412 13.1984 18.458 10.8022 17.8702 8.6124L17.8697 8.6106C17.5323 7.36208 16.8877 6.1881 15.9164 5.2168ZM6.77287 6.7733C8.86842 4.67776 12.2644 4.67776 14.3599 6.7733C15.043 7.45638 15.5014 8.28502 15.7445 9.18424C16.2263 10.9802 15.7551 12.9651 14.3599 14.3603C12.2644 16.4559 8.86842 16.4559 6.77287 14.3603C4.67733 12.2648 4.67733 8.86884 6.77287 6.7733Z" fill="#222222"/>
</svg>
