<svg width="24" height="24" viewBox="0 0 24 24" fill="none" xmlns="http://www.w3.org/2000/svg">
<path d="M12.0996 11.4342C13.4882 11.4342 14.6196 12.5656 14.6196 13.9542C14.6196 15.0685 13.8996 15.9942 12.9224 16.337V18.2742C12.9224 18.7199 12.5624 19.0799 12.1167 19.0799C11.671 19.0799 11.311 18.7199 11.311 18.2742V16.337C10.2996 15.9942 9.57959 15.0685 9.57959 13.9542C9.57959 12.5656 10.711 11.4342 12.0996 11.4342Z" fill="#222222"/>
<path fill-rule="evenodd" clip-rule="evenodd" d="M5.96303 6.13714V7.11432H5.77436C3.68876 7.11432 2.00293 8.80015 2.00293 10.8857V19.6115C2.00293 21.6971 3.68876 23.3829 5.77436 23.3829H18.4258C20.5217 23.3829 22.1972 21.6695 22.1972 19.5943V10.8857C22.1972 8.80015 20.5114 7.11432 18.4258 7.11432H18.2373V6.13714C18.2373 2.74869 15.4886 0 12.1002 0C8.71171 0 5.96303 2.74869 5.96303 6.13714ZM12.1002 2.4C10.0372 2.4 8.36303 4.07417 8.36303 6.13714V7.11432H15.8373V6.13714C15.8373 4.07417 14.1631 2.4 12.1002 2.4ZM5.77436 9.51432C5.01424 9.51432 4.40293 10.1256 4.40293 10.8857V19.6115C4.40293 20.3716 5.01424 20.9829 5.77436 20.9829H18.4258C19.1755 20.9829 19.7972 20.3648 19.7972 19.5943V10.8857C19.7972 10.1256 19.1859 9.51432 18.4258 9.51432H5.77436Z" fill="#222222"/>
</svg>
