<svg width="24" height="24" viewBox="0 0 24 24" fill="none" xmlns="http://www.w3.org/2000/svg">
<path d="M3.18372 2.44899C3.18372 2.04323 3.51265 1.71429 3.91841 1.71429H9.79596C10.2017 1.71429 10.5307 2.04323 10.5307 2.44899V3.91838C10.5307 4.32414 10.2017 4.65307 9.79596 4.65307H3.91841C3.51265 4.65307 3.18372 4.32414 3.18372 3.91838V2.44899Z" fill="#222222"/>
<path d="M3.91841 6.12235C3.51265 6.12235 3.18372 6.45128 3.18372 6.85704V21.5509C3.18372 21.9567 3.51265 22.2856 3.91841 22.2856H9.79596C10.2017 22.2856 10.5307 21.9567 10.5307 21.5509V6.85704C10.5307 6.45128 10.2017 6.12235 9.79596 6.12235H3.91841Z" fill="#222222"/>
<path d="M14.2041 6.12235C13.7984 6.12235 13.4694 6.45128 13.4694 6.85704V21.5509C13.4694 21.9567 13.7984 22.2856 14.2041 22.2856H20.0817C20.4874 22.2856 20.8164 21.9567 20.8164 21.5509V6.85704C20.8164 6.45128 20.4874 6.12235 20.0817 6.12235H14.2041Z" fill="#222222"/>
<path d="M14.2041 1.71429C13.7984 1.71429 13.4694 2.04323 13.4694 2.44899V3.91838C13.4694 4.32414 13.7984 4.65307 14.2041 4.65307H20.0561C20.4619 4.65307 20.7908 4.32414 20.7908 3.91838V2.44899C20.7908 2.04323 20.4619 1.71429 20.0561 1.71429H14.2041Z" fill="#222222"/>
</svg>
