<svg width="24" height="24" viewBox="0 0 24 24" fill="none" xmlns="http://www.w3.org/2000/svg">
<path fill-rule="evenodd" clip-rule="evenodd" d="M13.6163 20.5203C13.2875 20.9784 12.7583 21.25 12.1945 21.25H11.138C10.0089 21.25 9.17535 20.1967 9.43479 19.0979L10.3433 15.25H4.50067C3.38629 15.25 2.55577 14.2223 2.78964 13.1327L4.72146 4.13273C4.89459 3.32614 5.60752 2.75 6.43249 2.75H20.7632C21.4536 2.75 22.0132 3.30964 22.0132 4V14C22.0132 14.6904 21.4536 15.25 20.7632 15.25H17.3982L13.6163 20.5203ZM17.7632 13.75H20.5132V4.25H18.0132C17.8752 4.25 17.7632 4.36193 17.7632 4.5V13.75ZM16.281 4.25H6.43249C6.31464 4.25 6.21279 4.33231 6.18805 4.44753L4.25624 13.4475C4.22283 13.6032 4.34147 13.75 4.50067 13.75H10.3433C11.3111 13.75 12.0256 14.6528 11.8032 15.5947L10.8947 19.4426C10.8576 19.5995 10.9767 19.75 11.138 19.75H12.1945C12.275 19.75 12.3506 19.7112 12.3976 19.6458L16.2632 14.2587V4.5C16.2632 4.41512 16.2693 4.33165 16.281 4.25Z" fill="#292C32"/>
</svg>
