<svg width="24" height="24" viewBox="0 0 24 24" fill="none" xmlns="http://www.w3.org/2000/svg">
<path d="M13.3002 3.0002C13.3002 2.28223 12.7182 1.7002 12.0002 1.7002C11.2822 1.7002 10.7002 2.28223 10.7002 3.0002V10.7002H3.0002C2.28223 10.7002 1.7002 11.2822 1.7002 12.0002C1.7002 12.7182 2.28223 13.3002 3.0002 13.3002H10.7002V21.0002C10.7002 21.7182 11.2822 22.3002 12.0002 22.3002C12.7182 22.3002 13.3002 21.7182 13.3002 21.0002V13.3002H21.0002C21.7182 13.3002 22.3002 12.7182 22.3002 12.0002C22.3002 11.2822 21.7182 10.7002 21.0002 10.7002H13.3002V3.0002Z" fill="#222222"/>
</svg>
