<svg width="24" height="24" viewBox="0 0 24 24" fill="none" xmlns="http://www.w3.org/2000/svg">
<path fill-rule="evenodd" clip-rule="evenodd" d="M3.71412 2.47168C2.91089 2.47168 2.14056 2.79076 1.57259 3.35873C1.00463 3.9267 0.685547 4.69702 0.685547 5.50025V18.5003C0.685547 20.1683 2.04605 21.5288 3.71412 21.5288H19.3227C19.37 21.5288 19.4166 21.5256 19.4622 21.5194C20.7561 21.4186 21.8603 20.5131 22.2012 19.243L23.8711 13.0209C24.1912 11.8284 23.6773 10.6504 22.7427 10.0256V7.64311C22.7427 6.83988 22.4236 6.06955 21.8556 5.50159C21.2877 4.93362 20.5173 4.61454 19.7141 4.61454H11.7872C11.6239 4.61338 11.4817 4.57856 11.3315 4.49712C11.3321 4.49747 11.33 4.49604 11.3251 4.49265C11.3001 4.47556 11.2037 4.40945 11.0157 4.26956C10.8195 4.12356 10.5803 3.94058 10.3341 3.75211L10.3139 3.73662C10.0775 3.55565 9.83535 3.37031 9.6337 3.2199C9.45754 3.0885 9.23041 2.92082 9.07726 2.83779C8.63873 2.60003 8.14827 2.47426 7.64944 2.47168H3.71412ZM20.6855 9.56701V7.64311C20.6855 7.38547 20.5832 7.13838 20.401 6.95621C20.2188 6.77403 19.9718 6.67168 19.7141 6.67168H11.7788C11.2842 6.66912 10.8071 6.55287 10.351 6.30557C10.1954 6.22124 9.96745 6.05371 9.78764 5.91991C9.57797 5.76389 9.32689 5.57176 9.08369 5.3856L9.06979 5.37495C8.82819 5.19001 8.595 5.0115 8.40376 4.86886C8.23564 4.74346 8.14324 4.67899 8.1103 4.65601C8.09894 4.64808 8.09464 4.64507 8.09678 4.64623C7.95676 4.57032 7.80023 4.53001 7.64099 4.52882H3.71412C3.45648 4.52882 3.20939 4.63117 3.02721 4.81335C2.84504 4.99553 2.74269 5.24261 2.74269 5.50025V18.5003C2.74269 19.0322 3.18218 19.4717 3.71412 19.4717H19.2209C19.6863 19.4717 20.0937 19.1592 20.2143 18.7097L21.8843 12.4876C22.0012 12.052 21.673 11.6242 21.222 11.6242H9.06137C8.79676 11.6242 8.55576 11.7764 8.44212 12.0154L5.77719 17.619C5.53322 18.132 4.91957 18.3501 4.40657 18.1061C3.89356 17.8622 3.67546 17.2485 3.91943 16.7355L6.58436 11.1319C7.03893 10.176 8.00292 9.56701 9.06137 9.56701H20.6855Z" fill="#222222"/>
</svg>
