<svg width="24" height="24" viewBox="0 0 24 24" fill="none" xmlns="http://www.w3.org/2000/svg">
<path fill-rule="evenodd" clip-rule="evenodd" d="M17.9576 8.41393C17.3718 8.99972 16.4221 8.99972 15.8363 8.41393L11.9998 4.57737L8.16321 8.41393C7.57742 8.99972 6.62767 8.99972 6.04189 8.41393C5.4561 7.82814 5.4561 6.87839 6.04189 6.29261L10.9391 1.39539C11.2204 1.11409 11.6019 0.956055 11.9998 0.956054C12.3976 0.956054 12.7791 1.11409 13.0604 1.39539L17.9576 6.29261C18.5434 6.8784 18.5434 7.82814 17.9576 8.41393Z" fill="#222222"/>
<path fill-rule="evenodd" clip-rule="evenodd" d="M17.9576 16.497C18.5434 17.0827 18.5434 18.0325 17.9576 18.6183L13.0604 23.5155C12.7791 23.7968 12.3976 23.9548 11.9998 23.9548C11.6019 23.9548 11.2204 23.7968 10.9391 23.5155L6.04189 18.6183C5.4561 18.0325 5.4561 17.0827 6.04189 16.497C6.62767 15.9112 7.57742 15.9112 8.16321 16.497L11.9998 20.3335L15.8363 16.497C16.4221 15.9112 17.3718 15.9112 17.9576 16.497Z" fill="#222222"/>
</svg>
