<svg width="24" height="24" viewBox="0 0 24 24" fill="none" xmlns="http://www.w3.org/2000/svg">
<path d="M18.0684 3.66309C17.5607 3.15549 16.7381 3.15543 16.2305 3.66309C15.7229 4.17075 15.7229 4.99332 16.2305 5.50098L17.874 7.14355H8.14062C7.07459 7.14355 5.50406 7.45251 4.16309 8.41797C2.7558 9.43122 1.69238 11.1088 1.69238 13.5918C1.69242 14.7486 1.99343 16.3321 2.97559 17.6621C4.00533 19.0565 5.69011 20.04 8.14062 20.04H13.2881C14.0059 20.04 14.5886 19.458 14.5889 18.7402C14.5889 18.0223 14.0061 17.4395 13.2881 17.4395H8.14062C6.47257 17.4395 5.58211 16.8142 5.06738 16.1172C4.50525 15.3559 4.29203 14.3654 4.29199 13.5918C4.29199 11.9562 4.94482 11.0595 5.68262 10.5283C6.48668 9.94947 7.49066 9.74316 8.14062 9.74316H17.8721L16.2305 11.3848C15.7228 11.8924 15.7228 12.716 16.2305 13.2236C16.7381 13.7311 17.5607 13.731 18.0684 13.2236L21.9297 9.3623C22.4373 8.85465 22.4373 8.0321 21.9297 7.52441L18.0684 3.66309Z" fill="#222222"/>
</svg>
