<svg width="28" height="28" viewBox="0 0 28 28" fill="none" xmlns="http://www.w3.org/2000/svg">
<path d="M22.4561 4.04761C22.7977 3.70617 23.3517 3.70624 23.6934 4.04761C24.0351 4.38932 24.0351 4.94418 23.6934 5.28589L15.2373 13.741L23.6934 22.197C24.0351 22.5387 24.0351 23.0936 23.6934 23.4353C23.3517 23.7766 22.7977 23.7767 22.4561 23.4353L14 14.9792L5.54492 23.4343C5.20321 23.776 4.64835 23.776 4.30664 23.4343C3.96527 23.0926 3.96519 22.5387 4.30664 22.197L12.7617 13.741L4.30664 5.28589C3.96521 4.94428 3.96533 4.39026 4.30664 4.04858C4.64835 3.70688 5.20321 3.70687 5.54492 4.04858L14 12.5037L22.4561 4.04761Z" fill="#222222"/>
</svg>
