<svg width="24" height="24" viewBox="0 0 24 24" fill="none" xmlns="http://www.w3.org/2000/svg">
<path fill-rule="evenodd" clip-rule="evenodd" d="M3.72489 16.3599C2.87721 17.0646 2.28351 18.0719 1.98283 19.2747C1.85461 19.7876 1.33488 20.0994 0.82199 19.9712C0.3091 19.843 -0.00273536 19.3232 0.125487 18.8104C0.508551 17.2781 1.29242 15.8924 2.50103 14.8876C3.71664 13.8771 5.30619 13.299 7.20792 13.299C9.10964 13.299 10.6992 13.8771 11.9148 14.8876C13.1234 15.8924 13.9073 17.2781 14.2903 18.8104C14.4186 19.3232 14.1067 19.843 13.5938 19.9712C13.081 20.0994 12.5612 19.7876 12.433 19.2747C12.1323 18.0719 11.5386 17.0646 10.6909 16.3599C9.85028 15.661 8.70482 15.2135 7.20792 15.2135C5.71102 15.2135 4.56556 15.661 3.72489 16.3599Z" fill="#222222"/>
<path d="M14.4138 15.6725C15.0779 15.3815 15.8632 15.2135 16.7804 15.2135C18.2773 15.2135 19.4228 15.661 20.2635 16.3599C21.1111 17.0645 21.7048 18.0719 22.0055 19.2747C22.1337 19.7876 22.6535 20.0994 23.1664 19.9712C23.6793 19.843 23.9911 19.3232 23.8629 18.8103C23.4798 17.2781 22.6959 15.8923 21.4873 14.8876C20.2717 13.8771 18.6822 13.299 16.7804 13.299C15.3988 13.299 14.182 13.6041 13.1536 14.1585C13.6407 14.6166 14.0597 15.1261 14.4138 15.6725Z" fill="#222222"/>
<path fill-rule="evenodd" clip-rule="evenodd" d="M16.7804 10.2905C17.9888 10.2905 18.9684 9.31091 18.9684 8.10251C18.9684 6.89411 17.9888 5.9145 16.7804 5.9145C15.572 5.9145 14.5924 6.89411 14.5924 8.10251C14.5924 9.31091 15.572 10.2905 16.7804 10.2905ZM16.7804 12.205C19.0462 12.205 20.8829 10.3683 20.8829 8.10251C20.8829 5.83675 19.0462 4 16.7804 4C14.5147 4 12.6779 5.83675 12.6779 8.10251C12.6779 10.3683 14.5147 12.205 16.7804 12.205Z" fill="#222222"/>
<path fill-rule="evenodd" clip-rule="evenodd" d="M7.20792 10.2905C8.41632 10.2905 9.39592 9.31091 9.39592 8.10251C9.39592 6.89411 8.41632 5.9145 7.20792 5.9145C5.99952 5.9145 5.01991 6.89411 5.01991 8.10251C5.01991 9.31091 5.99952 10.2905 7.20792 10.2905ZM7.20792 12.205C9.47367 12.205 11.3104 10.3683 11.3104 8.10251C11.3104 5.83675 9.47367 4 7.20792 4C4.94216 4 3.10541 5.83675 3.10541 8.10251C3.10541 10.3683 4.94216 12.205 7.20792 12.205Z" fill="#222222"/>
</svg>
