<svg width="24" height="24" viewBox="0 0 24 24" fill="none" xmlns="http://www.w3.org/2000/svg">
<path fill-rule="evenodd" clip-rule="evenodd" d="M16.9995 6.59859C16.9996 7.25513 16.8703 7.90526 16.6191 8.51185C16.3679 9.11844 15.9997 9.66962 15.5355 10.1339C15.0713 10.5982 14.5202 10.9665 13.9137 11.2178C13.3072 11.4691 12.6571 11.5985 12.0005 11.5986C10.6746 11.5987 9.40287 11.0721 8.46519 10.1346C7.52751 9.19714 7.00065 7.92556 7.00051 6.59961C7.00044 5.94307 7.12969 5.29294 7.38088 4.68635C7.63206 4.07976 8.00027 3.52858 8.46447 3.06429C9.40196 2.12661 10.6735 1.59974 11.9995 1.59961C13.3254 1.59947 14.5971 2.12607 15.5348 3.06356C16.4725 4.00106 16.9994 5.27264 16.9995 6.59859ZM12 13.1281C4.80053 13.1281 2 17.7098 2 19.8414C2 21.9719 7.9616 22.5398 12 22.5398C16.0384 22.5398 22 21.9719 22 19.8414C22 17.7098 19.1995 13.1281 12 13.1281Z" fill="#222222"/>
</svg>
