<svg width="24" height="24" viewBox="0 0 24 24" fill="none" xmlns="http://www.w3.org/2000/svg">
<g clip-path="url(#clip0_818_51429)">
<path d="M20.7002 17.6895C20.7002 18.0615 20.5288 18.4354 20.1973 18.6748C17.232 20.8157 10.1874 23.0818 3.82617 18.6885C3.49849 18.462 3.2998 18.0873 3.2998 17.6855V9H5.2998V17.2637C10.4382 20.5801 16.0681 18.9817 18.7002 17.2744V9H20.7002V17.6895Z" fill="#222222"/>
<path d="M11.4648 1.54981C11.7594 1.40252 12.1003 1.38362 12.4063 1.49415L12.5352 1.54981L23.0977 6.83106C23.9786 7.27171 23.9786 8.52908 23.0977 8.96973L12.5352 14.251C12.1986 14.4193 11.8014 14.4193 11.4648 14.251L0.902344 8.96973C0.021441 8.52908 0.0214459 7.27171 0.902344 6.83106L11.4648 1.54981ZM3.23633 7.9004L12 12.2822L20.7637 7.9004L12 3.51856L3.23633 7.9004Z" fill="#222222"/>
<path d="M15 22.4004V9.60058L12.5293 8.28319C12.042 8.02331 11.8574 7.41697 12.1172 6.92968C12.3771 6.4424 12.9834 6.25775 13.4707 6.51757L16.4707 8.11815C16.7964 8.29191 16.9999 8.63088 17 8.99999V22.4004C17 22.9527 16.5523 23.4004 16 23.4004C15.4477 23.4004 15 22.9527 15 22.4004Z" fill="#222222"/>
</g>
<defs>
<clipPath id="clip0_818_51429">
<rect width="24" height="24" fill="white"/>
</clipPath>
</defs>
</svg>
