<svg width="24" height="24" viewBox="0 0 24 24" fill="none" xmlns="http://www.w3.org/2000/svg">
<path fill-rule="evenodd" clip-rule="evenodd" d="M20.6806 5.91418C20.6806 8.17948 18.8443 10.0159 16.579 10.0159C14.3137 10.0159 12.4773 8.17948 12.4773 5.91418C12.4773 3.64889 14.3137 1.8125 16.579 1.8125C18.8443 1.8125 20.6806 3.64889 20.6806 5.91418ZM18.7665 5.91418C18.7665 7.12234 17.7871 8.10175 16.579 8.10175C15.3708 8.10175 14.3914 7.12234 14.3914 5.91418C14.3914 4.70603 15.3708 3.72662 16.579 3.72662C17.7871 3.72662 18.7665 4.70603 18.7665 5.91418Z" fill="#222222"/>
<path d="M12.8056 14.4334C12.899 14.3414 12.996 14.2535 13.0966 14.1699C13.9371 13.4712 15.0824 13.0238 16.579 13.0238C18.0756 13.0238 19.2208 13.4712 20.0613 14.1699C20.9088 14.8744 21.5024 15.8816 21.803 17.0841C21.9312 17.5969 22.4508 17.9087 22.9636 17.7805C23.4764 17.6523 23.7882 17.1327 23.66 16.6199C23.277 15.0879 22.4933 13.7025 21.2849 12.698C20.0695 11.6876 18.4803 11.1097 16.579 11.1097C14.6776 11.1097 13.0884 11.6876 11.873 12.698C11.6017 12.9235 11.3518 13.1682 11.1231 13.4295C11.7282 13.6963 12.2908 14.0324 12.8056 14.4334Z" fill="#222222"/>
<path fill-rule="evenodd" clip-rule="evenodd" d="M7.42134 12.9602C9.68663 12.9602 11.523 11.1238 11.523 8.85851C11.523 6.59322 9.68663 4.75683 7.42134 4.75683C5.15604 4.75683 3.31965 6.59322 3.31965 8.85851C3.31965 11.1238 5.15604 12.9602 7.42134 12.9602ZM7.42134 11.0461C8.62949 11.0461 9.6089 10.0667 9.6089 8.85851C9.6089 7.65036 8.62949 6.67095 7.42134 6.67095C6.21318 6.67095 5.23377 7.65036 5.23377 8.85851C5.23377 10.0667 6.21318 11.0461 7.42134 11.0461Z" fill="#222222"/>
<path d="M3.93901 17.1142C3.0915 17.8188 2.49792 18.826 2.19729 20.0285C2.0691 20.5412 1.54948 20.853 1.03669 20.7248C0.523901 20.5966 0.212128 20.077 0.340325 19.5642C0.723312 18.0323 1.50702 16.6468 2.71539 15.6423C3.93076 14.632 5.51999 14.054 7.42134 14.054C9.1951 14.054 10.6972 14.557 11.8776 15.4448L11.6805 15.5363L11.6764 15.5382C11.1165 15.8004 10.7583 16.3676 10.7069 16.9595C9.88725 16.3502 8.80431 15.9681 7.42134 15.9681C5.92474 15.9681 4.77951 16.4155 3.93901 17.1142Z" fill="#222222"/>
<path d="M17.2574 14.8834L17.7048 19.8958C17.7284 20.1708 17.4385 20.37 17.2069 20.2363L15.7697 19.4065C12.6927 23.8466 9.04186 21.7856 8.1542 21.1834C8.08782 21.1373 8.11953 21.0308 8.20457 21.0253C11.2799 20.8157 13.1511 18.7799 13.6388 18.1801L12.196 17.3471C11.9644 17.2134 11.992 16.8627 12.2419 16.7457L16.8064 14.6269C17.0082 14.5289 17.237 14.661 17.2574 14.8834Z" fill="#222222"/>
</svg>
