<svg width="24" height="24" viewBox="0 0 24 24" fill="none" xmlns="http://www.w3.org/2000/svg">
<g clip-path="url(#clip0_818_51328)">
<path d="M3.15131 2.02429C3.15131 1.34803 3.69953 0.799805 4.3758 0.799805H19.6248C20.301 0.799805 20.8493 1.34803 20.8493 2.02429C20.8493 2.70056 20.301 3.24878 19.6248 3.24878H4.3758C3.69953 3.24878 3.15131 2.70056 3.15131 2.02429Z" fill="#222222"/>
<path d="M7.24928 12.4897C6.57301 12.4897 6.02479 13.0379 6.02479 13.7141C6.02479 14.3904 6.57301 14.9386 7.24928 14.9386H16.7513C17.4276 14.9386 17.9758 14.3904 17.9758 13.7141C17.9758 13.0379 17.4276 12.4897 16.7513 12.4897H7.24928Z" fill="#222222"/>
<path fill-rule="evenodd" clip-rule="evenodd" d="M0 7.98352C0 6.85011 0.907406 5.9427 2.04082 5.9427H21.9592C23.0926 5.9427 24 6.85011 24 7.98352V18.9549C24 21.4231 22.0027 23.4447 19.5102 23.4447H4.4898C2.01761 23.4447 0 21.4271 0 18.9549V7.98352ZM2.44898 8.39168V18.9549C2.44898 20.0746 3.37014 20.9958 4.4898 20.9958H19.5102C20.6422 20.9958 21.551 20.0786 21.551 18.9549V8.39168H2.44898Z" fill="#222222"/>
</g>
<defs>
<clipPath id="clip0_818_51328">
<rect width="24" height="24" fill="white"/>
</clipPath>
</defs>
</svg>
