<svg width="24" height="24" viewBox="0 0 24 24" fill="none" xmlns="http://www.w3.org/2000/svg">
<g clip-path="url(#clip0_818_51364)">
<path d="M7.76149 12C7.76149 13.0032 6.94822 13.8165 5.94499 13.8165C4.94177 13.8165 4.12849 13.0032 4.12849 12C4.12849 10.9967 4.94177 10.1835 5.94499 10.1835C6.94822 10.1835 7.76149 10.9967 7.76149 12Z" fill="#222222"/>
<path d="M13.8165 12C13.8165 13.0033 13.0032 13.8165 12 13.8165C10.9968 13.8165 10.1835 13.0033 10.1835 12C10.1835 10.9968 10.9968 10.1835 12 10.1835C13.0032 10.1835 13.8165 10.9968 13.8165 12Z" fill="#222222"/>
<path d="M18.055 13.8165C19.0582 13.8165 19.8715 13.0033 19.8715 12C19.8715 10.9968 19.0582 10.1835 18.055 10.1835C17.0518 10.1835 16.2385 10.9968 16.2385 12C16.2385 13.0033 17.0518 13.8165 18.055 13.8165Z" fill="#222222"/>
<path fill-rule="evenodd" clip-rule="evenodd" d="M24 12C24 18.6274 18.6274 24 12 24C5.37258 24 0 18.6274 0 12C0 5.37258 5.37258 0 12 0C18.6274 0 24 5.37258 24 12ZM22 12C22 17.5228 17.5228 22 12 22C6.47715 22 2 17.5228 2 12C2 6.47715 6.47715 2 12 2C17.5228 2 22 6.47715 22 12Z" fill="#222222"/>
</g>
<defs>
<clipPath id="clip0_818_51364">
<rect width="24" height="24" fill="white"/>
</clipPath>
</defs>
</svg>
