<svg width="24" height="24" viewBox="0 0 24 24" fill="none" xmlns="http://www.w3.org/2000/svg">
<path fill-rule="evenodd" clip-rule="evenodd" d="M6.66576 2C6.07655 2 5.5989 2.47765 5.5989 3.06686V4.46103H4.84495C3.28023 4.46103 2 5.74125 2 7.30598V19.3117C2 20.8764 3.28023 22.1566 4.84495 22.1566H19.155C20.7198 22.1566 22 20.8764 22 19.3117V7.30598C22 5.72703 20.734 4.46103 19.155 4.46103H18.4012V3.06686C18.4012 2.47765 17.9235 2 17.3343 2C16.7451 2 16.2675 2.47765 16.2675 3.06686V4.46103H7.73262V3.06686C7.73262 2.47765 7.25497 2 6.66576 2ZM10.8901 16.5805C11.075 16.8365 11.3595 16.993 11.6867 16.993C11.9996 16.993 12.2841 16.8507 12.4691 16.6089L16.2813 11.5591C16.6085 11.1182 16.5231 10.5065 16.0964 10.1793C15.6554 9.85216 15.0437 9.93751 14.7166 10.3643L11.7009 14.3614L9.28272 11.0044C8.96977 10.5776 8.35811 10.4781 7.91714 10.791C7.47617 11.1182 7.3766 11.7298 7.68955 12.1708L10.8901 16.5805Z" fill="#222222"/>
</svg>
