<svg width="24" height="24" viewBox="0 0 24 24" fill="none" xmlns="http://www.w3.org/2000/svg">
<path fill-rule="evenodd" clip-rule="evenodd" d="M12.0001 5.54724C9.9007 5.54724 8.19883 7.24911 8.19883 9.34849C8.19883 11.4479 9.9007 13.1497 12.0001 13.1497C14.0995 13.1497 15.8013 11.4479 15.8013 9.34849C15.8013 7.24911 14.0995 5.54724 12.0001 5.54724ZM10.4973 9.34849C10.4973 8.5185 11.1701 7.84567 12.0001 7.84567C12.8301 7.84567 13.5029 8.5185 13.5029 9.34849C13.5029 10.1785 12.8301 10.8513 12.0001 10.8513C11.1701 10.8513 10.4973 10.1785 10.4973 9.34849Z" fill="#222222"/>
<path fill-rule="evenodd" clip-rule="evenodd" d="M11.602 0.314305C11.8589 0.219451 12.1412 0.219451 12.3981 0.314305L21.2383 3.57835C21.6896 3.74502 21.9894 4.17525 21.9894 4.65642V12.8165C21.9894 12.8681 21.9859 12.9196 21.979 12.9708C21.6336 15.5217 19.2097 20.893 12.4363 23.6719C12.1568 23.7865 11.8434 23.7865 11.5639 23.6719C4.79046 20.893 2.36658 15.5217 2.02114 12.9708C2.01421 12.9196 2.01074 12.8681 2.01074 12.8165V4.65642C2.01074 4.17525 2.31051 3.74502 2.7619 3.57835L11.602 0.314305ZM4.30917 5.45715V12.7341C4.42759 13.5036 4.83659 14.7405 5.69719 16.0962C7.43294 15.0153 9.63473 14.3874 12.0001 14.3874C14.3654 14.3874 16.5672 15.0153 18.303 16.0962C19.1636 14.7405 19.5726 13.5036 19.691 12.7341V5.45715L12.0001 2.61743L4.30917 5.45715ZM12.0001 21.3595C9.86566 20.4145 8.27553 19.185 7.11123 17.9275C8.42631 17.1624 10.122 16.6858 12.0001 16.6858C13.8782 16.6858 15.5738 17.1624 16.8889 17.9275C15.7246 19.185 14.1345 20.4145 12.0001 21.3595Z" fill="#222222"/>
</svg>
