<svg width="24" height="24" viewBox="0 0 24 24" fill="none" xmlns="http://www.w3.org/2000/svg">
<path fill-rule="evenodd" clip-rule="evenodd" d="M14.0688 18.8777C12.676 20.5995 10.4334 21.6891 7.97592 21.6891C6.95417 21.6891 5.9763 21.5038 5.08261 21.1657L2.04866 22.5985C1.70318 22.7617 1.29441 22.7096 1.00097 22.4649C0.707523 22.2202 0.582738 21.8275 0.681138 21.4583L1.50692 18.36C0.819795 17.3236 0.418457 16.1014 0.418457 14.7892C0.418457 12.2594 1.88009 10.1118 4.0171 8.9128C4.58979 4.39168 8.8144 1.01855 13.7665 1.01855C19.0873 1.01855 23.5814 4.92268 23.5814 9.95018C23.5814 12.0112 22.8148 13.8994 21.5464 15.398L22.3647 18.4682C22.4631 18.8374 22.3383 19.2301 22.0448 19.4748C21.7514 19.7195 21.3426 19.7716 20.9971 19.6084L17.7967 18.097C16.6513 18.5665 15.3913 18.8412 14.0688 18.8777ZM6.20162 8.08228C6.7735 7.95591 7.36814 7.88927 7.97592 7.88927C12.05 7.88927 15.5334 10.8838 15.5334 14.7892C15.5334 15.4936 15.4201 16.1683 15.2104 16.8012C15.9876 16.6729 16.723 16.4432 17.3992 16.129C17.6634 16.0062 17.9685 16.0072 18.2319 16.1316L19.9233 16.9304L19.5127 15.3899C19.4245 15.0589 19.5152 14.7058 19.7521 14.4584C20.9265 13.2317 21.6184 11.6566 21.6184 9.95018C21.6184 6.19621 18.2028 2.98154 13.7665 2.98154C10.0934 2.98154 7.11149 5.19217 6.20162 8.08228ZM2.38144 14.7892C2.38144 12.1573 4.78636 9.85225 7.97592 9.85225C11.1655 9.85225 13.5704 12.1573 13.5704 14.7892C13.5704 17.4211 11.1655 19.7261 7.97592 19.7261C7.06513 19.7261 6.20983 19.5343 5.45557 19.1972C5.19419 19.0804 4.89484 19.0835 4.63596 19.2057L3.12252 19.9205L3.52284 18.4185C3.60164 18.1229 3.53807 17.8074 3.35093 17.5654C2.73362 16.767 2.38144 15.8115 2.38144 14.7892Z" fill="#222222"/>
</svg>
