<svg width="24" height="20" viewBox="0 0 24 20" fill="none" xmlns="http://www.w3.org/2000/svg">
<path d="M4.05608 20C3.31464 20 2.63552 19.8193 2.01869 19.4579C1.40187 19.0903 0.909657 18.5981 0.542056 17.9813C0.180686 17.3645 0 16.6854 0 15.9439C0 15.1963 0.180686 14.514 0.542056 13.8972C0.909657 13.2804 1.40187 12.7882 2.01869 12.4206C2.63552 12.053 3.31464 11.8692 4.05608 11.8692H6.2243V8.11215H4.05608C3.31464 8.11215 2.63552 7.93146 2.01869 7.57009C1.40187 7.20249 0.909657 6.7134 0.542056 6.1028C0.180686 5.48598 0 4.80374 0 4.05608C0 3.30841 0.180686 2.62928 0.542056 2.01869C0.909657 1.40187 1.40187 0.912773 2.01869 0.551403C2.63552 0.183801 3.31464 0 4.05608 0C4.80374 0 5.48598 0.183801 6.1028 0.551403C6.71963 0.912773 7.21184 1.40187 7.57944 2.01869C7.94704 2.62928 8.13084 3.30841 8.13084 4.05608V6.20561H11.8879V4.05608C11.8879 3.30841 12.0685 2.62928 12.4299 2.01869C12.7975 1.40187 13.2866 0.912773 13.8972 0.551403C14.514 0.183801 15.1963 0 15.9439 0C16.6916 0 17.3707 0.183801 17.9813 0.551403C18.5981 0.912773 19.0872 1.40187 19.4486 2.01869C19.8162 2.62928 20 3.30841 20 4.05608C20 4.80374 19.8162 5.48598 19.4486 6.1028C19.0872 6.7134 18.5981 7.20249 17.9813 7.57009C17.3707 7.93146 16.6916 8.11215 15.9439 8.11215H13.7944V11.8692H15.9439C16.6916 11.8692 17.3707 12.053 17.9813 12.4206C18.5981 12.7882 19.0872 13.2804 19.4486 13.8972C19.8162 14.514 20 15.1963 20 15.9439C20 16.6854 19.8162 17.3645 19.4486 17.9813C19.0872 18.5981 18.5981 19.0903 17.9813 19.4579C17.3707 19.8193 16.6916 20 15.9439 20C15.1963 20 14.514 19.8193 13.8972 19.4579C13.2866 19.0903 12.7975 18.5981 12.4299 17.9813C12.0685 17.3645 11.8879 16.6854 11.8879 15.9439V13.7757H8.13084V15.9439C8.13084 16.6854 7.94704 17.3645 7.57944 17.9813C7.21184 18.5981 6.71963 19.0903 6.1028 19.4579C5.48598 19.8193 4.80374 20 4.05608 20ZM4.05608 18.0935C4.45483 18.0935 4.8162 17.9969 5.14019 17.8037C5.47041 17.6106 5.73209 17.352 5.92523 17.028C6.12461 16.6978 6.2243 16.3364 6.2243 15.9439V13.7757H4.05608C3.66355 13.7757 3.30218 13.8754 2.97196 14.0748C2.64798 14.2679 2.38941 14.5296 2.19626 14.8598C2.00312 15.1838 1.90654 15.5452 1.90654 15.9439C1.90654 16.3364 2.00312 16.6978 2.19626 17.028C2.38941 17.352 2.64798 17.6106 2.97196 17.8037C3.30218 17.9969 3.66355 18.0935 4.05608 18.0935ZM4.05608 6.20561H6.2243V4.05608C6.2243 3.65732 6.12461 3.29595 5.92523 2.97196C5.73209 2.64798 5.47041 2.38941 5.14019 2.19626C4.8162 2.00312 4.45483 1.90654 4.05608 1.90654C3.66355 1.90654 3.30218 2.00312 2.97196 2.19626C2.64798 2.38941 2.38941 2.64798 2.19626 2.97196C2.00312 3.29595 1.90654 3.65732 1.90654 4.05608C1.90654 4.45483 2.00312 4.81931 2.19626 5.14953C2.38941 5.47352 2.64798 5.73209 2.97196 5.92523C3.30218 6.11215 3.66355 6.20561 4.05608 6.20561ZM13.7944 6.20561H15.9439C16.3427 6.20561 16.7041 6.11215 17.028 5.92523C17.352 5.73209 17.6106 5.47352 17.8037 5.14953C17.9969 4.81931 18.0935 4.45483 18.0935 4.05608C18.0935 3.65732 17.9969 3.29595 17.8037 2.97196C17.6106 2.64798 17.352 2.38941 17.028 2.19626C16.7041 2.00312 16.3427 1.90654 15.9439 1.90654C15.5452 1.90654 15.1807 2.00312 14.8505 2.19626C14.5265 2.38941 14.2679 2.64798 14.0748 2.97196C13.8878 3.29595 13.7944 3.65732 13.7944 4.05608V6.20561ZM15.9439 18.0935C16.3427 18.0935 16.7041 17.9969 17.028 17.8037C17.352 17.6106 17.6106 17.352 17.8037 17.028C17.9969 16.6978 18.0935 16.3364 18.0935 15.9439C18.0935 15.5452 17.9969 15.1838 17.8037 14.8598C17.6106 14.5296 17.352 14.2679 17.028 14.0748C16.7041 13.8754 16.3427 13.7757 15.9439 13.7757H13.7944V15.9439C13.7944 16.3364 13.8878 16.6978 14.0748 17.028C14.2679 17.352 14.5265 17.6106 14.8505 17.8037C15.1807 17.9969 15.5452 18.0935 15.9439 18.0935ZM8.13084 11.8692H11.8879V8.11215H8.13084V11.8692Z" fill="#222222"/>
</svg>
