<svg width="24" height="24" viewBox="0 0 24 24" fill="none" xmlns="http://www.w3.org/2000/svg">
<path d="M6.57031 3.1754L6.59509 3.15128C6.68318 3.06837 6.78264 3.00446 6.88826 2.95954C7.00654 2.90913 7.13651 2.88085 7.27298 2.87991L7.28003 2.87988C7.41531 2.87988 7.54432 2.90674 7.66201 2.95543C7.77956 3.00395 7.88975 3.07584 7.98548 3.17111L12.2455 7.41111C12.6369 7.80072 12.6384 8.43388 12.2488 8.82532C11.8592 9.21677 11.226 9.21826 10.8346 8.82865L8.28003 6.28608V20.1199C8.28003 20.6722 7.83231 21.1199 7.28003 21.1199C6.72774 21.1199 6.28003 20.6722 6.28003 20.1199V6.29411L3.74715 8.82699C3.35662 9.21751 2.72346 9.21751 2.33293 8.82699C1.94241 8.43646 1.94241 7.8033 2.33293 7.41278L6.57031 3.1754Z" fill="#222222"/>
<path d="M11.7513 15.1744C12.1409 14.783 12.774 14.7815 13.1655 15.1711L15.72 17.7137V3.87988C15.72 3.3276 16.1677 2.87988 16.72 2.87988C17.2723 2.87988 17.72 3.3276 17.72 3.87988V17.7057L20.2529 15.1728C20.6434 14.7823 21.2766 14.7823 21.6671 15.1728C22.0577 15.5633 22.0577 16.1965 21.6671 16.587L17.43 20.8241C17.4218 20.8324 17.4135 20.8405 17.405 20.8485C17.226 21.0168 16.9851 21.1199 16.72 21.1199C16.5848 21.1199 16.4557 21.093 16.3381 21.0443C16.2205 20.9958 16.1103 20.9239 16.0146 20.8287L11.7546 16.5887C11.3631 16.199 11.3616 15.5659 11.7513 15.1744Z" fill="#222222"/>
</svg>
