<svg width="24" height="24" viewBox="0 0 24 24" fill="none" xmlns="http://www.w3.org/2000/svg">
<g clip-path="url(#clip0_818_51366)">
<path fill-rule="evenodd" clip-rule="evenodd" d="M11.9999 21.9429C17.4912 21.9429 21.9427 17.4913 21.9427 12C21.9427 6.50871 17.4912 2.05714 11.9999 2.05714C6.50859 2.05714 2.05702 6.50871 2.05702 12C2.05702 17.4913 6.50859 21.9429 11.9999 21.9429ZM23.9999 12C23.9999 18.6274 18.6273 24 11.9999 24C5.37246 24 -0.00012207 18.6274 -0.00012207 12C-0.00012207 5.37258 5.37246 0 11.9999 0C18.6273 0 23.9999 5.37258 23.9999 12Z" fill="#222222"/>
<path d="M10.8877 7.88152C11.1867 8.17002 11.5575 8.31427 12 8.31427C12.4425 8.31427 12.8073 8.17002 13.0944 7.88152C13.3934 7.58047 13.5429 7.21044 13.5429 6.77141C13.5429 6.33239 13.3934 5.96863 13.0944 5.68012C12.8073 5.37908 12.4425 5.22856 12 5.22856C11.5575 5.22856 11.1867 5.37908 10.8877 5.68012C10.6007 5.96863 10.4572 6.33239 10.4572 6.77141C10.4572 7.21044 10.6007 7.58047 10.8877 7.88152Z" fill="#222222"/>
<path d="M13.4572 10.3714C13.4572 10.1821 13.3037 10.0286 13.1143 10.0286H10.8857C10.6964 10.0286 10.5429 10.1821 10.5429 10.3714V18.2571C10.5429 18.4465 10.6964 18.6 10.8857 18.6H13.1143C13.3037 18.6 13.4572 18.4465 13.4572 18.2571V10.3714Z" fill="#222222"/>
</g>
<defs>
<clipPath id="clip0_818_51366">
<rect width="24" height="24" fill="white"/>
</clipPath>
</defs>
</svg>
