<svg width="24" height="24" viewBox="0 0 24 24" fill="none" xmlns="http://www.w3.org/2000/svg">
<g clip-path="url(#clip0_6482_4480)">
<mask id="mask0_6482_4480" style="mask-type:alpha" maskUnits="userSpaceOnUse" x="0" y="0" width="24" height="24">
<rect width="24" height="24" fill="#D9D9D9"/>
</mask>
<g mask="url(#mask0_6482_4480)">
<path d="M5.15775 21.3C4.47391 21.3 3.89333 21.0613 3.416 20.584C2.93866 20.1067 2.7 19.5261 2.7 18.8423V5.15776C2.7 4.47393 2.93866 3.89335 3.416 3.41601C3.89333 2.93868 4.47391 2.70001 5.15775 2.70001H12.0902V4.85001H5.15775C5.08075 4.85001 5.01025 4.88209 4.94625 4.94626C4.88208 5.01026 4.85 5.08076 4.85 5.15776V18.8423C4.85 18.9193 4.88208 18.9898 4.94625 19.0538C5.01025 19.1179 5.08075 19.15 5.15775 19.15H18.8422C18.9192 19.15 18.9897 19.1179 19.0537 19.0538C19.1179 18.9898 19.15 18.9193 19.15 18.8423V11.9098H21.3V18.8423C21.3 19.5261 21.0613 20.1067 20.584 20.584C20.1067 21.0613 19.5261 21.3 18.8422 21.3H5.15775ZM9.64425 15.8595L8.1405 14.3558L17.6462 4.85001H14.475V2.70001H21.3V9.52501H19.15V6.35376L9.64425 15.8595Z" fill="#292C32"/>
</g>
</g>
<defs>
<clipPath id="clip0_6482_4480">
<rect width="24" height="24" fill="white"/>
</clipPath>
</defs>
</svg>
