<svg width="24" height="24" viewBox="0 0 24 24" fill="none" xmlns="http://www.w3.org/2000/svg">
<path d="M9.93488 9.67415C10.5086 9.67415 10.9736 10.1392 10.9736 10.7129V17.2072C10.9736 17.7809 10.5086 18.2459 9.93488 18.2459C9.3612 18.2459 8.89614 17.7809 8.89614 17.2072V10.7129C8.89614 10.1392 9.3612 9.67415 9.93488 9.67415Z" fill="#222222"/>
<path d="M15.1052 10.7129C15.1052 10.1392 14.6401 9.67416 14.0664 9.67416C13.4927 9.67416 13.0277 10.1392 13.0277 10.7129V17.2072C13.0277 17.7809 13.4927 18.2459 14.0664 18.2459C14.6401 18.2459 15.1052 17.7809 15.1052 17.2072V10.7129Z" fill="#222222"/>
<path fill-rule="evenodd" clip-rule="evenodd" d="M10.0602 1C8.33916 1 6.94398 2.39518 6.94398 4.11622V4.96116H2.03874C1.46506 4.96116 1 5.42623 1 5.99991C1 6.57359 1.46506 7.03865 2.03874 7.03865H3.94365V20.0978C3.94365 21.8188 5.33884 23.214 7.05988 23.214H16.9422C18.6633 23.214 20.0584 21.8188 20.0584 20.0978V7.03865H21.9613C22.5349 7.03865 23 6.57359 23 5.99991C23 5.42623 22.5349 4.96116 21.9613 4.96116H17.0594V4.11622C17.0594 2.39518 15.6642 1 13.9431 1H10.0602ZM14.9819 4.96116V4.11622C14.9819 3.54254 14.5168 3.07748 13.9431 3.07748H10.0602C9.48652 3.07748 9.02146 3.54254 9.02146 4.11622V4.96116H14.9819ZM6.02114 7.03865H17.981V20.0978C17.981 20.6714 17.5159 21.1365 16.9422 21.1365H7.05988C6.4862 21.1365 6.02114 20.6714 6.02114 20.0978V7.03865Z" fill="#222222"/>
</svg>
