<svg width="24" height="24" viewBox="0 0 24 24" fill="none" xmlns="http://www.w3.org/2000/svg">
<path d="M8 19C7.71667 19 7.47917 18.9042 7.2875 18.7125C7.09584 18.5208 7 18.2833 7 18C7 17.7167 7.09584 17.4792 7.2875 17.2875C7.47917 17.0958 7.71667 17 8 17H14.1C15.15 17 16.0625 16.6667 16.8375 16C17.6125 15.3333 18 14.5 18 13.5C18 12.5 17.6125 11.6667 16.8375 11C16.0625 10.3333 15.15 9.99999 14.1 9.99999H7.8L9.7 11.9C9.88334 12.0833 9.975 12.3167 9.975 12.6C9.975 12.8833 9.88334 13.1167 9.7 13.3C9.51667 13.4833 9.28334 13.575 9 13.575C8.71667 13.575 8.48334 13.4833 8.3 13.3L4.7 9.69999C4.6 9.59999 4.52917 9.49165 4.4875 9.37499C4.44584 9.25832 4.425 9.13332 4.425 8.99999C4.425 8.86665 4.44584 8.74165 4.4875 8.62499C4.52917 8.50832 4.6 8.39999 4.7 8.29999L8.3 4.69999C8.48334 4.51665 8.71667 4.42499 9 4.42499C9.28334 4.42499 9.51667 4.51665 9.7 4.69999C9.88334 4.88332 9.975 5.11665 9.975 5.39999C9.975 5.68332 9.88334 5.91665 9.7 6.09999L7.8 7.99999H14.1C15.7167 7.99999 17.1042 8.52499 18.2625 9.57499C19.4208 10.625 20 11.9333 20 13.5C20 15.0667 19.4208 16.375 18.2625 17.425C17.1042 18.475 15.7167 19 14.1 19H8Z" fill="#222222"/>
</svg>
