<svg width="24" height="24" viewBox="0 0 24 24" fill="none" xmlns="http://www.w3.org/2000/svg">
<path fill-rule="evenodd" clip-rule="evenodd" d="M17.9576 21.5155C18.5434 20.9297 18.5434 19.98 17.9576 19.3942L13.0604 14.497C12.7791 14.2157 12.3976 14.0576 11.9997 14.0576C11.6019 14.0576 11.2204 14.2157 10.9391 14.497L6.04188 19.3942C5.45609 19.98 5.45609 20.9297 6.04188 21.5155C6.62767 22.1013 7.57741 22.1013 8.1632 21.5155L11.9998 17.6789L15.8363 21.5155C16.4221 22.1013 17.3718 22.1013 17.9576 21.5155Z" fill="#222222"/>
<path fill-rule="evenodd" clip-rule="evenodd" d="M17.9576 3.39539C17.3718 2.80961 16.4221 2.80961 15.8363 3.39539L11.9998 7.23195L8.1632 3.3954C7.57741 2.80961 6.62767 2.80961 6.04188 3.39539C5.45609 3.98118 5.45609 4.93093 6.04188 5.51672L10.9391 10.4139C11.2204 10.6952 11.6019 10.8533 11.9998 10.8533C12.3976 10.8533 12.7791 10.6952 13.0604 10.4139L17.9576 5.51671C18.5434 4.93093 18.5434 3.98118 17.9576 3.39539Z" fill="#222222"/>
</svg>
