<svg width="24" height="24" viewBox="0 0 24 24" fill="none" xmlns="http://www.w3.org/2000/svg">
<g clip-path="url(#clip0_6220_22467)">
<mask id="mask0_6220_22467" style="mask-type:alpha" maskUnits="userSpaceOnUse" x="0" y="0" width="24" height="24">
<rect width="24" height="24" fill="#D9D9D9"/>
</mask>
<g mask="url(#mask0_6220_22467)">
<path d="M12.0005 21.9989C10.6339 21.9989 9.34222 21.7364 8.12555 21.2114C6.90888 20.6864 5.84638 19.9697 4.93805 19.0614C4.02972 18.1531 3.31305 17.0906 2.78805 15.8739C2.26305 14.6572 2.00055 13.3656 2.00055 11.9989C2.00055 10.6156 2.26305 9.31973 2.78805 8.1114C3.31305 6.90307 4.02972 5.84473 4.93805 4.9364C5.84638 4.02807 6.90888 3.3114 8.12555 2.7864C9.34222 2.2614 10.6339 1.9989 12.0005 1.9989C13.3839 1.9989 14.6797 2.2614 15.888 2.7864C17.0964 3.3114 18.1547 4.02807 19.063 4.9364C19.9714 5.84473 20.688 6.90307 21.213 8.1114C21.738 9.31973 22.0005 10.6156 22.0005 11.9989C22.0005 13.3656 21.738 14.6572 21.213 15.8739C20.688 17.0906 19.9714 18.1531 19.063 19.0614C18.1547 19.9697 17.0964 20.6864 15.888 21.2114C14.6797 21.7364 13.3839 21.9989 12.0005 21.9989ZM12.0005 19.9489C12.4339 19.3489 12.8089 18.7239 13.1255 18.0739C13.4422 17.4239 13.7005 16.7322 13.9005 15.9989H10.1005C10.3005 16.7322 10.5589 17.4239 10.8755 18.0739C11.1922 18.7239 11.5672 19.3489 12.0005 19.9489ZM9.40055 19.5489C9.10055 18.9989 8.83805 18.4281 8.61305 17.8364C8.38805 17.2447 8.20055 16.6322 8.05055 15.9989H5.10055C5.58388 16.8322 6.18805 17.5572 6.91305 18.1739C7.63805 18.7906 8.46722 19.2489 9.40055 19.5489ZM14.6005 19.5489C15.5339 19.2489 16.363 18.7906 17.088 18.1739C17.813 17.5572 18.4172 16.8322 18.9005 15.9989H15.9505C15.8005 16.6322 15.613 17.2447 15.388 17.8364C15.163 18.4281 14.9005 18.9989 14.6005 19.5489ZM4.25055 13.9989H7.65055C7.60055 13.6656 7.56305 13.3364 7.53805 13.0114C7.51305 12.6864 7.50055 12.3489 7.50055 11.9989C7.50055 11.6489 7.51305 11.3114 7.53805 10.9864C7.56305 10.6614 7.60055 10.3322 7.65055 9.9989H4.25055C4.16722 10.3322 4.10472 10.6614 4.06305 10.9864C4.02138 11.3114 4.00055 11.6489 4.00055 11.9989C4.00055 12.3489 4.02138 12.6864 4.06305 13.0114C4.10472 13.3364 4.16722 13.6656 4.25055 13.9989ZM9.65055 13.9989H14.3505C14.4005 13.6656 14.438 13.3364 14.463 13.0114C14.488 12.6864 14.5005 12.3489 14.5005 11.9989C14.5005 11.6489 14.488 11.3114 14.463 10.9864C14.438 10.6614 14.4005 10.3322 14.3505 9.9989H9.65055C9.60055 10.3322 9.56305 10.6614 9.53805 10.9864C9.51305 11.3114 9.50055 11.6489 9.50055 11.9989C9.50055 12.3489 9.51305 12.6864 9.53805 13.0114C9.56305 13.3364 9.60055 13.6656 9.65055 13.9989ZM16.3505 13.9989H19.7505C19.8339 13.6656 19.8964 13.3364 19.938 13.0114C19.9797 12.6864 20.0005 12.3489 20.0005 11.9989C20.0005 11.6489 19.9797 11.3114 19.938 10.9864C19.8964 10.6614 19.8339 10.3322 19.7505 9.9989H16.3505C16.4005 10.3322 16.438 10.6614 16.463 10.9864C16.488 11.3114 16.5005 11.6489 16.5005 11.9989C16.5005 12.3489 16.488 12.6864 16.463 13.0114C16.438 13.3364 16.4005 13.6656 16.3505 13.9989ZM15.9505 7.9989H18.9005C18.4172 7.16557 17.813 6.44057 17.088 5.8239C16.363 5.20723 15.5339 4.7489 14.6005 4.4489C14.9005 4.9989 15.163 5.56973 15.388 6.1614C15.613 6.75307 15.8005 7.36557 15.9505 7.9989ZM10.1005 7.9989H13.9005C13.7005 7.26557 13.4422 6.5739 13.1255 5.9239C12.8089 5.2739 12.4339 4.6489 12.0005 4.0489C11.5672 4.6489 11.1922 5.2739 10.8755 5.9239C10.5589 6.5739 10.3005 7.26557 10.1005 7.9989ZM5.10055 7.9989H8.05055C8.20055 7.36557 8.38805 6.75307 8.61305 6.1614C8.83805 5.56973 9.10055 4.9989 9.40055 4.4489C8.46722 4.7489 7.63805 5.20723 6.91305 5.8239C6.18805 6.44057 5.58388 7.16557 5.10055 7.9989Z" fill="#222222"/>
</g>
</g>
<defs>
<clipPath id="clip0_6220_22467">
<rect width="24" height="24" fill="white"/>
</clipPath>
</defs>
</svg>
