<svg width="24" height="24" viewBox="0 0 24 24" fill="none" xmlns="http://www.w3.org/2000/svg">
<path d="M14.0469 2.62109C14.4102 2.62091 14.7671 2.72089 15.0771 2.91016C15.3871 3.0994 15.6388 3.3703 15.8047 3.69336L16.8525 5.73242H19.6299C20.2582 5.73242 20.8613 5.98164 21.3057 6.42578C21.75 6.86991 21.9997 7.47236 22 8.10059V19.0098C22 19.6382 21.7501 20.2412 21.3057 20.6855C20.8613 21.1298 20.2583 21.3789 19.6299 21.3789H4.37012C3.7418 21.3787 3.13868 21.1298 2.69434 20.6855C2.24998 20.2412 2.00018 19.6382 2 19.0098V8.10059C2.00017 7.47216 2.24997 6.86917 2.69434 6.4248C3.13868 5.98057 3.74179 5.73063 4.37012 5.73047H7.14648L8.12109 3.73047C8.28328 3.39745 8.53645 3.11718 8.85059 2.9209C9.1648 2.72459 9.52794 2.62079 9.89844 2.62109H14.0469ZM13.8369 8.64355C12.9594 8.2803 11.994 8.18569 11.0625 8.37109C10.1309 8.55657 9.27507 9.0138 8.60352 9.68555C7.93211 10.3573 7.47424 11.213 7.28906 12.1445C7.104 13.0761 7.19987 14.0425 7.56348 14.9199C7.92716 15.7972 8.54236 16.5477 9.33203 17.0752C10.1219 17.6027 11.0511 17.8839 12.001 17.8838H12.002C13.2749 17.8823 14.4955 17.3758 15.3955 16.4756C16.2956 15.5752 16.8016 14.3541 16.8027 13.0811V13.0801C16.8025 12.1304 16.5208 11.2017 15.9932 10.4121C15.4653 9.62242 14.7145 9.00694 13.8369 8.64355ZM11.376 9.94531C11.996 9.82194 12.6386 9.88521 13.2227 10.127C13.8068 10.3689 14.3068 10.779 14.6582 11.3047C14.9654 11.7644 15.1476 12.295 15.1885 12.8438L15.1973 13.0801C15.1964 13.9277 14.859 14.7404 14.2598 15.3398C13.6604 15.9393 12.8477 16.2763 12 16.2773C11.368 16.2773 10.7502 16.0903 10.2246 15.7393C9.69889 15.3881 9.28897 14.8887 9.04688 14.3047C8.80491 13.7207 8.74115 13.078 8.86426 12.458C8.9875 11.8379 9.29231 11.2675 9.73926 10.8203C10.1862 10.3733 10.756 10.0688 11.376 9.94531Z" fill="#222222"/>
</svg>
