<svg width="24" height="24" viewBox="0 0 24 24" fill="none" xmlns="http://www.w3.org/2000/svg">
<path fill-rule="evenodd" clip-rule="evenodd" d="M11.5554 21.7421C12.0662 22.2529 12.7525 22.5402 13.4708 22.5402C13.5187 22.5402 13.5705 22.5362 13.6224 22.5322C13.6743 22.5282 13.7262 22.5242 13.774 22.5242C14.5562 22.4285 15.2585 21.9975 15.6735 21.3431C17.0781 19.1084 17.4771 16.4269 16.8068 13.889L17.6527 13.043C18.9616 13.889 20.845 13.7134 21.9783 12.5801C22.6327 11.9257 22.9999 11.0638 22.9999 10.138C22.9999 9.21225 22.6327 8.35032 21.9783 7.6959L16.2641 1.98164C14.9552 0.672787 12.6727 0.672787 11.3798 1.98164C10.7254 2.63607 10.3583 3.49799 10.3583 4.42377C10.3583 5.11012 10.5498 5.74858 10.9169 6.30724L10.071 7.1532C7.51709 6.48281 4.83554 6.88185 2.61688 8.28648C1.96245 8.70148 1.51553 9.38783 1.43572 10.1859C1.33995 11 1.62726 11.814 2.21784 12.4046L5.88079 16.0675L1.32322 20.6251C0.892259 21.056 0.892259 21.7743 1.32322 22.2053C1.54462 22.4267 1.82868 22.5384 2.11332 22.5404L2.10534 22.5405H2.1213L2.11332 22.5404C2.39797 22.5384 2.68203 22.4267 2.90342 22.2053L7.46099 17.6477L11.5554 21.7421ZM3.814 10.1699C4.96323 9.43571 6.28805 9.0686 7.62882 9.0686L7.67671 9.08456C8.47479 9.08456 9.28883 9.21225 10.071 9.4836C10.47 9.61129 10.9169 9.51552 11.2202 9.21225L13.2633 7.1532C13.6942 6.72224 13.6942 6.00397 13.2633 5.573L12.9919 5.30165C12.7525 5.07819 12.6248 4.75896 12.6248 4.43973C12.6248 4.1205 12.7525 3.81722 12.9919 3.5778C13.4548 3.11491 14.2689 3.11491 14.7317 3.5778L20.446 9.29206C20.6695 9.51552 20.7972 9.83475 20.7972 10.154C20.7972 10.4732 20.6695 10.7765 20.43 11.0159C19.9671 11.4788 19.1531 11.4788 18.6902 11.0159L18.4189 10.7446C17.9879 10.3136 17.2696 10.3136 16.8387 10.7446L14.7796 12.8036C14.4764 13.1069 14.3646 13.5538 14.5083 13.9528C15.2266 16.0438 14.9712 18.3104 13.806 20.1619C13.7421 20.2577 13.6304 20.3056 13.5506 20.3056C13.4069 20.3215 13.2473 20.2577 13.1515 20.1619L3.814 10.8244C3.70227 10.7126 3.67034 10.569 3.67034 10.4253C3.67034 10.3455 3.70227 10.2338 3.814 10.1699Z" fill="#222222"/>
</svg>
