<svg width="24" height="24" viewBox="0 0 24 24" fill="none" xmlns="http://www.w3.org/2000/svg">
<path d="M10.6133 2.80078C11.2295 1.73364 12.7697 1.73364 13.3858 2.80078L23.7833 20.8086C24.3991 21.8757 23.6287 23.209 22.3965 23.209H1.6026C0.370732 23.2086 -0.398967 21.8756 0.216858 20.8086L10.6133 2.80078ZM12.1534 17.1953C11.9339 17.1954 11.7311 17.2441 11.545 17.3408C11.3589 17.4376 11.2104 17.5716 11.1006 17.7432C10.9957 17.9103 10.9455 18.0931 10.9503 18.291C10.9455 18.4934 10.9957 18.6809 11.1006 18.8525C11.2104 19.0196 11.3589 19.1537 11.545 19.2549C11.731 19.3516 11.934 19.4003 12.1534 19.4004C12.3634 19.4004 12.5599 19.3516 12.7413 19.2549C12.9224 19.1537 13.0681 19.0195 13.1778 18.8525C13.2876 18.6809 13.3428 18.4935 13.3428 18.291C13.3428 18.093 13.2876 17.9104 13.1778 17.7432C13.0681 17.5717 12.9224 17.4376 12.7413 17.3408C12.5599 17.2441 12.3634 17.1953 12.1534 17.1953ZM11.0362 8.90039L11.2227 15.5938H13.0557L13.2422 8.90039H11.0362Z" fill="#222222"/>
</svg>
