<svg width="24" height="24" viewBox="0 0 24 24" fill="none" xmlns="http://www.w3.org/2000/svg">
<path d="M2.57082 10.5768C2.9338 10.2138 3.42612 10.0099 3.93946 10.0099H6.87167L11.189 2.55235C11.3832 2.21562 11.683 1.95239 12.042 1.80352C12.4011 1.65465 12.7992 1.62848 13.1746 1.72906C13.5501 1.82964 13.8818 2.05135 14.1183 2.35977C14.3549 2.66818 14.483 3.04606 14.4827 3.43474V7.76634H19.1C19.5407 7.76641 19.9756 7.86677 20.3718 8.05983C20.768 8.25288 21.1151 8.53357 21.3867 8.88063C21.6583 9.22769 21.8474 9.63201 21.9396 10.063C22.0318 10.4939 22.0248 10.9402 21.9189 11.3681L20.018 19.0574C19.8105 19.8977 19.3275 20.6442 18.6461 21.1778C17.9647 21.7114 17.1242 22.0014 16.2587 22.0014H6.87167H3.93946C2.87002 22.0014 2.00391 21.1343 2.00391 20.0648V11.9455C2.00391 11.4321 2.20783 10.9398 2.57082 10.5768Z" fill="#222222"/>
</svg>
