<svg width="24" height="24" viewBox="0 0 24 24" fill="none" xmlns="http://www.w3.org/2000/svg">
<path d="M12 19.3334C11.4958 19.3334 11.0642 19.1538 10.7052 18.7948C10.3462 18.4358 10.1667 18.0042 10.1667 17.5C10.1667 16.9959 10.3462 16.5643 10.7052 16.2052C11.0642 15.8462 11.4958 15.6667 12 15.6667C12.5042 15.6667 12.9358 15.8462 13.2948 16.2052C13.6538 16.5643 13.8333 16.9959 13.8333 17.5C13.8333 18.0042 13.6538 18.4358 13.2948 18.7948C12.9358 19.1538 12.5042 19.3334 12 19.3334ZM12 13.8334C11.4958 13.8334 11.0642 13.6538 10.7052 13.2948C10.3462 12.9358 10.1667 12.5042 10.1667 12C10.1667 11.4959 10.3462 11.0643 10.7052 10.7052C11.0642 10.3462 11.4958 10.1667 12 10.1667C12.5042 10.1667 12.9358 10.3462 13.2948 10.7052C13.6538 11.0643 13.8333 11.4959 13.8333 12C13.8333 12.5042 13.6538 12.9358 13.2948 13.2948C12.9358 13.6538 12.5042 13.8334 12 13.8334ZM12 8.33335C11.4958 8.33335 11.0642 8.15384 10.7052 7.79481C10.3462 7.43578 10.1667 7.00419 10.1667 6.50002C10.1667 5.99585 10.3462 5.56426 10.7052 5.20523C11.0642 4.8462 11.4958 4.66669 12 4.66669C12.5042 4.66669 12.9358 4.8462 13.2948 5.20523C13.6538 5.56426 13.8333 5.99585 13.8333 6.50002C13.8333 7.00419 13.6538 7.43578 13.2948 7.79481C12.9358 8.15384 12.5042 8.33335 12 8.33335Z" fill="#1C1B1F"/>
</svg>
