<svg width="24" height="24" viewBox="0 0 24 24" fill="none" xmlns="http://www.w3.org/2000/svg">
<path fill-rule="evenodd" clip-rule="evenodd" d="M19.409 5.96993L18.0303 4.59125C17.7374 4.29836 17.2626 4.29836 16.9697 4.59125L15.5607 6.00026L18 8.4396L19.409 7.03059C19.7019 6.7377 19.7019 6.26283 19.409 5.96993ZM16.9393 9.50026L14.5 7.06092L4.32322 17.2377C4.27634 17.2846 4.25 17.3482 4.25 17.4145L4.25 19.5003C4.25 19.6383 4.36193 19.7503 4.5 19.7503L6.58579 19.7503C6.65209 19.7503 6.71568 19.7239 6.76256 19.677L16.9393 9.50026ZM19.091 3.53059L20.4697 4.90927C21.3483 5.78795 21.3483 7.21257 20.4697 8.09125L7.82322 20.7377C7.49503 21.0659 7.04991 21.2503 6.58579 21.2503H4.5C3.5335 21.2503 2.75 20.4668 2.75 19.5003L2.75 17.4145C2.75 16.9503 2.93437 16.5052 3.26256 16.177L15.909 3.53059C16.7877 2.65191 18.2123 2.65191 19.091 3.53059Z" fill="#222222"/>
<path fill-rule="evenodd" clip-rule="evenodd" d="M10.25 20.5001C10.25 20.0859 10.5858 19.7501 11 19.7501H20.5C20.9142 19.7501 21.25 20.0859 21.25 20.5001C21.25 20.9144 20.9142 21.2501 20.5 21.2501H11C10.5858 21.2501 10.25 20.9144 10.25 20.5001Z" fill="#222222"/>
<path fill-rule="evenodd" clip-rule="evenodd" d="M19.409 5.96993L18.0303 4.59125C17.7374 4.29836 17.2626 4.29836 16.9697 4.59125L15.5607 6.00026L18 8.4396L19.409 7.03059C19.7019 6.7377 19.7019 6.26283 19.409 5.96993ZM16.9393 9.50026L14.5 7.06092L4.32322 17.2377C4.27634 17.2846 4.25 17.3482 4.25 17.4145L4.25 19.5003C4.25 19.6383 4.36193 19.7503 4.5 19.7503L6.58579 19.7503C6.65209 19.7503 6.71568 19.7239 6.76256 19.677L16.9393 9.50026ZM19.091 3.53059L20.4697 4.90927C21.3483 5.78795 21.3483 7.21257 20.4697 8.09125L7.82322 20.7377C7.49503 21.0659 7.04991 21.2503 6.58579 21.2503H4.5C3.5335 21.2503 2.75 20.4668 2.75 19.5003L2.75 17.4145C2.75 16.9503 2.93437 16.5052 3.26256 16.177L15.909 3.53059C16.7877 2.65191 18.2123 2.65191 19.091 3.53059Z" stroke="black" stroke-width="0.5" stroke-linecap="round"/>
<path fill-rule="evenodd" clip-rule="evenodd" d="M10.25 20.5001C10.25 20.0859 10.5858 19.7501 11 19.7501H20.5C20.9142 19.7501 21.25 20.0859 21.25 20.5001C21.25 20.9144 20.9142 21.2501 20.5 21.2501H11C10.5858 21.2501 10.25 20.9144 10.25 20.5001Z" stroke="black" stroke-width="0.5" stroke-linecap="round"/>
</svg>
