<svg width="24" height="24" viewBox="0 0 24 24" fill="none" xmlns="http://www.w3.org/2000/svg">
<path fill-rule="evenodd" clip-rule="evenodd" d="M11.147 3.47972C11.4757 3.02165 12.005 2.75 12.5688 2.75H13.6253C14.7543 2.75 15.5879 3.80331 15.3285 4.90214L14.4199 8.75H20.2626C21.377 8.75 22.2075 9.77771 21.9736 10.8673L20.0418 19.8673C19.8687 20.6739 19.1557 21.25 18.3308 21.25H4C3.30964 21.25 2.75 20.6904 2.75 20V10C2.75 9.30964 3.30964 8.75 4 8.75H7.36507L11.147 3.47972ZM7 10.25H4.25V19.75H6.75C6.88807 19.75 7 19.6381 7 19.5V10.25ZM8.48228 19.75H18.3308C18.4486 19.75 18.5505 19.6677 18.5752 19.5525L20.507 10.5525C20.5404 10.3968 20.4218 10.25 20.2626 10.25H14.4199C13.4522 10.25 12.7377 9.34717 12.9601 8.40531L13.8686 4.55745C13.9057 4.40047 13.7866 4.25 13.6253 4.25H12.5688C12.4882 4.25 12.4126 4.28881 12.3657 4.35425L8.5 9.74125V19.5C8.5 19.5849 8.49396 19.6683 8.48228 19.75Z" fill="#292C32"/>
</svg>
