<svg width="20" height="20" viewBox="0 0 20 20" fill="none" xmlns="http://www.w3.org/2000/svg">
<path d="M16.9268 8.5376C17.1704 8.78167 17.1706 9.17743 16.9268 9.42139C16.6827 9.66546 16.2861 9.66546 16.042 9.42139L10.626 4.00439L10.626 17.4976C10.6259 17.8427 10.3461 18.1226 10.001 18.1226C9.65593 18.1224 9.37602 17.8426 9.37598 17.4976L9.37598 4.00635L3.96094 9.42139C3.71687 9.66522 3.32116 9.66531 3.07715 9.42139C2.83314 9.17738 2.83328 8.78169 3.07715 8.5376L9.55859 2.05518C9.7111 1.90266 9.92318 1.8462 10.1201 1.88428C10.2388 1.90693 10.3524 1.96334 10.4443 2.05518L16.9268 8.5376Z" fill="#BFBFBF"/>
</svg>
