<svg width="24" height="24" viewBox="0 0 24 24" fill="none" xmlns="http://www.w3.org/2000/svg">
<path d="M22.5654 10.7987L4.53223 10.7987L11.2041 4.12686L11.3584 3.93936C11.6659 3.47364 11.614 2.84159 11.2041 2.43155C10.7355 1.96292 9.97546 1.96292 9.50684 2.43155L0.788086 11.1503L0.637695 11.3339C0.507139 11.5296 0.436523 11.7612 0.436523 11.9999C0.436598 12.3181 0.563109 12.6226 0.788085 12.8476L9.50684 21.5683L9.69629 21.7226C10.162 22.0298 10.7942 21.9781 11.2041 21.5683C11.614 21.1584 11.6656 20.5262 11.3584 20.0605L11.2041 19.871L4.53223 13.1991L22.5654 13.1991C23.2278 13.1988 23.7645 12.6623 23.7646 11.9999C23.7646 11.3374 23.2279 10.7991 22.5654 10.7987Z" fill="#222222"/>
</svg>
