<svg width="24" height="24" viewBox="0 0 24 24" fill="none" xmlns="http://www.w3.org/2000/svg">
<path d="M13.2147 5.82839L13.0186 13.4785H11.0872L10.891 5.82839H13.2147Z" fill="#222222"/>
<path d="M10.9587 15.9347C10.8481 16.1259 10.7953 16.3346 10.8003 16.5609C10.7953 16.7923 10.8481 17.006 10.9587 17.2022C11.0744 17.3933 11.2303 17.5467 11.4265 17.6624C11.6227 17.7731 11.8364 17.8284 12.0678 17.8284C12.2891 17.8284 12.4953 17.7731 12.6864 17.6624C12.8776 17.5467 13.031 17.3933 13.1466 17.2022C13.2623 17.006 13.3202 16.7923 13.3202 16.5609C13.3202 16.3346 13.2623 16.1259 13.1466 15.9347C13.031 15.7386 12.8776 15.5852 12.6864 15.4745C12.4953 15.3639 12.2891 15.3085 12.0678 15.3085C11.8364 15.3085 11.6227 15.3639 11.4265 15.4745C11.2303 15.5852 11.0744 15.7386 10.9587 15.9347Z" fill="#222222"/>
<path fill-rule="evenodd" clip-rule="evenodd" d="M12.3562 0.749219C12.1262 0.664323 11.8736 0.664323 11.6436 0.749219L3.0722 3.91405C2.6682 4.06322 2.3999 4.44829 2.3999 4.87895V12.791C2.3999 12.8372 2.40301 12.8833 2.40921 12.9291C2.74036 15.3745 5.07242 20.5553 11.6095 23.2372C11.8597 23.3398 12.1402 23.3398 12.3903 23.2372C18.9274 20.5553 21.2594 15.3745 21.5906 12.9291C21.5968 12.8833 21.5999 12.8372 21.5999 12.791V4.87895C21.5999 4.44829 21.3316 4.06322 20.9276 3.91405L12.3562 0.749219ZM11.9999 21.168C6.56615 18.7771 4.72742 14.4931 4.45705 12.7176V5.59562L11.9999 2.81056L19.5428 5.59562V12.7176C19.2724 14.4931 17.4336 18.7771 11.9999 21.168Z" fill="#222222"/>
</svg>
