<svg width="24" height="24" viewBox="0 0 24 24" fill="none" xmlns="http://www.w3.org/2000/svg">
<path fill-rule="evenodd" clip-rule="evenodd" d="M18.4293 11.0342L14.1965 9.55598L15.4755 3.24072C15.6811 2.22259 14.4247 1.57313 13.7137 2.32857L5.28065 11.2852C5.16276 11.4103 5.07803 11.563 5.03415 11.7292C4.99028 11.8955 4.98865 12.0701 5.02942 12.2371C5.07019 12.4042 5.15207 12.5584 5.26761 12.6857C5.38315 12.8131 5.52868 12.9095 5.69098 12.9663L9.9229 14.4446L8.64571 20.7599C8.43828 21.7771 9.69463 22.4265 10.4066 21.672L18.8405 12.7136C19.3523 12.1701 19.134 11.2797 18.4293 11.0342Z" fill="#222222"/>
<path d="M18.4293 11.0342L14.1965 9.55598L15.4755 3.24072C15.6811 2.22259 14.4247 1.57313 13.7137 2.32857L5.28065 11.2852C5.16276 11.4103 5.07803 11.563 5.03415 11.7292C4.99028 11.8955 4.98865 12.0701 5.02942 12.2371C5.07019 12.4042 5.15207 12.5584 5.26761 12.6857C5.38315 12.8131 5.52868 12.9095 5.69098 12.9663L9.9229 14.4446L8.64571 20.7599C8.43828 21.7771 9.69463 22.4265 10.4066 21.672L18.8405 12.7136C19.3523 12.1701 19.134 11.2797 18.4293 11.0342" stroke="#222222" stroke-width="2" stroke-linejoin="round"/>
</svg>
