<svg width="24" height="24" viewBox="0 0 24 24" fill="none" xmlns="http://www.w3.org/2000/svg">
<path d="M21.293 16.5332C21.6834 16.1432 22.3166 16.1432 22.707 16.5332C23.0974 16.9236 23.0972 17.5567 22.707 17.9473L19.1074 21.5469L18.9512 21.6758C18.5631 21.9315 18.0348 21.8884 17.6934 21.5469L14.0957 17.9473L13.9668 17.791C13.7108 17.403 13.7543 16.8748 14.0957 16.5332C14.4377 16.1918 14.9655 16.1495 15.3535 16.4062L15.5098 16.5332L18.4023 19.4258L21.293 16.5332ZM11.5898 19.6748C12.0456 19.768 12.3887 20.1719 12.3887 20.6553C12.3887 21.1386 12.0456 21.5426 11.5898 21.6357L11.3887 21.6553H2C1.44772 21.6553 1 21.2076 1 20.6553C1 20.103 1.44772 19.6553 2 19.6553H11.3887L11.5898 19.6748ZM11.5898 13.9844C12.0456 14.0775 12.3887 14.4815 12.3887 14.9648C12.3887 15.4482 12.0456 15.8521 11.5898 15.9453L11.3887 15.9648L2 15.9648C1.44772 15.9648 1 15.5171 1 14.9648C1 14.4126 1.44772 13.9648 2 13.9648L11.3887 13.9648L11.5898 13.9844ZM11.5898 8.29492C12.0456 8.38809 12.3887 8.79207 12.3887 9.27539C12.3887 9.75872 12.0456 10.1627 11.5898 10.2559L11.3887 10.2754L2 10.2754C1.44772 10.2754 1 9.82768 1 9.27539C1 8.72311 1.44772 8.27539 2 8.27539L11.3887 8.27539L11.5898 8.29492ZM17.8516 2.56445C18.2396 2.30873 18.7679 2.35187 19.1094 2.69336L22.707 6.29297L22.8359 6.44922C23.0919 6.83725 23.0484 7.3654 22.707 7.70703C22.3651 8.04843 21.8372 8.0907 21.4492 7.83398L21.293 7.70703L18.4004 4.81445L15.5098 7.70703C15.1194 8.09703 14.4861 8.097 14.0957 7.70703C13.7053 7.31664 13.7056 6.68352 14.0957 6.29297L17.6953 2.69336L17.8516 2.56445ZM11.5898 2.60449C12.0456 2.69766 12.3887 3.10164 12.3887 3.58496C12.3887 4.06829 12.0456 4.47227 11.5898 4.56543L11.3887 4.58496L2 4.58496C1.44772 4.58496 1 4.13725 1 3.58496C1 3.03268 1.44772 2.58496 2 2.58496L11.3887 2.58496L11.5898 2.60449Z" fill="#222222"/>
</svg>
