<svg width="24" height="24" viewBox="0 0 24 24" fill="none" xmlns="http://www.w3.org/2000/svg">
<path d="M15.23 3.28516C14.6777 3.28516 14.23 3.73287 14.23 4.28516C14.23 4.83744 14.6777 5.28516 15.23 5.28516H19.23C19.7823 5.28516 20.23 5.73287 20.23 6.28516V12.0652C20.23 12.6175 19.7823 13.0652 19.23 13.0652H5.19416L9.13713 9.12221C9.52765 8.73168 9.52765 8.09852 9.13713 7.70799C8.7466 7.31747 8.11344 7.31747 7.72291 7.70799L2.15179 13.2791C1.9193 13.4622 1.77002 13.7463 1.77002 14.0652L1.77003 14.0701L1.77002 14.076C1.77025 14.3415 1.87608 14.596 2.06417 14.7835L7.72416 20.4235C8.11538 20.8133 8.74854 20.8122 9.13838 20.421C9.52821 20.0297 9.52709 19.3966 9.13587 19.0067L5.18032 15.0652H19.23C20.8868 15.0652 22.23 13.722 22.23 12.0652V6.28516C22.23 4.62831 20.8868 3.28516 19.23 3.28516H15.23Z" fill="#222222"/>
</svg>
