<svg width="24" height="24" viewBox="0 0 24 24" fill="none" xmlns="http://www.w3.org/2000/svg">
<path fill-rule="evenodd" clip-rule="evenodd" d="M9.85989 2.04348C11.1442 1.09562 12.8549 1.09578 14.1392 2.04348L23.1519 8.69727C24.0835 9.38594 23.7083 10.8753 22.6574 11.0593L22.4382 11.078H21.1615L21.0407 18.8403L21.0205 19.2306C20.838 21.0295 19.4078 22.4612 17.6089 22.6438L17.2186 22.6624H15.9932L15.7724 22.6469C14.7562 22.5218 13.9472 21.7097 13.8443 20.6845L13.8334 20.4621V18.0923C13.8332 17.8783 13.6775 17.6859 13.4571 17.6414L13.3591 17.632H10.4544C10.1861 17.6351 9.98649 17.8497 9.98632 18.0923V20.4528L9.97699 20.5834C9.97123 20.6263 9.9632 20.6686 9.95211 20.7094C9.832 21.7463 8.99229 22.5558 7.95551 22.6531L7.74558 22.6624H6.54202L6.15172 22.6422C4.35316 22.4594 2.92407 21.0293 2.74163 19.2306L2.72142 18.8403L2.84222 11.078H1.56247L1.34321 11.0593C0.361908 10.8879 -0.0308362 9.57863 0.679232 8.845L0.848726 8.69727L9.85989 2.04348ZM12.8144 3.83793C12.3167 3.47104 11.6801 3.4711 11.1832 3.83793L5.07208 8.34896L4.95127 18.8403C4.95158 19.7199 5.66379 20.4338 6.54202 20.4341H7.73936L7.75647 20.2864V18.0923C7.75663 16.6264 8.94136 15.4213 10.4279 15.4037H13.3591C14.8561 15.4039 16.0631 16.6117 16.0632 18.0923V20.4341H17.2186C18.0977 20.434 18.8106 19.7193 18.8109 18.8403L18.9317 8.35362L12.8144 3.83793Z" fill="#222222"/>
</svg>
