<svg width="24" height="24" viewBox="0 0 24 24" fill="none" xmlns="http://www.w3.org/2000/svg">
<mask id="mask0_2713_93671" style="mask-type:alpha" maskUnits="userSpaceOnUse" x="0" y="0" width="24" height="24">
<rect width="24" height="24" fill="#D9D9D9"/>
</mask>
<g mask="url(#mask0_2713_93671)">
<path d="M9.8 21.75C7.51667 21.2334 5.64583 20.0667 4.1875 18.25C2.72917 16.4334 2 14.35 2 12C2 9.65002 2.72917 7.56669 4.1875 5.75002C5.64583 3.93335 7.51667 2.76669 9.8 2.25002C10.1167 2.16669 10.3958 2.22502 10.6375 2.42502C10.8792 2.62502 11 2.89169 11 3.22502C11 3.45835 10.9333 3.66669 10.8 3.85002C10.6667 4.03336 10.4833 4.15002 10.25 4.20002C8.41667 4.61669 6.91667 5.55002 5.75 7.00002C4.58333 8.45002 4 10.1167 4 12C4 13.8834 4.58333 15.55 5.75 17C6.91667 18.45 8.41667 19.3834 10.25 19.8C10.4833 19.85 10.6667 19.9667 10.8 20.15C10.9333 20.3334 11 20.5417 11 20.775C11 21.1084 10.8792 21.375 10.6375 21.575C10.3958 21.775 10.1167 21.8334 9.8 21.75ZM14.2 21.75C13.8833 21.8334 13.6042 21.775 13.3625 21.575C13.1208 21.375 13 21.1084 13 20.775C13 20.5417 13.0667 20.3334 13.2 20.15C13.3333 19.9667 13.5167 19.85 13.75 19.8C14.2 19.7 14.6375 19.5625 15.0625 19.3875C15.4875 19.2125 15.8917 19 16.275 18.75C16.4583 18.6167 16.6625 18.5667 16.8875 18.6C17.1125 18.6334 17.3083 18.7334 17.475 18.9C17.7083 19.1334 17.8083 19.4042 17.775 19.7125C17.7417 20.0209 17.5917 20.2667 17.325 20.45C16.8417 20.75 16.3375 21.0084 15.8125 21.225C15.2875 21.4417 14.75 21.6167 14.2 21.75ZM18.9 17.5C18.7333 17.3334 18.6333 17.1375 18.6 16.9125C18.5667 16.6875 18.6167 16.4834 18.75 16.3C19 15.9167 19.2125 15.5084 19.3875 15.075C19.5625 14.6417 19.7 14.2 19.8 13.75C19.85 13.5167 19.9667 13.3375 20.15 13.2125C20.3333 13.0875 20.5417 13.025 20.775 13.025C21.1083 13.025 21.375 13.1459 21.575 13.3875C21.775 13.6292 21.8333 13.9084 21.75 14.225C21.6167 14.775 21.4417 15.3125 21.225 15.8375C21.0083 16.3625 20.75 16.8667 20.45 17.35C20.2667 17.6167 20.0208 17.7667 19.7125 17.8C19.4042 17.8334 19.1333 17.7334 18.9 17.5ZM20.775 11C20.5417 11 20.3333 10.9334 20.15 10.8C19.9667 10.6667 19.85 10.4834 19.8 10.25C19.7 9.80002 19.5625 9.36252 19.3875 8.93752C19.2125 8.51252 19 8.10836 18.75 7.72502C18.6167 7.52502 18.5667 7.31252 18.6 7.08752C18.6333 6.86252 18.7333 6.66669 18.9 6.50002C19.1333 6.26669 19.4042 6.16669 19.7125 6.20002C20.0208 6.23336 20.2667 6.39169 20.45 6.67502C20.75 7.15836 21.0083 7.66252 21.225 8.18752C21.4417 8.71252 21.6167 9.25002 21.75 9.80002C21.8333 10.1167 21.775 10.3959 21.575 10.6375C21.375 10.8792 21.1083 11 20.775 11ZM16.275 5.25002C15.8917 5.00002 15.4875 4.78752 15.0625 4.61252C14.6375 4.43752 14.2 4.30002 13.75 4.20002C13.5167 4.15002 13.3333 4.03336 13.2 3.85002C13.0667 3.66669 13 3.45835 13 3.22502C13 2.89169 13.1208 2.62502 13.3625 2.42502C13.6042 2.22502 13.8833 2.16669 14.2 2.25002C14.75 2.38335 15.2875 2.55835 15.8125 2.77502C16.3375 2.99169 16.8417 3.25002 17.325 3.55002C17.6083 3.73336 17.7667 3.97919 17.8 4.28752C17.8333 4.59586 17.7333 4.86669 17.5 5.10002C17.3333 5.26669 17.1375 5.36669 16.9125 5.40002C16.6875 5.43336 16.475 5.38336 16.275 5.25002ZM11.975 17C11.6917 17 11.4542 16.9042 11.2625 16.7125C11.0708 16.5209 10.975 16.2834 10.975 16V10.875L9.1 12.775C8.9 12.975 8.6625 13.075 8.3875 13.075C8.1125 13.075 7.875 12.975 7.675 12.775C7.475 12.575 7.37083 12.3375 7.3625 12.0625C7.35417 11.7875 7.45 11.55 7.65 11.35L11.275 7.70002C11.4583 7.51669 11.6917 7.42502 11.975 7.42502C12.2583 7.42502 12.4917 7.51669 12.675 7.70002L16.25 11.275C16.45 11.475 16.5542 11.7167 16.5625 12C16.5708 12.2834 16.475 12.525 16.275 12.725C16.075 12.925 15.8333 13.025 15.55 13.025C15.2667 13.025 15.025 12.925 14.825 12.725L12.975 10.875V16C12.975 16.2834 12.8792 16.5209 12.6875 16.7125C12.4958 16.9042 12.2583 17 11.975 17Z" fill="#222222"/>
</g>
</svg>
