<svg width="24" height="24" viewBox="0 0 24 24" fill="none" xmlns="http://www.w3.org/2000/svg">
<rect width="24" height="24" fill="white"/>
<path fill-rule="evenodd" clip-rule="evenodd" d="M12.7792 3.78901C12.2771 3.78901 11.8701 3.38199 11.8701 2.87992C11.8701 2.37784 12.2771 1.97083 12.7792 1.97083H21.0909C21.593 1.97083 22 2.37784 22 2.87992V11.1916C22 11.6937 21.593 12.1007 21.0909 12.1007C20.5888 12.1007 20.1818 11.6937 20.1818 11.1916V5.07466L11.3441 13.9124C10.9891 14.2674 10.4135 14.2674 10.0585 13.9124C9.70345 13.5573 9.70345 12.9817 10.0585 12.6267L18.8962 3.78901H12.7792ZM2 5.51354C2 5.01147 2.40701 4.60445 2.90909 4.60445H9.7566C10.2587 4.60445 10.6657 5.01147 10.6657 5.51354C10.6657 6.01562 10.2587 6.42263 9.7566 6.42263H3.81818V20.4064H17.8019V14.9947C17.8019 14.4926 18.209 14.0856 18.711 14.0856C19.2131 14.0856 19.6201 14.4926 19.6201 14.9947V21.3155C19.6201 21.8176 19.2131 22.2246 18.711 22.2246H2.90909C2.40701 22.2246 2 21.8176 2 21.3155V5.51354Z" fill="#222222"/>
</svg>
