<svg width="24" height="24" viewBox="0 0 24 24" fill="none" xmlns="http://www.w3.org/2000/svg">
<path fill-rule="evenodd" clip-rule="evenodd" d="M11.6001 6C12.1524 6 12.6001 6.44772 12.6001 7V12H17.6001C18.1524 12 18.6001 12.4477 18.6001 13C18.6001 13.5523 18.1524 14 17.6001 14H11.6001C11.0478 14 10.6001 13.5523 10.6001 13V7C10.6001 6.44772 11.0478 6 11.6001 6ZM12 21C16.9706 21 21 16.9706 21 12C21 7.02944 16.9706 3 12 3C7.02944 3 3 7.02944 3 12C3 16.9706 7.02944 21 12 21ZM12 23C18.0751 23 23 18.0751 23 12C23 5.92487 18.0751 1 12 1C5.92487 1 1 5.92487 1 12C1 18.0751 5.92487 23 12 23Z" fill="#222222"/>
</svg>
