<svg width="24" height="24" viewBox="0 0 24 24" fill="none" xmlns="http://www.w3.org/2000/svg">
<path d="M18.5558 12.4594C18.5558 12.0202 18.5553 11.7308 18.5401 11.5081C18.5254 11.2925 18.4991 11.1983 18.4763 11.1432C18.3708 10.8887 18.1693 10.6865 17.9156 10.5814C17.8607 10.5587 17.7664 10.5335 17.5507 10.5187C17.3277 10.5035 17.0378 10.5031 16.5983 10.5031C16.1587 10.5031 15.8687 10.5035 15.6458 10.5187C15.4305 10.5335 15.3359 10.5587 15.281 10.5814C15.0273 10.6866 14.8256 10.8888 14.7203 11.1432C14.6975 11.1983 14.6723 11.2925 14.6576 11.5081C14.6424 11.7309 14.6419 12.0201 14.6419 12.4594V19.0157H18.5558V12.4594ZM8.10136 9.81812C8.54427 9.8183 8.9027 10.1776 8.9027 10.6206C8.90251 11.0634 8.54415 11.4217 8.10136 11.4219H7.40074C6.95783 11.4219 6.59847 11.0635 6.59828 10.6206C6.59828 10.1775 6.95771 9.81815 7.40074 9.81812H8.10136ZM11.0795 7.05819C11.5225 7.05819 11.8818 7.41771 11.882 7.86065C11.882 8.30371 11.5226 8.66311 11.0795 8.66311H7.40074C6.95771 8.66308 6.59828 8.30369 6.59828 7.86065C6.59843 7.41773 6.9578 7.05822 7.40074 7.05819H11.0795ZM13.037 7.12198C13.037 6.59493 13.0364 6.24758 13.0146 5.98152C12.9937 5.72504 12.9568 5.61526 12.924 5.55063C12.825 5.35632 12.6656 5.19725 12.4696 5.09736C12.4047 5.06433 12.2951 5.02767 12.0387 5.0067C11.7724 4.98493 11.4244 4.98432 10.896 4.98432H7.58541C7.05706 4.98432 6.7082 4.98493 6.44159 5.0067C6.18449 5.02772 6.07432 5.06437 6.00958 5.09736C5.81456 5.19682 5.6557 5.35557 5.55631 5.55063C5.52338 5.61546 5.48662 5.72599 5.46566 5.98264C5.44392 6.24919 5.44327 6.5973 5.44327 7.12534V19.0157H13.037V7.12198ZM14.6419 9.11079C14.6505 9.10712 14.659 9.10317 14.6677 9.0996C14.9507 8.98236 15.2399 8.93746 15.5373 8.91717C15.8274 8.89738 16.1808 8.89814 16.5983 8.89814C17.0157 8.89814 17.3691 8.89739 17.6593 8.91717C17.9566 8.93744 18.2459 8.98243 18.5289 9.0996C19.1766 9.36787 19.6912 9.88204 19.9592 10.5288C20.0764 10.8117 20.1202 11.1011 20.1405 11.3984C20.1604 11.6885 20.1596 12.0419 20.1596 12.4594V19.0157H21.1971C21.6401 19.0157 21.9995 19.3751 21.9995 19.8181C21.9994 20.2611 21.64 20.6206 21.1971 20.6206H2.80197C2.35899 20.6206 1.99964 20.2611 1.99951 19.8181C1.99951 19.3751 2.35891 19.0157 2.80197 19.0157H3.83947V7.12534C3.83947 6.62348 3.8391 6.19876 3.86745 5.8517C3.89655 5.49538 3.95967 5.15072 4.1271 4.82204C4.38034 4.32502 4.78399 3.92031 5.28099 3.66703C5.60973 3.49953 5.95538 3.43648 6.31177 3.40737C6.65875 3.37907 7.08377 3.37939 7.58541 3.37939H10.896C11.3979 3.37939 11.8228 3.37902 12.1696 3.40737C12.5257 3.4365 12.8698 3.49981 13.1982 3.66703C13.6944 3.91985 14.0995 4.32411 14.3532 4.82204C14.5206 5.15053 14.5849 5.49464 14.6139 5.85058C14.6423 6.19715 14.6419 6.62122 14.6419 7.12198V9.11079Z" fill="#444444"/>
</svg>
