<svg width="24" height="24" viewBox="0 0 24 24" fill="none" xmlns="http://www.w3.org/2000/svg">
<path d="M8.55176 3.6123C8.92504 3.66789 9.24858 3.91284 9.40039 4.2666L15.4648 18.415H21.0879C21.6953 18.4152 22.1875 18.9072 22.1875 19.5146C22.1875 20.1221 21.6953 20.6141 21.0879 20.6143H14.7383C14.2986 20.614 13.9008 20.3523 13.7275 19.9482L7.66406 5.7998H3.09863C2.49134 5.79954 1.99902 5.30755 1.99902 4.7002C1.99902 4.09284 2.49134 3.60085 3.09863 3.60059H8.38965L8.55176 3.6123ZM21.0879 3.60059C21.6954 3.60059 22.1885 4.09268 22.1885 4.7002C22.1885 5.30771 21.6954 5.7998 21.0879 5.7998H14.7393C14.1317 5.7998 13.6396 5.30771 13.6396 4.7002C13.6396 4.09268 14.1317 3.60059 14.7393 3.60059H21.0879Z" fill="#222222"/>
</svg>
