<svg width="24" height="24" viewBox="0 0 24 24" fill="none" xmlns="http://www.w3.org/2000/svg">
<path d="M13.0864 2.91406C12.5788 2.40637 11.7552 2.40637 11.2476 2.91406C10.7401 3.4217 10.7401 4.24431 11.2476 4.75195L18.4956 11.999L11.2476 19.2471C10.7399 19.7547 10.7399 20.5783 11.2476 21.0859C11.7553 21.5935 12.5788 21.5936 13.0864 21.0859L21.2524 12.9189C21.7601 12.4113 21.7601 11.5878 21.2524 11.0801L13.0864 2.91406ZM4.91944 2.91406C4.41176 2.40637 3.58825 2.40637 3.08057 2.91406C2.57333 3.42165 2.57333 4.24435 3.08057 4.75195L10.3286 11.999L3.08057 19.2471C2.57306 19.7548 2.57294 20.5783 3.08057 21.0859C3.5882 21.5936 4.41175 21.5934 4.91944 21.0859L13.0864 12.9189C13.594 12.4112 13.5941 11.5877 13.0864 11.0801L4.91944 2.91406Z" fill="#222222"/>
</svg>
