<svg width="24" height="24" viewBox="0 0 24 24" fill="none" xmlns="http://www.w3.org/2000/svg">
<path d="M15.5293 10.7736C16.4135 10.7736 17.1304 10.0568 17.1304 9.1726C17.1304 8.28837 16.4135 7.57156 15.5293 7.57156C14.6451 7.57156 13.9283 8.28837 13.9283 9.1726C13.9283 10.0568 14.6451 10.7736 15.5293 10.7736Z" fill="#222222"/>
<path fill-rule="evenodd" clip-rule="evenodd" d="M3.03552 3.63312C1.71526 3.63312 0.644989 4.70339 0.644989 6.02364V17.9763C0.644989 19.2965 1.71526 20.3668 3.03552 20.3668H20.9645C22.2847 20.3668 23.355 19.2965 23.355 17.9763V6.02364C23.355 4.70339 22.2847 3.63312 20.9645 3.63312H3.03552ZM20.9645 5.78459H3.03552C2.90349 5.78459 2.79646 5.89162 2.79646 6.02364V16.4176L8.28787 11.5423C8.77042 11.1139 9.50593 11.1458 9.94951 11.6145L12.2502 14.0453C12.6909 14.5109 13.4205 14.5459 13.9038 14.1246L15.1198 13.0645C15.5666 12.675 16.2316 12.6718 16.6821 13.0571L21.0504 16.7932C21.1066 16.8413 21.1578 16.8941 21.2035 16.9508V6.02364C21.2035 5.89162 21.0965 5.78459 20.9645 5.78459Z" fill="#222222"/>
</svg>
