<svg width="24" height="24" viewBox="0 0 24 24" fill="none" xmlns="http://www.w3.org/2000/svg">
<path d="M9.66699 9.94824C10.1823 9.94842 10.5996 10.3665 10.5996 10.8818C10.5995 11.3971 10.1822 11.8143 9.66699 11.8145H7.93359C7.41821 11.8145 7.00014 11.3972 7 10.8818C7 10.3664 7.41813 9.94824 7.93359 9.94824H9.66699ZM16.0674 9.94824C16.5828 9.94824 17.001 10.3664 17.001 10.8818C17.0008 11.3972 16.5828 11.8145 16.0674 11.8145H14.334C13.8187 11.8143 13.4005 11.3971 13.4004 10.8818C13.4004 10.3664 13.8186 9.94836 14.334 9.94824H16.0674ZM9.66699 6.0957C10.1823 6.09588 10.5996 6.51394 10.5996 7.0293C10.5994 7.54448 10.1822 7.96174 9.66699 7.96191H7.93359C7.41825 7.96191 7.0002 7.54459 7 7.0293C7 6.51383 7.41813 6.0957 7.93359 6.0957H9.66699ZM16.0674 6.0957C16.5828 6.0957 17.001 6.51383 17.001 7.0293C17.0008 7.54464 16.5828 7.96191 16.0674 7.96191H14.334C13.8187 7.96179 13.4005 7.54457 13.4004 7.0293C13.4004 6.51391 13.8186 6.09583 14.334 6.0957H16.0674Z" fill="#222222"/>
<path d="M2 21H22" stroke="#222222" stroke-width="2" stroke-linecap="round"/>
<path d="M4 21V5C4 3.89543 4.89543 3 6 3H18C19.1046 3 20 3.89543 20 5V21" stroke="#222222" stroke-width="2"/>
<path d="M9 21V16C9 15.4477 9.44772 15 10 15H14C14.5523 15 15 15.4477 15 16V21" stroke="#222222" stroke-width="2"/>
</svg>
