<svg width="24" height="24" viewBox="0 0 24 24" fill="none" xmlns="http://www.w3.org/2000/svg">
<path d="M17.1365 13.1284H4.6076C4.28994 13.1284 4.02367 13.021 3.80878 12.8061C3.59389 12.5912 3.48645 12.3249 3.48645 12.0073C3.48645 11.6896 3.59389 11.4234 3.80878 11.2085C4.02367 10.9936 4.28994 10.8861 4.6076 10.8861H17.1365L11.6428 5.3925C11.4186 5.16827 11.3111 4.90667 11.3205 4.6077C11.3298 4.30872 11.4466 4.04712 11.6708 3.82289C11.8951 3.61735 12.1567 3.5099 12.4556 3.50056C12.7546 3.49122 13.0162 3.59866 13.2405 3.82289L20.64 11.2225C20.7522 11.3346 20.8316 11.4561 20.8783 11.5869C20.925 11.7177 20.9484 11.8578 20.9484 12.0073C20.9484 12.1568 20.925 12.2969 20.8783 12.4277C20.8316 12.5585 20.7522 12.68 20.64 12.7921L13.2405 20.1917C13.0349 20.3972 12.778 20.5 12.4697 20.5C12.1613 20.5 11.8951 20.3972 11.6708 20.1917C11.4466 19.9675 11.3345 19.7012 11.3345 19.3929C11.3345 19.0845 11.4466 18.8183 11.6708 18.594L17.1365 13.1284Z" fill="#222222"/>
</svg>
