<svg width="24" height="24" viewBox="0 0 24 24" fill="none" xmlns="http://www.w3.org/2000/svg">
<g clip-path="url(#clip0_818_51246)">
<path fill-rule="evenodd" clip-rule="evenodd" d="M16.6333 9.63457C15.4194 9.45785 14.3687 8.69567 13.8252 7.59435C13.8252 7.59428 13.8253 7.59442 13.8252 7.59435L12 3.89596L10.1757 7.594C9.63111 8.69764 8.57781 9.45819 7.36628 9.63457L3.2863 10.2275L6.23868 13.1054C6.67095 13.5274 6.99554 14.0491 7.18232 14.6236C7.3691 15.198 7.41368 15.8093 7.31222 16.4048L7.31177 16.4074L6.61449 20.4718L10.2639 18.553C10.2636 18.5532 10.2641 18.5529 10.2639 18.553C10.7991 18.2715 11.3956 18.124 12.0004 18.124C12.6051 18.124 13.2008 18.2711 13.736 18.5526C13.7358 18.5525 13.7363 18.5527 13.736 18.5526L17.385 20.4712L16.6878 16.4074C16.5861 15.8116 16.6303 15.1983 16.8171 14.6235C17.004 14.0487 17.3277 13.5279 17.7604 13.1059L20.7134 10.2274L16.6333 9.63457ZM17.8613 23.3152L12.6677 20.5845C12.4619 20.4762 12.2329 20.4196 12.0004 20.4196C11.7678 20.4196 11.5388 20.4762 11.333 20.5845L6.13946 23.3152C5.08601 23.8676 3.85625 22.9748 4.05712 21.802L5.04918 16.0192C5.08825 15.7899 5.07109 15.5546 4.99917 15.3334C4.92725 15.1122 4.80273 14.9117 4.63629 14.7493L0.434784 10.6538C-0.416676 9.82463 0.0531333 8.37726 1.23045 8.20653L7.03555 7.36288C7.50313 7.29481 7.90822 7.00131 8.1169 6.57837L10.7126 1.31673C11.2393 0.249893 12.7603 0.249893 13.287 1.31673L15.8838 6.57837C16.0925 7.00131 16.4965 7.29481 16.964 7.36288L22.7703 8.20653C23.9465 8.37726 24.4174 9.82463 23.5648 10.6538L19.3633 14.7493C19.1968 14.9117 19.0722 15.1121 19.0003 15.3333C18.9284 15.5545 18.9113 15.7899 18.9504 16.0192L19.9425 21.802C20.1434 22.9748 18.9136 23.8676 17.8613 23.3152Z" fill="#222222"/>
</g>
<defs>
<clipPath id="clip0_818_51246">
<rect width="24" height="24" fill="white"/>
</clipPath>
</defs>
</svg>
