<svg width="24" height="24" viewBox="0 0 24 24" fill="none" xmlns="http://www.w3.org/2000/svg">
<path d="M3.06975 3.06996C5.40672 0.733841 8.57441 -0.269111 11.6188 0.0614605C12.239 0.129369 12.6878 0.687354 12.6206 1.30777C12.5532 1.92843 11.9949 2.37661 11.3743 2.30955C8.98169 2.04975 6.50165 2.83814 4.66944 4.66965C1.45969 7.87873 1.45967 13.0781 4.66944 16.2871C7.87981 19.4962 13.083 19.4964 16.2932 16.2871C18.4312 14.1493 19.1518 11.1075 18.4135 8.35809C18.252 7.75514 18.6105 7.13487 19.2134 6.97296C19.8162 6.81181 20.4367 7.17005 20.5985 7.7728C21.4459 10.9294 20.7784 14.3896 18.6407 17.0412L23.6686 22.0707L23.8137 22.2473C24.1034 22.6862 24.0548 23.2824 23.6686 23.6688C23.2822 24.0551 22.6861 24.1036 22.2471 23.8139L22.0704 23.6688L17.0442 18.6441C12.9284 21.9591 6.8922 21.7078 3.06975 17.8868C-1.02326 13.7945 -1.02324 7.16226 3.06975 3.06996Z" fill="#222222"/>
<path d="M10.1469 5.11769C10.2437 4.78835 10.7111 4.78834 10.8079 5.11769L11.9469 8.70359C11.9946 8.8538 12.1122 8.97153 12.2625 9.01911L15.8389 10.1487C16.1685 10.2454 16.1685 10.7114 15.8389 10.8081L12.2625 11.9345C12.112 11.982 11.9946 12.1012 11.9469 12.2516L10.8079 15.8391C10.7111 16.1684 10.2437 16.1684 10.1469 15.8391L9.03152 12.2532C8.98423 12.1014 8.8646 11.9821 8.71285 11.9345L5.11748 10.8081C4.78763 10.7115 4.78763 10.2453 5.11748 10.1487L8.71285 9.02069C8.86445 8.97312 8.98421 8.85368 9.03152 8.70201L10.1469 5.11769Z" fill="#222222"/>
<path d="M16.4605 1.23047C16.4995 1.09777 16.6879 1.0979 16.7271 1.23047L17.1404 2.53357C17.1881 2.68394 17.3071 2.80319 17.4575 2.85067L18.7559 3.25927C18.8888 3.29828 18.8888 3.48688 18.7559 3.52588L17.4575 3.93606C17.307 3.98352 17.1881 4.10114 17.1404 4.25158L16.7271 5.55469C16.688 5.68749 16.4995 5.68748 16.4605 5.55469L16.055 4.25316C16.0076 4.10157 15.8895 3.98197 15.7379 3.93448L14.4317 3.52588C14.299 3.48674 14.2988 3.29825 14.4317 3.25927L15.7379 2.85067C15.8895 2.80311 16.0077 2.68361 16.055 2.53199L16.4605 1.23047Z" fill="#222222"/>
</svg>
