<svg width="24" height="24" viewBox="0 0 24 24" fill="none" xmlns="http://www.w3.org/2000/svg">
<path d="M14.5001 13.6667H9.5001C9.27909 13.6667 9.06712 13.5789 8.91084 13.4226C8.75456 13.2663 8.66677 13.0544 8.66677 12.8333C8.66677 12.6123 8.75456 12.4004 8.91084 12.2441C9.06712 12.0878 9.27909 12 9.5001 12H14.5001C14.7211 12 14.9331 12.0878 15.0893 12.2441C15.2456 12.4004 15.3334 12.6123 15.3334 12.8333C15.3334 13.0544 15.2456 13.2663 15.0893 13.4226C14.9331 13.5789 14.7211 13.6667 14.5001 13.6667Z" fill="#222222"/>
<path fill-rule="evenodd" clip-rule="evenodd" d="M6.16667 2H17.8333C18.938 2.00132 19.997 2.44073 20.7782 3.22185C21.5593 4.00296 21.9987 5.062 22 6.16667V7C21.9998 7.35145 21.9254 7.6989 21.7818 8.01968C21.6382 8.34046 21.4286 8.62737 21.1667 8.86167V17.8333C21.1653 18.938 20.7259 19.997 19.9448 20.7782C19.1637 21.5593 18.1047 21.9987 17 22H7C5.89534 21.9987 4.8363 21.5593 4.05518 20.7782C3.27407 19.997 2.83466 18.938 2.83333 17.8333V8.86167C2.57138 8.62737 2.36176 8.34046 2.21817 8.01968C2.07458 7.6989 2.00024 7.35145 2 7V6.16667C2.00132 5.062 2.44073 4.00296 3.22185 3.22185C4.00296 2.44073 5.062 2.00132 6.16667 2ZM4.3989 4.3989C3.93006 4.86774 3.66667 5.50363 3.66667 6.16667V7C3.66667 7.22101 3.75446 7.43297 3.91074 7.58926C4.06702 7.74554 4.27899 7.83333 4.5 7.83333H19.5C19.721 7.83333 19.933 7.74554 20.0893 7.58926C20.2455 7.43297 20.3333 7.22101 20.3333 7V6.16667C20.3333 5.50363 20.0699 4.86774 19.6011 4.3989C19.1323 3.93006 18.4964 3.66667 17.8333 3.66667H6.16667C5.50362 3.66667 4.86774 3.93006 4.3989 4.3989ZM18.7678 19.6011C19.2366 19.1323 19.5 18.4964 19.5 17.8333V9.5H4.5V17.8333C4.5 18.4964 4.76339 19.1323 5.23223 19.6011C5.70107 20.0699 6.33696 20.3333 7 20.3333H17C17.663 20.3333 18.2989 20.0699 18.7678 19.6011Z" fill="#222222"/>
</svg>
