<svg width="24" height="24" viewBox="0 0 24 24" fill="none" xmlns="http://www.w3.org/2000/svg">
<g clip-path="url(#clip0_818_51244)">
<path d="M15.8838 6.57837L13.287 1.31673C12.7603 0.249893 11.2393 0.249893 10.7126 1.31673L8.11689 6.57837C8.09081 6.63124 8.06166 6.68209 8.0297 6.73072C7.80597 7.07116 7.44468 7.30331 7.03555 7.36288L1.23045 8.20653C0.0531333 8.37726 -0.416676 9.82463 0.434784 10.6538L4.63629 14.7493C4.80273 14.9117 4.92725 15.1122 4.99917 15.3334C5.07109 15.5546 5.08825 15.7899 5.04918 16.0192L4.05712 21.802C3.85625 22.9748 5.08601 23.8676 6.13945 23.3152L11.333 20.5845C11.5388 20.4762 11.7678 20.4196 12.0004 20.4196C12.2329 20.4196 12.4619 20.4762 12.6677 20.5845L17.8613 23.3152C18.9136 23.8676 20.1434 22.9748 19.9425 21.802L18.9504 16.0192C18.9113 15.7899 18.9284 15.5545 19.0003 15.3333C19.0722 15.1121 19.1968 14.9117 19.3633 14.7493L23.5648 10.6538C24.4174 9.82463 23.9465 8.37726 22.7703 8.20653L16.964 7.36288C16.4965 7.2948 16.0925 7.00131 15.8838 6.57837Z" fill="#222222"/>
</g>
<defs>
<clipPath id="clip0_818_51244">
<rect width="24" height="24" fill="white"/>
</clipPath>
</defs>
</svg>
