<svg width="24" height="24" viewBox="0 0 24 24" fill="none" xmlns="http://www.w3.org/2000/svg">
<path fill-rule="evenodd" clip-rule="evenodd" d="M16.5533 3.91478C13.0627 0.42424 7.40532 0.42424 3.91478 3.91478C0.42424 7.40532 0.42424 13.0627 3.91478 16.5533C7.09326 19.7317 12.0685 20.0159 15.5682 17.4057L20.3386 22.1761C20.8463 22.6838 21.6694 22.6838 22.1771 22.1761C22.6847 21.6684 22.6847 20.8453 22.1771 20.3376L17.4063 15.5668C19.063 13.3423 19.5554 10.512 18.861 7.92553L18.8604 7.92341C18.4618 6.4487 17.7005 5.06203 16.5533 3.91478ZM5.75326 5.75326C8.22843 3.27808 12.2396 3.27808 14.7148 5.75326C15.5216 6.56008 16.0631 7.53884 16.3503 8.60097C16.9192 10.7223 16.3628 13.0668 14.7148 14.7148C12.2396 17.19 8.22843 17.19 5.75326 14.7148C3.27808 12.2396 3.27808 8.22843 5.75326 5.75326Z" fill="#222222"/>
</svg>
