<svg width="24" height="24" viewBox="0 0 24 24" fill="none" xmlns="http://www.w3.org/2000/svg">
<path d="M20.7019 18.1044C21.206 17.2463 21.4527 16.2059 21.2167 15.0797C20.852 13.3207 19.3719 11.9156 17.5914 11.6904C14.7705 11.3257 12.3894 13.6961 12.7648 16.517C13.0008 18.2975 14.3951 19.7776 16.1541 20.1423C17.2803 20.3783 18.3207 20.1316 19.1788 19.6275L21.1738 21.6225C21.5921 22.0408 22.2678 22.0408 22.6861 21.6225C23.1045 21.2042 23.1045 20.5284 22.6861 20.1101L20.7019 18.1044ZM17.0229 18.0829C15.8431 18.0829 14.8778 17.1176 14.8778 15.9378C14.8778 14.758 15.8431 13.7926 17.0229 13.7926C18.2028 13.7926 19.1681 14.758 19.1681 15.9378C19.1681 17.1176 18.2028 18.0829 17.0229 18.0829Z" fill="#292C32"/>
<path d="M10.4512 11.7434C11.0181 11.7434 11.5532 11.7767 12.0566 11.8391C11.0414 13.0618 10.4699 14.6652 10.5977 16.4055L10.6377 16.8C10.7781 17.8578 11.1854 18.8384 11.7861 19.6731C11.3247 19.6895 10.8752 19.6975 10.4512 19.6975C7.03826 19.6975 2.00041 19.2176 2 17.4172C2 15.6158 4.36678 11.7435 10.4512 11.7434ZM14.5234 12.4475C15.4539 12.8081 16.2198 13.281 16.8369 13.802C15.7437 13.8973 14.8782 14.8209 14.8779 15.9377L14.8887 16.1565C14.9918 17.1627 15.7984 17.9685 16.8047 18.0715L17.0234 18.0833C17.8073 18.0831 18.4939 17.655 18.8682 17.0227C18.8905 17.1626 18.9033 17.2947 18.9033 17.4172C18.9031 18.5503 16.9071 19.1587 14.5771 19.4553C13.6096 18.7775 12.9237 17.716 12.7646 16.5168C12.5421 14.8433 13.2892 13.3269 14.5234 12.4475ZM10.4512 2.00024C11.5717 2.00016 12.646 2.44531 13.4385 3.23755C14.231 4.02986 14.6766 5.10424 14.6768 6.22485C14.6768 6.77973 14.5678 7.32938 14.3555 7.84204C14.1432 8.35466 13.8317 8.82076 13.4395 9.21313C13.0473 9.60534 12.5817 9.9168 12.0693 10.1292C11.5568 10.3415 11.007 10.4504 10.4521 10.4504C9.33152 10.4506 8.25635 10.0055 7.46387 9.21313C6.67154 8.42085 6.2267 7.34632 6.22656 6.22583C6.22651 5.67095 6.33556 5.1213 6.54785 4.60864C6.76014 4.09605 7.07159 3.6299 7.46387 3.23755C8.25615 2.4453 9.33072 2.00036 10.4512 2.00024Z" fill="#292C32"/>
</svg>
