<svg width="24" height="24" viewBox="0 0 24 24" fill="none" xmlns="http://www.w3.org/2000/svg">
<path d="M9.10034 14.4125L11.9172 11.5957M11.9172 11.5957L14.734 14.4125M11.9172 11.5957V18.1683" stroke="#222222" stroke-width="1.7" stroke-linecap="round" stroke-linejoin="round"/>
<path d="M14.0035 1.98584H6.57675C6.00043 1.98584 5.45958 2.26417 5.12459 2.73315L1.48584 7.8274M1.48584 7.8274V18.4449C1.48584 20.4161 3.08379 22.0141 5.05497 22.0141H14.0035M1.48584 7.8274H14.0035" stroke="#222222" stroke-width="1.7" stroke-linecap="round" stroke-linejoin="round"/>
<path d="M9.831 1.98584H17.2577C17.834 1.98584 18.3749 2.26417 18.7099 2.73315L22.3486 7.8274M22.3486 7.8274V18.4449C22.3486 20.4161 20.7507 22.0141 18.7795 22.0141H9.831M22.3486 7.8274H9.831" stroke="#222222" stroke-width="1.7" stroke-linecap="round" stroke-linejoin="round"/>
</svg>
