<svg width="24" height="24" viewBox="0 0 24 24" fill="none" xmlns="http://www.w3.org/2000/svg">
<path d="M7.13129 13.373C7.58827 12.8934 8.34772 12.8743 8.82758 13.331C9.30712 13.7879 9.32603 14.5474 8.86957 15.0273L5.44086 18.6279C5.21724 18.8626 4.90763 18.9967 4.58344 18.9999C4.25905 19.003 3.94636 18.8741 3.7182 18.6435L1.14691 16.0439C0.681073 15.5727 0.685531 14.8126 1.15668 14.3466C1.62792 13.881 2.38805 13.8853 2.85394 14.3564L4.55511 16.0761L7.13129 13.373ZM21.0004 14.9999C21.663 15.0002 22.2006 15.5375 22.2006 16.2001C22.2006 16.8627 21.663 17.4001 21.0004 17.4003H12.0004C11.3377 17.4003 10.8002 16.8629 10.8002 16.2001C10.8003 15.5374 11.3377 14.9999 12.0004 14.9999H21.0004ZM7.13129 4.37299C7.58827 3.8934 8.34772 3.87431 8.82758 4.33099C9.30712 4.7879 9.32603 5.5474 8.86957 6.02728L5.44086 9.62787C5.21724 9.86264 4.90763 9.9967 4.58344 9.99994C4.25905 10.003 3.94636 9.87408 3.7182 9.64349L1.14691 7.04388C0.681073 6.57266 0.685531 5.81259 1.15668 5.34662C1.62792 4.88101 2.38805 4.88532 2.85394 5.35638L4.55511 7.07611L7.13129 4.37299ZM21.0004 5.99994C21.663 6.00016 22.2006 6.53755 22.2006 7.20013C22.2006 7.86274 21.663 8.4001 21.0004 8.40033H12.0004C11.3377 8.40033 10.8002 7.86288 10.8002 7.20013C10.8003 6.53741 11.3377 5.99994 12.0004 5.99994H21.0004Z" fill="#222222"/>
</svg>
