<svg width="24" height="24" viewBox="0 0 24 24" fill="none" xmlns="http://www.w3.org/2000/svg">
<path fill-rule="evenodd" clip-rule="evenodd" d="M12.0001 7.43668C9.47988 7.43668 7.43684 9.47972 7.43684 11.9999C7.43684 14.5202 9.47988 16.5632 12.0001 16.5632C14.5203 16.5632 16.5634 14.5202 16.5634 11.9999C16.5634 9.47972 14.5203 7.43668 12.0001 7.43668ZM9.44414 11.9999C9.44414 10.5883 10.5885 9.44398 12.0001 9.44398C13.4117 9.44398 14.5561 10.5883 14.5561 11.9999C14.5561 13.4116 13.4117 14.5559 12.0001 14.5559C10.5885 14.5559 9.44414 13.4116 9.44414 11.9999Z" fill="#222222"/>
<path fill-rule="evenodd" clip-rule="evenodd" d="M11.3978 1C10.0349 1 8.85352 1.9702 8.60428 3.32022L8.60319 3.32627C8.40361 4.44561 7.24227 5.11301 6.18915 4.72772L6.17993 4.72445C4.9035 4.27152 3.45628 4.78093 2.76766 5.97036L2.16355 7.03092C1.48017 8.21503 1.74812 9.72544 2.78929 10.6C3.66434 11.3364 3.66364 12.6641 2.78859 13.4006C1.73203 14.2914 1.48256 15.7891 2.16353 16.9691L2.76416 18.0235L2.76768 18.0296C3.45392 19.215 4.88561 19.7301 6.16655 19.2756L6.17329 19.2731C7.24482 18.8843 8.40427 19.5582 8.60317 20.6737L8.60428 20.6798C8.85189 22.021 10.0125 23 11.3844 23H12.6022C13.9604 23 15.1509 22.0328 15.3841 20.6702C15.5846 19.5576 16.7411 18.8857 17.8108 19.2722C19.1112 19.7523 20.5404 19.2018 21.219 18.0296L21.8231 16.969C22.5059 15.7859 22.2382 14.2764 21.1992 13.4015C20.3354 12.6653 20.3361 11.3361 21.2114 10.5994C22.268 9.7086 22.5175 8.21084 21.8365 7.03091L21.2359 5.97646L21.2323 5.97037C20.5461 4.78505 19.1144 4.26989 17.8335 4.72443L17.8267 4.72687C16.7552 5.11573 15.5958 4.44182 15.3969 3.32626L15.3957 3.32022C15.1465 1.9702 13.9651 1 12.6022 1H11.3978ZM5.50526 6.61498C7.74129 7.42907 10.1611 6.01133 10.5786 3.68238C10.6515 3.29389 10.9951 3.0073 11.3978 3.0073H12.6022C13.0049 3.0073 13.3485 3.29389 13.4214 3.68238C13.8397 6.01564 16.2624 7.42706 18.5072 6.61531C18.8841 6.4829 19.2967 6.63588 19.4938 6.97366L20.0938 8.02719L20.0974 8.03328C20.2972 8.37838 20.2249 8.80563 19.9175 9.06481C18.0911 10.6026 18.0907 13.3937 19.9011 14.9326L19.9056 14.9364C20.2016 15.1851 20.2814 15.6258 20.084 15.9667L20.0805 15.9728L19.4803 17.0264C19.276 17.3767 18.8618 17.5211 18.5048 17.3887L18.4981 17.3862C16.2509 16.5707 13.824 17.9844 13.4073 20.3214L13.4058 20.3301C13.3425 20.7045 13.0087 20.9927 12.6022 20.9927H11.3844C10.9907 20.9927 10.6531 20.7149 10.5787 20.3176C10.1603 17.9843 7.73753 16.5729 5.49268 17.3847C5.11588 17.5171 4.70338 17.3641 4.50629 17.0264L3.90619 15.9728L3.90266 15.9667C3.70287 15.6216 3.77509 15.1944 4.08249 14.9352C5.9099 13.3966 5.90896 10.6019 4.08108 9.06362C3.78503 8.81493 3.70528 8.37421 3.90266 8.03328L3.90617 8.02717L4.50626 6.97368C4.70092 6.64021 5.12412 6.48157 5.50526 6.61498Z" fill="#222222"/>
</svg>
