<svg width="24" height="24" viewBox="0 0 24 24" fill="none" xmlns="http://www.w3.org/2000/svg">
<path d="M21.4403 11.0497L12.2503 20.2397C11.1244 21.3655 9.59747 21.998 8.00529 21.998C6.41311 21.998 4.88613 21.3655 3.76029 20.2397C2.63445 19.1138 2.00195 17.5869 2.00195 15.9947C2.00195 14.4025 2.63445 12.8755 3.76029 11.7497L12.3303 3.17967C13.0809 2.42778 14.0994 2.00485 15.1618 2.00391C16.2241 2.00297 17.2434 2.42411 17.9953 3.17467C18.7472 3.92523 19.1701 4.94374 19.171 6.00613C19.172 7.06853 18.7509 8.08778 18.0003 8.83967L9.41029 17.4097C9.03501 17.7849 8.52602 17.9958 7.99529 17.9958C7.46456 17.9958 6.95557 17.7849 6.58029 17.4097C6.20501 17.0344 5.99418 16.5254 5.99418 15.9947C5.99418 15.4639 6.20501 14.9549 6.58029 14.5797L15.0703 6.09967" stroke="#222222" stroke-width="2" stroke-linecap="round" stroke-linejoin="round"/>
</svg>
