<svg width="25" height="18" viewBox="0 0 25 18" fill="none" xmlns="http://www.w3.org/2000/svg">
<path d="M0 9C0 4.02944 4.02944 0 9 0H16C20.9706 0 25 4.02944 25 9C25 13.9706 20.9706 18 16 18H9C4.02944 18 0 13.9706 0 9Z" fill="#222222"/>
<path d="M10.2549 5.22266V13H8.63281V6.75879H8.58984L6.80664 7.87598V6.44727L8.72949 5.22266H10.2549ZM15.0781 13.1074C13.1284 13.1074 11.9521 11.6572 11.9521 9.11133C11.9521 6.5708 13.1392 5.11523 15.0781 5.11523C17.0171 5.11523 18.2041 6.5708 18.2041 9.11133C18.2041 11.668 17.0225 13.1074 15.0781 13.1074ZM13.6064 9.11133C13.5957 10.9053 14.1758 11.7754 15.0781 11.7754C15.9805 11.7754 16.5552 10.9053 16.5498 9.11133C16.5552 7.3335 15.9751 6.44189 15.0781 6.43652C14.1812 6.44189 13.6064 7.3335 13.6064 9.11133Z" fill="white"/>
</svg>
