<svg width="24" height="24" viewBox="0 0 24 24" fill="none" xmlns="http://www.w3.org/2000/svg">
<path d="M9.83133 5.17763C9.83133 6.18182 9.01727 6.99588 8.01307 6.99588C7.00888 6.99588 6.19482 6.18182 6.19482 5.17763C6.19482 4.17343 7.00888 3.35938 8.01307 3.35938C9.01727 3.35938 9.83133 4.17343 9.83133 5.17763Z" fill="#222222"/>
<path d="M17.8046 5.17763C17.8046 6.18182 16.9905 6.99588 15.9863 6.99588C14.9821 6.99588 14.1681 6.18182 14.1681 5.17763C14.1681 4.17343 14.9821 3.35938 15.9863 3.35938C16.9905 3.35938 17.8046 4.17343 17.8046 5.17763Z" fill="#222222"/>
<path d="M8.01307 14.0131C9.01727 14.0131 9.83133 13.199 9.83133 12.1948C9.83133 11.1906 9.01727 10.3766 8.01307 10.3766C7.00888 10.3766 6.19482 11.1906 6.19482 12.1948C6.19482 13.199 7.00888 14.0131 8.01307 14.0131Z" fill="#222222"/>
<path d="M17.8046 12.1948C17.8046 13.199 16.9905 14.0131 15.9863 14.0131C14.9821 14.0131 14.1681 13.199 14.1681 12.1948C14.1681 11.1906 14.9821 10.3766 15.9863 10.3766C16.9905 10.3766 17.8046 11.1906 17.8046 12.1948Z" fill="#222222"/>
<path d="M8.01307 21.0301C9.01727 21.0301 9.83133 20.2161 9.83133 19.2119C9.83133 18.2077 9.01727 17.3936 8.01307 17.3936C7.00888 17.3936 6.19482 18.2077 6.19482 19.2119C6.19482 20.2161 7.00888 21.0301 8.01307 21.0301Z" fill="#222222"/>
<path d="M17.8046 19.2119C17.8046 20.2161 16.9905 21.0301 15.9863 21.0301C14.9821 21.0301 14.1681 20.2161 14.1681 19.2119C14.1681 18.2077 14.9821 17.3936 15.9863 17.3936C16.9905 17.3936 17.8046 18.2077 17.8046 19.2119Z" fill="#222222"/>
</svg>
