<svg width="24" height="24" viewBox="0 0 24 24" fill="none" xmlns="http://www.w3.org/2000/svg">
<path fill-rule="evenodd" clip-rule="evenodd" d="M7.5 2.09961C7.5 1.54732 7.05228 1.09961 6.5 1.09961C5.94772 1.09961 5.5 1.54732 5.5 2.09961V4.4996H5C3.34315 4.4996 2 5.84275 2 7.4996V19.4996C2 21.1565 3.34315 22.4996 5 22.4996H19C20.6569 22.4996 22 21.1565 22 19.4996V7.4996C22 5.84275 20.6569 4.4996 19 4.4996H18.5V2.09961C18.5 1.54732 18.0523 1.09961 17.5 1.09961C16.9477 1.09961 16.5 1.54732 16.5 2.09961V4.4996H7.5V2.09961ZM4 9.4996L4 19.4996C4 20.0519 4.44772 20.4996 5 20.4996H19C19.5523 20.4996 20 20.0519 20 19.4996V9.4996H4Z" fill="#222222"/>
</svg>
