<svg width="24" height="24" viewBox="0 0 24 24" fill="none" xmlns="http://www.w3.org/2000/svg">
<path fill-rule="evenodd" clip-rule="evenodd" d="M9.77417 1.18683C15.8308 -0.165672 21.2137 4.41692 21.2137 10.2575C21.2137 13.9743 19.0259 17.0059 13.3342 22.4772L13.3336 22.4779C12.5337 23.2455 11.2681 23.2393 10.4737 22.477L10.473 22.4763C4.97281 17.1885 2.73834 14.1732 2.60152 10.6138L2.60152 10.6138C2.43241 6.21304 5.43806 2.1537 9.77398 1.18599L9.77417 1.18683ZM10.277 3.43972C7.0667 4.15621 4.7812 7.19947 4.90899 10.5251C5.00447 13.0089 6.46438 15.399 11.9041 20.6486C17.5288 15.221 18.9045 12.8452 18.9045 10.2575C18.9045 5.86589 14.8628 2.41637 10.2772 3.44056L10.277 3.43972ZM11.8801 9.01464C11.7149 9.01147 11.5506 9.04129 11.397 9.10234C11.2433 9.1634 11.1034 9.25448 10.9854 9.37025C10.8674 9.48602 10.7736 9.62416 10.7097 9.77659C10.6457 9.92901 10.6127 10.0927 10.6127 10.258C10.6127 10.4233 10.6457 10.587 10.7097 10.7394C10.7736 10.8918 10.8674 11.03 10.9854 11.1457C11.1034 11.2615 11.2433 11.3526 11.397 11.4136C11.5506 11.4747 11.7149 11.5045 11.8801 11.5013C12.2058 11.4951 12.5159 11.3613 12.744 11.1289C12.9721 10.8964 13.0998 10.5837 13.0998 10.258C13.0998 9.93231 12.9721 9.61962 12.744 9.38713C12.5159 9.15464 12.2058 9.0209 11.8801 9.01464ZM10.5441 6.95644C10.983 6.782 11.4523 6.69683 11.9245 6.70589C12.8547 6.72375 13.7409 7.10584 14.3924 7.77004C15.044 8.43425 15.409 9.32755 15.409 10.258C15.409 11.1884 15.044 12.0817 14.3924 12.7459C13.7409 13.4101 12.8547 13.7922 11.9245 13.8101C11.4523 13.8192 10.983 13.734 10.5441 13.5595C10.1052 13.3851 9.70547 13.1249 9.36832 12.7942C9.03117 12.4634 8.76335 12.0688 8.58051 11.6333C8.39768 11.1978 8.30352 10.7303 8.30352 10.258C8.30352 9.7857 8.39768 9.31815 8.58051 8.88268C8.76335 8.4472 9.03117 8.05256 9.36832 7.72182C9.70547 7.39108 10.1052 7.13088 10.5441 6.95644Z" fill="#222222"/>
</svg>
