<svg width="24" height="24" viewBox="0 0 24 24" fill="none" xmlns="http://www.w3.org/2000/svg">
<path fill-rule="evenodd" clip-rule="evenodd" d="M5.04907 15.3888C4.33659 15.981 3.83758 16.8278 3.58484 17.8387C3.47707 18.2698 3.04024 18.5319 2.60914 18.4241C2.17805 18.3163 1.91595 17.8795 2.02372 17.4484C2.34569 16.1605 3.00454 14.9958 4.0204 14.1513C5.04214 13.302 6.37817 12.8161 7.9766 12.8161C9.57502 12.8161 10.9111 13.302 11.9328 14.1513C12.9487 14.9958 13.6075 16.1605 13.9295 17.4484C14.0372 17.8795 13.7751 18.3163 13.3441 18.4241C12.913 18.5319 12.4761 18.2698 12.3684 17.8387C12.1156 16.8278 11.6166 15.981 10.9041 15.3888C10.1975 14.8014 9.23476 14.4252 7.9766 14.4252C6.71843 14.4252 5.75566 14.8014 5.04907 15.3888Z" fill="#444444"/>
<path d="M14.0332 14.811C14.5914 14.5665 15.2515 14.4252 16.0224 14.4252C17.2806 14.4252 18.2434 14.8014 18.95 15.3888C19.6624 15.981 20.1614 16.8278 20.4142 17.8387C20.522 18.2698 20.9588 18.5319 21.3899 18.4241C21.821 18.3163 22.0831 17.8795 21.9753 17.4484C21.6533 16.1605 20.9945 14.9958 19.9786 14.1513C18.9569 13.3019 17.6209 12.816 16.0224 12.816C14.8612 12.816 13.8384 13.0725 12.974 13.5385C13.3834 13.9235 13.7356 14.3517 14.0332 14.811Z" fill="#444444"/>
<path fill-rule="evenodd" clip-rule="evenodd" d="M16.0224 10.2874C17.0381 10.2874 17.8615 9.46401 17.8615 8.44833C17.8615 7.43265 17.0381 6.60929 16.0224 6.60929C15.0067 6.60929 14.1834 7.43265 14.1834 8.44833C14.1834 9.46401 15.0067 10.2874 16.0224 10.2874ZM16.0224 11.8965C17.9268 11.8965 19.4706 10.3527 19.4706 8.44833C19.4706 6.54394 17.9268 5.00012 16.0224 5.00012C14.118 5.00012 12.5742 6.54394 12.5742 8.44833C12.5742 10.3527 14.118 11.8965 16.0224 11.8965Z" fill="#444444"/>
<path fill-rule="evenodd" clip-rule="evenodd" d="M7.9766 10.2874C8.99227 10.2874 9.81564 9.46401 9.81564 8.44833C9.81564 7.43265 8.99227 6.60929 7.9766 6.60929C6.96092 6.60929 6.13755 7.43265 6.13755 8.44833C6.13755 9.46401 6.96092 10.2874 7.9766 10.2874ZM7.9766 11.8965C9.88099 11.8965 11.4248 10.3527 11.4248 8.44833C11.4248 6.54394 9.88099 5.00012 7.9766 5.00012C6.0722 5.00012 4.52839 6.54394 4.52839 8.44833C4.52839 10.3527 6.0722 11.8965 7.9766 11.8965Z" fill="#444444"/>
</svg>
