<svg width="24" height="24" viewBox="0 0 24 24" fill="none" xmlns="http://www.w3.org/2000/svg">
<g clip-path="url(#clip0_818_51498)">
<path fill-rule="evenodd" clip-rule="evenodd" d="M5.43606 16.3552V8.04641C5.43606 6.39443 6.77526 5.05523 8.42724 5.05523C10.0792 5.05523 11.4184 6.39443 11.4184 8.04641V16.3552C11.4184 18.0072 10.0792 19.3464 8.42724 19.3464C6.77526 19.3464 5.43606 18.0072 5.43606 16.3552ZM9.25812 8.04641C9.25812 7.58753 8.88612 7.21553 8.42724 7.21553C7.96835 7.21553 7.59636 7.58753 7.59636 8.04641V16.3552C7.59636 16.8141 7.96835 17.1861 8.42724 17.1861C8.88612 17.1861 9.25812 16.8141 9.25812 16.3552V8.04641Z" fill="#222222"/>
<path fill-rule="evenodd" clip-rule="evenodd" d="M12.5817 13.0317V8.04641C12.5817 6.39443 13.9209 5.05523 15.5728 5.05523C17.2248 5.05523 18.564 6.39443 18.564 8.04641V13.0317C18.564 14.6837 17.2248 16.0229 15.5728 16.0229C13.9209 16.0229 12.5817 14.6837 12.5817 13.0317ZM16.4037 8.04641C16.4037 7.58753 16.0317 7.21553 15.5728 7.21553C15.1139 7.21553 14.742 7.58753 14.742 8.04641V13.0317C14.742 13.4906 15.1139 13.8626 15.5728 13.8626C16.0317 13.8626 16.4037 13.4906 16.4037 13.0317V8.04641Z" fill="#222222"/>
<path fill-rule="evenodd" clip-rule="evenodd" d="M19.4779 0.900818H4.52201C2.41114 0.900818 0.699951 2.61201 0.699951 4.72288V19.277C0.699951 21.3879 2.41114 23.0991 4.52201 23.0991H19.4779C21.5888 23.0991 23.3 21.3879 23.3 19.277V4.72288C23.3 2.61201 21.5888 0.900818 19.4779 0.900818ZM2.86025 4.72288C2.86025 3.80511 3.60424 3.06111 4.52201 3.06111H19.4779C20.3957 3.06111 21.1397 3.80511 21.1397 4.72288V19.277C21.1397 20.1948 20.3957 20.9388 19.4779 20.9388H4.52201C3.60424 20.9388 2.86025 20.1948 2.86025 19.277V4.72288Z" fill="#222222"/>
</g>
<defs>
<clipPath id="clip0_818_51498">
<rect width="24" height="24" fill="white"/>
</clipPath>
</defs>
</svg>
