<svg width="24" height="24" viewBox="0 0 24 24" fill="none" xmlns="http://www.w3.org/2000/svg">
<path d="M14.5 13.6475C18.3108 13.6475 21.4004 16.7371 21.4004 20.5479C21.4004 21.0449 20.9971 21.4482 20.5 21.4482C20.0029 21.4482 19.5996 21.0449 19.5996 20.5479C19.5996 17.7312 17.3167 15.4482 14.5 15.4482H9.5C6.68335 15.4482 4.40039 17.7312 4.40039 20.5479C4.40039 21.0449 3.99706 21.4482 3.5 21.4482C3.00294 21.4482 2.59961 21.0449 2.59961 20.5479C2.59961 16.7371 5.68924 13.6475 9.5 13.6475H14.5ZM12 2.55176C14.6509 2.55176 16.7997 4.70069 16.7998 7.35156C16.7997 10.0024 14.6509 12.1514 12 12.1514C9.34918 12.1513 7.20029 10.0024 7.2002 7.35156C7.2003 4.70075 9.34919 2.55186 12 2.55176ZM12 4.35156C10.3433 4.35167 9.00011 5.69486 9 7.35156C9.0001 9.00827 10.3433 10.3515 12 10.3516C13.6568 10.3516 14.9999 9.00833 15 7.35156C14.9999 5.6948 13.6568 4.35156 12 4.35156Z" fill="#222222"/>
</svg>
