<svg width="24" height="24" viewBox="0 0 24 24" fill="none" xmlns="http://www.w3.org/2000/svg">
<path fill-rule="evenodd" clip-rule="evenodd" d="M1.85873 3.35873C2.4267 2.79076 3.19702 2.47168 4.00025 2.47168H7.93557C8.4344 2.47426 8.92487 2.60003 9.36339 2.83779C9.51654 2.92082 9.74368 3.0885 9.91983 3.2199C10.1216 3.37036 10.3635 3.55559 10.6 3.73662L10.6202 3.75211C10.8665 3.94058 11.1057 4.12356 11.3019 4.26956C11.4898 4.40945 11.5861 4.47546 11.6111 4.49255C11.6161 4.49602 11.6176 4.49712 11.6176 4.49712C11.7678 4.57856 11.91 4.61338 12.0733 4.61454H20.0003C20.8035 4.61454 21.5738 4.93362 22.1418 5.50159C22.7097 6.06955 23.0288 6.83988 23.0288 7.64311V18.5003C23.0288 19.3035 22.7097 20.0738 22.1418 20.6418C21.5738 21.2097 20.8035 21.5288 20.0003 21.5288H4.00025C2.33219 21.5288 0.97168 20.1683 0.97168 18.5003V5.50025C0.97168 4.69702 1.29076 3.9267 1.85873 3.35873ZM3.02882 11.5288V18.5003C3.02882 19.0322 3.46831 19.4717 4.00025 19.4717H20.0003C20.2579 19.4717 20.505 19.3693 20.6872 19.1872C20.8693 19.005 20.9717 18.7579 20.9717 18.5003V11.5288H3.02882ZM20.9717 9.47168H3.02882V5.50025C3.02882 5.24261 3.13117 4.99553 3.31335 4.81335C3.49553 4.63117 3.74261 4.52882 4.00025 4.52882H7.92712C8.08637 4.53001 8.24289 4.57032 8.38291 4.64623C8.38291 4.64623 8.38505 4.64806 8.39644 4.65601C8.42938 4.67899 8.52177 4.74346 8.68989 4.86886C8.88113 5.0115 9.11433 5.19001 9.35592 5.37495L9.36982 5.3856C9.61302 5.57176 9.86411 5.76389 10.0738 5.91991C10.2536 6.05371 10.4816 6.22124 10.6371 6.30557C11.0932 6.55287 11.5703 6.66911 12.0649 6.67167L20.0003 6.67168C20.2579 6.67168 20.505 6.77403 20.6872 6.95621C20.8693 7.13838 20.9717 7.38547 20.9717 7.64311V9.47168Z" fill="#222222"/>
</svg>
