<svg width="24" height="24" viewBox="0 0 24 24" fill="none" xmlns="http://www.w3.org/2000/svg">
<g clip-path="url(#clip0_818_51192)">
<path fill-rule="evenodd" clip-rule="evenodd" d="M12 24C18.6274 24 24 18.6274 24 12C24 5.37258 18.6274 0 12 0C5.37258 0 0 5.37258 0 12C0 18.6274 5.37258 24 12 24ZM10.8879 7.8815C11.1869 8.17 11.5576 8.31425 12.0002 8.31425C12.4427 8.31425 12.8075 8.17 13.0945 7.8815C13.3935 7.58045 13.543 7.21042 13.543 6.77139C13.543 6.33237 13.3935 5.9686 13.0945 5.6801C12.8075 5.37906 12.4427 5.22854 12.0002 5.22854C11.5576 5.22854 11.1869 5.37906 10.8879 5.6801C10.6008 5.9686 10.4573 6.33237 10.4573 6.77139C10.4573 7.21042 10.6008 7.58045 10.8879 7.8815ZM13.4573 10.3713C13.4573 10.182 13.3038 10.0285 13.1145 10.0285H10.8859C10.6965 10.0285 10.543 10.182 10.543 10.3713V18.2571C10.543 18.4464 10.6965 18.5999 10.8859 18.5999H13.1145C13.3038 18.5999 13.4573 18.4464 13.4573 18.2571V10.3713Z" fill="#222222"/>
</g>
<defs>
<clipPath id="clip0_818_51192">
<rect width="24" height="24" fill="white"/>
</clipPath>
</defs>
</svg>
