<svg width="24" height="24" viewBox="0 0 24 24" fill="none" xmlns="http://www.w3.org/2000/svg">
<path fill-rule="evenodd" clip-rule="evenodd" d="M4.46328 5C3.10285 5 2 6.10285 2 7.46328V17.0609C2 18.4213 3.10285 19.5242 4.46328 19.5242H19.5367C20.8972 19.5242 22 18.4213 22 17.0609V7.46328C22 6.10285 20.8971 5 19.5367 5H4.46328ZM3.96984 8.31652V17.0609C3.96984 17.3334 4.19076 17.5543 4.46328 17.5543H19.5367C19.8092 17.5543 20.0302 17.3334 20.0302 17.0609V8.43246L12.295 14.0659C11.9357 14.3276 11.4455 14.3161 11.0987 14.0378L3.96984 8.31652ZM18.6924 6.96984H5.43902L11.7442 12.0301L18.6924 6.96984Z" fill="#222222"/>
</svg>
