<svg width="24" height="24" viewBox="0 0 24 24" fill="none" xmlns="http://www.w3.org/2000/svg">
<path d="M4.98231 14.3639C5.98651 14.3639 6.80056 15.1779 6.80056 16.1821C6.80056 17.1863 5.98651 18.0004 4.98231 18.0004C3.97812 18.0004 3.16406 17.1863 3.16406 16.1821C3.16406 15.1779 3.97812 14.3639 4.98231 14.3639Z" fill="#222222"/>
<path d="M4.98231 6.39062C5.98651 6.39062 6.80056 7.20468 6.80056 8.20888C6.80056 9.21307 5.98651 10.0271 4.98231 10.0271C3.97812 10.0271 3.16406 9.21307 3.16406 8.20888C3.16406 7.20468 3.97812 6.39062 4.98231 6.39062Z" fill="#222222"/>
<path d="M13.8178 16.1821C13.8178 15.1779 13.0037 14.3639 11.9995 14.3639C10.9953 14.3639 10.1813 15.1779 10.1813 16.1821C10.1813 17.1863 10.9953 18.0004 11.9995 18.0004C13.0037 18.0004 13.8178 17.1863 13.8178 16.1821Z" fill="#222222"/>
<path d="M11.9995 6.39062C13.0037 6.39062 13.8178 7.20468 13.8178 8.20888C13.8178 9.21307 13.0037 10.0271 11.9995 10.0271C10.9953 10.0271 10.1813 9.21307 10.1813 8.20888C10.1813 7.20468 10.9953 6.39062 11.9995 6.39062Z" fill="#222222"/>
<path d="M20.8348 16.1821C20.8348 15.1779 20.0208 14.3639 19.0166 14.3639C18.0124 14.3639 17.1983 15.1779 17.1983 16.1821C17.1983 17.1863 18.0124 18.0004 19.0166 18.0004C20.0208 18.0004 20.8348 17.1863 20.8348 16.1821Z" fill="#222222"/>
<path d="M19.0166 6.39062C20.0208 6.39062 20.8348 7.20468 20.8348 8.20888C20.8348 9.21307 20.0208 10.0271 19.0166 10.0271C18.0124 10.0271 17.1983 9.21307 17.1983 8.20888C17.1983 7.20468 18.0124 6.39062 19.0166 6.39062Z" fill="#222222"/>
</svg>
