<svg width="24" height="24" viewBox="0 0 24 24" fill="none" xmlns="http://www.w3.org/2000/svg">
<path d="M8.47809 14.9023C11.9805 14.9023 14.9665 17.0018 16.3697 20.0038C16.6223 20.5443 16.3886 21.1868 15.8482 21.4394C15.3079 21.6919 14.6653 21.4591 14.4127 20.9189C13.3387 18.6212 11.082 17.0624 8.47809 17.0624C5.88592 17.0625 3.61744 18.6238 2.55914 20.9023C2.30769 21.443 1.66544 21.6779 1.12457 21.4267C0.583803 21.1754 0.349106 20.533 0.600159 19.9921C1.99007 16.9997 4.99298 14.9024 8.47809 14.9023ZM19.15 7.64349C19.7463 7.6436 20.2299 8.1272 20.23 8.72357V10.912H22.4205C23.0168 10.9123 23.5005 11.3957 23.5005 11.9921C23.5004 12.5884 23.0167 13.072 22.4205 13.0722H20.23V15.2617C20.23 15.8581 19.7464 16.3416 19.15 16.3417C18.5534 16.3417 18.0699 15.8582 18.0699 15.2617V13.0722H15.8814C15.2851 13.072 14.8015 12.5884 14.8013 11.9921C14.8013 11.3957 15.285 10.9122 15.8814 10.912H18.0699V8.72357C18.07 8.12713 18.5535 7.64349 19.15 7.64349ZM8.47906 2.45892C11.3106 2.45892 13.606 4.75434 13.606 7.58588C13.606 10.4174 11.3106 12.7128 8.47906 12.7128C5.64752 12.7128 3.35211 10.4174 3.35211 7.58588C3.35212 4.75435 5.64753 2.45894 8.47906 2.45892ZM8.47906 4.61908C6.8406 4.6191 5.51227 5.94741 5.51227 7.58588C5.51227 9.22434 6.8406 10.5527 8.47906 10.5527C10.1175 10.5527 11.4459 9.22435 11.4459 7.58588C11.4459 5.9474 10.1175 4.61908 8.47906 4.61908Z" fill="#222222"/>
</svg>
