<svg width="24" height="24" viewBox="0 0 24 24" fill="none" xmlns="http://www.w3.org/2000/svg">
<rect width="24" height="24" fill="white"/>
<path d="M2.12083 3.01589C2.12083 2.52157 2.52155 2.12085 3.01587 2.12085H8.07419C8.56851 2.12085 8.96924 2.52157 8.96924 3.01589C8.96924 3.51021 8.56851 3.91093 8.07419 3.91093H3.91091V8.07422C3.91091 8.56854 3.51019 8.96926 3.01587 8.96926C2.52155 8.96926 2.12083 8.56854 2.12083 8.07422V3.01589Z" fill="#222222"/>
<path d="M22.1208 3.01589C22.1208 2.52157 21.7201 2.12085 21.2258 2.12085H16.1675C15.6731 2.12085 15.2724 2.52157 15.2724 3.01589C15.2724 3.51021 15.6731 3.91093 16.1675 3.91093H20.3307V8.07422C20.3307 8.56854 20.7315 8.96926 21.2258 8.96926C21.7201 8.96926 22.1208 8.56854 22.1208 8.07422V3.01589Z" fill="#222222"/>
<path d="M3.01587 22.1209C2.52155 22.1209 2.12083 21.7202 2.12083 21.2259V16.1675C2.12083 15.6732 2.52155 15.2725 3.01587 15.2725C3.51019 15.2725 3.91091 15.6732 3.91091 16.1675V20.3308H8.07419C8.56851 20.3308 8.96924 20.7315 8.96924 21.2259C8.96924 21.7202 8.56851 22.1209 8.07419 22.1209H3.01587Z" fill="#222222"/>
<path d="M22.1208 21.2259C22.1208 21.7202 21.7201 22.1209 21.2258 22.1209H16.1675C15.6731 22.1209 15.2724 21.7202 15.2724 21.2259C15.2724 20.7315 15.6731 20.3308 16.1675 20.3308H20.3307V16.1675C20.3307 15.6732 20.7315 15.2725 21.2258 15.2725C21.7201 15.2725 22.1208 15.6732 22.1208 16.1675V21.2259Z" fill="#222222"/>
<path fill-rule="evenodd" clip-rule="evenodd" d="M8.07419 7.17917C7.57988 7.17917 7.17915 7.5799 7.17915 8.07422V16.1675C7.17915 16.6619 7.57988 17.0626 8.07419 17.0626H16.1675C16.6618 17.0626 17.0626 16.6619 17.0626 16.1675V8.07422C17.0626 7.5799 16.6618 7.17917 16.1675 7.17917H8.07419ZM8.96924 15.2725V8.96926H15.2725V15.2725H8.96924Z" fill="#222222"/>
</svg>
