<svg width="24" height="24" viewBox="0 0 24 24" fill="none" xmlns="http://www.w3.org/2000/svg">
<rect width="24" height="24" fill="white"/>
<path d="M11.717 7.21073C12.2093 7.21073 12.6084 7.60981 12.6084 8.10209V10.8259H15.3321C15.8244 10.8259 16.2234 11.2249 16.2234 11.7172C16.2234 12.2095 15.8244 12.6086 15.3321 12.6086H12.6084V15.3425C12.6084 15.8348 12.2093 16.2339 11.717 16.2339C11.2248 16.2339 10.8257 15.8348 10.8257 15.3425V12.6086H8.10173C7.60944 12.6086 7.21037 12.2095 7.21037 11.7172C7.21037 11.2249 7.60944 10.8259 8.10173 10.8259H10.8257V8.10209C10.8257 7.60981 11.2248 7.21073 11.717 7.21073Z" fill="#222222"/>
<path fill-rule="evenodd" clip-rule="evenodd" d="M17.9302 19.1891C16.2459 20.5911 14.08 21.4345 11.7172 21.4345C6.35054 21.4345 1.99999 17.0839 1.99999 11.7172C1.99999 6.35055 6.35054 2 11.7172 2C17.0839 2 21.4345 6.35055 21.4345 11.7172C21.4345 14.0792 20.5918 16.2443 19.1906 17.9283L21.7478 20.4773C22.0965 20.8249 22.0974 21.3893 21.7498 21.7379C21.4023 22.0866 20.8379 22.0875 20.4893 21.7399L17.9302 19.1891ZM3.78271 11.7172C3.78271 7.33512 7.33511 3.78272 11.7172 3.78272C16.0993 3.78272 19.6517 7.33512 19.6517 11.7172C19.6517 13.901 18.7695 15.8788 17.342 17.3135L17.3265 17.3287L17.3133 17.3422C15.8786 18.7696 13.9009 19.6517 11.7172 19.6517C7.33511 19.6517 3.78271 16.0993 3.78271 11.7172Z" fill="#222222"/>
</svg>
