<svg width="24" height="24" viewBox="0 0 24 24" fill="none" xmlns="http://www.w3.org/2000/svg">
<path d="M17.081 5.08096C17.5886 4.57327 18.4118 4.57327 18.9194 5.08096C19.4271 5.58864 19.4271 6.41175 18.9194 6.91943L13.8387 12.0002L18.9194 17.081C19.4271 17.5886 19.4271 18.4118 18.9194 18.9194C18.4118 19.4271 17.5886 19.4271 17.081 18.9194L12.0002 13.8387L6.91943 18.9194C6.41175 19.4271 5.58864 19.4271 5.08096 18.9194C4.57327 18.4118 4.57327 17.5886 5.08096 17.081L10.1617 12.0002L5.08096 6.91943C4.57328 6.41175 4.57328 5.58864 5.08096 5.08096C5.58864 4.57327 6.41175 4.57327 6.91943 5.08096L12.0002 10.1617L17.081 5.08096Z" fill="#222222"/>
</svg>
