<svg width="24" height="24" viewBox="0 0 24 24" fill="none" xmlns="http://www.w3.org/2000/svg">
<path d="M11.2471 2.91406C11.7547 2.40637 12.5782 2.40637 13.0859 2.91406C13.5934 3.4217 13.5934 4.24431 13.0859 4.75195L5.83788 11.999L13.0859 19.2471C13.5936 19.7547 13.5936 20.5783 13.0859 21.0859C12.5782 21.5935 11.7547 21.5936 11.2471 21.0859L3.08105 12.9189C2.57337 12.4113 2.57337 11.5878 3.08105 11.0801L11.2471 2.91406ZM19.4141 2.91406C19.9217 2.40637 20.7452 2.40637 21.2529 2.91406C21.7602 3.42165 21.7602 4.24435 21.2529 4.75195L14.0049 11.999L21.2529 19.2471C21.7604 19.7548 21.7606 20.5783 21.2529 21.0859C20.7453 21.5936 19.9218 21.5934 19.4141 21.0859L11.2471 12.9189C10.7395 12.4112 10.7394 11.5877 11.2471 11.0801L19.4141 2.91406Z" fill="#222222"/>
</svg>
