<svg width="24" height="24" viewBox="0 0 24 24" fill="none" xmlns="http://www.w3.org/2000/svg">
<path fill-rule="evenodd" clip-rule="evenodd" d="M0.944496 5.48898C0.156748 3.12573 2.58751 0.971823 4.83879 2.03822L20.4744 9.44456C22.6313 10.4663 22.6313 13.5354 20.4744 14.5571L4.83879 21.9635C2.5875 23.0299 0.156751 20.876 0.944497 18.5127L3.11512 12.0009L0.944496 5.48898ZM5.09281 13.1151L3.05871 19.2175C2.89161 19.7188 3.40723 20.1756 3.88477 19.9494L19.5204 12.5431C19.9779 12.3264 19.9779 11.6753 19.5204 11.4586L3.88477 4.05226C3.40722 3.82606 2.89161 4.28295 3.05871 4.78424L5.09281 10.8866H12.3599L12.3612 12.0009L12.3611 13.1151H5.09281ZM12.3612 12.0009L12.3611 13.1151C12.9765 13.1151 13.4755 12.6163 13.4755 12.0009C13.4755 11.3854 12.9754 10.8866 12.3599 10.8866L12.3612 12.0009Z" fill="#222222"/>
</svg>
