<svg width="24" height="24" viewBox="0 0 24 24" fill="none" xmlns="http://www.w3.org/2000/svg">
<path fill-rule="evenodd" clip-rule="evenodd" d="M11.9999 3.32631C7.20963 3.32631 3.32631 7.20963 3.32631 11.9999C3.32631 16.7903 7.20963 20.6736 11.9999 20.6736C16.7903 20.6736 20.6736 16.7903 20.6736 11.9999C20.6736 11.4134 21.1491 10.9379 21.7357 10.9379C22.3222 10.9379 22.7978 11.4134 22.7978 11.9999C22.7978 17.9634 17.9634 22.7978 11.9999 22.7978C6.03649 22.7978 1.20215 17.9634 1.20215 11.9999C1.20215 6.03649 6.03649 1.20215 11.9999 1.20215C12.5865 1.20215 13.062 1.67766 13.062 2.26423C13.062 2.8508 12.5865 3.32631 11.9999 3.32631Z" fill="#222222"/>
</svg>
