<svg width="24" height="24" viewBox="0 0 24 24" fill="none" xmlns="http://www.w3.org/2000/svg">
<g clip-path="url(#clip0_818_51507)">
<path fill-rule="evenodd" clip-rule="evenodd" d="M6.15147 1.15146C6.6201 0.682831 7.3799 0.682831 7.84853 1.15146L12 5.30293L16.1515 1.15146C16.6201 0.682831 17.3799 0.682831 17.8485 1.15146C18.3172 1.62009 18.3172 2.37989 17.8485 2.84852L14.8971 5.79999H20C21.7673 5.79999 23.2 7.23268 23.2 8.99999V20C23.2 21.7673 21.7673 23.2 20 23.2H4C2.23269 23.2 0.800003 21.7673 0.800003 20V8.99999C0.800003 7.23268 2.23269 5.79999 4 5.79999H9.10295L6.15147 2.84852C5.68285 2.37989 5.68285 1.62009 6.15147 1.15146ZM4 8.19999C3.55818 8.19999 3.2 8.55816 3.2 8.99999V20C3.2 20.4418 3.55818 20.8 4 20.8H20C20.4418 20.8 20.8 20.4418 20.8 20V8.99999C20.8 8.55816 20.4418 8.19999 20 8.19999H4Z" fill="#222222"/>
</g>
<defs>
<clipPath id="clip0_818_51507">
<rect width="24" height="24" fill="white"/>
</clipPath>
</defs>
</svg>
