<svg width="24" height="24" viewBox="0 0 24 24" fill="none" xmlns="http://www.w3.org/2000/svg">
<g clip-path="url(#clip0_818_51162)">
<path d="M9 8C8.44771 8 8 8.44771 8 9V15C8 15.5523 8.44771 16 9 16H15C15.5523 16 16 15.5523 16 15V9C16 8.44771 15.5523 8 15 8H9Z" fill="#222222"/>
<path fill-rule="evenodd" clip-rule="evenodd" d="M12 24C18.6274 24 24 18.6274 24 12C24 5.37258 18.6274 0 12 0C5.37258 0 0 5.37258 0 12C0 18.6274 5.37258 24 12 24ZM22 12C22 17.5228 17.5228 22 12 22C6.47715 22 2 17.5228 2 12C2 6.47715 6.47715 2 12 2C17.5228 2 22 6.47715 22 12Z" fill="#222222"/>
</g>
<defs>
<clipPath id="clip0_818_51162">
<rect width="24" height="24" fill="white"/>
</clipPath>
</defs>
</svg>
