<svg width="24" height="24" viewBox="0 0 24 24" fill="none" xmlns="http://www.w3.org/2000/svg">
<path fill-rule="evenodd" clip-rule="evenodd" d="M16.7748 6.77454C16.7749 7.40161 16.6514 8.02254 16.4115 8.6019C16.1716 9.18126 15.8199 9.70769 15.3766 10.1511C14.9332 10.5946 14.4068 10.9464 13.8275 11.1864C13.2482 11.4264 12.6273 11.55 12.0002 11.5501C10.7338 11.5502 9.51923 11.0472 8.62365 10.1518C7.72807 9.25643 7.22486 8.04193 7.22473 6.77552C7.22467 6.14845 7.34812 5.52751 7.58802 4.94815C7.82793 4.3688 8.1796 3.84237 8.62296 3.39892C9.51836 2.50334 10.7329 2.00013 11.9993 2C13.2657 1.99987 14.4803 2.50283 15.3759 3.39823C16.2715 4.29363 16.7747 5.50812 16.7748 6.77454ZM11.9998 13.0109C5.12353 13.0109 2.44873 17.3869 2.44873 19.4228C2.44873 21.4576 8.14267 22 11.9998 22C15.8569 22 21.5508 21.4576 21.5508 19.4228C21.5508 17.3869 18.876 13.0109 11.9998 13.0109Z" fill="#222222"/>
</svg>
