<svg width="24" height="24" viewBox="0 0 24 24" fill="none" xmlns="http://www.w3.org/2000/svg">
<path d="M12 2C17.5228 2 22 6.47715 22 12C22 17.5228 17.5228 22 12 22C6.47715 22 2 17.5228 2 12C2 6.47715 6.47715 2 12 2ZM7.53613 10.668C7.35832 10.6634 7.18126 10.6949 7.01562 10.7598C6.84999 10.8246 6.69873 10.9218 6.57129 11.0459C6.44381 11.1701 6.34167 11.3185 6.27246 11.4824C6.20328 11.6464 6.16803 11.823 6.16797 12.001C6.16797 12.1787 6.20346 12.3547 6.27246 12.5186C6.34152 12.6825 6.44301 12.8308 6.57031 12.9551C6.69771 13.0793 6.84897 13.1772 7.01465 13.2422C7.18026 13.3071 7.35732 13.3385 7.53516 13.334C7.88273 13.3252 8.21327 13.1805 8.45605 12.9316C8.6987 12.6827 8.83485 12.3486 8.83496 12.001C8.83496 11.6534 8.69862 11.3193 8.45605 11.0703C8.21349 10.8215 7.8835 10.677 7.53613 10.668ZM12.0352 10.666C11.8571 10.6614 11.6795 10.6929 11.5137 10.7578C11.348 10.8227 11.1968 10.9207 11.0693 11.0449C10.9419 11.1691 10.8407 11.3175 10.7715 11.4814C10.7022 11.6455 10.6661 11.8219 10.666 12C10.666 12.178 10.7024 12.3545 10.7715 12.5186C10.8406 12.6825 10.942 12.8308 11.0693 12.9551C11.1968 13.0794 11.3479 13.1772 11.5137 13.2422C11.6793 13.3071 11.8563 13.3385 12.0342 13.334C12.382 13.3252 12.7131 13.1807 12.9561 12.9316C13.1988 12.6827 13.3348 12.3487 13.335 12.001C13.3351 11.653 13.1989 11.3186 12.9561 11.0693C12.7133 10.8201 12.3829 10.675 12.0352 10.666ZM16.5537 10.668C16.3758 10.6634 16.1989 10.6949 16.0332 10.7598C15.8675 10.8247 15.7163 10.9217 15.5889 11.0459C15.4614 11.1701 15.3602 11.3185 15.291 11.4824C15.2218 11.6464 15.1856 11.823 15.1855 12.001C15.1855 12.1788 15.222 12.3547 15.291 12.5186C15.36 12.6824 15.4607 12.8309 15.5879 12.9551C15.7153 13.0793 15.8666 13.1772 16.0322 13.2422C16.1978 13.3072 16.3749 13.3384 16.5527 13.334C16.9004 13.3252 17.2308 13.1806 17.4736 12.9316C17.7164 12.6827 17.8524 12.3487 17.8525 12.001C17.8525 11.6534 17.7172 11.3193 17.4746 11.0703C17.2319 10.8212 16.9013 10.6769 16.5537 10.668Z" fill="#222222"/>
</svg>
