<svg width="24" height="24" viewBox="0 0 24 24" fill="none" xmlns="http://www.w3.org/2000/svg">
<g clip-path="url(#clip0_818_51196)">
<path d="M12 0C18.6274 4.89723e-05 24 5.37262 24 12C24 18.6274 18.6274 24 12 24C5.37258 24 0 18.6274 0 12C8.75275e-06 5.37259 5.37259 0 12 0ZM12 2.40039C6.69807 2.40039 2.4004 6.69807 2.40039 12C2.40039 17.3019 6.69807 21.5996 12 21.5996C17.3019 21.5996 21.5996 17.3019 21.5996 12C21.5996 6.6981 17.3019 2.40044 12 2.40039ZM11.9033 15.7314C12.9346 15.7314 13.5703 16.3207 13.5703 17.2783C13.5703 18.2266 12.9345 18.8154 11.9033 18.8154C10.8724 18.8152 10.2276 18.2265 10.2275 17.2783C10.2275 16.3209 10.8724 15.7316 11.9033 15.7314ZM12.1895 5.14258C14.8225 5.14266 16.5623 6.60644 16.5625 8.69629V8.71484C16.5625 10.0959 15.8908 11.0629 14.5928 11.8271C13.3682 12.5361 13.0274 12.9874 13.0273 13.8896V14.3779H10.5869L10.5684 13.8438C10.4487 12.3982 10.9551 11.569 12.2256 10.8232C13.4134 10.1143 13.7725 9.66337 13.7725 8.79785V8.7793C13.7723 7.91393 13.073 7.27832 12.0234 7.27832C10.9647 7.27835 10.2648 7.95085 10.2188 8.99121H10.2002L7.71387 9.00098V8.98242C7.75991 6.72656 9.36272 5.14258 12.1895 5.14258Z" fill="#222222"/>
</g>
<defs>
<clipPath id="clip0_818_51196">
<rect width="24" height="24" fill="white"/>
</clipPath>
</defs>
</svg>
