<svg width="24" height="24" viewBox="0 0 24 24" fill="none" xmlns="http://www.w3.org/2000/svg">
<g clip-path="url(#clip0_818_51202)">
<path d="M12 0C18.6274 4.89647e-05 24 5.37261 24 12C24 18.6274 18.6274 24 12 24C5.37258 24 0 18.6274 0 12C5.15426e-07 5.37258 5.37258 0 12 0ZM12 2.05762C6.50871 2.05762 2.05664 6.50871 2.05664 12C2.05664 17.4913 6.50871 21.9424 12 21.9424C17.4912 21.9423 21.9424 17.4913 21.9424 12C21.9424 6.50874 17.4912 2.05767 12 2.05762ZM12.0039 15.7715C12.2439 15.7715 12.4675 15.8312 12.6748 15.9512C12.8822 16.0712 13.0493 16.2374 13.1748 16.4502C13.3003 16.6576 13.3623 16.8843 13.3623 17.1299C13.3623 17.3807 13.3001 17.6125 13.1748 17.8252C13.0493 18.0326 12.8822 18.1997 12.6748 18.3252C12.4675 18.4451 12.2439 18.5049 12.0039 18.5049C11.7531 18.5049 11.5213 18.4451 11.3086 18.3252C11.0958 18.1997 10.9263 18.0326 10.8008 17.8252C10.6808 17.6125 10.6235 17.3808 10.6289 17.1299C10.6234 16.8843 10.6807 16.6576 10.8008 16.4502C10.9263 16.2375 11.0959 16.0712 11.3086 15.9512C11.5213 15.8312 11.753 15.7715 12.0039 15.7715ZM13.0352 13.7852H10.9395L10.7266 5.48535H13.248L13.0352 13.7852Z" fill="#222222"/>
</g>
<defs>
<clipPath id="clip0_818_51202">
<rect width="24" height="24" fill="white"/>
</clipPath>
</defs>
</svg>
