<svg width="24" height="24" viewBox="0 0 24 24" fill="none" xmlns="http://www.w3.org/2000/svg">
<path fill-rule="evenodd" clip-rule="evenodd" d="M19.436 5.07848L21.3243 6.93429C21.8646 7.46519 22.7329 7.45765 23.2638 6.91744C23.7947 6.37723 23.7871 5.50892 23.2469 4.97802L20.8722 2.64425C20.0763 1.86207 18.7957 1.86207 17.9998 2.64425L10.7902 9.72945C8.17618 8.03286 4.62935 8.31605 2.32673 10.579C-0.318544 13.1787 -0.318544 17.4037 2.32673 20.0034C4.95872 22.59 9.21631 22.59 11.8483 20.0034C14.1524 17.739 14.4496 14.2416 12.7399 11.6591L15.6364 8.81257L17.5248 10.6685C18.065 11.1994 18.9333 11.1919 19.4642 10.6517C19.9951 10.1114 19.9876 9.24314 19.4474 8.71223L17.5929 6.88974L19.436 5.07848ZM9.92574 12.5353C8.36091 10.9974 5.81412 10.9974 4.24929 12.5353C2.69774 14.0601 2.69774 16.5223 4.24929 18.0471C5.81412 19.5849 8.36091 19.5849 9.92574 18.0471C11.4773 16.5223 11.4773 14.0601 9.92574 12.5353Z" fill="#222222"/>
</svg>
