<svg width="24" height="24" viewBox="0 0 24 24" fill="none" xmlns="http://www.w3.org/2000/svg">
<path fill-rule="evenodd" clip-rule="evenodd" d="M20.9992 3.80047C20.9992 3.60427 20.8107 3.46312 20.6224 3.51835L7.21101 7.45301V12.1314L20.6224 16.0661C20.8106 16.1213 20.9992 15.9802 20.9992 15.784V3.80047ZM5.21101 11.8802V7.70424H3.29485C3.13247 7.70424 3.00084 7.83588 3.00084 7.99825V11.5862C3.00084 11.7486 3.13247 11.8802 3.29485 11.8802H5.21101ZM6.06735 5.70424L20.0594 1.59924C21.5283 1.16828 22.9992 2.26962 22.9992 3.80047V15.784C22.9992 17.3148 21.5283 18.4162 20.0594 17.9852L14.9305 16.4805C14.1212 18.2911 12.2806 19.5415 10.1581 19.5415C7.3017 19.5415 4.94788 17.2713 4.94788 14.4242C4.94788 14.2464 4.95426 14.0644 4.96955 13.8802H3.29485C2.0279 13.8802 1.00084 12.8531 1.00084 11.5862V7.99825C1.00084 6.73131 2.0279 5.70424 3.29485 5.70424H6.06735ZM6.95595 14.1409L12.9814 15.9087C12.4411 16.8748 11.3863 17.5415 10.1581 17.5415C8.36398 17.5415 6.94788 16.1249 6.94788 14.4242C6.94788 14.3263 6.95054 14.2319 6.95595 14.1409Z" fill="#222222"/>
</svg>
