<svg width="24" height="24" viewBox="0 0 24 24" fill="none" xmlns="http://www.w3.org/2000/svg">
<g clip-path="url(#clip0_818_51262)">
<path d="M12 0C18.6274 0 24 5.37258 24 12C24 18.6274 18.6274 24 12 24C5.37258 24 0 18.6274 0 12C0 5.37258 5.37258 0 12 0ZM12 2.59961C6.80852 2.59961 2.59961 6.80852 2.59961 12C2.59961 17.1915 6.80852 21.4004 12 21.4004C17.1915 21.4004 21.4004 17.1915 21.4004 12C21.4004 6.80852 17.1915 2.59961 12 2.59961ZM15.4814 8.88086C15.9891 8.37342 16.8117 8.37326 17.3193 8.88086C17.8267 9.38848 17.8267 10.2111 17.3193 10.7188L12.3193 15.7188C11.8117 16.2264 10.9891 16.2262 10.4814 15.7188L7.48145 12.7188C6.97376 12.2111 6.97376 11.3885 7.48145 10.8809C7.98915 10.3734 8.81174 10.3733 9.31934 10.8809L11.4004 12.9619L15.4814 8.88086Z" fill="#222222"/>
</g>
<defs>
<clipPath id="clip0_818_51262">
<rect width="24" height="24" fill="white"/>
</clipPath>
</defs>
</svg>
