<svg width="24" height="24" viewBox="0 0 24 24" fill="none" xmlns="http://www.w3.org/2000/svg">
<path fill-rule="evenodd" clip-rule="evenodd" d="M12 3.2002C6.92772 3.2002 3 6.87842 3 11.2002C3 12.9544 3.63534 14.5841 4.73005 15.9148C4.93484 16.1638 5.00707 16.4962 4.92404 16.8077L4.2591 19.3024L6.69254 18.1532C6.97109 18.0216 7.29472 18.0258 7.56979 18.1645C8.87387 18.822 10.3843 19.2002 12 19.2002C17.0723 19.2002 21 15.522 21 11.2002C21 6.87842 17.0723 3.2002 12 3.2002ZM1 11.2002C1 5.58085 6.02658 1.2002 12 1.2002C17.9734 1.2002 23 5.58085 23 11.2002C23 16.8195 17.9734 21.2002 12 21.2002C10.2508 21.2002 8.59206 20.8287 7.11766 20.1642L3.16498 22.031C2.81298 22.1972 2.3965 22.1441 2.09753 21.8948C1.79855 21.6455 1.67142 21.2453 1.77167 20.8692L2.86354 16.7727C1.6919 15.1873 1 13.2703 1 11.2002Z" fill="#222222"/>
</svg>
