<svg width="24" height="24" viewBox="0 0 24 24" fill="none" xmlns="http://www.w3.org/2000/svg">
<path d="M18.7191 11.9996C19.1168 11.9996 19.4388 12.3217 19.4389 12.7194V14.319C19.4389 15.3586 19.0266 16.3563 18.2914 17.0914C17.5563 17.8265 16.5586 18.2389 15.519 18.2389H6.05704L8.02872 20.2106C8.30972 20.4918 8.30984 20.948 8.02872 21.2291C7.74758 21.51 7.29126 21.51 7.01016 21.2291L3.81094 18.028C3.78395 18.0009 3.76146 17.971 3.73965 17.941C3.73379 17.933 3.72663 17.9259 3.7211 17.9176C3.70862 17.8989 3.69941 17.8786 3.68887 17.859C3.67749 17.8379 3.66396 17.8178 3.65469 17.7955C3.64605 17.7747 3.64176 17.7525 3.63516 17.7311C3.61443 17.6639 3.60001 17.5932 3.60001 17.5192C3.60003 17.4447 3.61418 17.3738 3.63516 17.3063C3.6411 17.2871 3.64517 17.2674 3.65274 17.2487L3.65665 17.2389C3.66767 17.2128 3.68278 17.189 3.69669 17.1647C3.70451 17.1509 3.71034 17.136 3.71915 17.1227L3.72305 17.1168C3.74892 17.0785 3.77838 17.0429 3.81094 17.0104L7.01016 13.8112C7.29134 13.53 7.74754 13.53 8.02872 13.8112C8.30929 14.0922 8.30934 14.5467 8.02872 14.8278L6.05606 16.7994H15.519C16.1767 16.7994 16.8087 16.538 17.2738 16.0729C17.7387 15.6078 18.0004 14.9765 18.0004 14.319V12.7194C18.0004 12.3219 18.3217 11.9998 18.7191 11.9996ZM15.0111 2.61096C15.2923 2.32991 15.7466 2.32997 16.0277 2.61096L19.2289 5.81018C19.2345 5.81575 19.2382 5.82303 19.2436 5.82874C19.27 5.85696 19.2951 5.88636 19.3168 5.91858C19.4793 6.16026 19.4791 6.47758 19.3168 6.71936C19.3059 6.73555 19.2918 6.74906 19.2797 6.76428C19.2628 6.78547 19.2485 6.80913 19.2289 6.82874L16.0277 10.0289C15.7467 10.3093 15.2922 10.3094 15.0111 10.0289C14.73 9.74775 14.73 9.29155 15.0111 9.01038L16.9818 7.0387H7.51993C6.86236 7.0387 6.23108 7.3004 5.76602 7.76526C5.30093 8.23035 5.03946 8.8624 5.03946 9.52014V11.1198C5.03933 11.5172 4.71721 11.8394 4.31973 11.8395C3.92217 11.8395 3.60014 11.5173 3.60001 11.1198V9.52014C3.60001 8.48055 4.0124 7.48281 4.74747 6.74768C5.48261 6.01254 6.48028 5.60022 7.51993 5.60022H16.9818L15.0111 3.62854C14.73 3.34736 14.73 2.89214 15.0111 2.61096Z" fill="#292C32"/>
</svg>
