<svg width="24" height="24" viewBox="0 0 24 24" fill="none" xmlns="http://www.w3.org/2000/svg">
<path d="M18.1559 5.69739C17.319 4.86055 15.9623 4.86055 15.1254 5.69739C14.2886 6.53423 14.2886 7.89101 15.1254 8.72785C15.9623 9.56469 17.319 9.56469 18.1559 8.72785C18.9927 7.89101 18.9927 6.53423 18.1559 5.69739Z" fill="#222222"/>
<path fill-rule="evenodd" clip-rule="evenodd" d="M22.5513 1.98277C22.45 1.74347 22.2579 1.5508 22.0186 1.44951L22.0153 1.44811L22.0091 1.44554L21.9908 1.43805L21.9312 1.41435C21.8814 1.39496 21.8117 1.36867 21.7237 1.33762C21.5479 1.27559 21.2981 1.19423 20.9882 1.11089C20.3705 0.944779 19.5018 0.767591 18.4946 0.724586C16.4776 0.638468 13.8476 1.09305 11.6306 3.30598C10.7319 4.17509 9.83627 5.44952 8.96257 6.84677C5.82198 6.24417 2.98869 7.6867 0.756038 9.91935C0.533902 10.1415 0.429063 10.4551 0.472952 10.7662C0.51684 11.0772 0.704354 11.3496 0.979278 11.5016L5.76009 14.1449L9.86162 18.2464L12.5049 23.0273C12.6569 23.3022 12.9293 23.4897 13.2404 23.5336C13.5514 23.5775 13.865 23.4726 14.0872 23.2505C16.3224 21.0153 17.7656 18.1781 17.1577 15.0333C18.553 14.1616 19.825 13.2688 20.6944 12.3698C22.9073 10.1527 23.3619 7.52277 23.2758 5.5058C23.2328 4.49859 23.0556 3.62985 22.8895 3.01214C22.8061 2.70222 22.7248 2.45252 22.6627 2.27668C22.6317 2.18868 22.6054 2.11893 22.586 2.06913L22.5623 2.00952L22.5548 1.99127L22.5523 1.98511L22.5513 1.98277ZM15.5557 13.6712C15.5137 13.6928 15.4737 13.7171 15.4359 13.7439C14.6232 14.2358 13.7573 14.7356 12.8699 15.2467L12.7345 15.3247C12.1123 15.683 11.4807 16.0467 10.8571 16.4135L7.58627 13.1427C7.94923 12.5244 8.29912 11.9159 8.64467 11.3149C9.16543 10.4091 9.67639 9.52043 10.2073 8.64177C10.2753 8.56217 10.3315 8.47083 10.3726 8.36968C11.3351 6.79476 12.2205 5.51603 13.0258 4.73899L13.0385 4.72648C14.7439 3.02113 16.76 2.65235 18.4092 2.72277C19.2361 2.75807 19.9562 2.90442 20.4689 3.04227C20.6132 3.08109 20.7401 3.11897 20.8473 3.15307C20.8814 3.26025 20.9193 3.38719 20.9581 3.53152C21.0959 4.04414 21.2423 4.76425 21.2776 5.59112C21.348 7.24041 20.9792 9.25649 19.2739 10.9618L19.2614 10.9746C18.4712 11.7935 17.166 12.6915 15.5557 13.6712ZM7.83537 8.72042C6.21151 8.63285 4.64096 9.2602 3.17551 10.4306L5.95608 11.9679C6.26006 11.4478 6.57133 10.9072 6.88315 10.3658C7.20222 9.81166 7.52207 9.25625 7.83537 8.72042ZM15.2854 16.1591C15.3768 17.7873 14.7492 19.362 13.576 20.831L12.0338 18.0418C12.5958 17.7125 13.1663 17.384 13.7369 17.0554L13.8681 16.9798C14.3433 16.7061 14.8183 16.4322 15.2854 16.1591Z" fill="#222222"/>
<path fill-rule="evenodd" clip-rule="evenodd" d="M5.05513 17.2266C4.66796 17.0702 4.25327 16.9934 3.83578 17.0008C3.4183 17.0082 3.00657 17.0995 2.62516 17.2695C2.24621 17.4383 1.9049 17.6813 1.62133 17.984C1.29109 18.3296 1.05314 18.8404 0.882554 19.2697C0.695631 19.7402 0.529167 20.2748 0.389957 20.7755C-0.0954582 22.5216 1.47868 24.0957 3.22474 23.6103C3.72548 23.4711 4.26008 23.3046 4.73052 23.1177C5.15985 22.9471 5.67061 22.7092 6.01618 22.3789C6.31894 22.0954 6.56191 21.754 6.73076 21.3751C6.90071 20.9937 6.99209 20.5819 6.99945 20.1645C7.00682 19.747 6.93002 19.3323 6.77364 18.9451C6.61726 18.558 6.3845 18.2063 6.08924 17.911C5.79399 17.6157 5.44229 17.383 5.05513 17.2266ZM3.87106 19.0005C4.02001 18.9979 4.16796 19.0252 4.30609 19.081C4.44422 19.1368 4.56969 19.2199 4.67503 19.3252C4.78037 19.4305 4.86341 19.556 4.9192 19.6942C4.97499 19.8323 5.00239 19.9802 4.99976 20.1292C4.99714 20.2781 4.96453 20.425 4.9039 20.5611C4.84328 20.6972 4.75586 20.8196 4.64687 20.9212L4.63404 20.9333C4.63404 20.9333 4.61983 20.9462 4.58945 20.9671C4.55721 20.9892 4.51271 21.0167 4.45395 21.0486C4.33508 21.1133 4.18033 21.1842 3.99202 21.259C3.61488 21.4089 3.1562 21.5535 2.68904 21.6834C2.55093 21.7218 2.45012 21.6808 2.38476 21.6155C2.31939 21.5501 2.27848 21.4493 2.31688 21.3112C2.44675 20.844 2.59136 20.3854 2.74121 20.0082C2.81604 19.8199 2.88698 19.6652 2.95161 19.5463C2.98356 19.4875 3.01101 19.443 3.03316 19.4108C3.05404 19.3804 3.06681 19.3663 3.06681 19.3663L3.07905 19.3534C3.18061 19.2444 3.30308 19.157 3.43915 19.0963C3.57522 19.0357 3.72212 19.0031 3.87106 19.0005Z" fill="#222222"/>
</svg>
