<svg width="24" height="24" viewBox="0 0 24 24" fill="none" xmlns="http://www.w3.org/2000/svg">
<g clip-path="url(#clip0_818_51352)">
<path fill-rule="evenodd" clip-rule="evenodd" d="M12 24C18.6274 24 24 18.6274 24 12C24 5.37258 18.6274 0 12 0C5.37258 0 0 5.37258 0 12C0 18.6274 5.37258 24 12 24ZM6.99554 17.2286C7.54545 18.7531 8.38205 20.2942 9.57005 21.8205C6.9358 21.1709 4.708 19.489 3.34026 17.2286H6.99554ZM9.01923 17.2286C9.65058 18.7299 10.6141 20.2577 12 21.7782C13.3859 20.2577 14.3494 18.7299 14.9808 17.2286H9.01923ZM15.6098 15.3429H8.39016C7.94312 13.5482 7.93255 11.814 8.19506 10.2015C8.23272 9.97014 8.27606 9.741 8.32466 9.51429H15.6753C15.7239 9.741 15.7673 9.97014 15.8049 10.2015C16.0674 11.814 16.0569 13.5482 15.6098 15.3429ZM17.0045 17.2286C16.4546 18.7531 15.618 20.2942 14.4299 21.8205C17.0642 21.1709 19.292 19.489 20.6597 17.2286H17.0045ZM21.5488 15.3429H17.5453C17.9492 13.4616 17.9474 11.6264 17.6662 9.89851C17.6452 9.76976 17.6227 9.64168 17.5987 9.51429H21.8066C22.0075 10.3095 22.1143 11.1423 22.1143 12C22.1143 13.1715 21.9151 14.2964 21.5488 15.3429ZM6.45474 15.3429H2.45119C2.08488 14.2964 1.88571 13.1715 1.88571 12C1.88571 11.1423 1.99247 10.3095 2.19343 9.51429H6.40127C6.3773 9.64168 6.3548 9.76976 6.33384 9.89851C6.05255 11.6264 6.05076 13.4616 6.45474 15.3429ZM6.87373 7.62857H2.87658C4.18051 4.91212 6.66191 2.86809 9.65935 2.15792C8.57205 3.64248 7.53731 5.50949 6.87373 7.62857ZM12 2.24202C10.8457 3.57484 9.6393 5.44248 8.86185 7.62857H15.1382C14.3607 5.44248 13.1543 3.57484 12 2.24202ZM17.1263 7.62857H21.1234C19.8195 4.91212 17.3381 2.86809 14.3406 2.15792C15.4279 3.64248 16.4627 5.50949 17.1263 7.62857Z" fill="#222222"/>
</g>
<defs>
<clipPath id="clip0_818_51352">
<rect width="24" height="24" fill="white"/>
</clipPath>
</defs>
</svg>
