<svg width="24" height="24" viewBox="0 0 24 24" fill="none" xmlns="http://www.w3.org/2000/svg">
<mask id="mask0_2397_43" style="mask-type:alpha" maskUnits="userSpaceOnUse" x="0" y="0" width="24" height="24">
<rect width="24" height="24" fill="#D9D9D9"/>
</mask>
<g mask="url(#mask0_2397_43)">
<path d="M8.99983 19.6153C8.55567 19.6153 8.17542 19.4571 7.85908 19.1408C7.54275 18.8244 7.38458 18.4442 7.38458 18C7.38458 17.5558 7.54275 17.1756 7.85908 16.8593C8.17542 16.5429 8.55567 16.3848 8.99983 16.3848C9.444 16.3848 9.82425 16.5429 10.1406 16.8593C10.4569 17.1756 10.6151 17.5558 10.6151 18C10.6151 18.4442 10.4569 18.8244 10.1406 19.1408C9.82425 19.4571 9.444 19.6153 8.99983 19.6153ZM14.9998 19.6153C14.5557 19.6153 14.1754 19.4571 13.8591 19.1408C13.5427 18.8244 13.3846 18.4442 13.3846 18C13.3846 17.5558 13.5427 17.1756 13.8591 16.8593C14.1754 16.5429 14.5557 16.3848 14.9998 16.3848C15.444 16.3848 15.8242 16.5429 16.1406 16.8593C16.4569 17.1756 16.6151 17.5558 16.6151 18C16.6151 18.4442 16.4569 18.8244 16.1406 19.1408C15.8242 19.4571 15.444 19.6153 14.9998 19.6153ZM8.99983 13.6153C8.55567 13.6153 8.17542 13.4571 7.85908 13.1408C7.54275 12.8244 7.38458 12.4442 7.38458 12C7.38458 11.5558 7.54275 11.1756 7.85908 10.8593C8.17542 10.5429 8.55567 10.3848 8.99983 10.3848C9.444 10.3848 9.82425 10.5429 10.1406 10.8593C10.4569 11.1756 10.6151 11.5558 10.6151 12C10.6151 12.4442 10.4569 12.8244 10.1406 13.1408C9.82425 13.4571 9.444 13.6153 8.99983 13.6153ZM14.9998 13.6153C14.5557 13.6153 14.1754 13.4571 13.8591 13.1408C13.5427 12.8244 13.3846 12.4442 13.3846 12C13.3846 11.5558 13.5427 11.1756 13.8591 10.8593C14.1754 10.5429 14.5557 10.3848 14.9998 10.3848C15.444 10.3848 15.8242 10.5429 16.1406 10.8593C16.4569 11.1756 16.6151 11.5558 16.6151 12C16.6151 12.4442 16.4569 12.8244 16.1406 13.1408C15.8242 13.4571 15.444 13.6153 14.9998 13.6153ZM8.99983 7.61526C8.55567 7.61526 8.17542 7.4571 7.85908 7.14077C7.54275 6.82443 7.38458 6.44418 7.38458 6.00002C7.38458 5.55585 7.54275 5.1756 7.85908 4.85927C8.17542 4.54293 8.55567 4.38477 8.99983 4.38477C9.444 4.38477 9.82425 4.54293 10.1406 4.85927C10.4569 5.1756 10.6151 5.55585 10.6151 6.00002C10.6151 6.44418 10.4569 6.82443 10.1406 7.14077C9.82425 7.4571 9.444 7.61526 8.99983 7.61526ZM14.9998 7.61526C14.5557 7.61526 14.1754 7.4571 13.8591 7.14077C13.5427 6.82443 13.3846 6.44418 13.3846 6.00002C13.3846 5.55585 13.5427 5.1756 13.8591 4.85927C14.1754 4.54293 14.5557 4.38477 14.9998 4.38477C15.444 4.38477 15.8242 4.54293 16.1406 4.85927C16.4569 5.1756 16.6151 5.55585 16.6151 6.00002C16.6151 6.44418 16.4569 6.82443 16.1406 7.14077C15.8242 7.4571 15.444 7.61526 14.9998 7.61526Z" fill="#222222"/>
</g>
</svg>
