<svg width="24" height="24" viewBox="0 0 24 24" fill="none" xmlns="http://www.w3.org/2000/svg">
<g clip-path="url(#clip0_1941_138601)">
<mask id="mask0_1941_138601" style="mask-type:alpha" maskUnits="userSpaceOnUse" x="0" y="0" width="24" height="24">
<rect width="24" height="24" fill="#D9D9D9"/>
</mask>
<g mask="url(#mask0_1941_138601)">
<path d="M8.99999 16.4L5.12499 20.3C4.92499 20.5 4.69165 20.6 4.42499 20.6C4.15832 20.6 3.92499 20.5 3.72499 20.3C3.52499 20.1 3.42499 19.8625 3.42499 19.5875C3.42499 19.3125 3.52499 19.075 3.72499 18.875L7.59999 15H5.99999C5.71665 15 5.47915 14.9042 5.28749 14.7125C5.09582 14.5209 4.99999 14.2834 4.99999 14C4.99999 13.7167 5.09582 13.4792 5.28749 13.2875C5.47915 13.0959 5.71665 13 5.99999 13H9.99999C10.2833 13 10.5208 13.0959 10.7125 13.2875C10.9042 13.4792 11 13.7167 11 14V18C11 18.2834 10.9042 18.5209 10.7125 18.7125C10.5208 18.9042 10.2833 19 9.99999 19C9.71665 19 9.47915 18.9042 9.28749 18.7125C9.09582 18.5209 8.99999 18.2834 8.99999 18V16.4ZM16.4 9.00002H18C18.2833 9.00002 18.5208 9.09586 18.7125 9.28752C18.9042 9.47919 19 9.71669 19 10C19 10.2834 18.9042 10.5209 18.7125 10.7125C18.5208 10.9042 18.2833 11 18 11H14C13.7167 11 13.4792 10.9042 13.2875 10.7125C13.0958 10.5209 13 10.2834 13 10V6.00002C13 5.71669 13.0958 5.47919 13.2875 5.28752C13.4792 5.09586 13.7167 5.00002 14 5.00002C14.2833 5.00002 14.5208 5.09586 14.7125 5.28752C14.9042 5.47919 15 5.71669 15 6.00002V7.60002L18.875 3.70002C19.075 3.50002 19.3083 3.40002 19.575 3.40002C19.8417 3.40002 20.075 3.50002 20.275 3.70002C20.475 3.90002 20.575 4.13752 20.575 4.41252C20.575 4.68752 20.475 4.92502 20.275 5.12502L16.4 9.00002Z" fill="#222222"/>
</g>
</g>
<defs>
<clipPath id="clip0_1941_138601">
<rect width="24" height="24" fill="white"/>
</clipPath>
</defs>
</svg>
