<svg width="24" height="24" viewBox="0 0 24 24" fill="none" xmlns="http://www.w3.org/2000/svg">
<path d="M6.00003 22C5.45003 22 4.9792 21.8042 4.58753 21.4125C4.19586 21.0208 4.00003 20.55 4.00003 20V16C4.00003 15.45 4.19586 14.9792 4.58753 14.5875C4.9792 14.1958 5.45003 14 6.00003 14H18C18.55 14 19.0209 14.1958 19.4125 14.5875C19.8042 14.9792 20 15.45 20 16V20C20 20.55 19.8042 21.0208 19.4125 21.4125C19.0209 21.8042 18.55 22 18 22H6.00003ZM7.00003 18H17C17.2834 18 17.5209 17.9042 17.7125 17.7125C17.9042 17.5208 18 17.2833 18 17C18 16.7167 17.9042 16.4792 17.7125 16.2875C17.5209 16.0958 17.2834 16 17 16H7.00003C6.7167 16 6.4792 16.0958 6.28753 16.2875C6.09586 16.4792 6.00003 16.7167 6.00003 17C6.00003 17.2833 6.09586 17.5208 6.28753 17.7125C6.4792 17.9042 6.7167 18 7.00003 18ZM11.175 12.85L7.47503 7.675C7.32503 7.45833 7.22086 7.22083 7.16253 6.9625C7.1042 6.70417 7.0917 6.44167 7.12503 6.175C7.32503 4.95833 7.87503 3.95833 8.77503 3.175C9.67503 2.39167 10.75 2 12 2C13.25 2 14.325 2.39167 15.225 3.175C16.125 3.95833 16.675 4.95833 16.875 6.175C16.9084 6.44167 16.8959 6.70417 16.8375 6.9625C16.7792 7.22083 16.675 7.45833 16.525 7.675L12.825 12.85C12.625 13.1333 12.35 13.275 12 13.275C11.65 13.275 11.375 13.1333 11.175 12.85ZM12 11.2L15 7C15 6.16667 14.7084 5.45833 14.125 4.875C13.5417 4.29167 12.8334 4 12 4C11.1667 4 10.4584 4.29167 9.87503 4.875C9.2917 5.45833 9.00003 6.16667 9.00003 7L12 11.2Z" fill="#222222"/>
</svg>
