<svg width="24" height="24" viewBox="0 0 24 24" fill="none" xmlns="http://www.w3.org/2000/svg">
<g clip-path="url(#clip0_818_51158)">
<path fill-rule="evenodd" clip-rule="evenodd" d="M20.5033 11.0717L22.9235 9.08896C23.5347 8.58822 23.6888 7.71628 23.2864 7.03632L22.0282 4.91056C21.6396 4.25412 20.8417 3.96325 20.1219 4.21563L17.0767 5.28328C16.3465 5.54266 15.5601 5.09215 15.4196 4.35495L14.8601 1.31076C14.7205 0.551379 14.0585 0 13.2864 0H10.6906C9.9163 0 9.25311 0.554468 9.11593 1.31653L8.5665 4.3686C8.42607 5.11945 7.63964 5.55631 6.90939 5.29693L3.86252 4.22868C3.14345 3.97658 2.34635 4.26654 1.95735 4.92175L0.702312 7.03565C0.298516 7.71577 0.452281 8.58889 1.06413 9.09015L3.48282 11.0717C4.07264 11.5495 4.07264 12.4369 3.48282 12.9283L1.06268 14.911C0.451461 15.4118 0.297297 16.2837 0.699756 16.9637L1.95795 19.0894C2.34648 19.7459 3.14438 20.0367 3.86422 19.7844L6.90939 18.7167C7.63964 18.4573 8.42607 18.9078 8.5665 19.645L9.12604 22.6892C9.26562 23.4486 9.92758 24 10.6997 24H13.3005C14.0726 24 14.7346 23.4486 14.8741 22.6892L15.4337 19.645C15.5741 18.9078 16.3605 18.4573 17.0908 18.7167L20.136 19.7844C20.8558 20.0367 21.6537 19.7459 22.0422 19.0894L23.3004 16.9637C23.7029 16.2837 23.5487 15.4118 22.9375 14.911L20.5173 12.9283C19.9135 12.4369 19.9135 11.5631 20.5033 11.0717ZM11.9931 16.9283C9.19845 16.9283 6.92343 14.7167 6.92343 12C6.92343 9.28327 9.19845 7.07167 11.9931 7.07167C14.7877 7.07167 17.0627 9.28327 17.0627 12C17.0627 14.7167 14.7877 16.9283 11.9931 16.9283Z" fill="#222222"/>
</g>
<defs>
<clipPath id="clip0_818_51158">
<rect width="24" height="24" fill="white"/>
</clipPath>
</defs>
</svg>
