<svg width="24" height="24" viewBox="0 0 24 24" fill="none" xmlns="http://www.w3.org/2000/svg">
<path fill-rule="evenodd" clip-rule="evenodd" d="M7 3.59961C5.89543 3.59961 5 4.49504 5 5.59961V7.59961V17.5996C5 19.2565 6.34315 20.5996 8 20.5996H16C17.6569 20.5996 19 19.2565 19 17.5996V9.47311C19 8.58277 18.6045 7.73843 17.9206 7.16845L14.4724 4.29495C13.9332 3.84566 13.2536 3.59961 12.5518 3.59961H7ZM7 1.59961H12.5518C13.7215 1.59961 14.8541 2.00969 15.7527 2.7585L19.2009 5.632C20.3409 6.58197 21 7.98921 21 9.47311V17.5996C21 20.361 18.7614 22.5996 16 22.5996H8C5.23858 22.5996 3 20.361 3 17.5996V7.59961V5.59961C3 3.39047 4.79086 1.59961 7 1.59961ZM8 9.59961C8 9.04732 8.44772 8.59961 9 8.59961H15C15.5523 8.59961 16 9.04732 16 9.59961C16 10.1519 15.5523 10.5996 15 10.5996H9C8.44772 10.5996 8 10.1519 8 9.59961ZM9 14.5996C8.44772 14.5996 8 15.0473 8 15.5996C8 16.1519 8.44772 16.5996 9 16.5996H15C15.5523 16.5996 16 16.1519 16 15.5996C16 15.0473 15.5523 14.5996 15 14.5996H9Z" fill="#222222"/>
</svg>
