<svg width="24" height="24" viewBox="0 0 24 24" fill="none" xmlns="http://www.w3.org/2000/svg">
<path fill-rule="evenodd" clip-rule="evenodd" d="M16.7336 10.3773L11.6582 15.4536C11.4872 15.6235 11.256 15.7188 11.015 15.7188C10.774 15.7188 10.5428 15.6235 10.3718 15.4536L7.26636 12.3482C7.18196 12.2638 7.11501 12.1636 7.06933 12.0533C7.02365 11.943 7.00014 11.8248 7.00014 11.7055C7.00014 11.4644 7.0959 11.2332 7.26636 11.0627C7.43683 10.8923 7.66802 10.7965 7.90909 10.7965C8.15016 10.7965 8.38136 10.8923 8.55182 11.0627L11.0145 13.5255L15.4482 9.09182C15.5326 9.00741 15.6328 8.94046 15.7431 8.89478C15.8533 8.8491 15.9715 8.82559 16.0909 8.82559C16.2103 8.82559 16.3285 8.8491 16.4388 8.89478C16.549 8.94046 16.6492 9.00741 16.7336 9.09182C16.818 9.17622 16.885 9.27643 16.9307 9.3867C16.9764 9.49698 16.9999 9.61518 16.9999 9.73455C16.9999 9.85391 16.9764 9.97211 16.9307 10.0824C16.885 10.1927 16.818 10.2929 16.7336 10.3773ZM12 2C6.47727 2 2 6.47727 2 12C2 17.5227 6.47727 22 12 22C17.5227 22 22 17.5227 22 12C22 6.47727 17.5227 2 12 2Z" fill="#222222"/>
</svg>
