<svg width="24" height="24" viewBox="0 0 24 24" fill="none" xmlns="http://www.w3.org/2000/svg">
<path fill-rule="evenodd" clip-rule="evenodd" d="M5.88086 1C4.88876 1 4.06705 1.0609 3.40314 1.2273C2.72353 1.39764 2.13873 1.69652 1.71723 2.21917C1.3068 2.7281 1.14659 3.33327 1.073 3.91702C1.00037 4.49307 1.00001 5.1691 1.00001 5.88085L1 5.94891C0.999932 6.63235 0.999863 7.2832 1.06606 7.83814C1.13537 8.41913 1.28939 9.02658 1.69752 9.53833C2.11748 10.0649 2.70392 10.3644 3.38559 10.5346C4.0515 10.7009 4.87861 10.7617 5.88086 10.7617C6.88312 10.7617 7.71023 10.7009 8.37613 10.5346C9.0578 10.3644 9.64424 10.0649 10.0642 9.53833C10.4723 9.02658 10.6264 8.41913 10.6957 7.83814C10.7619 7.2832 10.7618 6.63237 10.7617 5.94893L10.7617 5.88085C10.7617 5.1691 10.7614 4.49307 10.6887 3.91702C10.6151 3.33327 10.4549 2.7281 10.0445 2.21917C9.623 1.69652 9.03819 1.39764 8.35859 1.2273C7.69467 1.0609 6.87296 1 5.88086 1ZM2.97505 5.88085C2.97505 5.13249 2.9786 4.59179 3.03253 4.16407C3.08548 3.74405 3.17447 3.5584 3.25462 3.45902C3.32369 3.37337 3.47084 3.24647 3.88331 3.14309C4.31146 3.03578 4.94193 2.97504 5.88086 2.97504C6.8198 2.97504 7.45027 3.03578 7.87842 3.14309C8.29088 3.24647 8.43803 3.37337 8.50711 3.45902C8.58725 3.5584 8.67625 3.74405 8.7292 4.16407C8.78313 4.59179 8.78667 5.13249 8.78667 5.88085C8.78667 6.63272 8.78587 7.17375 8.73453 7.60419C8.68409 8.02697 8.59708 8.21034 8.52009 8.30688C8.45492 8.38859 8.31213 8.51491 7.89765 8.61841C7.4674 8.72584 6.83144 8.78666 5.88086 8.78666C4.93029 8.78666 4.29432 8.72584 3.86407 8.61841C3.44959 8.51491 3.3068 8.38859 3.24164 8.30688C3.16464 8.21033 3.07763 8.02697 3.0272 7.60419C2.97585 7.17375 2.97505 6.63272 2.97505 5.88085Z" fill="#222222"/>
<path fill-rule="evenodd" clip-rule="evenodd" d="M18.1191 1C17.127 1 16.3053 1.0609 15.6414 1.2273C14.9618 1.39764 14.377 1.69652 13.9555 2.21917C13.5451 2.7281 13.3849 3.33327 13.3113 3.91702C13.2386 4.49307 13.2383 5.1691 13.2383 5.88085L13.2383 5.94891C13.2382 6.63234 13.2381 7.2832 13.3043 7.83814C13.3736 8.41913 13.5277 9.02658 13.9358 9.53833C14.3558 10.0649 14.9422 10.3644 15.6239 10.5346C16.2898 10.7009 17.1169 10.7617 18.1191 10.7617C19.1214 10.7617 19.9485 10.7009 20.6144 10.5346C21.2961 10.3644 21.8825 10.0649 22.3025 9.53833C22.7106 9.02658 22.8646 8.41913 22.9339 7.83814C23.0001 7.28321 23.0001 6.63239 23 5.94897L23 5.88085C23 5.1691 22.9996 4.49307 22.927 3.91702C22.8534 3.33327 22.6932 2.7281 22.2828 2.21917C21.8613 1.69652 21.2765 1.39764 20.5969 1.2273C19.9329 1.0609 19.1112 1 18.1191 1ZM15.2133 5.88085C15.2133 5.13249 15.2169 4.59179 15.2708 4.16407C15.3238 3.74405 15.4127 3.5584 15.4929 3.45902C15.562 3.37337 15.7091 3.24647 16.1216 3.14309C16.5497 3.03578 17.1802 2.97504 18.1191 2.97504C19.0581 2.97504 19.6885 3.03578 20.1167 3.14309C20.5292 3.24647 20.6763 3.37337 20.7454 3.45902C20.8255 3.5584 20.9145 3.74405 20.9675 4.16407C21.0214 4.59179 21.0249 5.13249 21.0249 5.88085C21.0249 6.63272 21.0241 7.17375 20.9728 7.60419C20.9224 8.02697 20.8354 8.21034 20.7584 8.30688C20.6932 8.38859 20.5504 8.51491 20.1359 8.61841C19.7057 8.72584 19.0697 8.78666 18.1191 8.78666C17.1686 8.78666 16.5326 8.72584 16.1024 8.61841C15.6879 8.51491 15.5451 8.38859 15.4799 8.30688C15.4029 8.21033 15.3159 8.02697 15.2655 7.60419C15.2141 7.17375 15.2133 6.63272 15.2133 5.88085Z" fill="#222222"/>
<path fill-rule="evenodd" clip-rule="evenodd" d="M3.40314 13.4636C4.06705 13.2972 4.88876 13.2363 5.88086 13.2363C6.87296 13.2363 7.69467 13.2972 8.35859 13.4636C9.03819 13.6339 9.623 13.9328 10.0445 14.4554C10.4549 14.9643 10.6151 15.5695 10.6887 16.1533C10.7614 16.7293 10.7617 17.4054 10.7617 18.1171L10.7617 18.1852C10.7618 18.8686 10.7619 19.5194 10.6957 20.0744C10.6264 20.6554 10.4723 21.2628 10.0642 21.7746C9.64424 22.3012 9.0578 22.6006 8.37613 22.7709C7.71023 22.9371 6.88312 22.998 5.88086 22.998C4.87861 22.998 4.0515 22.9371 3.38559 22.7709C2.70392 22.6006 2.11748 22.3012 1.69752 21.7746C1.28939 21.2628 1.13537 20.6554 1.06606 20.0744C0.999863 19.5194 0.999932 18.8686 1 18.1852L1.00001 18.1171C1.00001 17.4054 1.00037 16.7293 1.073 16.1533C1.14659 15.5695 1.3068 14.9643 1.71723 14.4554C2.13873 13.9328 2.72353 13.6339 3.40314 13.4636ZM3.03253 16.4003C2.9786 16.828 2.97505 17.3687 2.97505 18.1171C2.97505 18.869 2.97585 19.41 3.0272 19.8404C3.07763 20.2632 3.16464 20.4466 3.24164 20.5431C3.3068 20.6248 3.44959 20.7512 3.86407 20.8547C4.29432 20.9621 4.93029 21.0229 5.88086 21.0229C6.83144 21.0229 7.4674 20.9621 7.89765 20.8547C8.31213 20.7512 8.45492 20.6248 8.52009 20.5431C8.59708 20.4466 8.68409 20.2632 8.73453 19.8404C8.78587 19.41 8.78667 18.869 8.78667 18.1171C8.78667 17.3687 8.78313 16.828 8.7292 16.4003C8.67625 15.9803 8.58725 15.7947 8.50711 15.6953C8.43803 15.6096 8.29088 15.4827 7.87842 15.3793C7.45027 15.272 6.8198 15.2113 5.88086 15.2113C4.94193 15.2113 4.31146 15.272 3.88331 15.3793C3.47084 15.4827 3.32369 15.6096 3.25462 15.6953C3.17447 15.7947 3.08548 15.9803 3.03253 16.4003Z" fill="#222222"/>
<path fill-rule="evenodd" clip-rule="evenodd" d="M18.1191 13.2363C17.127 13.2363 16.3053 13.2972 15.6414 13.4636C14.9618 13.6339 14.377 13.9328 13.9555 14.4554C13.5451 14.9643 13.3849 15.5695 13.3113 16.1533C13.2386 16.7293 13.2383 17.4054 13.2383 18.1171L13.2383 18.1852C13.2382 18.8686 13.2381 19.5194 13.3043 20.0744C13.3736 20.6554 13.5277 21.2628 13.9358 21.7746C14.3558 22.3012 14.9422 22.6006 15.6239 22.7709C16.2898 22.9371 17.1169 22.998 18.1191 22.998C19.1214 22.998 19.9485 22.9371 20.6144 22.7709C21.2961 22.6006 21.8825 22.3012 22.3025 21.7746C22.7106 21.2628 22.8646 20.6554 22.9339 20.0744C23.0001 19.5195 23.0001 18.8686 23 18.1852L23 18.1171C23 17.4054 22.9996 16.7293 22.927 16.1533C22.8534 15.5695 22.6932 14.9643 22.2828 14.4554C21.8613 13.9328 21.2765 13.6339 20.5969 13.4636C19.9329 13.2972 19.1112 13.2363 18.1191 13.2363ZM15.2133 18.1171C15.2133 17.3687 15.2169 16.828 15.2708 16.4003C15.3238 15.9803 15.4127 15.7947 15.4929 15.6953C15.562 15.6096 15.7091 15.4827 16.1216 15.3793C16.5497 15.272 17.1802 15.2113 18.1191 15.2113C19.0581 15.2113 19.6885 15.272 20.1167 15.3793C20.5292 15.4827 20.6763 15.6096 20.7454 15.6953C20.8255 15.7947 20.9145 15.9803 20.9675 16.4003C21.0214 16.828 21.0249 17.3687 21.0249 18.1171C21.0249 18.869 21.0241 19.41 20.9728 19.8404C20.9224 20.2632 20.8354 20.4466 20.7584 20.5431C20.6932 20.6248 20.5504 20.7512 20.1359 20.8547C19.7057 20.9621 19.0697 21.0229 18.1191 21.0229C17.1686 21.0229 16.5326 20.9621 16.1024 20.8547C15.6879 20.7512 15.5451 20.6248 15.4799 20.5431C15.4029 20.4466 15.3159 20.2632 15.2655 19.8404C15.2141 19.41 15.2133 18.869 15.2133 18.1171Z" fill="#222222"/>
</svg>
