<svg preserveAspectRatio="none" width="100%" height="100%" overflow="visible" style="display: block;" viewBox="0 0 12 12" fill="none" xmlns="http://www.w3.org/2000/svg">
<g id="system-up">
<g id="icon">
<path d="M10.1562 5.12289C10.3022 5.26936 10.3025 5.50685 10.1562 5.65316C10.0098 5.79961 9.77143 5.79961 9.62498 5.65316L6.37596 2.40316L6.37596 10.4989C6.37587 10.7059 6.20801 10.8739 6.00096 10.8739C5.79406 10.8737 5.62604 10.7058 5.62596 10.4989L5.62596 2.40414L2.37693 5.65316C2.2305 5.79929 1.99302 5.79941 1.84666 5.65316C1.70031 5.50681 1.7005 5.26936 1.84666 5.12289L5.73631 1.23324C5.80947 1.16023 5.90514 1.12389 6.00096 1.12387C6.02486 1.12383 6.04868 1.12619 6.07224 1.1307C6.09797 1.13566 6.12301 1.14377 6.14744 1.15414C6.19057 1.17239 6.23141 1.1981 6.26658 1.23324L10.1562 5.12289Z" fill="var(--fill-0, white)"/>
<path d="M10.1562 5.12289L10.2743 5.00522L10.2741 5.00504L10.1562 5.12289ZM10.1562 5.65316L10.2741 5.77101L10.2741 5.771L10.1562 5.65316ZM9.62498 5.65316L9.50711 5.771L9.50713 5.77101L9.62498 5.65316ZM6.37596 2.40316L6.49382 2.28533L6.20929 2.00071L6.20929 2.40316L6.37596 2.40316ZM6.37596 10.4989L6.54262 10.4989L6.54262 10.4989L6.37596 10.4989ZM6.00096 10.8739L6.0008 11.0405L6.00096 11.0405L6.00096 10.8739ZM5.62596 10.4989L5.45929 10.4989L5.45929 10.4989L5.62596 10.4989ZM5.62596 2.40414L5.79262 2.40414L5.79262 2.00177L5.5081 2.28629L5.62596 2.40414ZM2.37693 5.65316L2.49466 5.77114L2.49478 5.77101L2.37693 5.65316ZM1.84666 5.65316L1.72881 5.77101L1.72885 5.77106L1.84666 5.65316ZM1.84666 5.12289L1.72881 5.00504L1.72868 5.00516L1.84666 5.12289ZM5.73631 1.23324L5.61858 1.11527L5.61846 1.11539L5.73631 1.23324ZM6.00096 1.12387L6.001 1.29053L6.00121 1.29053L6.00096 1.12387ZM6.07224 1.1307L6.10376 0.967041L6.10356 0.967003L6.07224 1.1307ZM6.14744 1.15414L6.0823 1.30755L6.08248 1.30763L6.14744 1.15414ZM6.26658 1.23324L6.38443 1.11539L6.38437 1.11533L6.26658 1.23324ZM10.1562 5.12289L10.0382 5.24055C10.1195 5.32214 10.1194 5.45427 10.0384 5.53533L10.1562 5.65316L10.2741 5.771C10.4856 5.55944 10.4849 5.21657 10.2743 5.00522L10.1562 5.12289ZM10.1562 5.65316L10.0384 5.53531C9.95702 5.61667 9.82419 5.61667 9.74283 5.53531L9.62498 5.65316L9.50713 5.77101C9.71866 5.98255 10.0625 5.98255 10.2741 5.77101L10.1562 5.65316ZM9.62498 5.65316L9.74285 5.53533L6.49382 2.28533L6.37596 2.40316L6.25809 2.521L9.50711 5.771L9.62498 5.65316ZM6.37596 2.40316L6.20929 2.40316L6.20929 10.4989L6.37596 10.4989L6.54262 10.4989L6.54262 2.40316L6.37596 2.40316ZM6.37596 10.4989L6.20929 10.4988C6.20924 10.6139 6.11589 10.7072 6.00096 10.7072L6.00096 10.8739L6.00096 11.0405C6.30013 11.0405 6.54249 10.7979 6.54262 10.4989L6.37596 10.4989ZM6.00096 10.8739L6.00111 10.7072C5.88607 10.7071 5.79267 10.6136 5.79262 10.4988L5.62596 10.4989L5.45929 10.4989C5.45942 10.7979 5.70206 11.0403 6.0008 11.0405L6.00096 10.8739ZM5.62596 10.4989L5.79262 10.4989L5.79262 2.40414L5.62596 2.40414L5.45929 2.40414L5.45929 10.4989L5.62596 10.4989ZM5.62596 2.40414L5.5081 2.28629L2.25908 5.53531L2.37693 5.65316L2.49478 5.77101L5.74381 2.52199L5.62596 2.40414ZM2.37693 5.65316L2.2592 5.53519C2.17775 5.61647 2.04567 5.61641 1.96447 5.53527L1.84666 5.65316L1.72885 5.77106C1.94037 5.98242 2.28324 5.98211 2.49466 5.77114L2.37693 5.65316ZM1.84666 5.65316L1.96451 5.53531C1.88337 5.45417 1.88327 5.32215 1.96463 5.24062L1.84666 5.12289L1.72868 5.00516C1.51772 5.21657 1.51725 5.55945 1.72881 5.77101L1.84666 5.65316ZM1.84666 5.12289L1.96451 5.24074L5.85416 1.35109L5.73631 1.23324L5.61846 1.11539L1.72881 5.00504L1.84666 5.12289ZM5.73631 1.23324L5.85404 1.35121C5.89461 1.31073 5.94736 1.29055 6.001 1.29053L6.00096 1.12387L6.00091 0.957199C5.86292 0.95724 5.72433 1.00973 5.61858 1.11527L5.73631 1.23324ZM6.00096 1.12387L6.00121 1.29053C6.01393 1.29051 6.02717 1.29177 6.04093 1.2944L6.07224 1.1307L6.10356 0.967003C6.0702 0.960622 6.0358 0.957145 6.0007 0.957199L6.00096 1.12387ZM6.07224 1.1307L6.04073 1.29436C6.05302 1.29673 6.06674 1.30094 6.0823 1.30755L6.14744 1.15414L6.21258 1.00073C6.17927 0.986587 6.14292 0.974583 6.10376 0.967041L6.07224 1.1307ZM6.14744 1.15414L6.08248 1.30763C6.1086 1.31868 6.13073 1.33311 6.14879 1.35115L6.26658 1.23324L6.38437 1.11533C6.33208 1.06309 6.27255 1.02611 6.2124 1.00065L6.14744 1.15414ZM6.26658 1.23324L6.14873 1.35109L10.0384 5.24074L10.1562 5.12289L10.2741 5.00504L6.38443 1.11539L6.26658 1.23324Z" fill="var(--stroke-0, white)"/>
</g>
</g>
</svg>
