<svg preserveAspectRatio="none" width="100%" height="100%" overflow="visible" style="display: block;" viewBox="0 0 1787.09 295.445" fill="none" xmlns="http://www.w3.org/2000/svg">
<g id="Group">
<path id="Vector" d="M374.785 86.9158V56.9318H499.982V86.9158H374.785ZM421.635 228.65V72.68H453.362V228.65H421.635Z" fill="var(--fill-0, black)"/>
<path id="Vector_2" d="M537.264 232.726C523.85 232.726 513.033 229.011 504.847 221.581C496.628 214.15 492.551 204.451 492.551 192.451C492.551 179.826 497.384 169.832 507.05 162.467C516.716 155.103 529.242 151.421 544.661 151.421C551.039 151.421 557.122 152.045 562.908 153.327C568.695 154.61 573.56 156.286 577.473 158.358V151.026C577.473 143.366 574.81 137.218 569.549 132.615C564.256 128.045 557.155 125.71 548.245 125.71C543.149 125.71 538.842 126.269 535.291 127.387C531.741 128.505 528.519 129.952 525.527 131.76C522.535 133.568 518.655 136.691 513.921 141.163L496.595 124.264C504.42 117.458 510.633 112.757 515.269 110.094C519.938 107.464 525.165 105.392 530.951 103.88C536.738 102.368 543.445 101.611 550.974 101.611C568.826 101.611 582.766 105.951 592.695 114.631C602.624 123.31 607.588 135.508 607.588 151.223V228.55H577.44V201.361L585.429 212.638H576.585C573.001 218.457 567.741 223.29 560.673 227.038C553.637 230.786 545.812 232.66 537.231 232.66V232.726H537.264ZM545.385 210.534C554.492 210.534 562.152 207.279 568.201 200.769C574.284 194.227 577.374 185.843 577.44 175.52C574.021 173.448 570.01 171.804 565.374 170.588C560.771 169.371 555.872 168.78 550.711 168.78C542.228 168.78 535.324 170.588 530.097 174.172C524.869 177.755 522.239 183.213 522.239 190.479C522.239 196.692 524.376 201.624 528.683 205.175C532.957 208.725 538.513 210.501 545.385 210.501V210.534Z" fill="var(--fill-0, black)"/>
<path id="Vector_3" d="M635.762 228.65V56.9982H667.357V228.65H635.762Z" fill="var(--fill-0, black)"/>
<path id="Vector_4" d="M752.475 232.727C733.637 232.727 718.382 226.579 706.743 214.25C695.105 201.953 689.285 186.238 689.285 167.136C689.285 148.035 695.105 132.648 706.743 120.253C718.382 107.859 733.341 101.678 751.62 101.678C769.9 101.678 783.84 107.168 795.117 118.182C806.361 129.163 811.983 143.136 811.983 160.068V173.252H705.132V155.136H781.933C781.44 146.983 778.514 140.276 773.089 134.983C767.665 129.689 760.53 127.092 751.62 127.092C741.922 127.092 734.163 130.577 728.343 137.58C722.491 144.583 719.565 154.15 719.565 166.282C719.565 179.071 722.919 189.197 729.626 196.66C736.365 204.123 745.045 207.871 755.664 207.871C760.596 207.871 764.87 207.214 768.552 205.833C772.202 204.452 775.522 202.644 778.481 200.31C781.407 198.008 784.794 194.293 788.607 189.164L808.893 203.17C803.632 211.159 798.372 217.077 793.112 220.956C787.818 224.836 782.032 227.762 775.687 229.735C769.374 231.674 761.648 232.694 752.508 232.694H752.475V232.727Z" fill="var(--fill-0, black)"/>
<path id="Vector_5" d="M834.18 105.755H864.328V128.046L860.745 123.607H865.15C868.964 116.966 874.586 111.673 882.016 107.695C889.447 103.717 897.173 101.711 905.228 101.711C919.036 101.711 929.885 105.854 937.776 114.204C945.667 122.49 949.612 133.865 949.612 148.265V228.716H918.017V155.104C918.017 146.293 915.913 139.651 911.671 135.082C907.463 130.544 901.282 128.243 893.063 128.243C884.844 128.243 878.794 131.301 873.6 137.416C868.372 143.531 865.808 150.895 865.808 159.542V228.716H834.213V105.854H834.18V105.755Z" fill="var(--fill-0, black)"/>
<path id="Vector_6" d="M968.512 130.709V105.789H1048.73V130.709H968.512ZM1027.07 232.728C1014.93 232.728 1005.3 229.374 998.332 222.667C991.329 215.927 987.844 206.163 987.844 193.275V71.8263H1019.31V188.245C1019.31 194.458 1020.59 199.127 1023.12 202.152C1025.65 205.209 1029.43 206.689 1034.43 206.689C1035.94 206.689 1037.49 206.557 1039.07 206.261C1040.64 205.998 1043.97 204.979 1049 203.302V228.98C1043.34 230.59 1039.2 231.577 1036.47 232.037C1033.77 232.464 1030.62 232.695 1027.07 232.695V232.728Z" fill="var(--fill-0, black)"/>
<path id="Vector_7" d="M1113.01 228.65L1178.34 56.9982H1208.65L1273.74 228.65H1238.8L1200.03 117.164L1193.46 95.8262H1192.77L1186.23 117.032L1147.13 228.65H1113.01ZM1143.32 190.611L1152.23 165.92H1230.31L1239.62 190.611H1143.32Z" fill="var(--fill-0, black)"/>
<path id="Vector_8" d="M1340.72 284.509C1332.3 284.509 1324.67 283.424 1317.83 281.319C1311 279.215 1304.85 276.092 1299.42 272.015C1293.96 267.938 1288.24 260.936 1282.19 251.039L1306.98 238.316C1311.23 245.056 1314.84 249.626 1317.83 252.092C1320.86 254.557 1324.28 256.431 1328.09 257.681C1331.91 258.93 1335.95 259.555 1340.22 259.555C1351.34 259.555 1359.85 256.366 1365.7 250.02C1371.56 243.675 1374.48 234.831 1374.48 223.455V210.864H1373.76C1369.39 216.946 1363.8 221.647 1356.96 224.968C1350.12 228.288 1342.52 229.965 1334.21 229.965C1317.83 229.965 1304.35 224.179 1293.7 212.606C1283.08 201.033 1277.79 185.449 1277.79 165.953C1277.79 146.457 1283.28 131.169 1294.23 119.366C1305.21 107.596 1318.92 101.711 1335.39 101.711C1343.58 101.711 1351.11 103.388 1357.98 106.741C1364.82 110.095 1370.34 114.763 1374.48 120.747H1382.34L1375.17 128.638V105.755H1405.45V222.173C1405.45 242.261 1399.7 257.648 1388.16 268.399C1376.65 279.15 1360.8 284.541 1340.68 284.541H1340.72V284.509ZM1341.93 203.236C1351.53 203.236 1359.46 199.751 1365.67 192.781C1371.85 185.811 1374.97 176.671 1374.97 165.197C1374.97 153.723 1371.85 145.01 1365.67 138.238C1359.46 131.432 1351.53 128.046 1341.93 128.046C1332.33 128.046 1324.38 131.432 1318.03 138.172C1311.72 144.945 1308.56 154.019 1308.56 165.46C1308.56 176.901 1311.69 186.633 1317.93 193.274C1324.18 199.883 1332.2 203.203 1341.97 203.203H1341.93V203.236Z" fill="var(--fill-0, black)"/>
<path id="Vector_9" d="M1490.6 232.727C1471.77 232.727 1456.54 226.579 1444.87 214.25C1433.23 201.953 1427.41 186.238 1427.41 167.136C1427.41 148.035 1433.23 132.648 1444.87 120.253C1456.54 107.859 1471.5 101.678 1489.75 101.678C1508 101.678 1521.97 107.168 1533.25 118.182C1544.49 129.163 1550.11 143.136 1550.11 160.068V173.252H1443.29V155.136H1520.06C1519.57 146.983 1516.64 140.276 1511.22 134.983C1505.79 129.689 1498.66 127.092 1489.75 127.092C1480.05 127.092 1472.29 130.577 1466.47 137.58C1460.62 144.583 1457.69 154.15 1457.69 166.282C1457.69 179.071 1461.05 189.197 1467.79 196.66C1474.49 204.123 1483.17 207.871 1493.83 207.871C1498.72 207.871 1503.03 207.214 1506.71 205.833C1510.36 204.452 1513.65 202.644 1516.61 200.31C1519.54 198.008 1522.92 194.293 1526.74 189.164L1547.02 203.17C1541.76 211.159 1536.53 217.077 1531.24 220.956C1525.95 224.836 1520.16 227.762 1513.82 229.735C1507.5 231.674 1499.78 232.694 1490.64 232.694H1490.6V232.727Z" fill="var(--fill-0, black)"/>
<path id="Vector_10" d="M1572.27 105.755H1602.42V128.046L1598.84 123.607H1603.24C1607.09 116.966 1612.71 111.673 1620.14 107.695C1627.57 103.717 1635.3 101.711 1643.32 101.711C1657.13 101.711 1667.98 105.854 1675.87 114.204C1683.76 122.49 1687.71 133.865 1687.71 148.265V228.716H1656.11V155.104C1656.11 146.293 1654.01 139.651 1649.77 135.082C1645.56 130.544 1639.38 128.243 1631.16 128.243C1622.94 128.243 1616.89 131.301 1611.69 137.416C1606.47 143.531 1603.9 150.895 1603.9 159.542V228.716H1572.31V105.854H1572.27V105.755Z" fill="var(--fill-0, black)"/>
<path id="Vector_11" d="M1706.64 130.709V105.789H1786.86V130.709H1706.64ZM1765.16 232.728C1753.03 232.728 1743.43 229.374 1736.43 222.667C1729.42 215.927 1725.94 206.163 1725.94 193.275V71.8263H1757.4V188.245C1757.4 194.458 1758.69 199.127 1761.22 202.152C1763.78 205.209 1767.56 206.689 1772.53 206.689C1774.04 206.689 1775.58 206.557 1777.2 206.261C1778.77 205.998 1782.06 204.979 1787.09 203.302V228.98C1781.44 230.59 1777.29 231.577 1774.57 232.037C1771.87 232.464 1768.71 232.695 1765.16 232.695V232.728Z" fill="var(--fill-0, black)"/>
<path id="Vector_12" d="M18.3616 27.178C59.1294 -19.968 154.605 -4.21978 231.603 62.3566C232.655 63.2443 233.675 64.1649 234.694 65.0526C200.271 65.5129 170.912 82.5761 160.095 109.174C159.767 110.029 158.583 110.029 158.254 109.174C147.273 82.2145 117.223 65.0197 82.1764 65.0197V103.683C113.311 103.683 134.024 121.273 134.024 146.555C134.024 171.838 113.311 189.427 82.1764 189.427V228.091C117.223 228.091 147.273 210.929 158.254 183.937C158.583 183.115 159.767 183.082 160.095 183.937C171.076 210.896 201.126 228.091 236.173 228.091V189.427C205.039 189.427 184.326 171.838 184.326 146.555C184.326 121.273 205.039 103.683 236.173 103.683V66.3676C309.785 132.582 337.238 222.041 297.292 268.267C256.524 315.413 161.049 299.664 84.0175 233.088C6.98611 166.512 -22.4061 74.3239 18.3616 27.178Z" fill="url(#paint0_linear_0_645)"/>
<path id="Vector_13" fill-rule="evenodd" clip-rule="evenodd" d="M84.016 62.3568C161.047 -4.21964 256.523 -19.9678 297.291 27.1781C338.058 74.3241 308.633 166.512 231.635 233.088C154.603 299.665 59.1279 315.413 18.393 268.267C-22.3748 221.121 7.01749 128.933 84.0489 62.3568H84.016ZM236.172 65.0199C201.125 65.0199 171.075 82.1817 160.094 109.174C159.765 110.029 158.582 110.029 158.253 109.174C147.272 82.2146 117.222 65.0199 82.1749 65.0199V103.683C113.31 103.683 134.022 121.273 134.022 146.555C134.022 171.838 113.31 189.427 82.1749 189.427V228.091C117.222 228.091 147.272 210.929 158.253 183.937C158.582 183.082 159.765 183.082 160.094 183.937C171.075 210.896 201.125 228.091 236.172 228.091V189.427C205.037 189.427 184.324 171.838 184.324 146.555C184.324 121.273 205.037 103.683 236.172 103.683V65.0199Z" fill="url(#paint1_linear_0_645)"/>
</g>
<defs>
<linearGradient id="paint0_linear_0_645" x1="32.6632" y1="17.6107" x2="286.18" y2="281.188" gradientUnits="userSpaceOnUse">
<stop stop-color="#0731EC"/>
<stop offset="0.5" stop-color="#6A5FF5"/>
<stop offset="1" stop-color="#F091FF"/>
</linearGradient>
<linearGradient id="paint1_linear_0_645" x1="-0.0182382" y1="147.706" x2="315.636" y2="147.706" gradientUnits="userSpaceOnUse">
<stop stop-color="#0731EC"/>
<stop offset="0.5" stop-color="#6A5FF5"/>
<stop offset="1" stop-color="#F091FF"/>
</linearGradient>
</defs>
</svg>
