<svg width="54" height="22" viewBox="0 0 54 22" fill="none" xmlns="http://www.w3.org/2000/svg">
<path d="M40.213 9.3563C38.8813 9.3563 37.7616 8.91377 36.854 8.02872C35.9507 7.14366 35.499 6.02891 35.499 4.68447C35.499 3.31474 35.9486 2.19157 36.8477 1.31494C37.751 0.438313 38.8791 0 40.232 0C40.7495 0 41.2033 0.0505747 41.5934 0.151724C41.9879 0.252873 42.342 0.389846 42.6558 0.562642C42.9739 0.735439 43.2411 0.927201 43.4574 1.13793C43.6737 1.34444 43.7818 1.4477 43.7818 1.4477L42.4077 2.97758C42.4077 2.97758 42.3314 2.90593 42.1787 2.76264C42.026 2.61513 41.8564 2.48869 41.6698 2.38333C41.4874 2.27796 41.2796 2.19367 41.0463 2.13045C40.8131 2.06724 40.5501 2.03563 40.2575 2.03563C39.5238 2.03563 38.9067 2.28218 38.4063 2.77528C37.9058 3.26417 37.6556 3.92375 37.6556 4.75401C37.6556 5.52949 37.9016 6.16588 38.3935 6.6632C38.8855 7.1563 39.5238 7.40285 40.3084 7.40285C41.0718 7.40285 41.6486 7.22163 42.0387 6.85918C42.4332 6.49673 42.6622 6.0542 42.7258 5.5316V5.62642H40.1303V4.05861H44.7997V4.83619C44.7997 6.22278 44.3734 7.32278 43.521 8.13619C42.6728 8.94959 41.5701 9.3563 40.213 9.3563Z" fill="black" fill-opacity="0.08"/>
<path d="M26.793 9.20459L26.7993 0.151733H28.9623L32.4548 5.47471H32.4675L32.4548 4.62759V0.151733H34.5986V9.20459H32.7156L28.9368 3.67299H28.9241L28.9368 4.50747V9.20459H26.793Z" fill="black" fill-opacity="0.08"/>
<path d="M22.6807 9.20459V0.151733H24.9518V9.20459H22.6807Z" fill="black" fill-opacity="0.08"/>
<path d="M13.7158 9.20459V0.151733H17.5328C18.5167 0.151733 19.3098 0.410928 19.912 0.929318C20.5185 1.44349 20.8217 2.14943 20.8217 3.04713V3.05345C20.8217 3.87529 20.5333 4.54962 19.9565 5.07643C19.384 5.59904 18.6206 5.86034 17.6664 5.86034H14.6573V4.27988H17.291C17.6939 4.27988 18.0099 4.17663 18.2389 3.97012C18.4722 3.7636 18.5888 3.47491 18.5888 3.10403V3.0977C18.5888 2.7479 18.4743 2.46763 18.2453 2.2569C18.0205 2.04617 17.7067 1.94081 17.3038 1.94081H15.9742V9.20459H13.7158ZM19.169 9.20459L16.5404 5.13333L18.8751 5.01954L21.6243 9.20459H19.169Z" fill="black" fill-opacity="0.08"/>
<path d="M9.60449 9.20459V0.151733H11.8756V9.20459H9.60449Z" fill="black" fill-opacity="0.08"/>
<path d="M5.61093 9.20459V0.151733H7.87565V9.20459H5.61093ZM0 9.20459V0.151733H2.25837V9.20459H0ZM1.13236 5.66436V3.63506H6.75601V5.66436H1.13236Z" fill="black" fill-opacity="0.08"/>
<path d="M46.1367 21.8483V12.7954H49.9537C50.9376 12.7954 51.7307 13.0546 52.3329 13.573C52.9394 14.0872 53.2426 14.7931 53.2426 15.6908V15.6971C53.2426 16.519 52.9542 17.1933 52.3774 17.7201C51.8049 18.2427 51.0415 18.504 50.0873 18.504H47.0782V16.9236H49.7119C50.1148 16.9236 50.4308 16.8203 50.6598 16.6138C50.8931 16.4073 51.0097 16.1186 51.0097 15.7477V15.7414C51.0097 15.3916 50.8952 15.1113 50.6662 14.9006C50.4414 14.6899 50.1276 14.5845 49.7247 14.5845H48.3951V21.8483H46.1367ZM51.455 21.8483L48.9613 17.777L51.296 17.6632L53.9996 21.8483H51.455Z" fill="black" fill-opacity="0.08"/>
<path d="M38.3711 21.8483V12.7954H44.7772V14.673H40.6295V19.996H44.8154V21.8483H38.3711ZM39.8979 18.1437V16.4621H44.3192V18.1437H39.8979Z" fill="black" fill-opacity="0.08"/>
<path d="M32.656 21.8483V13.769H34.9207V21.8483H32.656ZM30.0986 14.8247V12.7954H37.4336V14.8247H30.0986Z" fill="black" fill-opacity="0.08"/>
<path d="M21.249 21.8483L21.2554 12.7954H23.4183L26.9108 18.1184H26.9236L26.9108 17.2713V12.7954H29.0547V21.8483L27.1201 21.8548L23.3929 16.3583H23.3802L23.3929 17.1511V21.8483H21.249Z" fill="black" fill-opacity="0.08"/>
<path d="M13.9502 21.8483V12.7954H20.3563V14.673H16.2086V19.996H20.3945V21.8483H13.9502ZM15.477 18.1437V16.4621H19.8983V18.1437H15.477Z" fill="black" fill-opacity="0.08"/>
<path d="M9.32731 22.0001C7.93624 22.0001 6.79539 21.5639 5.90477 20.6915C5.01839 19.8191 4.5752 18.698 4.5752 17.3283C4.5752 15.9459 5.02687 14.8206 5.93021 13.9524C6.8378 13.08 7.97653 12.6438 9.34639 12.6438C9.82139 12.6438 10.254 12.6944 10.6442 12.7955C11.0386 12.8967 11.3991 13.0379 11.7256 13.2191C12.0522 13.4003 12.33 13.5963 12.559 13.807C12.788 14.0177 12.9025 14.1231 12.9025 14.1231L11.4584 15.7352C11.4584 15.7352 11.3906 15.6635 11.2549 15.5202C11.1234 15.3769 10.9665 15.2505 10.7841 15.1409C10.6017 15.0271 10.3982 14.9365 10.1734 14.8691C9.94862 14.7974 9.68992 14.7616 9.39728 14.7616C8.68903 14.7616 8.09528 14.9997 7.61604 15.476C7.1368 15.948 6.89718 16.5654 6.89718 17.3283C6.89718 18.0785 7.13044 18.6917 7.59695 19.1679C8.06347 19.64 8.65722 19.876 9.3782 19.876C9.6878 19.876 9.96347 19.8401 10.2052 19.7685C10.4512 19.6968 10.6696 19.5978 10.8605 19.4714C11.0555 19.3407 11.2167 19.2016 11.3439 19.0541C11.4712 18.9066 11.5348 18.8329 11.5348 18.8329L13.0552 20.2995C13.0552 20.2995 12.9407 20.426 12.7117 20.6788C12.4869 20.9275 12.2049 21.153 11.8656 21.3553C11.5305 21.5576 11.151 21.7156 10.7269 21.8294C10.307 21.9432 9.84048 22.0001 9.32731 22.0001Z" fill="black" fill-opacity="0.08"/>
</svg>
