<svg width="49" height="20" viewBox="0 0 49 20" fill="none" xmlns="http://www.w3.org/2000/svg">
<path d="M36.4885 8.50558C35.2801 8.50558 34.2641 8.10329 33.4405 7.29871C32.6208 6.49413 32.2109 5.48074 32.2109 4.25854C32.2109 3.01335 32.6189 1.9923 33.4347 1.19538C34.2545 0.39846 35.2781 0 36.5058 0C36.9753 0 37.3871 0.0459762 37.7411 0.137929C38.099 0.229881 38.4204 0.354399 38.7052 0.511484C38.9938 0.668569 39.2362 0.842896 39.4325 1.03446C39.6288 1.2222 39.7269 1.31607 39.7269 1.31607L38.48 2.70684C38.48 2.70684 38.4108 2.64171 38.2722 2.51145C38.1337 2.37735 37.9797 2.26241 37.8104 2.16663C37.6449 2.07084 37.4563 1.99421 37.2447 1.93674C37.033 1.87927 36.7944 1.85054 36.5289 1.85054C35.8631 1.85054 35.3032 2.07467 34.849 2.52294C34.3949 2.96738 34.1679 3.56698 34.1679 4.32176C34.1679 5.02672 34.3911 5.60526 34.8375 6.05735C35.2839 6.50562 35.8631 6.72975 36.5751 6.72975C37.2678 6.72975 37.7912 6.56501 38.1452 6.23551C38.5031 5.90602 38.7109 5.50372 38.7687 5.02864V5.11484H36.4134V3.68958H40.6505V4.39647C40.6505 5.65698 40.2638 6.65696 39.4902 7.39641C38.7206 8.13586 37.72 8.50558 36.4885 8.50558Z" fill="#CDD2DC"/>
<path d="M24.3125 8.3684L24.3183 0.138672H26.281L29.4502 4.97766H29.4617L29.4502 4.20756V0.138672H31.3955V8.3684H29.6868L26.2579 3.33976H26.2463L26.2579 4.09837V8.3684H24.3125Z" fill="#CDD2DC"/>
<path d="M20.5801 8.3684V0.138672H22.6409V8.3684H20.5801Z" fill="#CDD2DC"/>
<path d="M12.4473 8.3684V0.138672H15.9109C16.8037 0.138672 17.5233 0.3743 18.0698 0.845555C18.6201 1.31298 18.8953 1.95473 18.8953 2.7708V2.77655C18.8953 3.52366 18.6336 4.13668 18.1102 4.6156C17.5907 5.09068 16.898 5.32823 16.0321 5.32823H13.3016V3.89147H15.6915C16.0571 3.89147 16.3438 3.7976 16.5516 3.60987C16.7633 3.42213 16.8691 3.15969 16.8691 2.82253V2.81678C16.8691 2.49878 16.7652 2.24399 16.5574 2.05243C16.3534 1.86086 16.0686 1.76508 15.703 1.76508H14.4966V8.3684H12.4473ZM17.3956 8.3684L15.0103 4.66732L17.1289 4.56387L19.6236 8.3684H17.3956Z" fill="#CDD2DC"/>
<path d="M8.71484 8.3684V0.138672H10.7757V8.3684H8.71484Z" fill="#CDD2DC"/>
<path d="M5.09147 8.3684V0.138672H7.14654V8.3684H5.09147ZM0 8.3684V0.138672H2.04929V8.3684H0ZM1.02753 5.15007V3.30528H6.13055V5.15007H1.02753Z" fill="#CDD2DC"/>
<path d="M41.8652 19.8606V11.6309H45.3288C46.2217 11.6309 46.9413 11.8665 47.4878 12.3377C48.0381 12.8052 48.3133 13.4469 48.3133 14.263V14.2687C48.3133 15.0159 48.0516 15.6289 47.5282 16.1078C47.0087 16.5829 46.3159 16.8204 45.45 16.8204H42.7196V15.3837H45.1095C45.4751 15.3837 45.7618 15.2898 45.9696 15.1021C46.1812 14.9143 46.2871 14.6519 46.2871 14.3147V14.309C46.2871 13.991 46.1832 13.7362 45.9754 13.5446C45.7714 13.353 45.4866 13.2573 45.121 13.2573H43.9145V19.8606H41.8652ZM46.6912 19.8606L44.4283 16.1595L46.5468 16.0561L49.0002 19.8606H46.6912Z" fill="#CDD2DC"/>
<path d="M34.8184 19.8606V11.6309H40.6314V13.3377H36.8676V18.1767H40.666V19.8606H34.8184ZM36.2038 16.4928V14.9641H40.2158V16.4928H36.2038Z" fill="#CDD2DC"/>
<path d="M29.6331 19.8606V12.5159H31.6882V19.8606H29.6331ZM27.3125 13.4757V11.6309H33.9684V13.4757H27.3125Z" fill="#CDD2DC"/>
<path d="M19.2812 19.8606L19.287 11.6309H21.2497L24.4189 16.4698H24.4305L24.4189 15.6997V11.6309H26.3643V19.8606L24.6088 19.8665L21.2266 14.8698H21.2151L21.2266 15.5906V19.8606H19.2812Z" fill="#CDD2DC"/>
<path d="M12.6582 19.8606V11.6309H18.4713V13.3377H14.7075V18.1767H18.5059V19.8606H12.6582ZM14.0436 16.4928V14.9641H18.0556V16.4928H14.0436Z" fill="#CDD2DC"/>
<path d="M8.46451 19.9997C7.20222 19.9997 6.167 19.6032 5.35883 18.8101C4.5545 18.017 4.15234 16.9979 4.15234 15.7527C4.15234 14.496 4.5622 13.473 5.38192 12.6838C6.20548 11.8907 7.23879 11.4941 8.48183 11.4941C8.91285 11.4941 9.30539 11.5401 9.65945 11.6321C10.0174 11.724 10.3445 11.8524 10.6408 12.0171C10.9371 12.1819 11.1892 12.36 11.397 12.5516C11.6048 12.7432 11.7087 12.8389 11.7087 12.8389L10.3983 14.3044C10.3983 14.3044 10.3368 14.2393 10.2136 14.109C10.0943 13.9788 9.95193 13.8638 9.78645 13.7642C9.62096 13.6608 9.43624 13.5784 9.23227 13.5171C9.02831 13.452 8.79355 13.4194 8.52801 13.4194C7.88532 13.4194 7.34654 13.6359 6.91167 14.0688C6.4768 14.4979 6.25936 15.0592 6.25936 15.7527C6.25936 16.4347 6.47102 16.9921 6.89435 17.4251C7.31768 17.8542 7.85646 18.0687 8.51069 18.0687C8.79163 18.0687 9.04177 18.0362 9.26113 17.971C9.48434 17.9059 9.68254 17.8159 9.85572 17.7009C10.0327 17.5821 10.179 17.4557 10.2944 17.3216C10.4099 17.1875 10.4676 17.1205 10.4676 17.1205L11.8473 18.4538C11.8473 18.4538 11.7434 18.5687 11.5356 18.7986C11.3316 19.0246 11.0757 19.2296 10.7678 19.4135C10.4638 19.5974 10.1193 19.7411 9.73449 19.8446C9.3535 19.948 8.93017 19.9997 8.46451 19.9997Z" fill="#CDD2DC"/>
</svg>
