<svg width="84" height="14" viewBox="0 0 84 14" fill="none" xmlns="http://www.w3.org/2000/svg">
<path d="M17.1786 0H15.3747C13.2642 0 11.5527 1.72878 11.5527 3.8606V10.1373C11.5527 12.2691 13.2642 13.9979 15.3747 13.9979H17.1786C19.2891 13.9979 21.0006 12.2691 21.0006 10.1373V3.8606C21.0006 1.72878 19.2891 0 17.1786 0ZM18.0606 10.1373C18.0606 10.9836 17.3823 11.6688 16.5444 11.6688H16.0047C15.1689 11.6688 14.4885 10.9836 14.4885 10.1373V3.86485C14.4885 3.01849 15.1668 2.33333 16.0047 2.33333H16.5444C17.3802 2.33333 18.0606 3.01849 18.0606 3.86485V10.1373Z" fill="#083CCC"/>
<path d="M48.4689 0H46.4529C44.3424 0 42.6309 1.72878 42.6309 3.8606V10.1394C42.6309 12.2712 44.3424 14 46.4529 14H48.4689C50.5794 14 52.2909 12.2712 52.2909 10.1394V3.8606C52.2909 1.72878 50.5794 0 48.4689 0ZM49.3509 10.1394C49.3509 10.9836 48.6747 11.6667 47.8389 11.6667H47.085C46.2492 11.6667 45.573 10.9836 45.573 10.1394V3.86273C45.573 3.01848 46.2492 2.33545 47.085 2.33545H47.8389C48.6747 2.33545 49.3509 3.01848 49.3509 3.86273V10.1394Z" fill="#083CCC"/>
<path d="M72.4508 2.96971V0.424255H66.9908H64.0508V2.96971V5.51516V8.06062V11.0303V13.5758H66.9908H72.4508V11.0303H66.9908V8.06062H72.0077V5.51516H66.9908V2.96971H72.4508Z" fill="#083CCC"/>
<path d="M29.6476 6.6691C30.5002 6.20243 31.0798 5.29032 31.0798 4.24244V3.39395C31.0798 1.75426 29.7631 0.424255 28.1398 0.424255H22.2598V13.5758H28.3498C30.0886 13.5758 31.4998 12.1503 31.4998 10.394V9.12122C31.4998 7.94819 30.7144 6.96395 29.6476 6.6691ZM25.1998 2.54547H27.0898C27.6694 2.54547 28.1398 3.02062 28.1398 3.60607V4.25728C28.1398 4.69425 27.8752 5.08668 27.472 5.24577L25.1998 6.14092V2.54547ZM28.5598 10.394C28.5598 10.9794 28.0894 11.4546 27.5098 11.4546H25.1998V8.50819L27.1339 7.7594C27.8206 7.49425 28.5598 8.00547 28.5598 8.75001V10.394Z" fill="#083CCC"/>
<path d="M42.6298 0.424255H39.6898L35.6998 6.10274V0.424255H32.7598V13.5758H35.6998V7.89728L39.6898 13.5758H42.6298L38.2198 7.00001L42.6298 0.424255Z" fill="#083CCC"/>
<path d="M10.92 0.424255H3.78V2.97183H6.3V11.4503H2.94V8.53153H0V10.1755C0 12.2861 1.6926 13.9979 3.78 13.9979H5.46C7.5474 13.9979 9.24 12.2861 9.24 10.1755V2.97183H10.92V0.424255Z" fill="#083CCC"/>
<path d="M81.2691 13.5758H83.9991L82.7034 7.77637L81.0591 0.424255H76.2291L73.2891 13.5758H76.0191L76.7772 10.1818H80.5089L81.267 13.5758H81.2691ZM77.3463 7.63638L78.39 2.96971H78.8982L79.9419 7.63638H77.3484H77.3463Z" fill="#083CCC"/>
<path d="M61.1948 8.48698C61.0541 8.13486 60.821 7.84001 60.5333 7.62153C61.6421 7.16759 62.3708 6.0794 62.3708 4.87031V3.39395C62.3708 1.75426 61.0541 0.424255 59.4308 0.424255H53.5508V13.5758H56.4908V9.24638L58.2737 8.5294L60.2708 13.5736H63.2108L61.1948 8.48486V8.48698ZM59.6408 4.91062C59.6408 5.35183 59.3699 5.74849 58.9604 5.90334L56.4908 6.84304V2.54547H58.5908C59.1704 2.54547 59.6408 3.02062 59.6408 3.60607V4.91062Z" fill="#083CCC"/>
</svg>
