<svg width="64" height="64" viewBox="0 0 64 64" fill="none" xmlns="http://www.w3.org/2000/svg">
<rect width="64" height="64" rx="12" fill="white" fill-opacity="0.3"/>
<g clip-path="url(#clip0_1245_10763)">
<path d="M21.8544 32.1305H42.144C42.8235 32.1305 43.3734 32.6813 43.3734 33.3599V45.1706C43.3734 45.8501 42.8226 46.4 42.144 46.4H21.8544C21.1749 46.4 20.625 45.8492 20.625 45.1706V33.3599C20.625 32.6804 21.1758 32.1305 21.8544 32.1305Z" fill="#424F57"/>
<path d="M43.5598 29.219H20.4388C19.9149 29.219 19.4902 29.6437 19.4902 30.1676V34.1816C19.4902 34.7055 19.9149 35.1302 20.4388 35.1302H43.5598C44.0837 35.1302 44.5084 34.7055 44.5084 34.1816V30.1676C44.5084 29.6437 44.0837 29.219 43.5598 29.219Z" fill="#424F57"/>
<path d="M23.7164 17.6H40.2818C40.9001 17.6 41.4005 18.1013 41.4005 18.7187V30.4988C41.4005 31.1171 40.8992 31.6175 40.2818 31.6175H23.7164C23.0981 31.6175 22.5977 31.1162 22.5977 30.4988V18.7187C22.5977 18.1004 23.099 17.6 23.7164 17.6Z" fill="#E5E9EE"/>
<path d="M28.0846 24.3157C29.0762 24.3157 29.8801 23.5119 29.8801 22.5202C29.8801 21.5286 29.0762 20.7247 28.0846 20.7247C27.0929 20.7247 26.2891 21.5286 26.2891 22.5202C26.2891 23.5119 27.0929 24.3157 28.0846 24.3157Z" fill="#64A7FF"/>
<path d="M28.0836 25.0961C30.5406 25.0961 31.4856 26.7971 31.4856 27.5531C31.4856 28.3091 29.5011 28.4981 28.0836 28.4981C26.6661 28.4981 24.6816 28.3091 24.6816 27.5531C24.6816 26.7026 25.6266 25.0961 28.0836 25.0961Z" fill="#64A7FF"/>
<path d="M38.9 22.586H33.4892C33.1715 22.586 32.9141 22.3286 32.9141 22.0109C32.9141 21.6932 33.1715 21.4358 33.4892 21.4358H38.9C39.2177 21.4358 39.4751 21.6932 39.4751 22.0109C39.4751 22.3286 39.2177 22.586 38.9 22.586Z" fill="#D0D5DA"/>
<path d="M38.8998 25.1843H35.2313C34.9136 25.1843 34.6562 24.9269 34.6562 24.6092C34.6562 24.2915 34.9136 24.0341 35.2313 24.0341H38.8998C39.2175 24.0341 39.4749 24.2915 39.4749 24.6092C39.4749 24.9269 39.2175 25.1843 38.8998 25.1843Z" fill="#D0D5DA"/>
<path d="M38.8998 27.7808H35.2313C34.9136 27.7808 34.6562 27.5234 34.6562 27.2057C34.6562 26.888 34.9136 26.6306 35.2313 26.6306H38.8998C39.2175 26.6306 39.4749 26.888 39.4749 27.2057C39.4749 27.5234 39.2175 27.7808 38.8998 27.7808Z" fill="#D0D5DA"/>
<path d="M23.7164 32.7308H40.2818C40.9001 32.7308 41.4005 33.2321 41.4005 33.8495V42.7847C41.4005 43.403 40.8992 43.9034 40.2818 43.9034H23.7164C23.0981 43.9034 22.5977 43.4021 22.5977 42.7847V33.8495C22.5977 33.2312 23.099 32.7308 23.7164 32.7308Z" fill="#AFB7C0"/>
<path d="M23.7164 32.7308H40.2818C40.9001 32.7308 41.4005 33.2321 41.4005 33.8495V40.8875C41.4005 41.5058 40.8992 42.0062 40.2818 42.0062H23.7164C23.0981 42.0062 22.5977 41.5049 22.5977 40.8875V33.8495C22.5977 33.2312 23.099 32.7308 23.7164 32.7308Z" fill="#E5E9EE"/>
<path d="M26.5489 34.0349C26.1556 34.0349 25.8379 33.7163 25.8379 33.3239V31.0244C25.8379 30.6311 26.1565 30.3134 26.5489 30.3134C26.9413 30.3134 27.2599 30.632 27.2599 31.0244V33.3239C27.2599 33.7172 26.9413 34.0349 26.5489 34.0349Z" fill="#8595AA"/>
<path d="M37.4512 34.0349C37.0579 34.0349 36.7402 33.7163 36.7402 33.3239V31.0244C36.7402 30.6311 37.0588 30.3134 37.4512 30.3134C37.8436 30.3134 38.1622 30.632 38.1622 31.0244V33.3239C38.1622 33.7172 37.8436 34.0349 37.4512 34.0349Z" fill="#8595AA"/>
</g>
<defs>
<clipPath id="clip0_1245_10763">
<rect width="36" height="36" fill="white" transform="translate(14 14)"/>
</clipPath>
</defs>
</svg>
