<svg width="64" height="64" viewBox="0 0 64 64" fill="none" xmlns="http://www.w3.org/2000/svg">
<rect width="64" height="64" rx="12" fill="white" fill-opacity="0.3"/>
<g clip-path="url(#clip0_1245_10753)">
<path d="M31.9996 15.2672C34.1227 15.2672 34.0822 16.0448 35.5123 16.1204C36.9424 16.1969 37.6903 15.7469 38.656 15.8891C39.3274 15.9881 39.8323 16.2878 40.1815 16.5821C40.5631 16.9043 40.6261 17.465 40.3219 17.861L36.9955 22.1828C36.6994 22.5347 36.7354 23.0558 37.0828 23.3564C42.2596 27.8411 48.6496 33.2348 48.6496 38.0777C48.6496 46.2155 41.9698 48.7337 31.9996 48.7337C22.0294 48.7337 15.3496 46.2155 15.3496 38.0777C15.3496 33.2357 21.7396 27.8411 26.9164 23.3564C27.2638 23.0558 27.2998 22.5338 27.0037 22.1828L23.6773 17.861C23.3731 17.465 23.4361 16.9043 23.8177 16.5821C24.1669 16.2878 24.6718 15.9881 25.3432 15.8891C26.3089 15.7469 27.0577 16.1969 28.4869 16.1204C29.917 16.0439 29.8765 15.2672 31.9996 15.2672Z" fill="#96B1FD"/>
<path d="M32.0736 24.2465C30.3267 24.2465 28.5762 24.0827 26.868 23.7569C26.3235 23.6525 25.9671 23.1269 26.0706 22.5824C26.175 22.0379 26.7015 21.6788 27.2451 21.7841C30.4122 22.388 33.7413 22.3907 36.8724 21.7841C37.416 21.6752 37.9434 22.0343 38.0487 22.5788C38.154 23.1233 37.7976 23.6498 37.2531 23.7551C35.5638 24.0818 33.8214 24.2456 32.0736 24.2456V24.2465Z" fill="#0057FF"/>
<path d="M32.2158 42.7326C29.9046 42.7326 28.1451 41.3646 27.4089 40.4259C26.9796 39.8778 27.0759 39.0858 27.624 38.6565C28.1694 38.2299 28.956 38.3226 29.3871 38.8644C29.5617 39.0795 31.1421 40.9173 33.6198 39.9273C34.2219 39.687 34.4964 39.2514 34.4559 38.9445C34.3947 38.4756 33.6135 37.9149 32.0079 37.7223C28.0479 37.2471 27.4512 35.0025 27.3621 34.3248C27.1623 32.7948 28.1271 31.3278 29.7633 30.6744C33.0735 29.355 35.4891 31.128 36.3738 31.9515C36.8832 32.4249 36.9111 33.2232 36.4368 33.7326C35.9616 34.2411 35.166 34.2699 34.6557 33.7956C33.8466 33.0414 32.502 32.2953 30.6966 33.0162C30.0945 33.2565 29.82 33.6921 29.8605 33.999C29.9217 34.4679 30.702 35.0286 32.3076 35.2212C36.2676 35.6964 36.8643 37.941 36.9534 38.6178C37.1541 40.1478 36.1884 41.6148 34.5531 42.2682C33.7287 42.5967 32.9439 42.7335 32.2149 42.7335L32.2158 42.7326Z" fill="#FFFAF1"/>
<path d="M32.1584 32.7237C31.4627 32.7237 30.8984 32.1603 30.8984 31.4646V29.6682C30.8984 28.9725 31.4627 28.4091 32.1584 28.4091C32.8541 28.4091 33.4184 28.9725 33.4184 29.6682V31.4646C33.4184 32.1603 32.8541 32.7237 32.1584 32.7237Z" fill="#FFFAF1"/>
<path d="M32.1584 44.5343C31.4627 44.5343 30.8984 43.9709 30.8984 43.2752V41.4788C30.8984 40.7831 31.4627 40.2197 32.1584 40.2197C32.8541 40.2197 33.4184 40.7831 33.4184 41.4788V43.2752C33.4184 43.9709 32.8541 44.5343 32.1584 44.5343Z" fill="#FFFAF1"/>
</g>
<defs>
<clipPath id="clip0_1245_10753">
<rect width="36" height="36" fill="white" transform="translate(14 14)"/>
</clipPath>
</defs>
</svg>
