<svg width="64" height="64" viewBox="0 0 64 64" fill="none" xmlns="http://www.w3.org/2000/svg">
<rect width="64" height="64" rx="12" fill="white" fill-opacity="0.3"/>
<path d="M41.0581 18.5119L48.0745 30.4749C48.6244 31.4128 48.6424 32.5745 48.1223 33.5287L47.1551 35.3035C46.8369 35.8884 46.3051 36.3268 45.6723 36.5224C41.3249 37.8624 38.1529 35.3262 35.7867 31.4583L35.6151 31.1783C35.4987 30.9884 35.5598 30.7401 35.751 30.6259L38.7981 28.806C39.0892 28.6321 39.0455 28.1975 38.7256 28.0852L28.0515 24.3355C27.7001 24.212 27.3223 24.4352 27.2609 24.8025L25.3786 36.0509C25.3224 36.3871 25.6855 36.6351 25.9782 36.4604L28.7207 34.8229C28.8891 34.7224 29.1053 34.7594 29.2349 34.9066C33.2242 39.4393 39.6342 41.3433 44.886 38.6477C45.0671 38.5548 45.2737 38.7563 45.1764 38.9351L41.6593 45.3935C41.123 46.3778 40.0981 46.99 38.9858 46.9909L25.5713 47C24.4923 47.0009 23.4918 46.426 22.9419 45.4881L15.9255 33.5242C15.3756 32.5863 15.3576 31.4246 15.8777 30.4704L22.3389 18.6065C22.8752 17.6222 23.9001 17.0109 25.0133 17.0091L38.4287 17C39.5077 16.9991 40.5082 17.574 41.0581 18.5119Z" fill="#CCDCFF"/>
</svg>
